<?xml version="1.0" encoding="utf-8"?>
<!-- Generator: Adobe Illustrator 20.1.0, SVG Export Plug-In . SVG Version: 6.00 Build 0)  -->
<svg version="1.1" id="Layer_1" xmlns="http://www.w3.org/2000/svg" xmlns:xlink="http://www.w3.org/1999/xlink" x="0px" y="0px"
	 viewBox="0 0 18 15" style="enable-background:new 0 0 18 15;" xml:space="preserve">
<style type="text/css">
	.st0{clip-path:url(#SVGID_2_);}
	.st1{clip-path:url(#SVGID_4_);fill:#1D1D1B;}
	.st2{clip-path:url(#SVGID_6_);}
	.st3{clip-path:url(#SVGID_8_);fill:#FAFAFA;}
</style>
<g>
	<defs>
		<path id="SVGID_1_" d="M16.5,3.8c0-0.6-0.2-1.2-0.7-1.7c-0.9-0.9-2.3-0.9-3.2-0.1c0,0,0,0-0.1,0.1L7,7.8L5.4,6.2
			c-0.9-0.9-2.4-0.9-3.3,0c-0.4,0.4-0.7,1-0.7,1.7s0.2,1.2,0.7,1.7l3.2,3.2c0,0,0,0,0,0c0.4,0.4,1,0.7,1.6,0.7
			c0.5,0,1.1-0.2,1.5-0.5c0.1,0,0.1-0.1,0.2-0.2c0,0,0,0,0,0l7.2-7.3c0,0,0,0,0,0C16.3,5,16.5,4.5,16.5,3.8 M3.3,7.4
			c0.3-0.3,0.8-0.3,1.1,0l2.1,2.1c0,0,0,0,0.1,0.1C6.7,9.7,6.8,9.7,7,9.7s0.3-0.1,0.5-0.2c0,0,0,0,0.1-0.1l6.1-6.2c0,0,0,0,0,0
			C14,3,14.4,3,14.7,3.3c0.1,0.1,0.2,0.3,0.2,0.5c0,0.2-0.1,0.4-0.2,0.5c0,0,0,0,0,0l-7.2,7.3c-0.1,0.1-0.3,0.2-0.5,0.2
			c-0.2,0-0.4-0.1-0.5-0.2L3.3,8.4C3.1,8.3,3.1,8.1,3.1,7.9C3.1,7.7,3.1,7.5,3.3,7.4"/>
	</defs>
	<clipPath id="SVGID_2_">
		<use xlink:href="#SVGID_1_"  style="overflow:visible;"/>
	</clipPath>
	<g class="st0">
		<defs>
			<rect id="SVGID_3_" x="-112.7" y="-687.1" width="1190.6" height="1885.3"/>
		</defs>
		<clipPath id="SVGID_4_">
			<use xlink:href="#SVGID_3_"  style="overflow:visible;"/>
		</clipPath>
		<rect x="-3.4" y="-3.5" class="st1" width="24.8" height="21.9"/>
	</g>
</g>
<g>
	<defs>
		<path id="SVGID_5_" d="M3.3,7.4c0.3-0.3,0.8-0.3,1.1,0l2.1,2.1c0,0,0,0,0.1,0.1C6.7,9.7,6.8,9.7,7,9.7s0.3-0.1,0.5-0.2
			c0,0,0,0,0.1-0.1l6.1-6.2c0,0,0,0,0,0C14,3,14.4,3,14.7,3.3c0.1,0.1,0.2,0.3,0.2,0.5c0,0.2-0.1,0.4-0.2,0.5c0,0,0,0,0,0l-7.2,7.3
			c-0.1,0.1-0.3,0.2-0.5,0.2c-0.2,0-0.4-0.1-0.5-0.2L3.3,8.4C3.1,8.3,3.1,8.1,3.1,7.9C3.1,7.7,3.1,7.5,3.3,7.4"/>
	</defs>
	<clipPath id="SVGID_6_">
		<use xlink:href="#SVGID_5_"  style="overflow:visible;"/>
	</clipPath>
	<g class="st2">
		<defs>
			<rect id="SVGID_7_" x="-112.7" y="-687.1" width="1190.6" height="1885.3"/>
		</defs>
		<clipPath id="SVGID_8_">
			<use xlink:href="#SVGID_7_"  style="overflow:visible;"/>
		</clipPath>
		<rect x="-1.8" y="-1.9" class="st3" width="21.7" height="18.8"/>
	</g>
</g>
</svg>
