<?xml version="1.0" encoding="utf-8"?>
<!-- Generator: Adobe Illustrator 21.0.0, SVG Export Plug-In . SVG Version: 6.00 Build 0)  -->
<svg version="1.1" id="Layer_1" xmlns="http://www.w3.org/2000/svg" xmlns:xlink="http://www.w3.org/1999/xlink" x="0px" y="0px"
	 viewBox="0 0 107 40" style="enable-background:new 0 0 107 40;" xml:space="preserve">
<g>
	<g>
		<path d="M34.3,4.9v0.8c-1.1-0.6-2.2-0.9-3.3-0.9c-1.1,0-2.1,0.4-2.8,1.2C27.4,6.7,27,7.7,27,8.8c0,1.2,0.4,2.1,1.2,2.9
			c0.8,0.8,1.8,1.1,2.9,1.1c1,0,2.1-0.3,3.3-0.9v0.7c-1.1,0.6-2.2,0.9-3.2,0.9c-1.4,0-2.6-0.4-3.5-1.3c-0.9-0.9-1.4-2-1.4-3.3
			c0-1.3,0.5-2.5,1.4-3.4c0.9-0.9,2.1-1.3,3.4-1.3C32.1,4.1,33.2,4.4,34.3,4.9z"/>
		<path d="M35.7,4.2h2.3c1,0,1.7,0.2,2.3,0.6c0.5,0.4,0.8,1,0.8,1.7c0,1.1-0.6,1.8-1.7,2.2c0.3,0.1,0.7,0.6,1.2,1.4l2.1,3.2h-0.8
			l-1.6-2.5C39.7,10,39.3,9.5,39,9.3C38.7,9.1,38.3,9,37.7,9h-1.2v4.4h-0.7V4.2z M36.4,4.8v3.6H38c0.8,0,1.4-0.2,1.8-0.5
			c0.4-0.3,0.6-0.8,0.6-1.3c0-0.6-0.2-1-0.6-1.3s-1-0.5-1.8-0.5H36.4z"/>
		<path d="M47,4.2l4.2,9.2h-0.7l-1.4-3.2h-4.5l-1.4,3.2h-0.7l4.2-9.2H47z M48.8,9.6l-2-4.3l-2,4.3H48.8z"/>
		<path d="M57.1,4.2v0.6h-4v3.5h3.6v0.6h-3.6v4.5h-0.7V4.2H57.1z"/>
		<path d="M64.8,4.2v0.6h-3.4v8.6h-0.7V4.8h-3.4V4.2H64.8z"/>
		<path d="M71,4.2v0.6h-4.3v3.7h4.2v0.6h-4.2v3.7h4.4v0.6H66V4.2H71z"/>
		<path d="M72.5,4.2h3.2c1.6,0,2.9,0.4,3.7,1.3c0.9,0.9,1.3,2,1.3,3.3c0,1.3-0.4,2.4-1.3,3.3c-0.8,0.9-2,1.3-3.6,1.3h-3.3V4.2z
			 M73.2,4.8v8h2.6c1.2,0,2.2-0.4,3-1.1C79.6,11,80,10,80,8.8c0-1.2-0.4-2.1-1.2-2.9s-1.8-1.1-3-1.1H73.2z"/>
	</g>
	<g>
		<path d="M31.2,20.3l1.6-0.9c-0.5-2-4.5-3.8-7.4,1.2L18.9,32c-2.1,3.6-4.8,3-3.6,0.9l8.4-14.5h-2.5l-7.4,12.9
			c-3.1,4.9-5.2,3.7-3.5,0.8l7.1-12.2L16,17.6c-4.7,3.2-12.5,2.7-12.5,7.8c0,1.7,1.3,2.9,2.6,3.4L7,27.2c0,0-1.3-0.5-1.3-1.7
			c0-3.1,5.5-3.5,8.7-5.1L8,31.4c-2.2,3.8,1.3,6.5,5,2.5c0.5,2.8,5.5,3.1,8.3-1.9l6.1-10.7C28.9,18.9,30.5,18.7,31.2,20.3z"/>
		<path d="M82.2,22.3c0.8,0,1.5-0.6,1.5-1.4c0-0.8-0.6-1.5-1.5-1.5c-0.8,0-1.4,0.6-1.4,1.5C80.7,21.7,81.4,22.3,82.2,22.3z"/>
		<path d="M102.6,30.3l-0.2,0.2c-1.8,2.1-4.1,3.7-5.8,3.7c-1.5,0-2.4-1-1.3-3l0.2-0.4c1.6,0.7,4.6,0.4,6.5-2.9l0.4-0.6
			c1.3-2.3,0-4-2-4c-2,0-3.6,1-4.7,2.9l-2.4,4.2l-0.1,0.1c-1.8,2.1-3.5,3.7-4.6,3.7c-0.5,0-0.9-0.4-0.3-1.4l8.4-14.5h-2.5l-3.6,6.3
			c-0.4-0.7-1.2-1.3-2.3-1.3c-1.3,0-3.2,1-4.2,2.9l-2.4,4.1c0,0,0,0,0,0l-0.2,0.2c-1.8,2.1-3.5,3.7-4.6,3.7c-0.5,0-0.9-0.4-0.3-1.4
			l5.3-9.3h-2.5l-3.9,6.7l-0.2,0.2c-1.1,1.2-2.6,1.8-3.8,1.8c1.8-2.4,3.2-5.8,4.2-8.8h-1.6c-1,2.9-2.2,5.3-3.4,7
			c-0.2-0.1-0.4-0.1-0.6-0.1c-0.8,0-1.5,0.7-1.5,1.5c0,0.3,0.1,0.6,0.3,0.9c-0.9,0.9-1.7,1.4-2.3,1.4c-0.5,0-0.9-0.4-0.3-1.4
			l5.3-9.3h-2.5l-4.1,7c-1.5,2.4-3,3.6-4.1,3.6c-0.5,0-0.9-0.4-0.3-1.4l5.3-9.3h-2.5l-3.9,6.7c0,0,0,0,0,0l-0.2,0.2
			c-1.8,2.1-3.5,3.7-4.6,3.7c-0.5,0-0.9-0.4-0.3-1.4L63,18.4h-2.5l-3.6,6.3c-0.4-0.7-1.2-1.3-2.3-1.3c-1.3,0-3.2,1-4.2,2.9L48,30.3
			c0,0,0,0,0,0l-0.2,0.2c-1.8,2.1-3.5,3.7-4.6,3.7c-0.5,0-0.9-0.4-0.3-1.4l8.4-14.5h-2.5l-8,13.9c-0.2,0.4-0.3,0.8-0.4,1.1
			c-0.7,0.5-1.3,0.9-1.8,0.9c-0.5,0-0.9-0.4-0.3-1.4l2.5-4.3c0.9-1.5,0.5-2.4-0.4-3.4L39,23.5c-0.4-0.5-0.4-1,0.1-1.4l-1.3-1.4
			c-1.4,1.3-1.5,2.7-0.6,3.8l0.2,0.3c-0.9,1.3-2.1,3-3.5,4.7l0,0c-1.1,1.2-1.9,2.9-3.1,2.9l2.3-4c1.5-2.6,0.1-5.1-2.2-5.1
			c-1.9,0-3.4,0.8-4.8,3.2l-1.2,2.1l-1.1,1.8c-3.1,5.4,2.9,7.3,6.2,3.1h0.5c1.4,0,3.2-1.8,4.4-3.4c0.9-1.1,1.8-2.3,3.3-4.4l0.3,0.4
			c0.3,0.4,0.4,0.9,0.1,1.4l-2.6,4.6c-1.1,1.8-0.3,3.5,1.7,3.5c0.9,0,1.8-0.4,2.6-1.1c0.3,0.7,1,1.1,2,1.1c1.3,0,2.6-0.8,4-2
			c0,1.2,0.7,2,2.2,2c1,0,2.2-0.6,3.4-1.6c0.1,1,0.9,1.6,2.1,1.6c1.3,0,2.6-0.8,4-2c0,1.1,0.7,2,2.2,2c1,0,2.2-0.6,3.4-1.6
			c0.1,0.9,0.9,1.6,2.2,1.6c1.7,0,3.3-0.9,4.6-2.2c0.3,0,0.6,0,0.9,0c0.8,0,1.8-0.3,2.7-0.7c-0.6,1.6,0.2,2.9,2,2.9
			c1.3,0,2.6-0.8,4-2c0,1.2,0.7,2,2.2,2c1,0,2.2-0.6,3.4-1.6c0.1,1,0.9,1.6,2.1,1.6c1.5,0,3.1-1.1,4.7-2.7c0.1,1.5,1.4,2.7,3.4,2.7
			c2.8,0,5.6-2.2,7.7-4.6C103.3,30.9,102.9,30.5,102.6,30.3z M97.8,26.9c1.4-2.5,4-2.1,2.5,0.5L100,28c-1.2,2-2.8,2-3.7,1.6
			L97.8,26.9z M29.4,30.5h-0.1c-0.8,0-1.5,0.7-1.5,1.5c0,0.3,0.1,0.6,0.2,0.8l0,0c-1.2,2-4,1.6-2.5-1l1.9-3.3l1.2-2
			c1.7-3,4.1-1.8,2.6,0.8L29.4,30.5z M53.4,30.6c-1.5,2.5-3,3.6-4.1,3.6c-0.5,0-0.9-0.4-0.3-1.4l3.5-6c1.3-2.3,4-1.7,2.8,0.5h0
			L53.4,30.6z M87,30.6c-1.5,2.5-3,3.6-4.1,3.6c-0.5,0-0.9-0.4-0.3-1.4l3.5-6c1.3-2.3,4-1.7,2.8,0.5h0L87,30.6z"/>
	</g>
</g>
</svg>
