<svg xmlns="http://www.w3.org/2000/svg" width="64" height="45" viewBox="0 0 64 45">
    <g fill="none" fill-rule="evenodd">
        <path fill="#D9252A" d="M62.663 7.027a8.032 8.032 0 0 0-5.659-5.684C52.014 0 32 0 32 0S11.987 0 6.996 1.343a8.033 8.033 0 0 0-5.659 5.684C0 12.04 0 22.5 0 22.5s0 10.46 1.337 15.473a8.034 8.034 0 0 0 5.659 5.684C11.986 45 32 45 32 45s20.013 0 25.004-1.343a8.034 8.034 0 0 0 5.659-5.684C64 32.96 64 22.5 64 22.5s0-10.46-1.337-15.473"/>
        <path fill="#FFFFFE" d="M25 32l17-9.5L25 13v19"/>
    </g>
</svg>
