<?xml version="1.0" encoding="UTF-8"?>
<svg width="138px" height="100px" viewBox="0 0 138 100" version="1.1" xmlns="http://www.w3.org/2000/svg" xmlns:xlink="http://www.w3.org/1999/xlink">
    <!-- Generator: Sketch 47.1 (45422) - http://www.bohemiancoding.com/sketch -->
    <title>manual-store</title>
    <desc>Created with Sketch.</desc>
    <defs></defs>
    <g id="Page-1" stroke="none" stroke-width="1" fill="none" fill-rule="evenodd">
        <g id="Stores---Zero-state" transform="translate(-957.000000, -434.000000)">
            <g id="Group-Copy-3" transform="translate(869.000000, 367.000000)">
                <g id="manual-store" transform="translate(88.000000, 66.000000)">
                    <path d="M68.9384,44.6787 C56.6764,44.6787 46.5054,53.6187 44.8364,65.2037 C44.7514,65.7977 45.2324,66.3257 45.8334,66.3257 C46.3344,66.3257 46.7454,65.9517 46.8174,65.4557 C48.3614,54.8557 57.6934,46.6787 68.9384,46.6787 C80.1824,46.6787 89.5134,54.8557 91.0574,65.4557 C91.1294,65.9517 91.5414,66.3257 92.0424,66.3257 C92.6424,66.3257 93.1234,65.7987 93.0384,65.2037 C91.3694,53.6187 81.2004,44.6787 68.9384,44.6787" id="Fill-1" fill="#231F20"></path>
                    <g id="Group-5" transform="translate(0.000000, 0.390100)" fill="#231F20">
                        <path d="M0.9999,65.9361 C1.5529,65.9361 1.9999,65.4891 1.9999,64.9361 L1.9999,61.3951 C1.9999,60.3131 1.9999,59.5981 19.2989,52.9101 L19.9169,52.6781 C20.1749,52.5821 20.3809,52.3831 20.4869,52.1301 L23.0269,46.1061 C23.1379,45.8421 23.1309,45.5441 23.0079,45.2871 L22.7099,44.6621 C14.9599,28.3191 15.4879,27.7931 16.2819,27.0041 L26.5049,17.0261 C26.7289,16.8031 27.2149,16.6221 27.5879,16.6221 C28.3889,16.6221 31.7019,17.4531 44.9079,23.0251 L45.8809,23.4201 L52.4349,20.7501 C52.6869,20.6471 52.8859,20.4471 52.9859,20.1941 L53.2479,19.5361 C59.5699,2.6101 60.3529,2.6101 61.4349,2.6101 L75.8449,2.6101 C76.9339,2.6101 77.6529,2.6101 84.4909,19.5181 L84.7339,20.1361 C84.8349,20.3921 85.0359,20.5951 85.2909,20.6981 L91.9059,23.3621 L92.8959,22.9211 C105.1879,17.3501 108.9109,16.1811 109.8689,16.1811 C110.2369,16.1811 110.7069,16.3631 110.9469,16.6031 L121.1459,26.5481 C121.9339,27.3311 122.4529,27.8461 115.0789,44.5501 L114.8029,45.1681 C114.6899,45.4201 114.6869,45.7081 114.7939,45.9631 L117.3209,51.9851 C117.4309,52.2451 117.6439,52.4461 117.9079,52.5401 L118.5569,52.7711 C135.8869,58.9571 135.8869,59.6951 135.8869,60.8111 L135.8869,64.9361 C135.8869,65.4891 136.3349,65.9361 136.8869,65.9361 C137.4389,65.9361 137.8869,65.4891 137.8869,64.9361 L137.8869,60.8111 C137.8869,58.1701 137.2019,57.3031 119.2289,50.8881 L118.9939,50.8041 L116.8059,45.5891 L116.9069,45.3621 C124.5479,28.0551 124.4019,26.9631 122.5479,25.1221 L112.3529,15.1801 C111.7459,14.5741 110.7709,14.1811 109.8689,14.1811 C109.1109,14.1811 107.3369,14.1811 92.0749,21.0971 L91.8669,21.1901 L86.4379,19.0031 L86.3489,18.7771 C79.2709,1.2761 78.3979,0.6101 75.8449,0.6101 L61.4349,0.6101 C58.8559,0.6101 57.9119,1.3321 51.3829,18.8161 L51.2859,19.0581 L45.8809,21.2601 L45.6739,21.1771 C31.7469,15.3011 28.6819,14.6221 27.5879,14.6221 C26.6759,14.6221 25.6969,15.0081 25.1019,15.6001 L14.8789,25.5801 C13.0299,27.4171 12.8779,28.5961 20.9039,45.5211 L21.0099,45.7431 L18.8119,50.9571 L18.5879,51.0401 C0.6259,57.9851 -0.0001,58.7811 -0.0001,61.3951 L-0.0001,64.9361 C-0.0001,65.4891 0.4479,65.9361 0.9999,65.9361" id="Fill-3"></path>
                    </g>
                    <path d="M129.1756,89.3164 L119.1136,89.3164 C118.1216,89.3164 117.3186,88.5124 117.3186,87.5204 L117.3186,77.6114 C117.3186,76.6204 118.1216,75.8154 119.1136,75.8154 L129.1756,75.8154 C130.3806,75.8154 131.1366,74.4774 130.4836,73.4644 C127.4886,68.8194 122.2736,65.7424 116.3356,65.7424 C109.1356,65.7424 102.9946,70.2664 100.5936,76.6254 L70.3606,76.6254 L70.2246,76.6254 L67.6626,76.6254 L67.5266,76.6254 L37.2926,76.6254 C34.8916,70.2664 28.7506,65.7424 21.5516,65.7424 C15.6136,65.7424 10.3976,68.8194 7.4036,73.4644 C6.7506,74.4774 7.5056,75.8154 8.7106,75.8154 L18.7726,75.8154 C19.7646,75.8154 20.5696,76.6204 20.5696,77.6114 L20.5696,87.5204 C20.5696,88.5124 19.7646,89.3164 18.7726,89.3164 L8.7106,89.3164 C7.5056,89.3164 6.7506,90.6544 7.4036,91.6674 C10.3976,96.3124 15.6136,99.3894 21.5516,99.3894 C28.7506,99.3894 34.8916,94.8664 37.2926,88.5064 L67.5266,88.5064 L67.6626,88.5064 L70.2246,88.5064 L70.3606,88.5064 L100.5936,88.5064 C102.9946,94.8664 109.1356,99.3894 116.3356,99.3894 C122.2736,99.3894 127.4886,96.3124 130.4836,91.6674 C131.1366,90.6544 130.3806,89.3164 129.1756,89.3164" id="Fill-6" fill="#F2C994"></path>
                    <path d="M129.1756,89.3164 L119.1136,89.3164 C118.1216,89.3164 117.3186,88.5124 117.3186,87.5204 L117.3186,77.6114 C117.3186,76.6204 118.1216,75.8154 119.1136,75.8154 L129.1756,75.8154 C130.3806,75.8154 131.1366,74.4774 130.4836,73.4644 C127.4886,68.8194 122.2736,65.7424 116.3356,65.7424 C109.1356,65.7424 102.9946,70.2664 100.5936,76.6254 L70.3606,76.6254 L70.2246,76.6254 L67.6626,76.6254 L67.5266,76.6254 L37.2926,76.6254 C34.8916,70.2664 28.7506,65.7424 21.5516,65.7424 C15.6136,65.7424 10.3976,68.8194 7.4036,73.4644 C6.7506,74.4774 7.5056,75.8154 8.7106,75.8154 L18.7726,75.8154 C19.7646,75.8154 20.5696,76.6204 20.5696,77.6114 L20.5696,87.5204 C20.5696,88.5124 19.7646,89.3164 18.7726,89.3164 L8.7106,89.3164 C7.5056,89.3164 6.7506,90.6544 7.4036,91.6674 C10.3976,96.3124 15.6136,99.3894 21.5516,99.3894 C28.7506,99.3894 34.8916,94.8664 37.2926,88.5064 L67.5266,88.5064 L67.6626,88.5064 L70.2246,88.5064 L70.3606,88.5064 L100.5936,88.5064 C102.9946,94.8664 109.1356,99.3894 116.3356,99.3894 C122.2736,99.3894 127.4886,96.3124 130.4836,91.6674 C131.1366,90.6544 130.3806,89.3164 129.1756,89.3164 Z" id="Stroke-8" stroke="#231F20" stroke-width="2" stroke-linejoin="round"></path>
                    <g id="Group-13" transform="translate(42.000000, 82.390100)">
                        <path d="M0.8104,0.1763 L53.0764,0.1763" id="Fill-10" fill="#F2C994"></path>
                        <path d="M0.8104,0.1763 L53.0764,0.1763" id="Stroke-12" stroke="#231F20" stroke-width="2" stroke-linecap="round" stroke-linejoin="round"></path>
                    </g>
                </g>
            </g>
        </g>
    </g>
</svg>