<?xml version="1.0" encoding="utf-8"?>
<!-- Generator: Adobe Illustrator 21.0.0, SVG Export Plug-In . SVG Version: 6.00 Build 0)  -->
<svg version="1.1" id="Layer_1" xmlns="http://www.w3.org/2000/svg" xmlns:xlink="http://www.w3.org/1999/xlink" x="0px" y="0px"
	 viewBox="0 0 20 20" style="enable-background:new 0 0 20 20;" xml:space="preserve">
<style type="text/css">
	.st0{opacity:0.5;}
	.st1{fill:#FBFBFB;}
</style>
<g class="st0">
	<g>
		<path d="M3,18c-0.1,0-0.3,0-0.4-0.1c-0.2-0.2-0.2-0.5,0-0.7l14-14c0.2-0.2,0.5-0.2,0.7,0s0.2,0.5,0,0.7l-14,14C3.3,18,3.1,18,3,18
			z"/>
	</g>
</g>
<g>
	<g>
		<path class="st1" d="M3,17c-0.1,0-0.3,0-0.4-0.1c-0.2-0.2-0.2-0.5,0-0.7l14-14c0.2-0.2,0.5-0.2,0.7,0s0.2,0.5,0,0.7l-14,14
			C3.3,17,3.1,17,3,17z"/>
	</g>
</g>
</svg>
