<?xml version="1.0" encoding="utf-8"?>
<!-- Generator: Adobe Illustrator 19.2.1, SVG Export Plug-In . SVG Version: 6.00 Build 0)  -->
<svg version="1.1" id="Layer_1" xmlns="http://www.w3.org/2000/svg" xmlns:xlink="http://www.w3.org/1999/xlink" x="0px" y="0px"
	 viewBox="0 0 75 75" style="enable-background:new 0 0 75 75;" xml:space="preserve">
<style type="text/css">
	.st0{clip-path:url(#SVGID_2_);}
	.st1{clip-path:url(#SVGID_4_);fill:#FFFFFF;}
	.st2{fill:none;stroke:#231F20;stroke-width:2;stroke-linejoin:round;stroke-miterlimit:10;}
	.st3{clip-path:url(#SVGID_6_);}
	.st4{clip-path:url(#SVGID_8_);enable-background:new    ;}
	.st5{clip-path:url(#SVGID_10_);}
	.st6{clip-path:url(#SVGID_12_);}
	.st7{clip-path:url(#SVGID_14_);fill:#D8D8D8;}
	.st8{clip-path:url(#SVGID_16_);}
	.st9{clip-path:url(#SVGID_18_);enable-background:new    ;}
	.st10{clip-path:url(#SVGID_20_);}
	.st11{clip-path:url(#SVGID_22_);fill:none;stroke:#231F20;stroke-width:2;stroke-miterlimit:10;}
	.st12{clip-path:url(#SVGID_24_);}
	.st13{clip-path:url(#SVGID_26_);fill:#FFFFFF;}
	.st14{clip-path:url(#SVGID_28_);}
	.st15{clip-path:url(#SVGID_30_);fill:#FFFFFF;}
</style>
<g>
	<g>
		<defs>
			<path id="SVGID_1_" d="M72.5,37.5c0,19.3-15.7,35-35,35s-35-15.7-35-35s15.7-35,35-35S72.5,18.2,72.5,37.5"/>
		</defs>
		<clipPath id="SVGID_2_">
			<use xlink:href="#SVGID_1_"  style="overflow:visible;"/>
		</clipPath>
		<g class="st0">
			<defs>
				<rect id="SVGID_3_" x="-468.5" y="-383.5" width="1598" height="1728"/>
			</defs>
			<clipPath id="SVGID_4_">
				<use xlink:href="#SVGID_3_"  style="overflow:visible;"/>
			</clipPath>
			<rect x="-2.5" y="-2.5" class="st1" width="80" height="80"/>
		</g>
	</g>
	<circle class="st2" cx="37.5" cy="37.5" r="35"/>
	<g>
		<defs>
			<path id="SVGID_5_" d="M8.8,56.5c6.3,9.1,16.8,15,28.8,15c12.1,0,22.8-6.2,29.1-15.6v-1.7H8.8V56.5z"/>
		</defs>
		<clipPath id="SVGID_6_">
			<use xlink:href="#SVGID_5_"  style="overflow:visible;"/>
		</clipPath>
		<g class="st3">
			<defs>
				<rect id="SVGID_7_" x="-468.5" y="-383.5" width="1598" height="1728"/>
			</defs>
			<clipPath id="SVGID_8_">
				<use xlink:href="#SVGID_7_"  style="overflow:visible;"/>
			</clipPath>
			<g class="st4">
				<g>
					<defs>
						<rect id="SVGID_9_" x="8.5" y="53.5" width="59" height="18"/>
					</defs>
					<clipPath id="SVGID_10_">
						<use xlink:href="#SVGID_9_"  style="overflow:visible;"/>
					</clipPath>
					<g class="st5">
						<defs>
							<path id="SVGID_11_" d="M66.6,66c0,6.5-13,11.8-28.9,11.8c-16,0-28.9-5.3-28.9-11.8s13-11.8,28.9-11.8
								C53.7,54.2,66.6,59.5,66.6,66"/>
						</defs>
						<clipPath id="SVGID_12_">
							<use xlink:href="#SVGID_11_"  style="overflow:visible;"/>
						</clipPath>
						<g class="st6">
							<defs>
								<rect id="SVGID_13_" x="8.5" y="53.5" width="59" height="18"/>
							</defs>
							<clipPath id="SVGID_14_">
								<use xlink:href="#SVGID_13_"  style="overflow:visible;"/>
							</clipPath>
							<rect x="3.8" y="49.2" class="st7" width="67.9" height="33.6"/>
						</g>
					</g>
				</g>
			</g>
		</g>
	</g>
	<g>
		<defs>
			<path id="SVGID_15_" d="M8.8,56.5c6.3,9.1,16.8,15,28.8,15c12.1,0,22.8-6.2,29.1-15.6v-1.7H8.8V56.5z"/>
		</defs>
		<clipPath id="SVGID_16_">
			<use xlink:href="#SVGID_15_"  style="overflow:visible;"/>
		</clipPath>
		<g class="st8">
			<defs>
				<rect id="SVGID_17_" x="-468.5" y="-383.5" width="1598" height="1728"/>
			</defs>
			<clipPath id="SVGID_18_">
				<use xlink:href="#SVGID_17_"  style="overflow:visible;"/>
			</clipPath>
			<g class="st9">
				<g>
					<defs>
						<rect id="SVGID_19_" x="8.5" y="53.5" width="59" height="18"/>
					</defs>
					<clipPath id="SVGID_20_">
						<use xlink:href="#SVGID_19_"  style="overflow:visible;"/>
					</clipPath>
					<g class="st10">
						<defs>
							<rect id="SVGID_21_" x="8.5" y="53.5" width="59" height="18"/>
						</defs>
						<clipPath id="SVGID_22_">
							<use xlink:href="#SVGID_21_"  style="overflow:visible;"/>
						</clipPath>
						<ellipse class="st11" cx="37.7" cy="66" rx="28.9" ry="11.8"/>
					</g>
				</g>
			</g>
		</g>
	</g>
	<g>
		<defs>
			<path id="SVGID_23_" d="M45.5,54.4V50c4-2.4,6.6-6.5,6.6-11.2c0-7.4-6.5-13.3-14.4-13.3c-8,0-14.4,6-14.4,13.3
				c0,4.5,2.5,8.6,6.2,11v4.6c-1.9,0.8-3,1.9-3,3.1c0,2.5,4.9,4.5,11,4.5s11-2,11-4.5C48.5,56.3,47.4,55.2,45.5,54.4"/>
		</defs>
		<clipPath id="SVGID_24_">
			<use xlink:href="#SVGID_23_"  style="overflow:visible;"/>
		</clipPath>
		<g class="st12">
			<defs>
				<rect id="SVGID_25_" x="-468.5" y="-383.5" width="1598" height="1728"/>
			</defs>
			<clipPath id="SVGID_26_">
				<use xlink:href="#SVGID_25_"  style="overflow:visible;"/>
			</clipPath>
			<rect x="18.3" y="20.5" class="st13" width="38.9" height="46.5"/>
		</g>
	</g>
	<path class="st2" d="M45.5,54.4V50c4-2.4,6.6-6.5,6.6-11.2c0-7.4-6.5-13.3-14.4-13.3c-8,0-14.4,6-14.4,13.3c0,4.5,2.5,8.6,6.2,11
		v4.6c-1.9,0.8-3,1.9-3,3.1c0,2.5,4.9,4.5,11,4.5s11-2,11-4.5C48.5,56.3,47.4,55.2,45.5,54.4z"/>
	<g>
		<defs>
			<path id="SVGID_27_" d="M32,30c0,0-4.9,7.1-10,6c-2.1-5.5-0.9-16.6,6.5-16.9c3.5-2.2,3.2-4,11.1-3.9c5.4,0,13.6,6,14.3,11.2
				c4.2,2,5.4,1.6,5.8,1.2c-2.6,3.9-7.7,6.4-12.7,6.4C42,34.1,35.1,32.9,32,30"/>
		</defs>
		<clipPath id="SVGID_28_">
			<use xlink:href="#SVGID_27_"  style="overflow:visible;"/>
		</clipPath>
		<g class="st14">
			<defs>
				<rect id="SVGID_29_" x="-468.5" y="-383.5" width="1598" height="1728"/>
			</defs>
			<clipPath id="SVGID_30_">
				<use xlink:href="#SVGID_29_"  style="overflow:visible;"/>
			</clipPath>
			<rect x="16.1" y="10.2" class="st15" width="48.6" height="30.9"/>
		</g>
	</g>
	<path class="st2" d="M32,30c0,0-4.9,7.1-10,6c-2.1-5.5-0.9-16.6,6.5-16.9c3.5-2.2,3.2-4,11.1-3.9c5.4,0,13.6,6,14.3,11.2
		c4.2,2,5.4,1.6,5.8,1.2c-2.6,3.9-7.7,6.4-12.7,6.4C42,34.1,35.1,32.9,32,30z"/>
</g>
</svg>
