<svg xmlns="http://www.w3.org/2000/svg" width="72" height="56" viewBox="0 0 72 56">
    <path fill="#222" fill-opacity=".06" fill-rule="evenodd" d="M19.99 0l10.673 8.54c-6.21 3.298-13.39 11.45-15.137 18.436.582-.388 2.328-.582 3.881-.582 7.375 0 13.197 5.628 13.197 13.973s-6.987 15.331-15.332 15.331C8.151 55.698 0 48.518 0 35.903 0 21.348 7.957 8.345 19.99 0zm39.395 0l10.868 8.54c-6.21 3.298-13.585 11.45-15.137 18.436.582-.388 2.329-.582 3.881-.582 7.18 0 13.003 5.628 13.003 13.973s-6.792 15.331-15.332 15.331c-9.12 0-17.078-7.18-17.078-19.795C39.59 21.348 47.353 8.345 59.385 0z"/>
</svg>
