<svg xmlns="http://www.w3.org/2000/svg" width="57" height="43" viewBox="0 0 57 43">
    <path fill="#323B43" fill-rule="evenodd" d="M47.325 0c-4.44 0-8.158 2.91-9.314 7.273C35.99.71 30.72 0 28.554 0c-2.202 0-7.437.71-9.494 7.273C17.905 2.91 14.223 0 9.747 0 4.296 0 0 3.832 0 8.728c0 2.164.541 3.902 1.191 5.783l7.4 20.613c2.491 6.847 7.545 7.84 10.324 7.84 4.368 0 7.798-2.2 9.566-6.102C30.251 40.8 33.68 43 38.048 43c2.78 0 7.833-1.029 10.324-7.876l7.472-20.684.072-.178c.072-.248.18-.496.253-.745.397-1.17.83-2.448.83-4.08C57.071 3.974 52.992 0 47.325 0zm2.932 12.98l-7.3 19.948c-.88 2.43-2.362 4.208-5.148 4.208-2.61 0-4.16-1.402-4.901-3.832L28.535 20.03h-.106l-4.372 13.275c-.776 2.43-2.327 3.798-4.902 3.798-2.785 0-4.266-1.779-5.148-4.208l-7.229-19.81c-.6-1.677-.881-2.704-.881-3.901 0-1.848 1.763-3.32 4.266-3.32 2.08 0 3.562 1.335 4.02 3.285l4.902 15.808h.106L24.163 9.49c.67-2.224 1.833-3.626 4.337-3.626 2.504 0 3.667 1.368 4.337 3.626l4.972 15.466h.106l4.902-15.808c.458-1.95 1.94-3.284 4.02-3.284 2.468 0 4.266 1.505 4.266 4.037-.035.89-.458 1.813-.846 3.08z"/>
</svg>
