<svg xmlns="http://www.w3.org/2000/svg" width="44" height="44" viewBox="0 0 44 44">
    <g fill="none" fill-rule="evenodd">
        <circle cx="22" cy="22" r="22" fill="#E5E5E5"/>
        <path fill="#FFF" d="M8.379 28.544h27.313V15.875H8.38z"/>
        <path stroke="#000" stroke-linecap="round" stroke-width="2" d="M8.379 28.544h27.313V15.875H8.38z"/>
        <path fill="#D8D8D8" d="M25.382 22.18a3.386 3.386 0 0 0-3.393-3.38 3.386 3.386 0 0 0-3.394 3.38 3.387 3.387 0 0 0 3.394 3.378 3.386 3.386 0 0 0 3.393-3.379"/>
        <path stroke="#221E1F" stroke-linecap="round" stroke-width="2" d="M25.382 22.18a3.386 3.386 0 0 0-3.393-3.38 3.386 3.386 0 0 0-3.394 3.38 3.387 3.387 0 0 0 3.394 3.378 3.386 3.386 0 0 0 3.393-3.379z"/>
        <path fill="#FFF" d="M12.844 28.544c0-2.458-2-4.45-4.47-4.45"/>
        <path stroke="#000" stroke-width="2" d="M12.844 28.544c0-2.458-2-4.45-4.47-4.45"/>
        <path fill="#FFF" d="M8.375 20.325c2.468 0 4.47-1.992 4.47-4.45"/>
        <path stroke="#000" stroke-width="2" d="M8.375 20.325c2.468 0 4.47-1.992 4.47-4.45"/>
        <g>
            <path fill="#FFF" d="M31.223 15.875c0 2.458 2.001 4.45 4.47 4.45"/>
            <path stroke="#000" stroke-width="2" d="M31.223 15.875c0 2.458 2.001 4.45 4.47 4.45"/>
        </g>
        <g>
            <path fill="#FFF" d="M35.693 24.094c-2.469 0-4.47 1.992-4.47 4.45"/>
            <path stroke="#000" stroke-width="2" d="M35.693 24.094c-2.469 0-4.47 1.992-4.47 4.45"/>
        </g>
    </g>
</svg>
