<?xml version="1.0" encoding="UTF-8"?>
<svg width="44px" height="44px" viewBox="0 0 44 44" version="1.1" xmlns="http://www.w3.org/2000/svg" xmlns:xlink="http://www.w3.org/1999/xlink">
    <!-- Generator: sketchtool 51.2 (57519) - http://www.bohemiancoding.com/sketch -->
    <title>A6416DFE-4730-4F60-9827-3DFAE77A5AD8</title>
    <desc>Created with sketchtool.</desc>
    <defs></defs>
    <g id="procesÄ" stroke="none" stroke-width="1" fill="none" fill-rule="evenodd">
        <g id="Billing---HowItWorks" transform="translate(-714.000000, -790.000000)">
            <g id="Group-5" transform="translate(698.000000, 774.000000)">
                <g id="Group-5-Copy" transform="translate(16.000000, 16.000000)">
                    <g id="ill-hist">
                        <circle id="Oval" fill="#E5E5E5" cx="22" cy="22" r="22"></circle>
                        <circle id="Oval-2" fill="#FFFFFF" cx="23" cy="22" r="8"></circle>
                        <g id="baseline-history-24px" transform="translate(9.000000, 10.000000)">
                            <polygon id="Shape" points="0 0 24 0 24 24 0 24"></polygon>
                            <path d="M13,3 C8.03,3 4,7.03 4,12 L1,12 L4.89,15.89 L4.96,16.03 L9,12 L6,12 C6,8.13 9.13,5 13,5 C16.87,5 20,8.13 20,12 C20,15.87 16.87,19 13,19 C11.07,19 9.32,18.21 8.06,16.94 L6.64,18.36 C8.27,19.99 10.51,21 13,21 C17.97,21 22,16.97 22,12 C22,7.03 17.97,3 13,3 Z M12,8 L12,13 L16.28,15.54 L17,14.33 L13.5,12.25 L13.5,8 L12,8 Z" id="Shape" fill="#000000" fill-rule="nonzero"></path>
                        </g>
                    </g>
                </g>
            </g>
        </g>
    </g>
</svg>