<svg id="Layer_2" data-name="Layer 2" xmlns="http://www.w3.org/2000/svg" viewBox="0 0 281.93 79.46"><defs><style>.cls-1{fill:#32b46e;}</style></defs><title>3dcart</title><path d="M136.59,60.32l-1.43-.27a17,17,0,0,1-13.08-13.92,16.72,16.72,0,0,1,12.21-18.55,16.5,16.5,0,0,1,12.81,1.79,2.18,2.18,0,0,0,.42.23s0,0,.18,0V12.29h7.49a4.55,4.55,0,0,1,.09.73V60.28H147.7V57.61a15.49,15.49,0,0,1-4.82,2.16c-.78.19-1.56.32-2.34.51-1.29,0-2.62,0-3.95,0Zm1.51-25.76a9.17,9.17,0,1,0,9.6,8.72A9.09,9.09,0,0,0,138.1,34.56Zm65.63,25.76c-.78-.18-1.61-.32-2.39-.5A16.68,16.68,0,0,1,189.22,45.9a16.67,16.67,0,0,1,24.93-16.58,6.1,6.1,0,0,1,.69.42V27.12h7.53c0,.14,0,.28,0,.41V60.37h-7.58V57.75c-.23.14-.37.18-.5.28a16.59,16.59,0,0,1-4.73,2c-.6.14-1.2.28-1.8.37-1.37,0-2.75,0-4.08,0Zm11.11-16.67a9.12,9.12,0,1,0-9.09,9.19A9.1,9.1,0,0,0,214.84,43.65Zm46-31.36V24h9.87v7.48H260.9c0,.19,0,.37,0,.51V44.07a9.22,9.22,0,0,0,7.85,8.68,9,9,0,0,0,7.71-2.62l2.44,2.29c1,1,2.06,1.89,3.07,2.85v.09a5.52,5.52,0,0,0-.5.42,15.84,15.84,0,0,1-7.07,4c-.83.23-1.66.37-2.44.51h-4.08c-.83-.19-1.66-.32-2.48-.55a16.78,16.78,0,0,1-12-14c0-.6-.13-1.24-.13-1.88V12.29Zm-87.81,48c-.78-.18-1.52-.27-2.3-.5a16.86,16.86,0,0,1-12.17-14A16.63,16.63,0,0,1,169.47,28a16,16,0,0,1,15.47,2.44c1.29.91,2.44,2,3.72,3.12-2,1.7-3.85,3.35-5.74,5-.68-.6-1.33-1.15-2-1.7a10,10,0,0,0-5.33-2.25,8.2,8.2,0,0,0-6,1.84,8.82,8.82,0,0,0-3.44,8.77,8.92,8.92,0,0,0,6,7.16,8,8,0,0,0,7.9-1.15c1.14-.78,2.16-1.74,3.26-2.66,1.65,1.75,3.35,3.54,5.14,5.42-.87.78-1.79,1.7-2.85,2.52a16.8,16.8,0,0,1-8.4,3.77.34.34,0,0,0-.18.09ZM88.6,55.91a9.23,9.23,0,0,1,.46-1.6,18.81,18.81,0,0,1,1.19-2.21,1.52,1.52,0,0,1,1.56-.46c.09,0,.23.23.28.37a12.85,12.85,0,0,0,.55,1.84A2.16,2.16,0,0,0,95,55.18c6.48-.69,12.08-3.12,16.3-8.31a24.83,24.83,0,0,0,4.37-7.49c.82-2.16-.55-2.94-2-3.12a12.2,12.2,0,0,0-5.15.55,24.54,24.54,0,0,0-7.94,3.63c-.69.5-1.24,1.15-1.93,1.65a3,3,0,0,1-1.47.64c-.83.1-1.38-.55-1.42-1.42a3.67,3.67,0,0,1,1-2.71c1.24-1.33,2.57-2.62,3.81-4s2.71-2.94,4-4.41c0,0,0-.09-.09-.14-.55.28-1.11.56-1.66.79L96.73,34a.58.58,0,0,1-.83-.14,3.17,3.17,0,0,1-1-2.2,2.66,2.66,0,0,1,1.61-2.57c2.11-.92,4.22-1.84,6.29-2.8q3.43-1.59,6.89-3.31c.78-.37,1.51-.87,2.29-1.33a1.71,1.71,0,0,1,.65-.28,1.63,1.63,0,0,1,1.83.46,1.66,1.66,0,0,1,.09,2,40.12,40.12,0,0,1-2.61,3.63c-1.24,1.52-2.62,3-3.91,4.46-.13.13-.23.27-.46.55.69-.14,1.2-.32,1.75-.42,1.84-.32,3.67-.73,5.51-.87a9.83,9.83,0,0,1,3.26.37,4,4,0,0,1,3.12,4.68,15,15,0,0,1-2.2,6.2,38.56,38.56,0,0,1-15.94,14.88A23.38,23.38,0,0,1,95.12,60a16.14,16.14,0,0,1-2.94.14c-1.65-.09-3-.64-3.63-2.39,0-.6,0-1.19,0-1.84Zm137.45,4.41V27h7.53v2.66A16.69,16.69,0,0,1,243,27a15.88,15.88,0,0,1,9.19,2.94c-1.84,1.84-3.63,3.63-5.38,5.33a23.21,23.21,0,0,0-3.44-.74,8.66,8.66,0,0,0-8.13,3.77,9,9,0,0,0-1.7,5.65v16c0,.09.05.23.05.32-2.48.09-5,.09-7.53.09Z"/><path class="cls-1" d="M25.09,28.14l33.2,1.32a1.58,1.58,0,0,1,1.49,1.86l-3,16.33a2.26,2.26,0,0,1-2.23,1.87H26.38a2.28,2.28,0,0,1-2.25-1.9l-2.85-17a1.5,1.5,0,0,0-.36-.75l-3.84-4.25a1.64,1.64,0,0,1,.12-2.31h0a1.63,1.63,0,0,1,2.22,0l4.71,4.42A1.48,1.48,0,0,0,25.09,28.14Z"/><circle class="cls-1" cx="30.12" cy="56.77" r="3.16"/><circle class="cls-1" cx="50.63" cy="56.77" r="3.16"/><path class="cls-1" d="M39.73,79.46A39.73,39.73,0,1,1,79.46,39.73,39.77,39.77,0,0,1,39.73,79.46Zm0-76.32A36.59,36.59,0,1,0,76.32,39.73,36.64,36.64,0,0,0,39.73,3.14Z"/></svg>