<svg xmlns="http://www.w3.org/2000/svg" viewBox="0 0 526.9 126.11"><defs><style>.cls-1{fill:#f19d39;}.cls-2{fill:#010101;}.cls-3{fill:none;}.cls-4{fill:#fff;}.cls-5{fill:#08476c;}</style></defs><title>Asset 1</title><g id="Layer_2" data-name="Layer 2"><g id="Layer_1-2" data-name="Layer 1"><path class="cls-1" d="M496.21,111.1a5.53,5.53,0,0,0,.8,3.06,6.45,6.45,0,0,0,2.05,2,8.5,8.5,0,0,0,2.77,1.1,14.72,14.72,0,0,0,3,.32,14,14,0,0,0,2.92-.32,8.48,8.48,0,0,0,2.69-1,5.86,5.86,0,0,0,2-2,5.59,5.59,0,0,0,.77-3,5.74,5.74,0,0,0-1.46-4.21,6.78,6.78,0,0,0-3.92-1.85V97.84a11.86,11.86,0,0,1,8.05,4.29,14.27,14.27,0,0,1,2.77,9.07,15.76,15.76,0,0,1-1,5.72,12.87,12.87,0,0,1-2.79,4.43,12.62,12.62,0,0,1-4.28,2.84,14.27,14.27,0,0,1-5.46,1,16.87,16.87,0,0,1-5.72-.94,12.44,12.44,0,0,1-7.56-7.21,15.71,15.71,0,0,1-1.08-6,18.14,18.14,0,0,1,.62-4.75,12.9,12.9,0,0,1,1.87-4.08,10.15,10.15,0,0,1,3.13-2.92A9.71,9.71,0,0,1,500.79,98v7.46Q496.22,106.2,496.21,111.1Z"/><path class="cls-1" d="M499.6,95.19a8.21,8.21,0,0,1-4.26-1.34,9,9,0,0,1-2.72-3,13.53,13.53,0,0,1-1.46-4.11,24.44,24.44,0,0,1-.44-4.59A32.11,32.11,0,0,1,491,77.9,13.73,13.73,0,0,1,492.1,74a7.72,7.72,0,0,1,2.28-2.9A6.18,6.18,0,0,1,498.25,70H512a27.17,27.17,0,0,0,3.44-.21,5.91,5.91,0,0,0,2.46-.75v7.73a10.66,10.66,0,0,1-1.26.35,11.17,11.17,0,0,1-1.31.19,10,10,0,0,1,2.51,4.29,18,18,0,0,1,.72,5,14.1,14.1,0,0,1-.46,3.7,8.67,8.67,0,0,1-1.44,3,6.7,6.7,0,0,1-2.46,2,8,8,0,0,1-3.54.72A7.53,7.53,0,0,1,507,95.2a6.7,6.7,0,0,1-2.33-2.15,9.89,9.89,0,0,1-1.31-3,33.21,33.21,0,0,1-.69-3.41c-.17-1.14-.31-2.27-.41-3.38a21.59,21.59,0,0,0-.46-3,5.22,5.22,0,0,0-.9-2,2,2,0,0,0-1.72-.7,3.68,3.68,0,0,0-1.87.4A3,3,0,0,0,496.21,79a4.22,4.22,0,0,0-.51,1.56,14.22,14.22,0,0,0-.13,1.91,6,6,0,0,0,.92,3.54,4,4,0,0,0,3.08,1.5v7.65ZM505,77.59a3.39,3.39,0,0,1,.64,1.21,12.73,12.73,0,0,1,.38,1.56c.1.56.19,1.14.26,1.74s.15,1.22.26,1.82a13.87,13.87,0,0,0,.41,1.69,5,5,0,0,0,.69,1.45,3.37,3.37,0,0,0,1.1,1,3.41,3.41,0,0,0,1.69.38,3.19,3.19,0,0,0,1.64-.38,2.85,2.85,0,0,0,1.05-1,4.31,4.31,0,0,0,.54-1.5,10.23,10.23,0,0,0,.15-1.77,7,7,0,0,0-.72-3.49,4.89,4.89,0,0,0-1.72-1.82,5.39,5.39,0,0,0-2-.72,13,13,0,0,0-1.64-.13H505Z"/><path class="cls-1" d="M491.44,58.77h4.92v-.11a8.89,8.89,0,0,1-2.28-1.45,9.4,9.4,0,0,1-1.79-2.09,10.63,10.63,0,0,1-1.15-2.52,9.56,9.56,0,0,1-.41-2.79,6.24,6.24,0,0,1,.26-1.66h6.77q-.11.54-.18,1.29c-.05.5-.08,1-.08,1.45a8.31,8.31,0,0,0,.67,3.54A6,6,0,0,0,500,56.76,7.18,7.18,0,0,0,502.68,58a14.09,14.09,0,0,0,3.33.38h12V66H491.45V58.77Z"/><path class="cls-1" d="M491.44,27.26h4.87v5.58h13.13a3.44,3.44,0,0,0,2.46-.64,3.87,3.87,0,0,0,.62-2.58c0-.43,0-.84,0-1.23a9.94,9.94,0,0,0-.15-1.13H518a20.9,20.9,0,0,1,.21,2.15c0,.79.05,1.56.05,2.31a23.72,23.72,0,0,1-.23,3.35,7.9,7.9,0,0,1-.9,2.79,4.82,4.82,0,0,1-1.9,1.9,6.47,6.47,0,0,1-3.23.7H496.32v4.62h-4.87V40.46H483.5V32.84h7.95V27.26Z"/><path class="cls-2" d="M108.15,27.69H125.3V111h28.21v13.88H108.15Z"/><path class="cls-2" d="M219.93,124.86h-17.3l-3-17.63h-21l-3,17.63H159.93l17.46-97.17h25.09ZM180.81,94h16.52L189.07,44.9Z"/><path class="cls-2" d="M244.24,27.69v75c0,6.94,3.43,9.44,8.88,9.44s8.88-2.5,8.88-9.44v-75h16.21v74c0,15.55-8.73,24.43-25.56,24.43s-25.56-8.88-25.56-24.43v-74Z"/><path class="cls-2" d="M306.12,54.48v70.38H290.69V27.69H312.2l17.61,58.16V27.69h15.27v97.17H327.47Z"/><path class="cls-2" d="M409.93,88.63v12.91c0,15.55-8.73,24.43-25.56,24.43s-25.56-8.88-25.56-24.43V51c0-15.55,8.73-24.43,25.56-24.43S409.93,35.46,409.93,51v9.44H393.72V50c0-6.94-3.43-9.58-8.88-9.58S376,43.1,376,50v52.47c0,6.94,3.43,9.44,8.88,9.44s8.88-2.5,8.88-9.44V88.63Z"/><path class="cls-2" d="M440.34,124.86H423.19V27.69h17.15V69.33h19.48V27.69h17.46v97.17H459.82V83.22H440.34Z"/><path class="cls-3" d="M47.14,7A20.56,20.56,0,0,0,26.62,27H67.67A20.57,20.57,0,0,0,47.14,7Z"/><path class="cls-2" d="M526.9,31.15A2.9,2.9,0,1,1,524,28.33,2.83,2.83,0,0,1,526.9,31.15Zm-5.07,0A2.19,2.19,0,0,0,524,33.4a2.25,2.25,0,0,0,0-4.5A2.19,2.19,0,0,0,521.83,31.15Zm1.74,1.48h-.65V29.81a5.8,5.8,0,0,1,1.08-.09,1.77,1.77,0,0,1,1,.21.79.79,0,0,1,.27.62.71.71,0,0,1-.58.65v0a.82.82,0,0,1,.51.69,2.11,2.11,0,0,0,.21.7h-.71a2.11,2.11,0,0,1-.22-.69c-.05-.31-.22-.45-.58-.45h-.31Zm0-1.6h.31c.36,0,.65-.12.65-.41s-.19-.43-.6-.43a2.28,2.28,0,0,0-.36,0V31Z"/><path class="cls-3" d="M46.79,6.36A20.46,20.46,0,0,0,26.37,26.27H67.2A20.44,20.44,0,0,0,46.79,6.36Z"/><path class="cls-1" d="M85.56,27.43H73.86a27.94,27.94,0,0,0-55.88,0H6.28A6.27,6.27,0,0,0,0,33.7v66.86l6.93-7.64,5.44,4.93L0,111.48v7.15a6.54,6.54,0,0,0,.25,1.67L16.9,102l5.44,4.93L6,124.86l.24,0h8L26.87,111l5.44,4.93-8.13,9H85.57a6.27,6.27,0,0,0,6.27-6.27V33.66A6.28,6.28,0,0,0,85.56,27.43ZM46.79,6.36A20.46,20.46,0,0,1,67.21,26.27H26.37A20.46,20.46,0,0,1,46.79,6.36ZM78.87,47,74.32,70.4a4.66,4.66,0,0,1-.95,1.93L41,108.81a5.66,5.66,0,0,1-8.06.44L13.32,91.43a5.8,5.8,0,0,1-.44-8.14L45.22,46.81A4.46,4.46,0,0,1,47,45.64l22.12-7.06.1,0a6.42,6.42,0,0,1,.87-.09,8.24,8.24,0,0,1,6,2.14,8.45,8.45,0,0,1,2.77,6.29Z"/><path class="cls-4" d="M70.09,38.46q-.44,0-.87.09l-.1,0L47,45.63a4.53,4.53,0,0,0-1.79,1.17L12.87,83.28a5.8,5.8,0,0,0,.44,8.14L33,109.24A5.66,5.66,0,0,0,41,108.8L73.36,72.32a4.49,4.49,0,0,0,1-1.93L78.86,47v-.14a8.43,8.43,0,0,0-2.77-6.29A8.18,8.18,0,0,0,70.09,38.46ZM56.46,71.88a12.56,12.56,0,0,0-3.17-4.61c-1.82-1.65-3.11-1.39-3.81-.6s-.37,2.41,1.2,5.47c2.28,4.2,2.24,7,0,9.51s-5.89,3.06-9.61.71l-2.55,2.88-2.74-2.48,2.38-2.68a15.28,15.28,0,0,1-3.68-5.52L38.24,72a13.47,13.47,0,0,0,3.54,5.45c1.59,1.45,3.24,1.81,4.24.68s.66-2.56-.79-5.15c-2.09-3.73-2.88-7-.45-9.73,2.2-2.49,5.67-2.86,9.18-.74l2.38-2.68,2.74,2.48-2.2,2.49a13.6,13.6,0,0,1,3.23,4.61ZM68.69,53.09a4,4,0,1,1,3.79-4.23A4,4,0,0,1,68.69,53.09Z"/><path class="cls-5" d="M59.08,62.33l-2.74-2.48L54,62.53c-3.52-2.12-7-1.74-9.18.74-2.43,2.74-1.64,6,.45,9.73,1.44,2.58,1.74,4.07.79,5.15s-2.64.76-4.24-.68A13.47,13.47,0,0,1,38.24,72l-3.77,2.54a15.28,15.28,0,0,0,3.68,5.52l-2.38,2.68,2.74,2.48,2.55-2.88c3.72,2.35,7.38,1.8,9.61-.71s2.29-5.31,0-9.51c-1.57-3.06-2-4.54-1.2-5.47s2-1,3.81.6a12.56,12.56,0,0,1,3.17,4.61l3.64-2.46a13.7,13.7,0,0,0-3.23-4.61Z"/><path class="cls-5" d="M68.26,45.07a4,4,0,1,0,4.23,3.79A4,4,0,0,0,68.26,45.07Z"/><polygon class="cls-4" points="6.93 92.91 0 100.55 0 111.48 12.37 97.85 6.93 92.91"/><path class="cls-4" d="M16.9,102,.26,120.31A6.23,6.23,0,0,0,6,124.88l16.31-18Z"/><polygon class="cls-4" points="26.87 111 14.26 124.89 24.17 124.89 32.3 115.93 26.87 111"/></g></g></svg>