<svg xmlns="http://www.w3.org/2000/svg" width="195" height="52" viewBox="0 0 195 52">
    <g fill="none" fill-rule="evenodd">
        <path d="M0 0h195v52H0z"/>
        <g fill="#181916">
            <path d="M107 46h2v-3h-2zM130.292 31.992c-.08-.925-.312-1.744-.696-2.453a5.436 5.436 0 0 0-1.49-1.759 6.672 6.672 0 0 0-2.126-1.063 8.915 8.915 0 0 0-2.602-.367c-1.271 0-2.398.265-3.377.797a7.511 7.511 0 0 0-2.464 2.126 9.757 9.757 0 0 0-1.51 3.025 11.954 11.954 0 0 0-.517 3.498c0 1.418.16 2.727.477 3.925.318 1.2.808 2.243 1.47 3.13a6.89 6.89 0 0 0 2.464 2.065c.979.49 2.131.735 3.457.735.953 0 1.834-.164 2.642-.49a7.06 7.06 0 0 0 2.145-1.35 6.948 6.948 0 0 0 1.53-2.065 8.547 8.547 0 0 0 .795-2.638H132c-.158 1.255-.497 2.371-1.013 3.353-.517.983-1.152 1.807-1.908 2.474a7.983 7.983 0 0 1-2.582 1.534 8.976 8.976 0 0 1-3.12.531c-1.668 0-3.092-.306-4.27-.919a8.21 8.21 0 0 1-2.9-2.475c-.757-1.035-1.313-2.228-1.67-3.578a16.468 16.468 0 0 1-.537-4.232c0-1.472.205-2.863.616-4.172.41-1.308 1.013-2.453 1.808-3.435a8.606 8.606 0 0 1 2.94-2.33c1.167-.574 2.503-.859 4.014-.859 1.112 0 2.152.143 3.12.43a7.95 7.95 0 0 1 2.581 1.287 6.718 6.718 0 0 1 1.848 2.167c.477.873.768 1.91.874 3.108h-1.51M135.45 36c0 1.255.165 2.462.495 3.62.33 1.158.814 2.187 1.45 3.088a7.227 7.227 0 0 0 2.364 2.147c.94.531 2.021.796 3.242.796 1.22 0 2.3-.265 3.241-.796a7.252 7.252 0 0 0 2.365-2.147c.634-.9 1.118-1.93 1.45-3.088.328-1.158.494-2.365.494-3.62 0-1.254-.166-2.46-.495-3.619-.331-1.158-.815-2.187-1.45-3.088a7.222 7.222 0 0 0-2.364-2.146c-.94-.532-2.021-.797-3.241-.797-1.221 0-2.302.265-3.242.797a7.197 7.197 0 0 0-2.364 2.146c-.636.9-1.12 1.93-1.45 3.088A13.117 13.117 0 0 0 135.45 36zM134 36c0-1.5.197-2.91.591-4.232.394-1.322.973-2.487 1.735-3.497a8.377 8.377 0 0 1 2.822-2.392c1.12-.586 2.403-.879 3.853-.879 1.449 0 2.732.293 3.851.879a8.36 8.36 0 0 1 2.822 2.392c.763 1.01 1.34 2.175 1.736 3.497.394 1.323.59 2.733.59 4.232 0 1.5-.196 2.918-.59 4.253-.395 1.336-.973 2.502-1.736 3.497a8.432 8.432 0 0 1-2.822 2.372c-1.12.585-2.402.878-3.851.878-1.45 0-2.734-.293-3.853-.878a8.45 8.45 0 0 1-2.822-2.372c-.762-.995-1.34-2.16-1.735-3.497A14.935 14.935 0 0 1 134 36zM156.684 25.785h1.54v4.234h.081a5.518 5.518 0 0 1 .852-1.834 6.537 6.537 0 0 1 1.479-1.514 7.024 7.024 0 0 1 1.945-1.007 6.98 6.98 0 0 1 2.25-.363c1 0 1.865.127 2.594.382.729.257 1.35.593 1.865 1.01.512.416.917.885 1.215 1.41.297.525.5 1.057.608 1.594h.081c.62-1.425 1.452-2.514 2.493-3.268 1.04-.752 2.411-1.128 4.114-1.128.946 0 1.816.141 2.614.423a5.475 5.475 0 0 1 2.068 1.29c.58.579 1.032 1.312 1.357 2.2.325.885.486 1.935.486 3.145v14.157h-1.54V32.318c0-1.317-.202-2.352-.608-3.105-.405-.753-.885-1.325-1.44-1.715-.553-.39-1.108-.631-1.66-.725-.555-.095-.98-.141-1.277-.141-.947 0-1.818.16-2.615.484a5.524 5.524 0 0 0-2.066 1.452c-.582.645-1.035 1.446-1.358 2.4-.324.954-.487 2.05-.487 3.287v12.261h-1.54V32.318c0-1.29-.197-2.319-.588-3.085-.392-.767-.851-1.338-1.378-1.715-.527-.376-1.068-.618-1.621-.726-.555-.107-.993-.16-1.317-.16-.73 0-1.487.148-2.27.443a6.359 6.359 0 0 0-2.149 1.371c-.648.62-1.175 1.411-1.58 2.38-.406.969-.608 2.111-.608 3.429v12.261h-1.54V25.785M59.6 6.934c-2.065 1.077-2.834 2.893-2.834 7.915 0 0 1.045-1.006 2.596-1.565 1.13-.408 2.095-1.028 2.653-1.435 1.745-1.271 2.014-2.91 2.014-5.665 0 0-2.844-.076-4.43.75M47.357 8.11c-1.684 1.477-2.175 3.831-2.175 3.831l-5.573 21.487-4.636-17.586c-.452-1.87-1.266-4.18-2.554-5.744-1.64-1.99-4.974-2.116-5.329-2.116-.355 0-3.69.125-5.33 2.116-1.287 1.563-2.102 3.874-2.553 5.744L14.57 33.428 8.998 11.941s-.491-2.354-2.175-3.83C4.093 5.714 0 6.227 0 6.227l10.673 40.158s3.521.251 5.282-.642c2.315-1.173 3.416-2.08 4.817-7.543 1.249-4.87 4.739-19.18 5.065-20.198.16-.504.365-1.707 1.253-1.707.908 0 1.095 1.202 1.253 1.707.32 1.02 3.816 15.327 5.065 20.198 1.401 5.464 2.502 6.37 4.816 7.543 1.762.893 5.283.642 5.283.642L54.18 6.228s-4.093-.513-6.823 1.882M64.026 12.784s-.668 1.028-2.19 1.875c-.98.544-1.918.913-2.925 1.394-1.688.806-2.145 1.704-2.145 3.073v27.26s2.693.338 4.455-.556c2.267-1.15 2.788-2.259 2.808-7.253V14.24h-.003v-1.455M90.63 26.404l13.542-20.043s-5.716-.968-8.546 1.596c-1.81 1.64-3.835 4.59-3.835 4.59l-4.983 7.147c-.242.371-.558.776-1.063.776-.506 0-.823-.405-1.063-.776l-4.983-7.148s-2.026-2.95-3.836-4.59c-2.83-2.563-8.546-1.595-8.546-1.595L80.86 26.404 67.353 46.386s5.952.747 8.782-1.816c1.81-1.64 3.564-4.308 3.564-4.308l4.983-7.147c.24-.372.557-.776 1.063-.776.505 0 .821.404 1.063.776l4.983 7.147s1.855 2.668 3.666 4.308c2.83 2.563 8.679 1.816 8.679 1.816L90.63 26.404"/>
        </g>
    </g>
</svg>
