<?xml version="1.0" encoding="UTF-8"?>
<svg width="265px" height="56px" viewBox="0 0 265 56" version="1.1" xmlns="http://www.w3.org/2000/svg" xmlns:xlink="http://www.w3.org/1999/xlink">
    <!-- Generator: Sketch 60 (88103) - https://sketch.com -->
    <title>Artboard</title>
    <desc>Created with Sketch.</desc>
    <g id="Artboard" stroke="none" stroke-width="1" fill="none" fill-rule="evenodd">
        <g id="Group-2" transform="translate(5.000000, 8.000000)" fill-rule="nonzero">
            <path d="M17.0851267,-3.55271368e-15 L17.0851267,14.73 C17.1519259,14.6882298 17.2154433,14.6414275 17.2751267,14.59 C19.6226282,11.8436382 23.2436551,10.5375893 26.8037574,11.153169 C30.3638597,11.7687486 33.3361008,14.2148439 34.6251267,17.59 C35.6110091,20.0354777 36.0972337,22.65361 36.0551267,25.29 C36.1569647,28.18481 35.5852882,31.0637321 34.3851267,33.7 C33.0173796,36.9066488 30.0682518,39.1611943 26.6151267,39.64 C23.1186947,40.2352161 19.5685758,38.9338863 17.2851267,36.22 L17.1251267,36.05 C16.3151267,36.83 15.4651267,37.56 14.7351267,38.38 C14.2442747,38.9689208 13.4997847,39.285329 12.7351267,39.23 C10.0251267,39.17 7.32512665,39.23 4.61512665,39.23 L3.97512665,39.23 L3.97512665,7.81 L0.455126652,7.81 C0.455126652,7.56 0.455126652,7.31 0.455126652,7.06 C0.455126652,4.71 0.455126652,2.35 0.455126652,-3.55271368e-15 L17.0851267,-3.55271368e-15 Z" id="Path" fill="#62764A"></path>
            <path d="M17.0251267,25.42 L17.0751267,25.42 C17.0751267,26.66 17.0751267,27.91 17.0751267,29.15 C17.1058743,29.7922922 17.2340023,30.4261882 17.4551267,31.03 C17.7858014,31.9694628 18.7135384,32.5632145 19.7051267,32.47 C20.6589416,32.5021478 21.5208044,31.9045354 21.8251267,31 C22.0006321,30.5871176 22.1054278,30.1476517 22.1351267,29.7 C22.1951267,28.06 22.2051267,26.42 22.2051267,24.78 C22.2051267,23.54 22.2051267,22.3 22.1351267,21.06 C22.1733515,19.9006835 21.439003,18.8562766 20.3351267,18.5 C19.6215787,18.2679665 18.8405752,18.3829982 18.2242283,18.8109078 C17.6078814,19.2388175 17.2271278,19.930356 17.1951267,20.68 C17.0351267,22.24 17.0751267,23.84 17.0251267,25.42 Z" id="Path" fill="#62764A"></path>
            <path d="M0.525126652,0 C0.525126652,2.35 0.525126652,4.71 0.525126652,7.06 C0.525126652,7.31 0.525126652,7.56 0.525126652,7.81 L0.475126652,7.81 L0.475126652,7.81 C0.475126652,5.36 0.475126652,2.9 0.475126652,0.45 C0.472570238,0.298483184 0.489372801,0.14726012 0.525126652,0 L0.525126652,0 Z" id="Path" fill="#C6CDBD"></path>
            <path d="M106.655127,31.39 L110.105127,31.39 L110.105127,39.22 L92.0051267,39.22 L92.0051267,31.39 L93.4551267,31.39 C93.4551267,31.22 93.4551267,31.12 93.4551267,31.01 C93.4551267,28.01 93.4551267,25.01 93.4551267,22.01 C93.4410986,21.330209 93.3265236,20.6562383 93.1151267,20.01 C93.050711,19.5701888 92.7503355,19.2011058 92.3327772,19.048697 C91.915219,18.8962883 91.4477138,18.9850948 91.1151267,19.28 C90.4872559,19.7271869 89.9621982,20.3033866 89.5751267,20.97 C88.7138489,22.3727094 88.2762956,23.9944347 88.3151267,25.64 C88.3851267,27.53 88.3151267,29.42 88.3151267,31.35 L89.7751267,31.35 L89.7751267,39.19 L71.7751267,39.19 L71.7751267,31.37 L75.1451267,31.37 L75.1451267,19.5 L71.8051267,19.5 L71.8051267,11.62 L88.3751267,11.62 L88.3751267,17.31 C89.0751267,16.41 89.7051267,15.49 90.4551267,14.68 C92.3451322,12.5741943 94.9739311,11.2777023 97.7951267,11.06 C101.477839,10.6815385 104.918207,12.9472486 106.025127,16.48 C106.458242,17.7236339 106.671428,19.0332052 106.655127,20.35 L106.655127,31.35 L106.655127,31.39 Z" id="Path" fill="#62764B"></path>
            <path d="M165.055127,39.22 L147.055127,39.22 L147.055127,31.4 L150.395127,31.4 L150.395127,19.48 L147.055127,19.48 L147.055127,11.62 L163.605127,11.62 L163.605127,17.37 C164.195127,16.57 164.705127,15.79 165.315127,15.09 C167.233572,12.7999841 169.980127,11.361997 172.955127,11.09 C176.650643,10.6910548 180.116328,12.9485577 181.245127,16.49 C181.672374,17.6971113 181.885575,18.9695514 181.875127,20.25 C181.875127,23.75 181.875127,27.25 181.875127,30.75 L181.875127,31.39 L185.315127,31.39 L185.315127,39.24 L167.195127,39.24 L167.195127,31.44 L168.685127,31.44 C168.715051,31.338837 168.735144,31.2350226 168.745127,31.13 C168.745127,28.03 168.745127,24.93 168.665127,21.83 C168.646972,21.2191289 168.532218,20.6149838 168.325127,20.04 C168.251635,19.6057834 167.949831,19.2448775 167.535472,19.0957081 C167.121113,18.9465388 166.658522,19.0322626 166.325127,19.32 C165.862725,19.5974971 165.466768,19.9729741 165.165127,20.42 C164.118466,21.9003587 163.552855,23.6670189 163.545127,25.48 C163.545127,27.3 163.545127,29.12 163.545127,30.94 L163.545127,31.4 L165.015127,31.4 L165.055127,39.22 Z" id="Path" fill="#62764A"></path>
            <path d="M250.715127,30.53 L255.085127,30.53 C255.177627,31.6943678 255.062505,32.8659093 254.745127,33.99 C254.080698,36.5455505 252.101547,38.551395 249.555127,39.25 C246.584961,40.1987603 243.364148,39.9733034 240.555127,38.62 C239.250337,38.0554303 238.145737,37.1111194 237.385127,35.91 C237.385127,35.91 237.275127,35.91 237.255127,35.97 C235.581297,38.0676624 233.134585,39.4045254 230.465127,39.68 C228.022251,40.0586306 225.521964,39.7108857 223.275127,38.68 C220.898956,37.8157858 219.248351,35.6410549 219.055127,33.12 C218.8241,30.9350148 219.782085,28.7938604 221.565127,27.51 C223.353292,26.2370275 225.403187,25.3794882 227.565127,25 C230.230969,24.4482464 232.943082,24.1502488 235.665127,24.11 L236.015127,24.11 C236.024353,23.970152 236.024353,23.829848 236.015127,23.69 C236.015127,22.27 236.015127,20.84 236.015127,19.42 C236.025114,19.2401385 236.025114,19.0598615 236.015127,18.88 C235.978293,18.2710416 235.610401,17.7313578 235.057033,17.4745112 C234.503664,17.2176646 233.854001,17.2850493 233.365127,17.65 C232.915127,17.94 232.825127,18.42 232.945127,19.16 C233.062924,19.7188199 233.086583,20.2933873 233.015127,20.86 C232.821455,21.7257476 232.193365,22.429511 231.355127,22.72 C229.110446,23.7443099 226.543671,23.8021528 224.255127,22.88 C223.044808,22.3625699 222.104152,21.3651586 221.658435,20.1266347 C221.212718,18.8881108 221.302083,17.5200184 221.905127,16.35 C222.575308,15.0367273 223.619135,13.9511478 224.905127,13.23 C226.831131,12.1214143 228.972748,11.4393708 231.185127,11.23 C234.460213,10.774585 237.793547,10.9854695 240.985127,11.85 C243.000485,12.3786421 244.848362,13.4109755 246.355127,14.85 C247.876227,16.2985648 248.718166,18.3199442 248.675127,20.42 C248.675127,24.3 248.675127,28.17 248.675127,32.05 C248.675127,32.25 248.675127,32.45 248.675127,32.64 C248.735127,33.3 249.075127,33.64 249.675127,33.64 C250.227411,33.64 250.675127,33.1922847 250.675127,32.64 C250.675127,32.14 250.675127,31.64 250.675127,31.13 L250.715127,30.53 Z" id="Path" fill="#62764A"></path>
            <path d="M236.075127,27.84 C235.130307,27.8810827 234.20858,28.144923 233.385127,28.61 C232.462864,29.1134759 231.887991,30.0792635 231.885127,31.13 C231.831972,31.6317311 231.990649,32.1328778 232.32289,32.5125821 C232.655131,32.8922863 233.13078,33.1160828 233.635127,33.13 C234.181051,33.2344582 234.74602,33.1138742 235.201726,32.7956335 C235.657432,32.4773927 235.965197,31.9885048 236.055127,31.44 C236.145127,30.25 236.075127,29.06 236.075127,27.84 Z" id="Path" fill="#62764A"></path>
            <path d="M142.455127,30.53 L146.755127,30.53 C147.125127,34.15 145.555127,38.08 140.935127,39.36 C137.990731,40.2037205 134.837161,39.9147622 132.095127,38.55 C130.827587,37.9770077 129.761486,37.0363304 129.035127,35.85 C127.409123,37.9657169 124.995759,39.3329286 122.345127,39.64 C119.005127,40.12 115.765127,39.7 113.035127,37.51 C111.589991,36.3134079 110.746941,34.5397806 110.7313,32.6636114 C110.71609,30.7874422 111.529862,29.0001925 112.955127,27.78 C114.675633,26.4300419 116.695911,25.5142284 118.845127,25.11 C121.471616,24.5098274 124.151717,24.1748147 126.845127,24.11 C127.125127,24.11 127.415127,24.11 127.655127,24.11 C127.725127,24.02 127.765127,24 127.765127,23.97 C127.765127,22.2 127.765127,20.44 127.715127,18.67 C127.750699,18.1043372 127.375711,17.5945223 126.825127,17.46 C126.190663,17.1959895 125.461239,17.3162668 124.945127,17.77 C124.730154,18.0873254 124.628024,18.4676728 124.655127,18.85 C124.655127,19.35 124.885127,19.85 124.855127,20.34 C124.755327,21.4113894 124.052466,22.3317102 123.045127,22.71 C121.564156,23.3540033 119.939375,23.5954781 118.335127,23.41 C117.779785,23.3652296 117.230354,23.264724 116.695127,23.11 C115.301664,22.7488444 114.145823,21.777717 113.549859,20.4673735 C112.953896,19.15703 112.981555,17.6476291 113.625127,16.36 C114.344774,14.9109388 115.512578,13.7326144 116.955127,13 C118.82851,11.9798207 120.890784,11.3536517 123.015127,11.16 C126.096311,10.7435071 129.228586,10.9165797 132.245127,11.67 C134.507677,12.1705777 136.585623,13.2926686 138.245127,14.91 C139.672829,16.3250592 140.463429,18.2600433 140.435127,20.27 C140.435127,24.2 140.435127,28.13 140.435127,32.06 C140.414964,32.2761976 140.414964,32.4938024 140.435127,32.71 C140.445254,32.962258 140.557501,33.1995591 140.746089,33.3674022 C140.934676,33.5352453 141.183397,33.6192056 141.435127,33.6 C141.940386,33.6042854 142.369459,33.230992 142.435127,32.73 C142.454943,32.5505454 142.454943,32.3694546 142.435127,32.19 C142.455127,31.67 142.455127,31.12 142.455127,30.53 Z" id="Path" fill="#62764A"></path>
            <path d="M127.825127,27.8699999 C126.718629,27.8697806 125.640461,28.2198352 124.745127,28.8699999 C123.880101,29.5029394 123.456004,30.5767994 123.655127,31.63 C123.81853,32.5824509 124.694339,33.2436869 125.655127,33.14 C126.738261,33.197588 127.669883,32.3813091 127.755127,31.3 C127.895127,30.17 127.845127,29.04 127.845127,27.8699999 L127.825127,27.8699999 Z" id="Path" fill="#62764A"></path>
            <path d="M186.075127,39.21 C186.075127,38.5 186.075127,37.81 186.075127,37.13 C186.12303,36.9256298 186.226912,36.7386421 186.375127,36.59 C191.041793,30.7033333 195.68846,24.8166667 200.315127,18.93 C200.475127,18.72 200.635127,18.51 200.855127,18.24 L194.855127,18.24 L194.855127,23.12 L186.945127,23.12 L186.945127,11.62 L217.755127,11.62 C217.695127,12.62 217.955127,13.62 217.225127,14.56 C212.935127,20.37 208.715127,26.24 204.465127,32.08 L204.125127,32.57 L209.895127,32.57 L209.895127,27.64 L217.735127,27.64 L217.735127,39.2 L186.075127,39.21 Z" id="Path" fill="#63764B"></path>
            <path d="M37.8951267,25.58 C38.0351267,19.7 40.5551267,15.38 45.7251267,12.91 C51.1274672,10.1812761 57.5213035,10.2596594 62.8551267,13.12 C68.3251267,15.92 70.4751267,21.12 70.1551267,26.42 C69.7351267,33.12 65.1751267,37.53 59.4551267,39.12 C55.1964672,40.3716828 50.6346524,40.0993885 46.5551267,38.35 C41.2615259,36.3490555 37.7956412,31.2382763 37.8951267,25.58 L37.8951267,25.58 Z" id="Path" fill="#62764A"></path>
            <path d="M56.2751267,25.49 L56.2751267,25.49 C56.2751267,23.9 56.2751267,22.31 56.2751267,20.73 C56.2610367,20.1905959 56.1597265,19.6570288 55.9751267,19.15 C55.7228604,18.3485614 54.9646319,17.8157522 54.1251267,17.85 C53.2510689,17.7472735 52.4217816,18.2614316 52.1251267,19.09 C51.9060551,19.6589174 51.7843534,20.2606646 51.7651267,20.87 C51.7651267,23.87 51.7651267,26.96 51.7651267,30 C51.782768,30.6104817 51.9080227,31.2130583 52.1351267,31.78 C52.4264078,32.572287 53.2147041,33.0690779 54.0551267,32.99 C54.9004546,33.0507722 55.6758495,32.5200206 55.9251267,31.71 C56.12117,31.0950014 56.2289116,30.4552855 56.2451267,29.81 C56.3051267,28.37 56.2751267,26.93 56.2751267,25.49 L56.2751267,25.49 Z" id="Path" fill="#62764A"></path>
            <path d="M17.0251267,25.42 C17.0751267,23.84 17.0251267,22.24 17.2151267,20.68 C17.2471278,19.930356 17.6278814,19.2388175 18.2442283,18.8109078 C18.8605752,18.3829982 19.6415787,18.2679665 20.3551267,18.5 C21.459003,18.8562766 22.1933515,19.9006835 22.1551267,21.06 C22.2351267,22.3 22.2251267,23.54 22.2251267,24.78 C22.2251267,26.42 22.2251267,28.06 22.1551267,29.7 C22.1254278,30.1476517 22.0206321,30.5871176 21.8451267,31 C21.5408044,31.9045354 20.6789416,32.5021478 19.7251267,32.47 C18.7264533,32.5729068 17.7875769,31.97732 17.4551267,31.03 C17.2340023,30.4261882 17.1058743,29.7922922 17.0751267,29.15 C17.0151267,27.91 17.0751267,26.66 17.0751267,25.42 L17.0251267,25.42 Z" id="Path" fill="#FCFDFC"></path>
            <path d="M236.075127,27.84 C236.075127,29.06 236.145127,30.25 236.075127,31.43 C235.985197,31.9785048 235.677432,32.4673927 235.221726,32.7856335 C234.76602,33.1038742 234.201051,33.2244582 233.655127,33.12 C233.15078,33.1060828 232.675131,32.8822863 232.34289,32.5025821 C232.010649,32.1228778 231.851972,31.6217311 231.905127,31.12 C231.907991,30.0692635 232.482864,29.1034759 233.405127,28.6 C234.223478,28.141428 235.137952,27.8811281 236.075127,27.84 Z" id="Path" fill="#FCFDFC"></path>
            <path d="M127.845127,27.87 C127.845127,29.04 127.895127,30.17 127.845127,31.3 C127.759883,32.3813091 126.828261,33.197588 125.745127,33.14 C124.784339,33.2436869 123.90853,32.5824509 123.745127,31.63 C123.546004,30.5767994 123.970101,29.5029394 124.835127,28.87 C125.711062,28.233721 126.76258,27.8843796 127.845127,27.87 Z" id="Path" fill="#FBFCFB"></path>
            <path d="M56.2751267,25.49 C56.2751267,26.93 56.2751267,28.37 56.2751267,29.81 C56.2589116,30.4552855 56.15117,31.0950014 55.9551267,31.71 C55.7058495,32.5200206 54.9304546,33.0507722 54.0851267,32.99 C53.2447041,33.0690779 52.4564078,32.572287 52.1651267,31.78 C51.9380227,31.2130583 51.812768,30.6104817 51.7951267,30 C51.7951267,27 51.7951267,23.91 51.7951267,20.87 C51.8143534,20.2606646 51.9360551,19.6589174 52.1551267,19.09 C52.4517816,18.2614316 53.2810689,17.7472735 54.1551267,17.85 C54.9682534,17.8342856 55.697303,18.3486706 55.9551267,19.12 C56.1397265,19.6270288 56.2410367,20.1605959 56.2551267,20.7 C56.2551267,22.28 56.2551267,23.87 56.2551267,25.46 L56.2751267,25.49 Z" id="Path" fill="#FEFEFD"></path>
        </g>
    </g>
</svg>