<?xml version="1.0" encoding="UTF-8"?>
<svg width="161px" height="38px" viewBox="0 0 161 38" version="1.1" xmlns="http://www.w3.org/2000/svg" xmlns:xlink="http://www.w3.org/1999/xlink">
    <!-- Generator: Sketch 46.2 (44496) - http://www.bohemiancoding.com/sketch -->
    <title>Fill 1</title>
    <desc>Created with Sketch.</desc>
    <defs></defs>
    <g id="Symbols" stroke="none" stroke-width="1" fill="none" fill-rule="evenodd">
        <g id="Header/dark" transform="translate(-98.000000, -18.000000)" fill="#FF8C44">
            <g id="HEADER" transform="translate(0.000000, 18.000000)">
                <path d="M147.722556,21.5961499 C149.243556,23.4711499 151.962556,21.9991499 151.158556,19.9111499 C150.221556,17.4801499 146.243556,19.7721499 147.722556,21.5961499 L147.722556,21.5961499 Z M99.8545555,8.91214994 C98.0395555,8.41714994 97.2135555,11.0561499 98.9755555,11.5371499 C100.787556,12.0321499 101.668556,9.40814994 99.8545555,8.91214994 L99.8545555,8.91214994 Z M102.042556,29.5151499 C101.320556,29.1001499 100.684556,30.0791499 101.429556,30.4901499 C102.080556,30.8491499 102.738556,29.9151499 102.042556,29.5151499 L102.042556,29.5151499 Z M129.387556,30.2451499 C128.655556,29.8241499 127.968556,30.8931499 128.764556,31.2321499 C129.705556,31.6341499 130.092556,30.6501499 129.387556,30.2451499 L129.387556,30.2451499 Z M127.647556,32.3771499 C125.553556,31.9621499 124.952556,34.6711499 127.064556,35.1851499 C129.175556,35.7001499 129.662556,32.7771499 127.647556,32.3771499 L127.647556,32.3771499 Z M128.717556,18.6601499 C130.015556,18.9771499 130.316556,17.1781499 129.076556,16.9321499 C127.787556,16.6771499 127.419556,18.3431499 128.717556,18.6601499 L128.717556,18.6601499 Z M107.901556,25.6281499 C108.045556,23.3331499 111.298556,23.6921499 111.251556,25.7491499 C111.209556,27.6211499 107.793556,27.3531499 107.901556,25.6281499 L107.901556,25.6281499 Z M145.158556,28.9371499 C140.737556,29.9841499 135.804556,26.8791499 136.975556,23.8711499 C137.659556,22.1171499 140.987556,22.9451499 143.624556,22.5131499 C145.807556,22.1541499 144.755556,19.5851499 142.193556,20.6651499 C140.196556,21.5071499 136.356556,22.9891499 138.291556,19.2701499 C140.225556,15.5531499 145.900556,15.3961499 146.692556,13.2041499 C147.483556,11.0111499 143.794556,9.70514994 140.425556,12.5841499 C137.057556,15.4631499 136.176556,20.3381499 133.010556,22.1061499 C130.474556,23.5211499 128.617556,19.7101499 125.058556,17.5741499 C123.264556,16.4971499 121.436556,15.8121499 119.636556,15.4491499 C118.534556,15.2151499 117.738556,14.4041499 117.613556,13.4691499 C117.450556,12.2481499 118.028556,9.99414994 120.065556,8.56014994 C121.277556,7.70614994 121.915556,6.81014994 121.310556,6.12614994 C120.302556,4.98714994 118.086556,6.60114994 117.488556,8.08014994 C116.064556,11.5961499 116.892556,14.2021499 115.189556,14.3271499 C113.958556,14.4171499 113.446556,14.0301499 112.812556,9.69214994 C112.545556,7.86014994 112.736556,6.11814994 113.165556,4.34514994 C113.471556,3.08114994 113.841556,1.17714994 112.501556,0.31614994 C111.072556,-0.60285006 109.751556,0.64214994 109.587556,1.99614994 C109.405556,3.48414994 109.979556,5.52514994 110.382556,6.94014994 C110.912556,8.80414994 113.047556,14.4181499 110.674556,15.2051499 C108.525556,15.9181499 108.472556,12.6711499 106.994556,10.8231499 C105.876556,9.42514994 103.350556,8.46114994 102.702556,9.76914994 C102.283556,10.6141499 103.065556,11.4141499 104.385556,11.5561499 C106.279556,11.7581499 106.887556,12.9841499 107.069556,13.6491499 C107.435556,14.9871499 107.826556,17.3451499 106.188556,18.5591499 C101.925556,21.8491499 101.435556,26.1021499 103.324556,28.2671499 C107.408556,32.9471499 112.010556,31.2851499 113.262556,35.5731499 C113.842556,37.5611499 114.753556,38.2321499 115.615556,37.9271499 C116.696556,37.5461499 116.054556,35.7221499 114.152556,34.2651499 C112.425556,32.9411499 115.202556,33.4361499 117.940556,32.9591499 C123.952556,31.9101499 126.963556,29.6731499 128.986556,27.8141499 C133.003556,24.1221499 134.507556,27.1401499 141.689556,31.0501499 C145.947556,33.3681499 151.915556,31.7671499 151.165556,29.4731499 C150.538556,27.5521499 147.558556,28.3681499 145.158556,28.9371499 L145.158556,28.9371499 Z M248.216556,22.2971499 C248.588556,20.2271499 250.183556,19.0781499 252.152556,19.0781499 C253.882556,19.0781499 255.317556,20.1261499 255.397556,22.2971499 L248.216556,22.2971499 Z M252.205556,17.1571499 C248.375556,17.1571499 245.475556,19.7511499 245.475556,23.7691499 C245.475556,27.5121499 248.375556,30.3821499 252.605556,30.3821499 C255.027556,30.3821499 256.756556,29.3641499 257.464556,28.8601499 C257.674556,28.7111499 257.729556,28.4371499 257.599556,28.2211499 L256.849556,26.9721499 C256.801556,26.8921499 256.688556,26.8701499 256.611556,26.9281499 C256.160556,27.2751499 254.682556,28.2851499 252.764556,28.2851499 C250.370556,28.2851499 248.269556,26.8881499 248.136556,24.1191499 L257.806556,24.1191499 C257.889556,24.1191499 257.957556,24.0611499 257.965556,23.9841499 C257.988556,23.7601499 258.030556,23.3081499 258.030556,23.0711499 C258.030556,19.8021499 256.009556,17.1571499 252.205556,17.1571499 L252.205556,17.1571499 Z M239.183556,26.2151499 L239.183556,12.6161499 C239.183556,12.5331499 239.112556,12.4661499 239.023556,12.4661499 L237.135556,12.4661499 C236.841556,12.4661499 236.603556,12.6891499 236.603556,12.9651499 L236.603556,26.6381499 C236.603556,29.8081499 238.758556,30.1821499 240.221556,30.1821499 C240.345556,30.1821499 240.463556,30.1791499 240.573556,30.1731499 C240.853556,30.1591499 241.072556,29.9391499 241.072556,29.6751499 L241.072556,28.0101499 L240.620556,28.0101499 C239.822556,28.0101499 239.183556,27.7371499 239.183556,26.2151499 L239.183556,26.2151499 Z M227.529556,24.4191499 C227.529556,26.2891499 226.119556,28.4361499 223.938556,28.4361499 C222.263556,28.4361499 221.411556,27.4381499 221.411556,26.4141499 C221.411556,24.1431499 224.922556,24.0181499 226.864556,24.0181499 L227.529556,24.0181499 L227.529556,24.4191499 Z M225.114556,17.1641499 C222.680556,17.1641499 220.906556,17.9321499 220.145556,18.3851499 C219.913556,18.5241499 219.836556,18.8241499 219.972556,19.0491499 L220.712556,20.2801499 C220.757556,20.3561499 220.862556,20.3811499 220.939556,20.3311499 C221.382556,20.0441499 222.828556,19.2031499 224.550556,19.2031499 C226.252556,19.2031499 227.502556,19.9021499 227.502556,21.9731499 L227.502556,22.1971499 L226.917556,22.1971499 C224.656556,22.1971499 218.805556,22.3711499 218.805556,26.5391499 C218.805556,29.0591499 221.065556,30.3821499 223.380556,30.3821499 C226.598556,30.3821499 227.688556,27.8861499 227.688556,27.8861499 L227.742556,27.8861499 C227.742556,27.8861499 227.688556,28.3111499 227.688556,28.8851499 L227.688556,29.9331499 C227.688556,30.0141499 227.760556,30.0821499 227.848556,30.0821499 L229.550556,30.0821499 C229.844556,30.0821499 230.082556,29.8581499 230.082556,29.5821499 L230.082556,22.0301499 C230.082556,19.4231499 228.051556,17.1641499 225.114556,17.1641499 L225.114556,17.1641499 Z M210.583556,25.1911499 L210.583556,19.5771499 L213.669556,19.5771499 C213.757556,19.5771499 213.829556,19.5111499 213.829556,19.4281499 L213.829556,17.7811499 C213.829556,17.6981499 213.757556,17.6311499 213.669556,17.6311499 L210.583556,17.6311499 L210.583556,14.1381499 C210.583556,14.0551499 210.512556,13.9881499 210.424556,13.9881499 L208.615556,13.9881499 C208.322556,13.9881499 208.083556,14.2111499 208.083556,14.4871499 L208.083556,17.6311499 L206.780556,17.6311499 C206.486556,17.6311499 206.248556,17.8541499 206.248556,18.1301499 L206.248556,19.4281499 C206.248556,19.5111499 206.319556,19.5771499 206.407556,19.5771499 L208.004556,19.5771499 L208.004556,25.4661499 C208.004556,29.6831499 211.435556,30.1821499 213.164556,30.1821499 C213.312556,30.1821499 213.448556,30.1791499 213.568556,30.1731499 C213.850556,30.1591499 214.068556,29.9391499 214.068556,29.6751499 L214.068556,28.0361499 L213.456556,28.0361499 C212.472556,28.0361499 210.583556,27.7121499 210.583556,25.1911499 L210.583556,25.1911499 Z M196.993556,23.0711499 L196.993556,23.0201499 L201.269556,17.6961499 C201.348556,17.5981499 201.273556,17.4561499 201.141556,17.4561499 L198.804556,17.4561499 C198.635556,17.4561499 198.477556,17.5321499 198.376556,17.6581499 L195.024556,21.8961499 C194.925556,22.0231499 194.766556,22.0981499 194.597556,22.0981499 L192.976556,22.0981499 L192.976556,12.6161499 C192.976556,12.5331499 192.905556,12.4661499 192.817556,12.4661499 L190.928556,12.4661499 C190.634556,12.4661499 190.396556,12.6891499 190.396556,12.9651499 L190.396556,29.9331499 C190.396556,30.0151499 190.468556,30.0821499 190.556556,30.0821499 L192.444556,30.0821499 C192.738556,30.0821499 192.976556,29.8581499 192.976556,29.5831499 L192.976556,24.1431499 L194.627556,24.1431499 C194.808556,24.1431499 194.977556,24.2311499 195.075556,24.3741499 L198.915556,30.0131499 C198.943556,30.0551499 198.994556,30.0821499 199.049556,30.0821499 L201.669556,30.0821499 C201.797556,30.0821499 201.872556,29.9491499 201.803556,29.8491499 L196.993556,23.0711499 Z M179.114556,17.1571499 C176.188556,17.1571499 174.593556,18.9531499 174.060556,20.0511499 L174.008556,20.0511499 C174.008556,20.0511499 174.060556,19.6271499 174.060556,19.1281499 L174.060556,17.6061499 C174.060556,17.5231499 173.990556,17.4561499 173.901556,17.4561499 L172.092556,17.4561499 C171.798556,17.4561499 171.559556,17.6801499 171.559556,17.9561499 L171.559556,29.9331499 C171.559556,30.0151499 171.632556,30.0821499 171.720556,30.0821499 L173.608556,30.0821499 C173.902556,30.0821499 174.140556,29.8581499 174.140556,29.5831499 L174.140556,24.1691499 C174.140556,23.5451499 174.194556,22.9711499 174.353556,22.4721499 C174.911556,20.6501499 176.561556,19.3781499 178.609556,19.3781499 C180.764556,19.3781499 181.162556,20.7751499 181.162556,22.5471499 L181.162556,29.9331499 C181.162556,30.0151499 181.234556,30.0821499 181.322556,30.0821499 L183.210556,30.0821499 C183.504556,30.0821499 183.743556,29.8581499 183.743556,29.5831499 L183.743556,21.9971499 C183.743556,18.7791499 182.279556,17.1571499 179.114556,17.1571499 L179.114556,17.1571499 Z M164.678556,17.4561499 L162.789556,17.4561499 C162.494556,17.4561499 162.257556,17.6801499 162.257556,17.9561499 L162.257556,29.9331499 C162.257556,30.0151499 162.328556,30.0821499 162.417556,30.0821499 L164.305556,30.0821499 C164.598556,30.0821499 164.837556,29.8581499 164.837556,29.5831499 L164.837556,17.6061499 C164.837556,17.5231499 164.765556,17.4561499 164.678556,17.4561499 L164.678556,17.4561499 Z M163.533556,12.4471499 C162.741556,12.4471499 162.097556,13.0501499 162.097556,13.7941499 L162.097556,13.8221499 C162.097556,14.5661499 162.741556,15.1691499 163.533556,15.1691499 C164.326556,15.1691499 164.970556,14.5661499 164.970556,13.8221499 L164.970556,13.7941499 C164.970556,13.0501499 164.326556,12.4471499 163.533556,12.4471499 L163.533556,12.4471499 Z" id="Fill-1"></path>
            </g>
        </g>
    </g>
</svg>