<svg xmlns="http://www.w3.org/2000/svg" width="80" height="32" viewBox="0 0 80 32">
    <g fill="none" fill-rule="nonzero">
        <path fill="#E53238" d="M10.29 7C4.677 7 0 9.401 0 16.646 0 22.386 3.145 26 10.435 26c8.58 0 9.13-5.7 9.13-5.7h-4.157s-.892 3.07-5.227 3.07c-3.53 0-6.07-2.406-6.07-5.777H20v-2.116C20 12.142 17.9 7 10.29 7zm-.145 2.704c3.36 0 5.652 2.076 5.652 5.188H4.203c0-3.304 2.99-5.188 5.942-5.188z"/>
        <path fill="#0064D2" d="M20.09 0v22.317c0 1.267-.09 3.045-.09 3.045h4s.144-1.277.144-2.445c0 0 1.977 3.083 7.352 3.083C37.156 26 41 22.083 41 16.47c0-5.22-3.531-9.419-9.495-9.419-5.585 0-7.32 3.006-7.32 3.006V0H20.09zm10.382 9.811c3.844 0 6.288 2.844 6.288 6.66 0 4.092-2.823 6.769-6.26 6.769-4.102 0-6.315-3.193-6.315-6.733 0-3.298 1.985-6.696 6.287-6.696z"/>
        <path fill="#F5AF02" d="M51.22 7c-8.387 0-8.925 4.637-8.925 5.378h4.175s.219-2.707 4.462-2.707c2.757 0 4.894 1.274 4.894 3.724v.873h-4.894c-6.497 0-9.932 1.919-9.932 5.814C41 23.914 44.174 26 48.462 26c5.845 0 7.728-3.261 7.728-3.261 0 1.297.1 2.575.1 2.575H60s-.144-1.584-.144-2.598v-8.762C59.856 8.21 55.267 7 51.22 7zm4.606 9.884v1.163c0 1.516-.927 5.287-6.383 5.287-2.988 0-4.269-1.506-4.269-3.252 0-3.178 4.314-3.198 10.652-3.198z"/>
        <path fill="#86B817" d="M57 8h4.819l6.916 13.48L75.635 8H80L67.432 32h-4.58l3.628-6.69z"/>
    </g>
</svg>
