<?xml version="1.0" encoding="UTF-8"?>
<svg width="15px" height="14px" viewBox="0 0 15 14" version="1.1" xmlns="http://www.w3.org/2000/svg" xmlns:xlink="http://www.w3.org/1999/xlink">
    <!-- Generator: Sketch 42 (36781) - http://www.bohemiancoding.com/sketch -->
    <title>like</title>
    <desc>Created with Sketch.</desc>
    <defs></defs>
    <g id="Page-1" stroke="none" stroke-width="1" fill="none" fill-rule="evenodd">
        <g id="Notification-center" transform="translate(-1040.000000, -1138.000000)" fill="#C0C0C0">
            <g id="CONTENT" transform="translate(366.000000, 216.000000)">
                <g id="2" transform="translate(0.877901, 711.000000)">
                    <g id="bottom" transform="translate(19.000000, 193.000000)">
                        <g id="like" transform="translate(653.653755, 16.218075)">
                            <path d="M13.931285,6.87445767 C14.3383222,6.87594096 14.6686712,7.20819814 14.6686564,7.61906973 L14.658333,11.465258 C14.656873,11.7218525 14.5905083,11.974012 14.4636778,12.1965056 L12.6010255,15.4033807 C12.468296,15.6332908 12.2234837,15.7727053 11.9594995,15.771222 C9.84764009,15.7563891 6.87744841,15.7727053 5.04430627,15.7801218 C4.46324593,15.7801218 4.10930054,15.5368917 3.91168103,15.3321827 C3.77895151,15.1942218 3.70521289,15.0088105 3.70521289,14.8174956 L3.70521289,8.33253269 C3.70521289,8.14712132 3.7745272,7.96615982 3.90135763,7.82969705 C4.19041302,7.51672266 4.43964957,7.17408245 4.67708793,6.8210592 C5.1976826,6.0497479 5.65928637,5.24135433 6.05747493,4.39884506 C6.07222265,4.36769595 6.07222265,3.45102214 6.06927311,2.76425843 C6.06778359,2.35338683 6.39814736,2.01964637 6.80665933,2.01964637 L7.82130277,2.01964637 C8.09413567,2.01964637 8.34484698,2.17094204 8.47462696,2.41420176 C8.71648964,2.87402196 8.8683912,3.2448447 9.00407026,3.83816108 C9.0955209,4.23271648 9.08665752,4.63172174 9.04978821,5.0322103 C8.99522163,5.61811023 8.6914185,6.86852451 8.6914185,6.86852451 L13.931285,6.87445767 Z M2.06674072,7.93352742 C2.47377791,7.93352742 2.80412693,8.26578459 2.80265216,8.6751729 L2.80265216,15.0384911 C2.80265216,15.4479091 2.47230314,15.7801366 2.06526594,15.7801366 L1.40604266,15.7801366 C0.99900547,15.7801366 0.668656444,15.4479091 0.668656444,15.0384911 L0.668656444,8.6751729 C0.668656444,8.26578459 0.99900547,7.93352742 1.40604266,7.93352742 L2.06674072,7.93352742 Z"></path>
                        </g>
                    </g>
                </g>
            </g>
        </g>
    </g>
</svg>