<?xml version="1.0" encoding="UTF-8"?>
<svg width="15px" height="14px" viewBox="0 0 15 14" version="1.1" xmlns="http://www.w3.org/2000/svg" xmlns:xlink="http://www.w3.org/1999/xlink">
    <!-- Generator: Sketch 42 (36781) - http://www.bohemiancoding.com/sketch -->
    <title>settings</title>
    <desc>Created with Sketch.</desc>
    <defs></defs>
    <g id="Page-1" stroke="none" stroke-width="1" fill="none" fill-rule="evenodd">
        <g id="Notification-center" transform="translate(-967.000000, -164.000000)" fill="#C0C0C0">
            <g id="TOP" transform="translate(115.000000, 143.000000)">
                <g id="btn-notifcation-settings" transform="translate(852.000000, 19.000000)">
                    <path d="M12.5728536,6.44207693 C12.5728536,6.44207693 13.3951241,4.58678027 13.3224946,4.51544765 L12.2336994,3.45259158 C12.1584759,3.37931352 10.3025307,4.22622629 10.3025307,4.22622629 L9.44653926,3.88058731 C9.44653926,3.88058731 8.69041346,2 8.58665692,2 L7.05041163,2 C6.9434127,2 6.24370452,3.88447818 6.24370452,3.88447818 L5.38901001,4.23141412 C5.38901001,4.23141412 3.49415617,3.42600397 3.42152659,3.49798507 L2.33467682,4.5621381 C2.25945333,4.63541615 3.12452349,6.45310106 3.12452349,6.45310106 L2.77110277,7.29158361 C2.77110277,7.29158361 0.850309799,8.03149745 0.850309799,8.13136312 L0.850309799,9.63712993 C0.850309799,9.74218343 2.77564212,10.4276251 2.77564212,10.4276251 L3.12906284,11.2648107 C3.12906284,11.2648107 2.30679225,13.1188104 2.37877335,13.190143 L3.46692008,14.255593 C3.54084662,14.3275741 5.39744023,13.4806613 5.39744023,13.4806613 L6.25408017,13.8275972 C6.25408017,13.8275972 7.01020597,15.7068876 7.11461099,15.7068876 L8.65085628,15.7068876 C8.75720674,15.7068876 9.45756339,13.8224094 9.45756339,13.8224094 L10.3148518,13.4754735 C10.3148518,13.4754735 12.2058148,14.2808836 12.2790928,14.2101995 L13.3672396,13.1460465 C13.4431115,13.0714715 12.5760959,11.2550835 12.5760959,11.2550835 L12.9288682,10.4166009 C12.9288682,10.4166009 14.8503096,9.67539016 14.8503096,9.57422753 L14.8503096,8.06975768 C14.8509581,7.96535266 12.9262743,7.28185644 12.9262743,7.28185644 L12.5728536,6.44207693 Z M7.85063396,11.0495159 C6.61463416,11.0495159 5.60625027,10.0638287 5.60625027,8.85311956 C5.60625027,7.64241042 6.61463416,6.65802023 7.85063396,6.65802023 C9.08857919,6.65866871 10.0950176,7.64241042 10.0950176,8.85311956 C10.0950176,10.0638287 9.08793071,11.0495159 7.85063396,11.0495159 Z" id="settings"></path>
                </g>
            </g>
        </g>
    </g>
</svg>