<?xml version="1.0" encoding="utf-8"?>
<!-- Generator: Adobe Illustrator 21.0.0, SVG Export Plug-In . SVG Version: 6.00 Build 0)  -->
<svg version="1.1" id="Layer_1" xmlns="http://www.w3.org/2000/svg" xmlns:xlink="http://www.w3.org/1999/xlink" x="0px" y="0px"
	 viewBox="0 0 170 58" style="enable-background:new 0 0 170 58;" xml:space="preserve">
<style type="text/css">
	.st0{fill-rule:evenodd;clip-rule:evenodd;fill:#F7981D;}
	.st1{fill-rule:evenodd;clip-rule:evenodd;fill:#231F20;}
</style>
<g>
	<path class="st0" d="M104.3,42.5C95,49.4,81.5,53,69.9,53c-16.3,0-30.9-6-42-15.9c-0.9-0.8-0.1-1.9,1-1.2c12,6.9,26.7,11.1,42,11.1
		c10.3,0,21.6-2.1,32.1-6.5C104.5,39.7,105.8,41.4,104.3,42.5z"/>
	<path class="st0" d="M108.1,38.1c-1.2-1.5-7.9-0.7-10.9-0.4c-0.9,0.1-1-0.7-0.2-1.3c5.3-3.7,14-2.6,15.1-1.4c1,1.3-0.3,10-5.3,14.1
		c-0.8,0.6-1.5,0.3-1.2-0.5C106.8,45.9,109.3,39.7,108.1,38.1z"/>
	<path class="st1" d="M97.5,10.2V6.6c0-0.6,0.4-0.9,0.9-0.9l16.3,0c0.5,0,0.9,0.4,0.9,0.9l0,3.1c0,0.5-0.4,1.2-1.2,2.3L106,24
		c3.1-0.1,6.4,0.4,9.3,2c0.6,0.4,0.8,0.9,0.9,1.4v3.9c0,0.5-0.6,1.1-1.2,0.8c-5-2.6-11.7-2.9-17.2,0c-0.6,0.3-1.2-0.3-1.2-0.8v-3.7
		c0-0.6,0-1.6,0.6-2.5l9.8-14l-8.5,0C97.9,11.2,97.5,10.8,97.5,10.2z"/>
	<path class="st1" d="M38.1,32.8h-5c-0.5,0-0.8-0.4-0.9-0.8l0-25.3c0-0.5,0.4-0.9,1-0.9l4.6,0c0.5,0,0.9,0.4,0.9,0.8v3.3h0.1
		c1.2-3.2,3.5-4.7,6.5-4.7c3.1,0,5,1.5,6.4,4.7c1.2-3.2,3.9-4.7,6.8-4.7c2.1,0,4.3,0.9,5.7,2.8c1.6,2.1,1.2,5.2,1.2,7.9l0,16
		c0,0.5-0.4,0.9-1,0.9h-4.9c-0.5,0-0.9-0.4-0.9-0.9l0-13.4c0-1.1,0.1-3.7-0.1-4.7c-0.4-1.7-1.5-2.2-2.9-2.2c-1.2,0-2.5,0.8-3,2.1
		c-0.5,1.3-0.5,3.4-0.5,4.8v13.4c0,0.5-0.4,0.9-1,0.9h-4.9c-0.5,0-0.9-0.4-0.9-0.9l0-13.4c0-2.8,0.5-7-3.1-7c-3.6,0-3.4,4-3.4,7
		l0,13.4C39.1,32.4,38.6,32.8,38.1,32.8z"/>
	<path class="st1" d="M129.6,5.2c7.4,0,11.3,6.3,11.3,14.3c0,7.7-4.4,13.8-11.3,13.8c-7.2,0-11.1-6.3-11.1-14.1
		C118.5,11.4,122.5,5.2,129.6,5.2z M129.7,10.4c-3.7,0-3.9,5-3.9,8c0,3.1,0,9.7,3.8,9.7c3.8,0,4-5.3,4-8.6c0-2.1-0.1-4.7-0.7-6.7
		C132.4,11.1,131.3,10.4,129.7,10.4z"/>
	<path class="st1" d="M150.5,32.8h-4.9c-0.5,0-0.9-0.4-0.9-0.9l0-25.3c0-0.5,0.5-0.8,1-0.8l4.6,0c0.4,0,0.8,0.3,0.9,0.7v3.9h0.1
		c1.4-3.5,3.3-5.1,6.7-5.1c2.2,0,4.4,0.8,5.8,3c1.3,2,1.3,5.4,1.3,7.9V32c-0.1,0.4-0.5,0.8-0.9,0.8h-5c-0.5,0-0.8-0.4-0.9-0.8V18.3
		c0-2.8,0.3-6.8-3.1-6.8c-1.2,0-2.3,0.8-2.9,2c-0.7,1.5-0.8,3.1-0.8,4.8v13.6C151.4,32.4,151,32.8,150.5,32.8z"/>
	<path class="st1" d="M84.5,20.7c0,1.9,0,3.5-0.9,5.2c-0.8,1.4-2,2.2-3.4,2.2c-1.9,0-3-1.4-3-3.6c0-4.2,3.8-5,7.4-5V20.7z
		 M89.5,32.8c-0.3,0.3-0.8,0.3-1.2,0.1c-1.6-1.4-1.9-2-2.8-3.3c-2.7,2.8-4.6,3.6-8.2,3.6c-4.2,0-7.4-2.6-7.4-7.7
		c0-4,2.2-6.7,5.3-8.1c2.7-1.2,6.4-1.4,9.3-1.7v-0.6c0-1.2,0.1-2.6-0.6-3.6c-0.6-0.9-1.8-1.3-2.8-1.3c-1.9,0-3.6,1-4,3
		c-0.1,0.4-0.4,0.9-0.9,0.9l-4.8-0.5c-0.4-0.1-0.9-0.4-0.7-1C71.9,6.8,77.1,5,81.8,5c2.4,0,5.6,0.6,7.5,2.5c2.4,2.2,2.2,5.2,2.2,8.5
		v7.7c0,2.3,1,3.3,1.9,4.6c0.3,0.4,0.4,1,0,1.3C92.3,30.3,90.5,31.9,89.5,32.8L89.5,32.8z"/>
	<path class="st1" d="M19.6,20.7c0,1.9,0,3.5-0.9,5.2c-0.8,1.4-2,2.2-3.4,2.2c-1.9,0-3-1.4-3-3.6c0-4.2,3.8-5,7.4-5V20.7z
		 M24.6,32.8c-0.3,0.3-0.8,0.3-1.2,0.1c-1.6-1.4-1.9-2-2.8-3.3c-2.7,2.8-4.6,3.6-8.2,3.6c-4.2,0-7.4-2.6-7.4-7.7
		c0-4,2.2-6.7,5.3-8.1c2.7-1.2,6.4-1.4,9.3-1.7v-0.6c0-1.2,0.1-2.6-0.6-3.6c-0.6-0.9-1.8-1.3-2.8-1.3c-1.9,0-3.6,1-4,3
		c-0.1,0.4-0.4,0.9-0.9,0.9l-4.8-0.5c-0.4-0.1-0.9-0.4-0.7-1C6.9,6.8,12.2,5,16.9,5c2.4,0,5.6,0.6,7.5,2.5c2.4,2.2,2.2,5.2,2.2,8.5
		v7.7c0,2.3,1,3.3,1.9,4.6c0.3,0.4,0.4,1,0,1.3C27.4,30.3,25.6,31.9,24.6,32.8L24.6,32.8z"/>
</g>
</svg>
