<svg id="Layer_1" data-name="Layer 1" xmlns="http://www.w3.org/2000/svg" viewBox="0 0 215 55"><defs><style>.cls-1{fill:#0087cd;}.cls-2{fill:#fff;}</style></defs><title>Artboard 5 copy</title><rect class="cls-1" x="23.58" y="9.46" width="36.09" height="36.08" rx="8.2" ry="8.2"/><path class="cls-2" d="M32.55,34.74a3.11,3.11,0,1,0,3.12,3.11A3.11,3.11,0,0,0,32.55,34.74Zm0,4.23a1.12,1.12,0,1,1,1.12-1.12A1.12,1.12,0,0,1,32.55,39Z"/><path class="cls-2" d="M50.55,34.88A3.11,3.11,0,1,0,53.66,38,3.11,3.11,0,0,0,50.55,34.88Zm0,4.23A1.12,1.12,0,1,1,51.67,38,1.12,1.12,0,0,1,50.55,39.11Z"/><path class="cls-2" d="M55.67,15.1a.3.3,0,0,0-.13,0h-.46a2.9,2.9,0,0,0-2.8,2.14l-2.6,9.71a4.32,4.32,0,0,1-4.14,3H44.8a2.38,2.38,0,0,1-1.74-.81.87.87,0,0,0-.65-.28H40.66a.9.9,0,0,0-.69.31,2.31,2.31,0,0,1-1.72.78h-.78a4.31,4.31,0,0,1-4.08-2.86l-2-6.31a2.87,2.87,0,0,0-2.75-2h-.52a.53.53,0,0,0-.45.23.51.51,0,0,0-.08.49l2.73,8.59A6.67,6.67,0,0,0,36.93,33h2.33a3.75,3.75,0,0,0,2.14-.78.2.2,0,0,1,.25,0,3.75,3.75,0,0,0,2.14.78h2.12a6.92,6.92,0,0,0,6.89-5.21l3.22-12A.58.58,0,0,0,55.67,15.1Z"/><circle class="cls-2" cx="46.14" cy="25.39" r="1.63"/><circle class="cls-2" cx="41.55" cy="25.39" r="1.63"/><circle class="cls-2" cx="36.97" cy="25.39" r="1.63"/><circle class="cls-2" cx="46.14" cy="20.79" r="1.63"/><circle class="cls-2" cx="41.55" cy="20.79" r="1.63"/><circle class="cls-2" cx="36.97" cy="20.79" r="1.63"/><path class="cls-1" d="M119.93,36.75c-.81,0-1.69,0-2.08.67-1.24,2.23-4,2.93-6.36,2.93A8.14,8.14,0,0,1,103.4,32a8.13,8.13,0,0,1,8.09-8.32c2,0,4.7.39,6.28,2.78.44.67,1.33.52,2.14.52,1.13,0,.86-1.36.41-2-2.29-3.47-6.07-4.2-8.83-4.2a11.26,11.26,0,1,0,0,22.51c4,0,7.47-1.74,9-4.54C120.9,38,121.13,36.75,119.93,36.75Z"/><path class="cls-1" d="M162.27,21.35c-.81,0-1.46.36-1.46,1.17V41.94c0,.81.65,1.06,1.46,1.06s1.47-.25,1.47-1.06V22.52C163.74,21.71,163.08,21.35,162.27,21.35Z"/><path class="cls-1" d="M162.27,11.81a1.86,1.86,0,1,0,1.87,1.86A1.86,1.86,0,0,0,162.27,11.81Z"/><path class="cls-1" d="M154,21.46h-.09a2,2,0,0,0-1.8,1.05c-.41,1-2.61,8-4.94,14.71-.08.22-.17.43-.25.65l-5-12.61a2.32,2.32,0,0,0-1-1.19,1.74,1.74,0,0,0-.87-.24h0a1.74,1.74,0,0,0-.87.24,2.32,2.32,0,0,0-1,1.19l-5,12.61c-.08-.22-.17-.43-.25-.65-2.35-6.82-4.54-13.7-4.94-14.71s-1.86-1.05-1.89-1.05c-.74,0-1,.21-1,.69a1.73,1.73,0,0,0,0,.37c.12.43,3.62,11.12,6.48,19.24A1.65,1.65,0,0,0,133.08,43a1.37,1.37,0,0,0,1.27-.85l5.37-13.67a.29.29,0,0,1,.28-.19.3.3,0,0,1,.28.19l5.36,13.67a1.42,1.42,0,0,0,1.27.85,1.61,1.61,0,0,0,1.54-1.28c2.69-8.15,6.37-18.81,6.48-19.24a1.3,1.3,0,0,0,0-.37C155,21.67,154.71,21.48,154,21.46Z"/><path class="cls-1" d="M96,40H76.76a.58.58,0,0,1-.58-.59V28.51H93c.79,0,1.13-.68,1.13-1.53s-.34-1.52-1.13-1.52H76.18V15.68a.62.62,0,0,1,.62-.62H96c.78,0,1.12-.68,1.12-1.52S96.78,12,96,12H74.31c-.85,0-1.38.8-1.38,2.05V41.4c0,.81.47,1.63,1.23,1.63H96c.78,0,1.12-.69,1.12-1.53S96.78,40,96,40Z"/><path class="cls-1" d="M190,11.81c-.81,0-1.47.35-1.47,1.16V24.45c-1.66-2.72-4.88-3.66-7.72-3.66a11.25,11.25,0,1,0,0,22.49c2.42,0,6.19-1.22,7.72-3.85V41.9h0s0,.05,0,.05c0,.75.67,1,1.45,1s1.47-.25,1.47-1.06V13C191.42,12.16,190.76,11.81,190,11.81Zm-9.19,28.54a8.09,8.09,0,0,1-8-8.31,8.09,8.09,0,0,1,8-8.32c2.66,0,7.69,1.6,7.72,7.54V32.6C188.45,38.45,183.17,40.35,180.76,40.35Z"/></svg>