<svg xmlns="http://www.w3.org/2000/svg" width="1000.194" height="237.5" viewBox="0 0 160.031 38">
    <metadata><?xpacket begin="﻿" id="W5M0MpCehiHzreSzNTczkc9d"?>
        <x:xmpmeta xmlns:x="adobe:ns:meta/" x:xmptk="Adobe XMP Core 5.6-c138 79.159824, 2016/09/14-01:09:01        ">
            <rdf:RDF xmlns:rdf="http://www.w3.org/1999/02/22-rdf-syntax-ns#">
                <rdf:Description rdf:about=""/>
            </rdf:RDF>
        </x:xmpmeta>

        <?xpacket end="w"?>
    </metadata>
    <path id="Shape_11_copy_2" data-name="Shape 11 copy 2" fill="#ff8c44" class="cls-1"
          d="M791.5,1244.45h0a1.392,1.392,0,0,1,1.437,1.35v0.02a1.44,1.44,0,0,1-2.874,0v-0.02a1.393,1.393,0,0,1,1.437-1.35m-0.744,5.01h1.888a0.157,0.157,0,0,1,.16.15v11.98a0.513,0.513,0,0,1-.532.49h-1.888a0.151,0.151,0,0,1-.161-0.15v-11.97a0.514,0.514,0,0,1,.533-0.5m9.3,0h1.809a0.156,0.156,0,0,1,.159.15v1.52a8.226,8.226,0,0,1-.053.92h0.053a5.517,5.517,0,0,1,5.054-2.89c3.165,0,4.628,1.62,4.628,4.84v7.59a0.513,0.513,0,0,1-.532.49h-1.888a0.151,0.151,0,0,1-.16-0.15v-7.38c0-1.77-.4-3.17-2.553-3.17a4.367,4.367,0,0,0-4.256,3.09,5.688,5.688,0,0,0-.213,1.7v5.42a0.513,0.513,0,0,1-.532.49h-1.889a0.151,0.151,0,0,1-.16-0.15v-11.97a0.515,0.515,0,0,1,.533-0.5m18.836-4.99h1.889a0.15,0.15,0,0,1,.159.15v9.48h1.621a0.532,0.532,0,0,0,.427-0.2l3.352-4.24a0.534,0.534,0,0,1,.427-0.2h2.338a0.149,0.149,0,0,1,.128.24l-4.276,5.32v0.05l4.809,6.78a0.148,0.148,0,0,1-.133.23h-2.621a0.159,0.159,0,0,1-.133-0.06l-3.84-5.64a0.524,0.524,0,0,0-.448-0.23h-1.651v5.44a0.513,0.513,0,0,1-.532.49h-1.888a0.15,0.15,0,0,1-.16-0.15v-16.96a0.514,0.514,0,0,1,.532-0.5m23.14,17.21a0.5,0.5,0,0,1-.5.49c-0.12.01-.256,0.01-0.4,0.01-1.729,0-5.16-.49-5.16-4.71v-5.89h-1.6a0.156,0.156,0,0,1-.159-0.15v-1.3a0.521,0.521,0,0,1,.532-0.5h1.3v-3.14a0.515,0.515,0,0,1,.532-0.5h1.809a0.156,0.156,0,0,1,.159.15v3.49h3.086a0.157,0.157,0,0,1,.16.15v1.65a0.157,0.157,0,0,1-.16.15h-3.086v5.61a2.609,2.609,0,0,0,2.873,2.85h0.612v1.64Zm12.849-7.48h0.585v-0.22c0-2.08-1.25-2.77-2.952-2.77a7.133,7.133,0,0,0-3.611,1.12,0.161,0.161,0,0,1-.228-0.05l-0.739-1.23a0.483,0.483,0,0,1,.173-0.66,9.985,9.985,0,0,1,4.969-1.22,4.846,4.846,0,0,1,4.968,4.86v7.55a0.514,0.514,0,0,1-.532.5h-1.7a0.151,0.151,0,0,1-.16-0.15v-1.04a8.687,8.687,0,0,1,.054-1h-0.054a4.643,4.643,0,0,1-4.309,2.49c-2.314,0-4.575-1.32-4.575-3.84,0-4.17,5.852-4.34,8.113-4.34m-2.979,6.24c2.181,0,3.591-2.15,3.591-4.02v-0.4h-0.665c-1.942,0-5.453.13-5.453,2.4,0,1.02.851,2.02,2.527,2.02m17.134,1.24a0.521,0.521,0,0,1-.5.5H868.19c-1.462,0-3.617-.37-3.617-3.54v-13.67a0.514,0.514,0,0,1,.532-0.5h1.888a0.15,0.15,0,0,1,.16.15v13.6c0,1.52.639,1.79,1.437,1.79h0.452v1.67Zm11.133-12.52c3.8,0,5.825,2.64,5.825,5.91,0,0.24-.042.69-0.065,0.92a0.158,0.158,0,0,1-.159.13h-9.67a4.291,4.291,0,0,0,4.628,4.17,6.58,6.58,0,0,0,3.847-1.36,0.163,0.163,0,0,1,.238.04l0.75,1.25a0.477,0.477,0,0,1-.135.64,8.449,8.449,0,0,1-4.859,1.52c-4.23,0-7.129-2.87-7.129-6.61a6.383,6.383,0,0,1,6.729-6.61m3.192,5.14a3.079,3.079,0,0,0-3.245-3.22,3.791,3.791,0,0,0-3.937,3.22h7.182Zm-149.209-3.74c-4.263,3.29-4.753,7.54-2.864,9.71,4.084,4.68,8.685,3.02,9.937,7.31,0.581,1.98,1.492,2.65,2.353,2.35,1.082-.38.44-2.21-1.462-3.66-1.727-1.33,1.05-.83,3.788-1.31,6.012-1.05,9.023-3.29,11.046-5.14,4.017-3.7,5.521-.68,12.7,3.23,4.257,2.32,10.226.72,9.476-1.57-0.627-1.93-3.606-1.11-6.007-.54-4.421,1.05-9.354-2.06-8.183-5.07,0.684-1.75,4.011-.92,6.649-1.36,2.183-.35,1.131-2.92-1.431-1.84-2,.84-5.837,2.32-3.9-1.4s7.609-3.87,8.4-6.06-2.9-3.5-6.267-.62-4.249,7.75-7.415,9.52c-2.536,1.41-4.393-2.4-7.952-4.53a16.941,16.941,0,0,0-5.422-2.13,2.461,2.461,0,0,1-2.023-1.98,5.6,5.6,0,0,1,2.452-4.91c1.212-.85,1.85-1.75,1.245-2.43-1.008-1.14-3.224.47-3.822,1.95-1.424,3.52-.6,6.12-2.3,6.25-1.231.09-1.744-.3-2.377-4.64a13.78,13.78,0,0,1,.353-5.34c0.306-1.27.676-3.17-.664-4.03-1.429-.92-2.75.32-2.914,1.68a14.225,14.225,0,0,0,.795,4.94c0.53,1.87,2.665,7.48.292,8.27-2.149.71-2.2-2.54-3.68-4.38-1.118-1.4-3.644-2.37-4.291-1.06-0.42.85,0.362,1.65,1.682,1.79a2.869,2.869,0,0,1,2.684,2.09c0.366,1.34.757,3.7-.881,4.91m1.713,7.07a1.677,1.677,0,0,1,3.35.12c-0.042,1.87-3.458,1.61-3.35-.12m20.816-6.97a0.888,0.888,0,1,0,.359-1.73,0.888,0.888,0,1,0-.359,1.73m-1.07,13.72a1.445,1.445,0,1,0-.583,2.81,1.445,1.445,0,1,0,.583-2.81m1.74-2.13c-0.732-.42-1.419.65-0.623,0.98,0.941,0.41,1.328-.58.623-0.98m-27.345-.73a0.576,0.576,0,1,0-.613.97,0.576,0.576,0,1,0,.613-0.97m-2.188-20.61c-1.815-.49-2.641,2.15-0.879,2.63,1.812,0.49,2.693-2.13.879-2.63m51.3,11c-0.937-2.43-4.915-.14-3.436,1.69,1.52,1.87,4.24.4,3.436-1.69"
          transform="translate(-725.969 -1232)"/>
</svg>
