<svg xmlns="http://www.w3.org/2000/svg" xmlns:xlink="http://www.w3.org/1999/xlink" width="350" height="80" viewBox="0 0 350 80">
    <defs>
        <path id="a" d="M0 0h350v80H0z"/>
        <path id="c" d="M.239.476H20.34V27.6H.24z"/>
        <path id="e" d="M0 .633h40.167v35.286H0z"/>
        <path id="g" d="M.67.532h8.613V4.8H.671z"/>
        <path id="i" d="M.883.532h8.614V4.8H.883z"/>
        <path id="k" d="M0 41.367h245.941V1.2H0z"/>
    </defs>
    <g fill="none" fill-rule="evenodd">
        <mask id="b" fill="#fff">
            <use xlink:href="#a"/>
        </mask>
        <g mask="url(#b)">
            <g transform="translate(52 19)">
                <path fill="#1E0047" d="M104.945 22.3c-.026-2.39-.924-4.33-2.698-5.82-1.774-1.49-4.003-2.236-6.688-2.236-1.7 0-3.314.376-4.84 1.127-1.528.753-2.808 1.923-3.844 3.511-1.034 1.59-1.553 3.431-1.553 5.524 0 3.03.999 5.468 2.994 7.316 1.996 1.848 4.385 2.772 7.17 2.772 3.178 0 5.935-1.207 8.277-3.621l-2.44-2.698c-1.428 1.725-3.246 2.587-5.45 2.587-2.205 0-3.948-.788-5.229-2.365l14.338-6.023-.037-.074zM89.35 25.182a4.698 4.698 0 0 1-.036-.702c0-2.02.67-3.596 2.013-4.73 1.343-1.133 2.827-1.7 4.452-1.7 2.143 0 3.635.813 4.471 2.44l-10.9 4.692zM80.576 15.464a8.577 8.577 0 0 0-2.717 3.03V14.54h-4.137v19.658h4.137v-8.425c0-2.242.518-4.027 1.553-5.358 1.035-1.33 2.574-1.996 4.619-1.996h.222l-.037-4.176c-1.282.026-2.494.432-3.64 1.22M119.778 24.184a11.54 11.54 0 0 0-1.866-1.034 21.33 21.33 0 0 0-1.791-.666 33.68 33.68 0 0 0-2.126-.59c-.801-.197-1.423-.407-1.867-.63-.64-.294-.96-.762-.96-1.403 0-.714.309-1.25.924-1.607.615-.356 1.416-.536 2.401-.536 1.872 0 3.61.53 5.21 1.59l1.552-3.069c-2.02-1.33-4.162-1.995-6.428-1.995-2.267 0-4.109.55-5.525 1.645-1.417 1.095-2.125 2.556-2.125 4.379 0 2.587 2.045 4.434 6.134 5.541.099.025.246.076.443.149 2.611.788 3.918 1.676 3.918 2.662 0 .664-.272 1.213-.813 1.644-.543.43-1.28.645-2.217.645-2.143 0-4.36-.861-6.651-2.586l-1.996 3.215c1.182.936 2.543 1.663 4.084 2.18 1.538.518 3.022.776 4.452.776 2.119 0 3.855-.56 5.21-1.682 1.355-1.12 2.033-2.617 2.033-4.489 0-1.872-.666-3.252-1.996-4.139M68.102 10.623c-1.799-1.503-4.656-2.254-8.574-2.254H50.66v25.829h4.361v-7.576h4.582c3.794 0 6.608-.726 8.444-2.179 1.834-1.453 2.753-3.745 2.753-6.873s-.9-5.445-2.698-6.947m-3.085 10.66c-.876.925-2.52 1.387-4.933 1.387H55.02V12.323h4.434c2.365 0 4.102.37 5.21 1.108 1.11.74 1.664 2.001 1.664 3.788s-.438 3.14-1.312 4.065M131.458 30.91c-.887 0-1.577-.277-2.069-.832-.493-.554-.74-1.298-.74-2.235v-9.977h5.174v-3.327h-5.173V8.37h-4.139v19.363c0 2.069.622 3.713 1.866 4.933 1.243 1.22 2.747 1.83 4.507 1.83 1.762 0 3.37-.654 4.824-1.96l-1.7-2.919c-.813.863-1.663 1.294-2.55 1.294M152.026 17.94c-1.675-2.463-3.806-3.697-6.394-3.697-2.586 0-4.827.912-6.724 2.735-1.898 1.824-2.846 4.263-2.846 7.317 0 3.055.924 5.52 2.771 7.392 1.848 1.872 4.017 2.808 6.504 2.808 1.233 0 2.458-.303 3.677-.906a7.865 7.865 0 0 0 3.012-2.604v3.213h4.139V14.54h-4.139v3.4zM150.4 29.042c-1.134 1.196-2.513 1.793-4.139 1.793-1.626 0-3.043-.592-4.249-1.774-1.207-1.183-1.81-2.717-1.81-4.6 0-1.885.59-3.455 1.773-4.712 1.182-1.256 2.599-1.885 4.25-1.885 1.65 0 3.041.629 4.175 1.885 1.133 1.257 1.7 2.821 1.7 4.693 0 1.872-.567 3.406-1.7 4.6z"/>
                <path fill="#E2056E" d="M213.06 14.244c-2.956 0-5.42.98-7.39 2.937-1.972 1.96-2.957 4.355-2.957 7.188 0 2.834.985 5.229 2.957 7.187 1.97 1.959 4.434 2.938 7.39 2.938 2.955 0 5.419-.98 7.39-2.938 1.97-1.958 2.956-4.353 2.956-7.187 0-2.833-.985-5.228-2.956-7.188-1.971-1.958-4.435-2.937-7.39-2.937m4.452 14.763c-1.17 1.194-2.655 1.792-4.452 1.792-1.8 0-3.284-.598-4.452-1.792-1.172-1.195-1.756-2.74-1.756-4.638 0-1.897.584-3.442 1.756-4.638 1.168-1.194 2.653-1.791 4.452-1.791 1.797 0 3.282.597 4.452 1.791 1.17 1.196 1.755 2.741 1.755 4.638 0 1.898-.585 3.443-1.755 4.638"/>
                <g transform="translate(225.6 13.767)">
                    <mask id="d" fill="#fff">
                        <use xlink:href="#c"/>
                    </mask>
                    <path fill="#E2056E" d="M17.533 3.211C15.66 1.388 13.407.476 10.77.476c-2.636 0-4.766 1.245-6.392 3.734V.773H.238V27.6h4.14V17.476c1.971 2.167 4.194 3.25 6.67 3.25s4.643-.948 6.503-2.844c1.86-1.897 2.79-4.362 2.79-7.392 0-3.028-.936-5.455-2.808-7.279m-3.141 12.047c-1.207 1.182-2.623 1.774-4.25 1.774-1.625 0-3.005-.597-4.138-1.792s-1.7-2.729-1.7-4.6c0-1.873.567-3.432 1.7-4.676 1.133-1.243 2.525-1.866 4.176-1.866 1.65 0 3.067.623 4.249 1.866 1.183 1.244 1.774 2.81 1.774 4.693 0 1.884-.604 3.419-1.811 4.601" mask="url(#d)"/>
                </g>
                <path fill="#E2056E" d="M193.078 14.244a7.6 7.6 0 0 0-3.862 1.034c-1.195.69-2.088 1.64-2.68 2.847V6.817h-4.138V34.2h4.139V23.556c0-1.823.53-3.209 1.59-4.157 1.058-.948 2.303-1.422 3.73-1.422 3.007 0 4.509 1.81 4.509 5.431v10.79h4.139V22.153c0-2.562-.683-4.52-2.051-5.875-1.367-1.355-3.16-2.033-5.376-2.033M177.45 21.783c-1.344-1.157-3.34-2.057-5.986-2.698-2.649-.64-4.38-1.237-5.193-1.793-.812-.553-1.219-1.355-1.219-2.401 0-1.046.407-1.829 1.22-2.346.813-.517 1.853-.776 3.123-.776 1.267 0 2.555.22 3.86.664 1.306.444 2.34 1.01 3.105 1.7l2.328-3.288c-1.184-.986-2.588-1.75-4.214-2.291a15.436 15.436 0 0 0-4.914-.814c-2.562 0-4.71.647-6.448 1.94-1.737 1.294-2.606 3.135-2.606 5.525 0 2.39.765 4.163 2.292 5.321a9.742 9.742 0 0 0 2.624 1.497c.985.382 2.426.801 4.323 1.256 1.897.456 3.233.961 4.01 1.516.775.554 1.163 1.33 1.163 2.328 0 .997-.412 1.797-1.238 2.4-.826.606-1.94.907-3.344.907-2.808 0-5.518-1.133-8.13-3.4l-2.734 3.288c3.128 2.785 6.713 4.176 10.753 4.176 2.759 0 4.989-.702 6.689-2.107 1.7-1.403 2.55-3.232 2.55-5.486 0-2.255-.672-3.96-2.015-5.118"/>
                <g transform="translate(0 .567)">
                    <mask id="f" fill="#fff">
                        <use xlink:href="#e"/>
                    </mask>
                    <path fill="#A0DBE8" d="M13.02 31.451c.32-.143.646-.275.974-.397.37-.14.742-.27 1.122-.384a17.18 17.18 0 0 1 3.392-.677 60.506 60.506 0 0 1-1.225 3.479c.02.223.03.447.036.673a14.268 14.268 0 0 1 5.53 0c.005-.226.016-.45.034-.673a61.433 61.433 0 0 1-1.225-3.479 17.18 17.18 0 0 1 3.394.677c.379.114.75.245 1.122.384a17.433 17.433 0 0 1 7.026 4.865c4.264-3.683 6.967-9.125 6.967-15.203C40.167 9.624 31.175.633 20.084.633 8.992.633-.001 9.624-.001 20.716c0 6.078 2.704 11.52 6.969 15.203a17.418 17.418 0 0 1 6.051-4.468" mask="url(#f)"/>
                </g>
                <path fill="#525353" d="M14.343 35.652a14.103 14.103 0 0 1 2.975-.94c-.005-.226-.016-.45-.035-.673a60.506 60.506 0 0 0 1.225-3.479 17.75 17.75 0 0 0-1.965.305 17.665 17.665 0 0 0-2.55.756l1.465.355-1.115 3.676zM10.892 37.817c.037-.375.059-.752.059-1.133 0-.23.187-.417.416-.417h.365l1.287-4.249a17.418 17.418 0 0 0-6.051 4.468c.937.81 1.95 1.533 3.027 2.161.287-.29.586-.566.897-.83M27.148 32.018l1.288 4.25h.364c.23 0 .416.187.416.416 0 .381.022.76.058 1.133.311.264.61.54.898.83a20.216 20.216 0 0 0 3.028-2.161 17.433 17.433 0 0 0-6.052-4.468M24.71 31.976l1.464-.354a17.672 17.672 0 0 0-2.549-.757 17.768 17.768 0 0 0-1.967-.304c.371 1.166.782 2.325 1.226 3.479-.02.222-.03.447-.035.672 1.037.205 2.033.523 2.976.94l-1.115-3.676z"/>
                <path fill="#000" d="M20.084 36.268h2.83a11.304 11.304 0 0 1-.065-1.556 14.287 14.287 0 0 0-5.531 0c.014.514-.007 1.034-.065 1.556h2.83zM9.996 38.647c.233.136.47.269.708.395.084-.402.147-.811.188-1.225-.31.264-.61.54-.896.83"/>
                <path fill="#000" d="M14.157 36.268h3.097c.057-.522.078-1.042.065-1.556a14.183 14.183 0 0 0-2.976.94l-.186.616zM29.275 37.817c.04.414.104.823.188 1.225.24-.126.476-.26.708-.395a14.31 14.31 0 0 0-.896-.83M26.01 36.268l-.185-.617a14.183 14.183 0 0 0-2.976-.94c-.013.515.007 1.035.065 1.557h3.097z"/>
                <path fill="#AA9678" d="M14.157 36.268l.186-.617 1.114-3.675-1.464-.356c-.327.124-.652.255-.974.398l-1.288 4.25h2.426zM25.824 35.652l.186.616h2.426l-1.288-4.25a18.417 18.417 0 0 0-.974-.397l-1.464.355 1.114 3.676z"/>
                <path fill="#C3B5A0" d="M11.774 37.126c.012-.01.025-.018.039-.027h-.038v.027"/>
                <g transform="translate(10.8 36.567)">
                    <mask id="h" fill="#fff">
                        <use xlink:href="#g"/>
                    </mask>
                    <path fill="#C3B5A0" d="M9.283.532H1.012C1 .542.987.55.975.559A12.422 12.422 0 0 1 .67 2.862 20.006 20.006 0 0 0 9.283 4.8V.532z" mask="url(#h)"/>
                </g>
                <path fill="#AA9678" d="M28.391 37.099h-.036l.038.028-.002-.028"/>
                <g transform="translate(19.2 36.567)">
                    <mask id="j" fill="#fff">
                        <use xlink:href="#i"/>
                    </mask>
                    <path fill="#AA9678" d="M9.155.532H.883V4.8c3.083 0 6.003-.697 8.614-1.938A12.32 12.32 0 0 1 9.193.56L9.155.532" mask="url(#j)"/>
                </g>
                <mask id="l" fill="#fff">
                    <use xlink:href="#k"/>
                </mask>
                <path fill="#776453" d="M20.083 37.099v-.415z" mask="url(#l)"/>
                <path fill="#8A7460" d="M29.275 37.817a11.814 11.814 0 0 1-.059-1.133.417.417 0 0 0-.416-.417H11.367a.417.417 0 0 0-.416.417 11.814 11.814 0 0 1-.247 2.358c.253.134.507.264.767.387.17-.748.276-1.518.303-2.302l.001-.028H28.392l.001.028c.028.784.133 1.554.304 2.302.259-.123.513-.253.766-.387a11.513 11.513 0 0 1-.188-1.225" mask="url(#l)"/>
                <path fill="#525353" d="M25.834 33.402" mask="url(#l)"/>
                <path fill="#AA9678" d="M26.296 33.861l.004.013-.004-.013s-.204-.162-.462-.458c.258.296.462.458.462.458" mask="url(#l)"/>
                <path fill="#FFF" d="M32.433 15.69zM33.24 21.472v-.006.006" mask="url(#l)"/>
                <path fill="#BBBCBD" d="M33.456 16.814c-.004-.004-.008-.008-.01-.013a6.882 6.882 0 0 0-.516-.635l-.001-.002.001.002-.005-.006v.002a4.815 4.815 0 0 0-.243-.25c-.03-.03-.063-.055-.094-.084-.052-.047-.103-.095-.156-.138v1.868l.716 3.276c.008.026.017.05.024.076l.496.554.005-.004h.518c0-.048.004-.096.004-.144v-.002c0-1.544-.255-3.028-.714-4.42l-.025-.08M33.241 21.466v-.005.005" mask="url(#l)"/>
                <path fill="#676A6A" d="M33.218 21.153c0 .005.003.01.003.016a2.574 2.574 0 0 1 .018.248l.002.043v.012c0 .016-.002.032-.004.047 0 .08-.004.157-.014.233v.001l-.002.011c0 .007-.003.012-.003.018a2.38 2.38 0 0 1-.045.238l.002-.002.001-.004.492-.549-.497-.555h.002c.019.078.034.16.045.243" mask="url(#l)"/>
                <path fill="#000" d="M32.462 21.282c-.168 0-.304-.233-.304-.52 0-.287.136-.52.304-.52.167 0 .302.233.302.52 0 .287-.135.52-.302.52m.756.5l.006-.03c.008-.076.012-.154.013-.233.001-.018.004-.035.004-.053 0-.016-.003-.032-.003-.049a2.174 2.174 0 0 0-.015-.237l-.005-.027a2.117 2.117 0 0 0-.046-.242c-.007-.028-.016-.052-.024-.078a1.58 1.58 0 0 0-.19-.41l-.03-.045c-.022-.029-.042-.056-.066-.082a.771.771 0 0 0-.104-.096c-.013-.01-.027-.018-.043-.027a.562.562 0 0 0-.282-.091.49.49 0 0 0-.144.024.61.61 0 0 0-.14.067c-.013.01-.028.017-.041.027a.78.78 0 0 0-.104.096c-.023.026-.044.053-.065.082a1.497 1.497 0 0 0-.22.456c-.003.006-.006.012-.007.02a2.138 2.138 0 0 0-.052.225c-.003.024-.01.047-.013.07a2.484 2.484 0 0 0-.02.272l-.001.038h.002c0 .766.362 1.385.809 1.385.077 0 .15-.02.22-.054.011-.006.023-.01.034-.018a.626.626 0 0 0 .085-.058c.016-.012.03-.026.045-.04a.848.848 0 0 0 .102-.113c.021-.03.044-.058.063-.091.014-.02.026-.044.039-.065.021-.042.043-.087.062-.132l.022-.05a1.912 1.912 0 0 0 .109-.441" mask="url(#l)"/>
                <path fill="#FFF" d="M32.462 20.243c-.168 0-.304.232-.304.52 0 .286.136.519.304.519.167 0 .302-.233.302-.52 0-.287-.135-.52-.302-.52" mask="url(#l)"/>
                <path fill="#909393" d="M31.718 20.834c.048-.157.111-.296.19-.412.009-.015.02-.03.03-.044a.78.78 0 0 1 .17-.178c.013-.01.027-.018.042-.027a.566.566 0 0 1 .096-.05.49.49 0 0 1 .187-.04.49.49 0 0 1 .186.04c.034.013.066.03.097.05.015.01.029.017.042.027a.86.86 0 0 1 .105.096c.022.026.043.053.064.082l.032.044c.076.116.141.255.19.412l-.716-3.275-.715 3.275z" mask="url(#l)"/>
                <path fill="#000" d="M21.064 21.214a.711.711 0 1 1 0-1.423.711.711 0 0 1 0 1.423m1.891.222a2.113 2.113 0 0 0-.013-.196l-.001-.002a1.94 1.94 0 0 0-.031-.186l-.001-.005c-.014-.06-.03-.12-.05-.178v-.005a2.084 2.084 0 0 0-.067-.17l-.002-.004a1.933 1.933 0 0 0-.422-.598 1.9 1.9 0 0 0-.932-.484l-.01-.001a1.793 1.793 0 0 0-.718-.001h-.013a1.82 1.82 0 0 0-.332.1l-.01.004a1.774 1.774 0 0 0-.306.16h-.002c-.098.063-.19.134-.274.214l-.002.006-.007.002a1.91 1.91 0 0 0-.343.439l-.004.005a1.856 1.856 0 0 0-.142.321c-.004.01-.009.02-.011.029a1.621 1.621 0 0 0-.039.145c-.003.015-.008.028-.01.042-.011.048-.017.097-.023.148a1.792 1.792 0 0 0 .02.616c.023.117.058.231.102.34l.003.005a1.897 1.897 0 0 0 .824.931h.002c.05.029.104.055.158.08.004 0 .008.003.013.005.049.022.1.04.152.058l.025.01c.05.015.099.027.148.04l.038.009c.048.01.098.017.148.023l.044.007a1.904 1.904 0 0 0 .934-.138 1.905 1.905 0 0 0 1.007-1.008c.096-.226.149-.475.149-.736l-.002-.013v-.014" mask="url(#l)"/>
                <path fill="#FFF" d="M21.064 19.792a.711.711 0 1 0 0 1.423.711.711 0 0 0 0-1.423" mask="url(#l)"/>
                <path fill="#BBBCBD" d="M19.762 20.092l.008-.001v-.007l1.305-3.986v-.471l-.001-.193v-.278a10.597 10.597 0 0 0-2.994-.203l-.11.007c-1.308.1-2.597.44-3.789.984a12.13 12.13 0 0 0-2.828 1.812l-.001.002c-.23.194-.45.4-.664.61l-.121.118c-.203.204-.397.414-.586.632-.042.046-.081.096-.122.142-.19.225-.375.453-.55.688l-.043.061c-.167.227-.325.46-.479.697l-.09.138c-.123.198-.239.399-.354.602h5.936l5.483-1.354z" mask="url(#l)"/>
                <path fill="#E2DDDB" d="M24.774 19.643a19.876 19.876 0 0 0 .052-1.099c.004-.163.002-.326.002-.49 0-.048.002-.094 0-.142a23.62 23.62 0 0 0-.046-1.268h-.003l-.002-.004a.057.057 0 0 0-.013-.008l-.018-.012c-.078-.044-.27-.152-.44-.25l-.01-.005-.124-.07-.002-.002-.086-.047-.016-.01a12.015 12.015 0 0 0-.896-.426c-.675-.285-1.585-.535-2.097-.655v.943l1.291 3.993.002.002a1.963 1.963 0 0 1 .424.6c.025.057.047.113.066.172l.001.003c.02.06.036.118.05.178v.005c.015.061.025.123.033.187v.002c.007.064.012.129.013.196l.005.01h1.582c.106-.579.18-1.166.228-1.754 0-.016.003-.032.004-.049" mask="url(#l)"/>
                <path fill="#FBB03F" d="M26.843 18.232l-.003.006.003-.006M22.968 27.135c.36-.357.698-.7 1.022-1.035.192-.2.379-.396.558-.59 1.322-1.435 2.293-2.778 2.876-4.505a1.43 1.43 0 0 0 .04-.156l.007-.028a4 4 0 0 0 .04-.217c.007-.056.011-.11.016-.162-.146-.752-.432-1.483-.683-2.205l.003.007a.032.032 0 0 0-.007-.006c-.048-.046-.099-.09-.148-.133-.149-.138-.3-.272-.454-.401a11.98 11.98 0 0 0-1.456-1.059c.026.423.043.845.046 1.266.002.048 0 .095 0 .143 0 .163.002.328-.002.49a18.549 18.549 0 0 1-.056 1.148c-.047.59-.122 1.175-.228 1.755l-.186.878c-.388 1.573-1.176 3-1.824 4.474-.172.39-.335.786-.478 1.186-.013.039-.028.076-.04.114.202-.212.38-.396.516-.531.15-.147.296-.29.438-.433" mask="url(#l)"/>
                <path fill="#909393" d="M19.771 20.084a1.922 1.922 0 0 1 .924-.476l.012-.003a1.903 1.903 0 0 1 1.067.104l.006.003c.22.09.419.22.588.382l-.001-.004-1.293-3.991-1.303 3.985z" mask="url(#l)"/>
                <path fill="#676A6A" d="M19.312 22.177a1.929 1.929 0 0 1-.103-.341l-.001-.008a1.919 1.919 0 0 1-.025-.563c0-.015.005-.03.006-.045.007-.049.013-.098.024-.147.002-.015.007-.028.01-.042.011-.048.023-.097.039-.145l.01-.03c.018-.05.037-.101.058-.15l.008-.016c.024-.053.049-.104.078-.155l.003-.005c.093-.163.209-.31.343-.438l-5.482 1.354h-.011l5.43 1.326a1.942 1.942 0 0 1-.385-.59c0-.003-.002-.004-.002-.005" mask="url(#l)"/>
                <path fill="#E2DDDB" d="M31.647 21.15l.014-.071a1.95 1.95 0 0 1 .051-.227l.005-.025.715-3.276v-1.867c-.584-.483-1.21-.747-1.86-.747-.824 0-1.592.455-2.167 1.017-.628.614-1.114 1.388-1.506 2.168l-.054.106a27.212 27.212 0 0 1 1.146 1.07c.12.118.238.239.356.36.125.127.251.256.375.385.158.167.317.336.473.507l.195.215c.189.208.376.417.56.63l.06.064h1.615l.002-.038a2.2 2.2 0 0 1 .02-.271M26.844 18.237v-.005l-.004.005.007.007-.003-.007" mask="url(#l)"/>
                <path fill="#525353" d="M7.37 23.508l.015-.036c.104-.272.217-.54.337-.806.033-.074.068-.147.102-.22.098-.21.201-.414.31-.617.043-.084.086-.167.13-.249.025-.045.054-.088.08-.134.113-.203.229-.404.352-.601l.091-.138a14.652 14.652 0 0 1 .522-.759 13.256 13.256 0 0 1 .671-.83 13.275 13.275 0 0 1 1.37-1.36l.003-.002c.902-3.023 3.662-5.224 6.929-5.224 1.315 0 2.623.38 3.744 1.066a7.329 7.329 0 0 1 2.694 2.934l.01.018c.015.03.032.059.047.09l.002.002a12.074 12.074 0 0 1 1.46 1.06c.154.13.305.265.454.402.049.046.1.088.147.133l.003-.005.002-.003c.016-.035.032-.07.05-.103.46-2.906 1.742-4.998 3.252-4.998 1.14 0 2.15 1.188 2.775 3.016l.006.02.002.002c.177.192.348.403.515.636V16.8l.01.013c.01.026.016.054.026.08l-.024-.094c-1.88-5.567-7.146-9.576-13.348-9.576-7.78 0-14.085 6.307-14.085 14.085 0 1.534.245 3.01.7 4.384 0-.003 0-.005.002-.009a14.753 14.753 0 0 1 .644-2.176" mask="url(#l)"/>
                <path fill="#FFF" d="M33.668 21.465l-.491.55-.001.003c-.02.072-.042.14-.067.204a2.707 2.707 0 0 1-.121.247c-.021.034-.044.063-.065.093a.917.917 0 0 1-.102.111c-.015.015-.03.03-.045.042a.747.747 0 0 1-.119.075.492.492 0 0 1-.22.054c-.447 0-.81-.62-.81-1.384h-1.62c.302.348.597.701.889 1.056l.01.013c.285.347.565.696.84 1.048.015.017.028.035.041.052.263.334.522.672.78 1.009l.075.098c.272.358.541.717.809 1.075 0 .003.003.005.006.008a14.04 14.04 0 0 0 .738-4.359h-.522l-.005.005z" mask="url(#l)"/>
                <path fill="#000" d="M17.97 14.96l.11-.008a11.096 11.096 0 0 1 2.994.203V15.513v-.358c.513.121 1.422.37 2.097.655.283.12.562.25.835.393l.062.033.016.01a7.987 7.987 0 0 0 .088.049c.038.022.08.044.122.07.004 0 .008.003.011.006l.44.25.019.011c.003.003.012.006.013.007-.015-.03-.033-.058-.048-.09l-.009-.018a7.34 7.34 0 0 0-2.695-2.934 7.22 7.22 0 0 0-3.743-1.064c-3.266 0-6.027 2.2-6.93 5.224a12.092 12.092 0 0 1 2.829-1.812 11.186 11.186 0 0 1 3.788-.986" mask="url(#l)"/>
                <path stroke-linecap="round" stroke-linejoin="round" d="M21.075 15.514v.084" mask="url(#l)"/>
                <path fill="#000" d="M28.405 15.954c.575-.562 1.342-1.017 2.165-1.017.652 0 1.278.264 1.863.747v.006c.052.043.103.09.154.139.033.027.064.053.095.083.082.079.163.162.244.25v-.002a.026.026 0 0 0 .005.006c-.002 0-.002-.001-.002-.002l-.007-.02c-.625-1.828-1.635-3.016-2.774-3.016-1.512 0-2.793 2.092-3.253 4.998l.004-.004c.393-.78.879-1.554 1.506-2.168" mask="url(#l)"/>
                <path fill="#FFF" d="M15.066 34.448c.128.05.26.095.39.14 1.457.51 3.022.791 4.654.791 1.86 0 3.634-.363 5.26-1.018.086-.035.17-.074.255-.11.139-.058.276-.118.411-.182.122-.056.243-.112.363-.172l-.087.012a5.788 5.788 0 0 1-1.497-.01c-2.898-.417-3.54-1.814-3.449-3.27a7.271 7.271 0 0 1-.636-.41c-2.23-1.618-3.552-3.342-3.552-3.342s1.72 1.328 4.288 2.321c.055.022.106.04.16.06.12-.414.262-.809.387-1.159l.04-.113c.143-.402.307-.798.478-1.188.648-1.473 1.437-2.9 1.824-4.473l.186-.879h-1.585v.017a1.878 1.878 0 0 1-.323 1.058 1.914 1.914 0 0 1-.833.686 1.903 1.903 0 0 1-.933.138l-.045-.008a1.956 1.956 0 0 1-.146-.022c-.013-.003-.026-.008-.04-.01-.049-.012-.098-.024-.146-.04a1.682 1.682 0 0 1-.179-.067l-.013-.006a2.125 2.125 0 0 1-.157-.078l-.001-.001a1.94 1.94 0 0 1-.44-.34l-5.43-1.327H8.341c-.025.046-.052.089-.078.133-.045.083-.087.166-.13.249-.108.204-.212.409-.31.618l-.102.22c-.12.266-.233.533-.337.806l-.015.036a14.902 14.902 0 0 0-.644 2.177 14.114 14.114 0 0 0 5.12 7.014c.07.05.143.096.213.144a13.894 13.894 0 0 0 3.007 1.605" mask="url(#l)"/>
                <path fill="#9F2255" d="M24.79 30.074a3.816 3.816 0 0 0 .107 1.633 4.262 4.262 0 0 0 .601 1.262 4.291 4.291 0 0 0 .336.433c.258.297.462.459.462.459s0 .005.004.013c.003.008.008.02.012.036.03-.004.058-.01.087-.012a8.914 8.914 0 0 0 1.885-.474c.318-.114.635-.239.947-.38.095-.045.188-.093.283-.138 3.226-1.56 5.927-4.32 5.927-4.32-4.053 1.992-8.015 1.912-10.65 1.488" mask="url(#l)"/>
                <path fill="#E2056E" d="M32.567 24.638c-.257-.337-.517-.675-.779-1.01a69.726 69.726 0 0 0-.88-1.1l-.012-.012a53.026 53.026 0 0 0-.889-1.056l-.057-.066a39.558 39.558 0 0 0-1.228-1.351c-.124-.13-.25-.257-.376-.385-.117-.12-.235-.243-.355-.36-.259-.255-.52-.507-.787-.75-.119-.11-.238-.215-.36-.32l-.001.004c.254.731.545 1.471.69 2.235.038.198.07.392.095.58.355 2.64-.491 4.364-1.835 6.632l-.297.496a5.357 5.357 0 0 0-.618 1.452 4.24 4.24 0 0 0-.087.447c2.635.425 6.597.504 10.651-1.488 0 0-.796-1.169-1.992-2.775-.266-.358-.536-.717-.809-1.075l-.074-.098" mask="url(#l)"/>
                <path fill="#000" d="M26.296 33.861s-.204-.162-.462-.458a4.114 4.114 0 0 1-.336-.434 4.74 4.74 0 0 1-.377-.66 4.236 4.236 0 0 1-.324-1.05 3.921 3.921 0 0 1-.006-1.185c.02-.145.05-.294.087-.447a5.418 5.418 0 0 1 .62-1.456l.295-.492c1.343-2.268 2.19-3.993 1.835-6.633a12.895 12.895 0 0 0-.095-.58c-.02.137-.04.256-.062.355-.001.01-.004.019-.006.028-.013.06-.027.114-.04.155-.584 1.728-1.555 3.071-2.877 4.506-.18.195-.366.391-.558.59-.324.335-.663.677-1.022 1.035-.142.142-.289.286-.438.433-.135.136-.314.318-.517.532-.125.349-.267.744-.387 1.159-.054-.022-.105-.04-.16-.06-2.57-.994-4.289-2.32-4.289-2.32s1.324 1.721 3.552 3.339c.216.156.429.291.637.413-.092 1.454.551 2.852 3.45 3.268.489.071.99.068 1.496.011l-.012-.036-.004-.013" mask="url(#l)"/>
            </g>
        </g>
    </g>
</svg>
