<svg xmlns="http://www.w3.org/2000/svg" version="1.1" style="" xml:space="preserve" width="600" height="199"><rect id="backgroundrect" width="100%" height="100%" x="0" y="0" fill="none" stroke="none" class="" style=""/>
<style type="text/css">
	.st0{fill:#2F3337;}
</style>

<g class="currentLayer" style=""><title>Layer 1</title><g id="Navigation" class="">
	<g id="_x31_680---Charcoal-Redline">
		<g id="_x28_-42px-_x29_-W_x2B_SQ">
			<path id="Don_x27_t-upgroup" class="st0" d="M1.4305112472356996e-7,176.50000152587893 c0,-7.7 4.6,-13.6 12.3,-13.6 c7.3,0 11.8,5.2 11.8,12.2 c0,0.8 0,1.5 -0.1,2 H4.400000143051102 c0,5.6 3.6,8.9 8.4,8.9 c2.9,0 5.5,-1.1 7.4,-3.5 l2.8,2.6 c-2.4,2.9 -5.9,4.8 -10.4,4.8 C4.6000001430511475,189.9000015258789 1.4305112472356996e-7,184.1000015258789 1.4305112472356996e-7,176.50000152587893 zM4.500000143051125,173.9000015258789 h15.3 c-0.3000000000000002,-5 -3.7,-7.3 -7.6,-7.3 C7.800000143051193,166.6000015258789 4.900000143051102,169.6000015258789 4.500000143051125,173.9000015258789 zM58.70000014305117,160.1000015258789 l-3.5,2.5 c-2.2,-3.3 -5.6,-5.3 -9.9,-5.3 c-7.5,0 -12.1,5.7 -12.1,14.2 c0,8.5 4.7,14.2 12.3,14.2 c4.4,0 7.5,-1.9 9.9,-5.3 l3.6,2.5 c-3.2,4.6 -7.7,7 -13.5,7 c-10.3,0 -17,-7.7 -17,-18.4 c0,-10.6 6.7,-18.4 16.8,-18.4 C51.10000014305115,153.20000152587892 55.70000014305117,155.70000152587892 58.70000014305117,160.1000015258789 zM87.4000001430511,176.4000015258789 c0,7.7 -4.8,13.5 -12.4,13.5 c-7.6,0 -12.3,-5.8 -12.3,-13.5 c0,-7.8 4.7,-13.5 12.3,-13.5 C82.60000014305115,162.9000015258789 87.4000001430511,168.6000015258789 87.4000001430511,176.4000015258789 zM82.9000001430511,176.4000015258789 c0,-5.5 -2.9,-9.7 -7.9,-9.7 c-5,0 -7.9,4.2 -7.9,9.7 c0,5.4 2.9,9.7 7.9,9.7 C80.00000014305112,186.1000015258789 82.9000001430511,181.9000015258789 82.9000001430511,176.4000015258789 zM114.00000014305112,189.30000152587888 h-4.2 v-16 c0,-3.4 -1.1,-6.5 -5.3,-6.5 c-4,0 -7,3.2 -7,7.8 v14.7 h-4.2 v-25.8 h4.2 v3.7 c1.7000000000000002,-2.6 4.6,-4.3 8,-4.3 c3.6,0 6.3,1.7000000000000002 7.5,4.9 c1.7000000000000002,-2.7 4.9,-4.9 8.8,-4.9 c5.2,0 8.5,3.4 8.5,9.4 v17 h-4.2 v-16 c0,-3.4 -1.1,-6.5 -5.3,-6.5 c-4,0 -7,3.2 -7,7.8 V189.30000152587888 zM158.4000001430511,189.30000152587888 h-4.2 v-16 c0,-3.4 -1.1,-6.5 -5.3,-6.5 c-4,0 -7,3.2 -7,7.8 v14.7 h-4.2 v-25.8 h4.2 v3.7 c1.7000000000000002,-2.6 4.6,-4.3 8,-4.3 c3.6,0 6.3,1.7000000000000002 7.5,4.9 c1.7000000000000002,-2.7 4.9,-4.9 8.8,-4.9 c5.2,0 8.5,3.4 8.5,9.4 v17 h-4.2 v-16 c0,-3.4 -1.1,-6.5 -5.3,-6.5 c-4,0 -7,3.2 -7,7.8 V189.30000152587888 zM180.60000014305115,176.50000152587893 c0,-7.7 4.6,-13.6 12.3,-13.6 c7.3,0 11.8,5.2 11.8,12.2 c0,0.8 0,1.5 -0.1,2 h-19.6 c0,5.6 3.6,8.9 8.4,8.9 c2.9,0 5.5,-1.1 7.4,-3.5 l2.8,2.6 c-2.4,2.9 -5.9,4.8 -10.4,4.8 C185.20000014305117,189.9000015258789 180.60000014305115,184.1000015258789 180.60000014305115,176.50000152587893 zM185.10000014305115,173.9000015258789 h15.3 c-0.3000000000000002,-5 -3.7,-7.3 -7.6,-7.3 C188.4000001430511,166.6000015258789 185.50000014305112,169.6000015258789 185.10000014305115,173.9000015258789 zM225.70000014305117,163.9000015258789 l-1,3.8 c-0.7000000000000004,-0.4 -2,-0.7000000000000004 -3.1,-0.7000000000000004 c-3.7,0 -6.9,3 -6.9,9 v13.3 H210.60000014305115 v-25.8 h4.2 v3.8 c1.4,-2.5 4.3,-4.3 7.5,-4.3 C223.8000001430512,163.00000152587893 225.10000014305115,163.50000152587893 225.70000014305117,163.9000015258789 zM250.50000014305112,168.20000152587892 l-3.1,2.2 c-1.5,-2.3 -3.8,-3.7 -6.8,-3.7 c-5.1,0 -8.2,4 -8.2,9.6 c0,5.7 3.1,9.6 8.2,9.6 c3.1,0 5.4,-1.5 6.9,-3.7 l3.1,2.3 c-2.2,3.1 -5.7,5.2 -10.2,5.2 c-7.6,0 -12.4,-5.8 -12.4,-13.5 c0,-7.7 4.9,-13.5 12.4,-13.5 C244.90000014305116,162.9000015258789 248.40000014305116,165.1000015258789 250.50000014305112,168.20000152587892 zM254.30000014305114,176.50000152587893 c0,-7.7 4.6,-13.6 12.3,-13.6 c7.3,0 11.8,5.2 11.8,12.2 c0,0.8 0,1.5 -0.1,2 h-19.6 c0,5.6 3.6,8.9 8.4,8.9 c2.9,0 5.5,-1.1 7.4,-3.5 l2.8,2.6 c-2.4,2.9 -5.9,4.8 -10.4,4.8 C259.0000001430511,189.9000015258789 254.30000014305114,184.1000015258789 254.30000014305114,176.50000152587893 zM258.90000014305116,173.9000015258789 h15.3 c-0.3000000000000002,-5 -3.7,-7.3 -7.6,-7.3 C262.10000014305115,166.6000015258789 259.20000014305117,169.6000015258789 258.90000014305116,173.9000015258789 zM297.70000014305117,153.80000152587888 h4.2 v13.7 c2.1,-3.2 5.4,-4.6 8.8,-4.6 c7.2,0 11.7,5.8 11.7,13.5 s-4.6,13.5 -11.7,13.5 c-3.4,0 -6.7,-1.4 -8.8,-4.6 v4 h-4.2 V153.80000152587888 zM301.90000014305116,176.4000015258789 c0,5.4 2.9,9.6 8.1,9.6 c5.3,0 7.9,-4.2 7.9,-9.6 c0,-5.3 -2.6,-9.7 -7.9,-9.7 S301.90000014305116,171.1000015258789 301.90000014305116,176.4000015258789 zM327.70000014305117,197.9000015258789 l0.9,-3.5 c0.5,0.2 1.1,0.4 1.6,0.4 c1.9,0 3.1,-1.2 4.8,-5.6 l-10.1,-25.7 h4.7 l7.6,20.5 l7.6,-20.5 h4.6 l-10.4,26.4 c-2.4,6.2 -4.3,8.5 -8.1,8.5 C329.30000014305114,198.4000015258789 328.20000014305117,198.20000152587892 327.70000014305117,197.9000015258789 zM375.60000014305115,198.80000152587888 c-4.8,0 -8.7,-3.9 -8.7,-8.7 V155.4000015258789 c0,-4.8 3.9,-8.7 8.7,-8.7 h34.7 c4.8,0 8.7,3.9 8.7,8.7 v34.7 c0,4.8 -3.9,8.7 -8.7,8.7 H375.60000014305115 zM376.40000014305116,158.9000015258789 v27.6 c0,1.5 1.2,2.7 2.7,2.7 h27.6 c1.5,0 2.7,-1.2 2.7,-2.7 v-27.6 c0,-1.5 -1.2,-2.7 -2.7,-2.7 h-27.6 C377.60000014305115,156.20000152587892 376.40000014305116,157.4000015258789 376.40000014305116,158.9000015258789 zM398.5000001430511,165.6000015258789 c0.9,0 1.6,0.7000000000000004 1.6,1.6 v11 c0,0.9 -0.7000000000000004,1.6 -1.6,1.6 h-11 c-0.9,0 -1.6,-0.7000000000000004 -1.6,-1.6 v-11 c0,-0.9 0.7000000000000004,-1.6 1.6,-1.6 H398.5000001430511 zM447.90000014305116,157.30000152587888 c-4.1,0 -7.5,1.9 -7.5,5.5 c0,2.4 1.6,3.7 4.2,4.7 c5.6,2.1 16.6,2.7 16.6,11.8 c0,6.2 -4.9,10.7 -12.9,10.7 c-5.9,0 -10.8,-2.5 -13.5,-6.8 l3.6,-2.5 c2.4,3.9 6.6,5.2 10.1,5.2 c5,0 8.1,-2.5 8.1,-6.3 c0,-4 -3.5,-5.1 -8.6,-6.4 c-5.8,-1.3 -12.2,-3.2 -12.2,-10.2 c0,-6.5 5.7,-9.8 12.2,-9.8 c5.1,0 9.5,2 12.4,5.9 l-3.4,2.5 C454.90000014305116,158.9000015258789 451.70000014305117,157.30000152587888 447.90000014305116,157.30000152587888 zM491.3000001430512,198.00000152587893 h-4.2 v-12.7 c-2.1,3.2 -5.4,4.6 -8.8,4.6 c-7.2,0 -11.6,-5.8 -11.6,-13.5 s4.5,-13.5 11.6,-13.5 c3.5,0 6.7,1.4 8.8,4.6 v-4 h4.2 V198.00000152587893 zM487.10000014305115,176.4000015258789 c0,-5.4 -2.9,-9.6 -8.2,-9.6 c-5.2,0 -7.9,4.3 -7.9,9.6 c0,5.3 2.6,9.6 7.9,9.6 C484.30000014305114,186.00000152587893 487.10000014305115,181.70000152587892 487.10000014305115,176.4000015258789 zM517.0000001430511,163.50000152587893 h4.2 v25.8 h-4.2 V185.4000015258789 c-1.8,2.7 -4.8,4.5 -8.6,4.5 c-5.4,0 -8.8,-3.6 -8.8,-9.7 v-16.7 h4.2 v15.7 c0,3.6 1.1,6.8 5.6,6.8 c4.4,0 7.7,-3.2 7.7,-8.1 V163.50000152587893 zM549.1000001430511,189.30000152587888 h-4.1 v-3.2 c-1.8,2.6 -4.5,3.8 -7.9,3.8 c-5.4,0 -8.9,-2.9 -8.9,-7.9 c0,-6.1 5.3,-7.2 8.6,-7.8 c3.9,-0.6000000000000004 8.1,-0.9 8.1,-4.1 c0,-2.7 -2.9,-3.5 -5.6,-3.5 c-2.6,0 -5.9,0.8 -8.1,2.7 l-1.9,-3.2 c2.6,-1.9 6.4,-3.2 10.3,-3.2 c5.6,0 9.5,2.5 9.5,7.9 V189.30000152587888 zM544.9000001430511,179.20000152587892 v-3.8 c-1.8,1.3 -4.7,1.7000000000000002 -7.3,2.1 c-3,0.5 -5.2,1.3 -5.2,4.3 c0,3.2 2.4,4.4 5.3,4.4 C541.4000001430511,186.20000152587892 544.9000001430511,184.20000152587892 544.9000001430511,179.20000152587892 zM572.7000001430512,163.9000015258789 l-1,3.8 c-0.7000000000000004,-0.4 -2,-0.7000000000000004 -3.1,-0.7000000000000004 c-3.7,0 -6.9,3 -6.9,9 v13.3 h-4.2 v-25.8 h4.2 v3.8 c1.4,-2.5 4.3,-4.3 7.5,-4.3 C570.7000001430512,163.00000152587893 572.0000001430511,163.50000152587893 572.7000001430512,163.9000015258789 zM575.9000001430511,176.50000152587893 c0,-7.7 4.6,-13.6 12.3,-13.6 c7.3,0 11.8,5.2 11.8,12.2 c0,0.8 0,1.5 -0.1,2 h-19.6 c0,5.6 3.6,8.9 8.4,8.9 c2.9,0 5.5,-1.1 7.4,-3.5 l2.8,2.6 c-2.4,2.9 -5.9,4.8 -10.4,4.8 C580.5000001430511,189.9000015258789 575.9000001430511,184.1000015258789 575.9000001430511,176.50000152587893 zM580.4000001430511,173.9000015258789 h15.3 c-0.3000000000000002,-5 -3.7,-7.3 -7.6,-7.3 C583.7000001430512,166.6000015258789 580.8000001430512,169.6000015258789 580.4000001430511,173.9000015258789 zM368.40000014305116,41.70000152587892 c5.4,-6.8 13.8,-10.5 23.8,-10.5 c21.3,0 36.2,17.3 36.2,42.1 c0,25 -14.9,42.4 -36.2,42.4 c-9.9,0 -18.3,-3.8 -23.8,-10.7 v8.9 h-20.4 V0.0000015258789005656581 h20.4 V41.70000152587892 zM388.0000001430511,97.6000015258789 c14.1,0 19.1,-12.4 19.1,-24 c0,-11.8 -5,-24.3 -19.1,-24.3 c-13.5,0 -19.6,12.2 -19.6,24.3 C368.40000014305116,88.1000015258789 376.10000014305115,97.6000015258789 388.0000001430511,97.6000015258789 zM433.20000014305117,113.80000152587888 V0.0000015258789005656581 h20.7 v113.8 H433.20000014305117 zM258.70000014305117,70.9000015258789 l0,7.8 h-57.2 c0.4,11.6 8.3,18.7 20.6,18.7 c8.3,0 15.3,-3.3 20.3,-9.5 l0.5,-0.6000000000000004 l13.3,12.5 l-0.4,0.5 c-8.6,10.3 -20.3,15.5 -34.7,15.5 c-25.3,0 -41.6,-16.5 -41.6,-42 c0,-25.5 16.2,-42.6 40.4,-42.6 C243.00000014305112,31.200001525878918 258.70000014305117,47.20000152587892 258.70000014305117,70.9000015258789 zM202.10000014305115,63.400001525878906 h36.7 c-1.9,-8.8 -8.6,-14.1 -18.1,-14.1 C211.20000014305117,49.30000152587888 204.20000014305117,54.70000152587892 202.10000014305115,63.400001525878906 zM342.0000001430511,70.9000015258789 l0,7.8 h-57.2 c0.4,11.6 8.3,18.7 20.6,18.7 c8.3,0 15.3,-3.3 20.3,-9.5 l0.5,-0.6000000000000004 l13.3,12.5 l-0.4,0.5 c-8.6,10.3 -20.3,15.5 -34.7,15.5 c-25.3,0 -41.6,-16.5 -41.6,-42 c0,-25.5 16.2,-42.6 40.4,-42.6 C326.40000014305116,31.200001525878918 342.0000001430511,47.20000152587892 342.0000001430511,70.9000015258789 zM285.5000001430511,63.400001525878906 h36.7 c-1.9,-8.8 -8.6,-14.1 -18.1,-14.1 C294.60000014305115,49.30000152587888 287.5000001430511,54.70000152587892 285.5000001430511,63.400001525878906 zM158.70000014305117,33.00000152587893 h22 L158.60000014305115,114.00000152587893 h-23.5 l-14.9,-52 l-15.2,52 h-23.6 l-0.1,-0.5 l-21.8,-80.4 H81.60000014305115 l12.3,51.5 l14.9,-51.5 H131.60000014305115 l14.9,51.5 L158.70000014305117,33.00000152587893 zM519.7000001430512,33.20000152587892 h22.1 L498.60000014305115,146.70000152587892 h-19.8 l12.3,-32.8 l-32.1,-80.7 h23.2 l18.8,53.9 L519.7000001430512,33.20000152587892 z"/>
		</g>
	</g>
</g></g></svg>