<?xml version="1.0" encoding="utf-8"?>
<!-- Generator: Adobe Illustrator 22.1.0, SVG Export Plug-In . SVG Version: 6.00 Build 0)  -->
<svg version="1.1" id="Layer_1" xmlns="http://www.w3.org/2000/svg" xmlns:xlink="http://www.w3.org/1999/xlink" x="0px" y="0px"
	 viewBox="0 0 576 300" style="enable-background:new 0 0 576 300;" xml:space="preserve">
<style type="text/css">
	.st0{fill:#57C6F3;}
</style>
<g>
	<path class="st0" d="M466.5,147.5c-1.9-10.7-7.9-17.7-18.2-21.1c-4.8-1.6-9.9-1.4-14.9-1c-5.9,0.5-11.3,2.4-16.2,5.7
		c-1.4,0.9-2.7,1.9-4.1,2.9c-0.3-0.6-0.1-1.1-0.1-1.6c0.4-2.4,0.7-4.7,1-7.1c0.7-5.1,1.4-10.2,2.2-15.3c0.8-5.7,1.7-11.3,2.5-17
		c0.2-1-0.3-1.9-1-2.7c-0.9-1-2-1.6-3.3-1.8c-4.2-0.7-8.5-0.5-12.7-0.2c-3.6,0.2-6.7,3.3-7.2,6.5c-1,6.1-1.8,12.3-2.7,18.5
		c-0.8,5.7-1.6,11.4-2.5,17.2c-0.9,6.3-1.9,12.7-2.9,19c-0.8,5.8-1.6,11.5-2.5,17.3c-0.8,5.9-1.7,11.7-2.6,17.6
		c-0.7,4.9-1.4,9.9-2.2,14.8c-0.4,2.3,0.2,3.7,2.2,4.8c1.2,0.6,2.4,1,3.8,1c3.2,0,6.4,0,9.6,0c3.9,0,7.3-2.5,8.2-6.3
		c0.5-2.1,0.8-4.2,1.1-6.4c1.4-9.5,2.7-19,4.2-28.5c2-11.9,11.8-19.1,22.2-18.5c5.5,0.3,9.2,3,10.6,8.5c0.9,3.6,0.7,7.1,0.1,10.7
		c-0.7,5.1-1.5,10.2-2.2,15.3c-0.9,5.9-1.6,11.8-2.6,17.7c-0.8,4.7,0.2,6.6,5.1,7.3c3.7,0.5,7.4,0.4,11.1,0.1c4.7-0.3,7.4-4,7.8-7.7
		c0.6-5.2,1.6-10.4,2.4-15.5c1.1-6.9,2.1-13.8,3.2-20.6C466.2,161.1,467.6,154.5,466.5,147.5z"/>
	<path class="st0" d="M273.1,128c-1.5-1.3-3.3-1.9-5.3-1.9c-3.6,0-7.2,0-10.8,0c-4.3,0-8.1,3-8.9,7.2c-0.8,4.3-1.2,8.7-1.9,13.1
		c-0.9,6.1-1.8,12.1-2.6,18.2c-1,7.8-6.1,13.2-13.8,14.2c-6,0.8-10.6-3-12-7.8c-0.6-2.3-0.4-4.6,0-6.9c0.8-5.4,1.4-10.9,2.2-16.3
		c0.7-4.7-2-8-6.7-8.1c-3.5,0-7,0-10.5,0c-1.2,0-2.4,0.2-3.6,0.8c-3.3,1.6-5,4.2-5.4,7.8c-0.7,5.6-1.6,11.2-2.3,16.9
		c-1,8.4-8.9,14.8-16.6,13.6c-5-0.7-9.8-5.4-9.6-11.3c0.1-3.1,0.7-6.1,1.2-9.2c0.8-6,1.7-11.9,2.6-17.9c0.7-5.3,1.3-10.7,2.2-16
		c0.8-5.2-1.4-9.5-6.3-11.5c-15.1-6.3-30.2-12.5-45.3-18.8c-0.8-0.3-1.5-0.7-2.4-0.8c-2.4-0.1-4.6,1.5-5.7,4.5
		c-1.5,4.4-2.5,8.9-3.5,13.5c0,0,0,0,0,0c0,0,0,0,0,0c-0.1,0-0.2,0-0.3,0c0,0.7,0,1.4,0,2.1c0.1,0,0.2,0,0.3,0
		c0.6,4.4,3.2,7,7.2,8.6c9.1,3.7,18.2,7.5,27.3,11.2c0.8,0.3,1.4,0.5,1.2,1.7c-0.8,4.6-1.3,9.3-1.9,14c-0.6,4.6-1.4,9.1-2,13.7
		c-0.6,4.9-1.3,9.8-0.4,14.8c1.7,9.7,6.7,17.2,14.8,22.5c8.5,5.6,18,6.2,27.8,4.2c6.4-1.3,12.1-4.2,17.1-8.2
		c0.9-0.7,1.5-0.7,2.3,0.1c1,1.1,2.3,2.1,3.5,2.9c8.9,6.2,18.8,7.6,29,5.1c17.2-4.3,28.8-15,34.2-32c2-6.3,2.2-12.9,3.2-19.4
		c1-6.2,1.8-12.5,2.6-18.8C274.4,131.8,275.1,129.7,273.1,128z"/>
	<path class="st0" d="M375.4,130.4c-6.2-4.3-13-6.6-20.5-6.9c-7-0.3-13.8,0.6-20.3,3.2c-11.7,4.8-21,14.8-19.8,28.8
		c0.3,3.5,1.5,6.6,3.9,9.2c3.2,3.4,7.3,5.4,11.6,7.2c4.5,1.9,9.3,2.8,13.9,4.5c2.3,0.9,4.6,1.8,6.4,3.6c1.7,1.7,1.8,4.1,0.2,6
		c-1.4,1.6-3.1,2.6-5.2,2.9c-5.7,0.9-11.3,0.3-16.8-1.6c-3.8-1.4-7.2-3.6-10.8-5.4c-2.3-1.2-4.8-0.7-6.3,1.4
		c-1.9,2.5-3.9,5.1-5.8,7.7c-2.2,3-2,4.7,1,6.9c9.3,6.9,19.8,9.9,31.3,10.1c3.3,0.1,6.5-0.3,9.7-0.9c7.1-1.5,13.4-4.6,18.5-9.7
		c6.2-6.3,8.9-14,8.3-22.8c-0.4-5.6-2.9-9.8-7.9-12.7c-4.7-2.7-9.8-4.2-15-5.7c-4.1-1.1-8.3-2.2-12.1-4.1c-2.1-1.1-2.9-3-2.2-5
		c0.5-1.5,1.6-2.4,3.1-3c4.7-1.9,9.6-1.8,14.5-0.7c3.7,0.8,7,2.4,10.3,4.4c3.2,1.9,4.8,1.7,7.2-1.1c1.7-1.9,3.3-3.9,4.8-6
		C379.4,137.2,378.6,132.6,375.4,130.4z"/>
	<path class="st0" d="M306.6,132.4c0.5-3.3-0.6-5.1-3.8-6c-2.3-0.6-4.6-0.1-6.5-0.3c-2.1,0-3.7,0-5.3,0c-3.7,0-7.4,3.1-7.9,6.7
		c-0.6,4.2-1.2,8.4-1.8,12.7c-0.8,6-1.6,11.9-2.4,17.9c-0.8,6-1.7,11.9-2.6,17.9c-0.8,5.4-1.4,10.9-2.3,16.3c-0.9,5,0.7,6.7,5.1,7.3
		c3.6,0.5,7.2,0.4,10.8,0.1c4.1-0.3,6.8-3,7.5-7.1c0.4-2.2,0.7-4.5,1-6.7c0.7-5.2,1.5-10.4,2.2-15.6c0.6-4.5,1.2-9,1.9-13.5
		c0.7-5.3,1.5-10.7,2.3-16C305.3,141.5,305.9,136.9,306.6,132.4z"/>
	<path class="st0" d="M295.3,118.1c9.3,0.9,17-6.9,16.8-15.2c0.2-6.4-5-11.7-12.5-11c-7.9,0.7-13.3,7.4-14,13.4
		C284.9,111.7,288.9,117.5,295.3,118.1z"/>
</g>
</svg>
