<?xml version="1.0" encoding="utf-8"?>
<!-- Generator: Adobe Illustrator 22.1.0, SVG Export Plug-In . SVG Version: 6.00 Build 0)  -->
<svg version="1.1" id="Layer_1" xmlns="http://www.w3.org/2000/svg" xmlns:xlink="http://www.w3.org/1999/xlink" x="0px" y="0px"
	 viewBox="0 0 52 52" style="enable-background:new 0 0 52 52;" xml:space="preserve">
<style type="text/css">
	.st0{fill-rule:evenodd;clip-rule:evenodd;fill:#0086CD;}
	.st1{fill:#FFFFFF;}
</style>
<g>
	<path class="st0" d="M45,36.3c0,4.8-3.9,8.6-8.6,8.6H15.7C10.9,45,7,41.1,7,36.3V15.7C7,10.9,10.9,7,15.7,7h20.7
		c4.8,0,8.6,3.9,8.6,8.6V36.3z"/>
	<path class="st1" d="M16.5,33.6c-1.8,0-3.3,1.5-3.3,3.3c0,1.8,1.5,3.3,3.3,3.3c1.8,0,3.3-1.5,3.3-3.3
		C19.7,35.1,18.3,33.6,16.5,33.6z M16.5,38.1c-0.6,0-1.2-0.5-1.2-1.2c0-0.7,0.5-1.2,1.2-1.2c0.6,0,1.2,0.5,1.2,1.2
		C17.6,37.5,17.1,38.1,16.5,38.1z"/>
	<path class="st1" d="M35.4,33.8c-1.8,0-3.3,1.5-3.3,3.3c0,1.8,1.5,3.3,3.3,3.3c1.8,0,3.3-1.5,3.3-3.3
		C38.7,35.2,37.2,33.8,35.4,33.8z M35.4,38.2c-0.6,0-1.2-0.5-1.2-1.2c0-0.7,0.5-1.2,1.2-1.2c0.6,0,1.2,0.5,1.2,1.2
		C36.6,37.7,36,38.2,35.4,38.2z"/>
	<path class="st1" d="M40.8,13c0,0-0.1,0-0.1,0l-0.5,0c-1.4,0-2.6,0.9-2.9,2.3l-2.7,10.2c-0.5,1.9-2.4,3.2-4.3,3.2l-0.8,0
		c-0.9,0-1.5-0.5-1.8-0.8c-0.2-0.2-0.4-0.3-0.7-0.3l-1.8,0c-0.3,0-0.5,0.1-0.7,0.3c-0.4,0.4-1,0.8-1.8,0.8l-0.8,0
		c-1.9,0-3.7-1.2-4.3-3l-2.1-6.6c-0.4-1.3-1.6-2.1-2.9-2.1l-0.5,0c-0.2,0-0.4,0.1-0.5,0.2c-0.1,0.2-0.1,0.3-0.1,0.5l2.9,9
		c1,3.2,3.6,5.1,7,5.1h2.5c0.7,0,1.8-0.4,2.2-0.8c0.1-0.1,0.2-0.1,0.3,0c0.4,0.4,1.5,0.8,2.2,0.8h2.2c3.5,0,6.3-2.1,7.2-5.5
		l3.4-12.6C41.2,13.4,41.1,13.1,40.8,13z"/>
	<g>
		<circle class="st1" cx="30.8" cy="23.8" r="1.7"/>
		<circle class="st1" cx="25.9" cy="23.8" r="1.7"/>
		<circle class="st1" cx="21.1" cy="23.8" r="1.7"/>
		<circle class="st1" cx="30.8" cy="18.9" r="1.7"/>
		<circle class="st1" cx="25.9" cy="18.9" r="1.7"/>
		<circle class="st1" cx="21.1" cy="18.9" r="1.7"/>
	</g>
</g>
</svg>
