<?xml version="1.0" encoding="UTF-8"?>
<svg width="221px" height="43px" viewBox="0 0 221 43" version="1.1" xmlns="http://www.w3.org/2000/svg" xmlns:xlink="http://www.w3.org/1999/xlink">
    <!-- Generator: Sketch 60.1 (88133) - https://sketch.com -->
    <title>product-info-sprite</title>
    <desc>Created with Sketch.</desc>
    <g id="Page-1" stroke="none" stroke-width="1" fill="none" fill-rule="evenodd">
        <g id="product-info-sprite" transform="translate(-13.000000, -9.000000)">
            <g id="ic-60-technique">
                <rect id="Rectangle" x="0" y="0" width="60" height="60"></rect>
                <g id="Group-Copy-4" stroke-linecap="round" stroke-linejoin="round" transform="translate(14.000000, 11.000000)" stroke="#221E1F" stroke-width="2">
                    <rect id="Rectangle-4" fill="#D8D8D8" fill-rule="nonzero" x="17" y="20" width="8" height="19" rx="2"></rect>
                    <rect id="Rectangle-4-Copy" fill="#FFFFFF" fill-rule="nonzero" x="5" y="0" width="28" height="10" rx="5"></rect>
                    <rect id="Rectangle-4-Copy-2" fill="#FFFFFF" fill-rule="nonzero" x="5" y="0" width="10" height="10" rx="5"></rect>
                    <path d="M21,20 L21,18 C21,15.790861 19.209139,14 17,14 L4,14 C1.790861,14 0,12.209139 0,10 L0,9 C0,6.790861 1.790861,5 4,5 L9,5" id="Path-2"></path>
                </g>
            </g>
            <g id="ic-60-area" transform="translate(60.000000, 0.000000)">
                <polygon id="Fill-1" fill="#FEFEFE" fill-rule="nonzero" points="12 48 48 48 48 12 12 12"></polygon>
                <polygon id="Stroke-2" stroke="#221E1F" stroke-width="2" stroke-linejoin="round" points="12 48 48 48 48 12 12 12"></polygon>
                <polygon id="Fill-4" fill="#FEFEFE" fill-rule="nonzero" points="12 48 38 48 38 22 12 22"></polygon>
                <polygon id="Stroke-5" stroke="#221E1F" stroke-width="2" stroke-linejoin="round" points="12 48 38 48 38 22 12 22"></polygon>
                <polygon id="Fill-7" fill="#FEFEFE" fill-rule="nonzero" points="12 48 28 48 28 32 12 32"></polygon>
                <polygon id="Stroke-8" stroke="#221E1F" stroke-width="2" fill="#D8D8D8" fill-rule="nonzero" stroke-linejoin="round" points="12 48 28 48 28 32 12 32"></polygon>
                <rect id="Rectangle" x="0" y="0" width="60" height="60"></rect>
            </g>
            <g id="Group-2" transform="translate(150.000000, 30.000000) scale(-1, 1) translate(-150.000000, -30.000000) translate(120.000000, 0.000000)">
                <path d="M12.5958654,41.8527592 L36.8972314,41.8527592 C37.4000114,41.8527592 37.8843474,41.6633918 38.2537914,41.3223661 L46.4117174,33.791973 C48.0350004,32.293558 48.1362264,29.7629218 46.6378104,28.1396388 C46.5654904,28.0612911 46.4900654,27.9858664 46.4117174,27.9135454 L38.2537914,20.3831523 C37.8843474,20.0421266 37.4000114,19.8527592 36.8972314,19.8527592 L12.5958654,19.8527592 C11.4912964,19.8527592 10.5958654,20.7481897 10.5958654,21.8527592 L10.5958654,39.8527592 C10.5958654,40.9573287 11.4912964,41.8527592 12.5958654,41.8527592 Z" id="Stroke-2" stroke="#221E1F" stroke-width="2" fill="#FFFFFF" fill-rule="nonzero" stroke-linecap="round" stroke-linejoin="round" transform="translate(29.147241, 30.852759) rotate(-45.000000) translate(-29.147241, -30.852759) "></path>
                <rect id="Rectangle-3" fill="#D8D8D8" fill-rule="nonzero" transform="translate(20.979185, 30.535534) rotate(-45.000000) translate(-20.979185, -30.535534) " x="12.9791851" y="29.535534" width="16" height="2"></rect>
                <rect id="Rectangle-3-Copy-2" fill="#D8D8D8" fill-rule="nonzero" transform="translate(22.393397, 34.778175) rotate(-45.000000) translate(-22.393397, -34.778175) " x="16.3933974" y="33.778175" width="12" height="2"></rect>
                <rect id="Rectangle-3-Copy-3" fill="#D8D8D8" fill-rule="nonzero" transform="translate(23.807612, 39.020815) rotate(-45.000000) translate(-23.807612, -39.020815) " x="19.8076124" y="38.020815" width="8" height="2"></rect>
                <rect id="Rectangle-3-Copy-4" fill="#D8D8D8" fill-rule="nonzero" transform="translate(29.110913, 39.374369) rotate(-45.000000) translate(-29.110913, -39.374369) " x="21.610913" y="38.374369" width="15" height="2"></rect>
                <circle id="Oval-2" stroke="#221E1F" stroke-width="2" fill="#FFFFFF" fill-rule="nonzero" transform="translate(36.535534, 23.464466) rotate(-45.000000) translate(-36.535534, -23.464466) " cx="36.5355341" cy="23.464466" r="3"></circle>
                <rect id="Rectangle-6" fill="#222222" fill-rule="nonzero" transform="translate(44.313708, 15.686291) rotate(-45.000000) translate(-44.313708, -15.686291) " x="36.3137083" y="14.686291" width="16" height="2"></rect>
                <rect id="Rectangle-" x="0" y="0" width="60" height="60"></rect>
            </g>
            <g id="Group-Copy" transform="translate(180.000000, 0.000000)">
                <g id="Group-3">
                    <g id="Group-2">
                        <rect id="Rectangle--Copy" x="0" y="0" width="60" height="60"></rect>
                    </g>
                </g>
                <g id="Group-11" transform="translate(8.000000, 11.000000)">
                    <path d="M10.527795,36.4723618 L34.3777053,36.4723618 L34.3777053,16.4221106 C34.3777053,16.2311558 34.5677369,15.9447236 34.6618025,15.8482915 C34.8527842,15.6582915 35.1368814,15.6582915 35.3278631,15.7537688 L40.078652,17.3768844 L43.2132225,8.59296482 L31.3362503,1.71859296 L27.7266009,1.71859296 C27.251522,4.29648241 25.0661591,6.20603015 22.4047672,6.20603015 C19.7443254,6.20603015 17.5589625,4.20100503 17.1788994,1.62311558 L13.5682999,1.62311558 L1.69132766,8.49748744 L4.82684832,17.1859296 L9.5776372,15.5628141 C9.76766875,15.4673367 10.0527161,15.4673367 10.2427476,15.6582915 C10.4327792,15.8482915 10.527795,16.040201 10.527795,16.2311558 L10.527795,36.4723618 Z M35.1368814,38 L9.76766875,38 C9.29258986,38 9.00754253,37.7135678 9.00754253,37.2361809 L9.00754253,17.4723618 L4.63776692,18.9045226 C4.25675365,19.0954774 3.78167476,18.8090452 3.68760914,18.4271357 L0.0760594378,8.40201005 C-0.11302196,8.0201005 0.0760594378,7.63819095 0.362056928,7.44723618 L12.9991553,0.190954774 C13.093221,0.0945226131 13.1891869,0 13.3782683,0 L17.9399758,0 C18.4150547,0 18.700102,0.286432161 18.700102,0.763819095 C18.700102,2.86432161 20.4094358,4.58291457 22.5007331,4.58291457 C24.5910802,4.58291457 26.3013642,2.86432161 26.3013642,0.763819095 C26.3013642,0.286432161 26.5854614,0 27.0605403,0 L31.6212976,0 C31.8113292,0 31.8113292,0 32.0023109,0.0945226131 L44.6384591,7.35175879 C44.9235065,7.54271357 45.113538,7.92462312 44.9235065,8.30653266 L41.3129069,18.4271357 C41.1228754,18.8090452 40.7437624,19 40.3627491,18.9045226 L35.9929735,17.4723618 L35.9929735,37.3307035 C35.8970076,37.6171357 35.5178946,38 35.1368814,38 L35.1368814,38 Z" id="Fill-1" fill="#221E1F" fill-rule="nonzero"></path>
                    <path d="M10.527795,36.4723618 L34.3777053,36.4723618 L34.3777053,16.4221106 C34.3777053,16.2311558 34.5677369,15.9447236 34.6618025,15.8482915 C34.8527842,15.6582915 35.1368814,15.6582915 35.3278631,15.7537688 L40.078652,17.3768844 L43.2132225,8.59296482 L31.3362503,1.71859296 L27.7266009,1.71859296 C27.251522,4.29648241 25.0661591,6.20603015 22.4047672,6.20603015 C19.7443254,6.20603015 17.5589625,4.20100503 17.1788994,1.62311558 L13.5682999,1.62311558 L1.69132766,8.49748744 L4.82684832,17.1859296 L9.5776372,15.5628141 C9.76766875,15.4673367 10.0527161,15.4673367 10.2427476,15.6582915 C10.4327792,15.8482915 10.527795,16.040201 10.527795,16.2311558 L10.527795,36.4723618 Z M35.1368814,38 L9.76766875,38 C9.29258986,38 9.00754253,37.7135678 9.00754253,37.2361809 L9.00754253,17.4723618 L4.63776692,18.9045226 C4.25675365,19.0954774 3.78167476,18.8090452 3.68760914,18.4271357 L0.0760594378,8.40201005 C-0.11302196,8.0201005 0.0760594378,7.63819095 0.362056928,7.44723618 L12.9991553,0.190954774 C13.093221,0.0945226131 13.1891869,0 13.3782683,0 L17.9399758,0 C18.4150547,0 18.700102,0.286432161 18.700102,0.763819095 C18.700102,2.86432161 20.4094358,4.58291457 22.5007331,4.58291457 C24.5910802,4.58291457 26.3013642,2.86432161 26.3013642,0.763819095 C26.3013642,0.286432161 26.5854614,0 27.0605403,0 L31.6212976,0 C31.8113292,0 31.8113292,0 32.0023109,0.0945226131 L44.6384591,7.35175879 C44.9235065,7.54271357 45.113538,7.92462312 44.9235065,8.30653266 L41.3129069,18.4271357 C41.1228754,18.8090452 40.7437624,19 40.3627491,18.9045226 L35.9929735,17.4723618 L35.9929735,37.3307035 C35.8970076,37.6171357 35.5178946,38 35.1368814,38 Z" id="Stroke-3" stroke="#221E1F" stroke-width="0.25"></path>
                </g>
                <rect id="Rectangle" stroke="#221E1F" stroke-width="2" fill="#D8D8D8" x="14" y="35" width="15" height="15" rx="2"></rect>
                <polyline id="Path-Copy" stroke="#D8D8D8" stroke-width="2" points="17.5 43.0134758 21.5 47.0134758 30.4522751 37.9965262"></polyline>
                <rect id="Rectangle" fill="#FFFFFF" x="30" y="35" width="5" height="7"></rect>
                <polyline id="Path" stroke="#221E1F" stroke-width="2" points="17.5 41.0134758 21.5 45.0134758 33.5134758 33"></polyline>
            </g>
        </g>
    </g>
</svg>