<?xml version="1.0" encoding="utf-8"?>
<!-- Generator: Adobe Illustrator 23.0.1, SVG Export Plug-In . SVG Version: 6.00 Build 0)  -->
<svg version="1.1" id="Layer_1" xmlns="http://www.w3.org/2000/svg" xmlns:xlink="http://www.w3.org/1999/xlink" x="0px" y="0px"
	 viewBox="0 0 830.1 500" style="enable-background:new 0 0 830.1 500;" xml:space="preserve">
<style type="text/css">
	.st0{fill:none;}
	.st1{fill:#E6E7E8;}
	.st2{fill:none;stroke:#3F3B3C;stroke-width:0.51;stroke-linecap:round;stroke-linejoin:round;}
	.st3{fill:url(#SVGID_1_);}
	.st4{opacity:0.15;fill:#C7AD79;enable-background:new    ;}
	.st5{fill:#C7AD79;}
	.st6{fill:#E9CC8E;}
	.st7{fill:#D9D9D9;}
	.st8{fill:#FFFFFF;}
	.st9{fill:none;stroke:#231F20;stroke-width:2;stroke-miterlimit:10;}
	.st10{fill:#FFFFFF;stroke:#231F20;stroke-width:2;stroke-miterlimit:10;}
	.st11{clip-path:url(#SVGID_4_);}
	.st12{fill:#36BCBD;}
	.st13{clip-path:url(#SVGID_6_);}
	.st14{fill:#15998F;}
	.st15{clip-path:url(#SVGID_8_);}
	.st16{fill:#F16533;}
	.st17{clip-path:url(#SVGID_10_);}
	.st18{fill:#C13339;}
	.st19{clip-path:url(#SVGID_12_);}
	.st20{fill:#C8533A;}
	.st21{clip-path:url(#SVGID_14_);}
	.st22{fill:#F05A28;}
	.st23{clip-path:url(#SVGID_16_);}
	.st24{fill:url(#SVGID_17_);}
	.st25{clip-path:url(#SVGID_19_);}
	.st26{fill:url(#SVGID_20_);}
	.st27{clip-path:url(#SVGID_22_);}
	.st28{fill:url(#SVGID_23_);}
	.st29{clip-path:url(#SVGID_25_);}
	.st30{fill:url(#SVGID_26_);}
	.st31{clip-path:url(#SVGID_28_);}
	.st32{fill:url(#SVGID_29_);}
	.st33{clip-path:url(#SVGID_31_);}
	.st34{fill:url(#SVGID_32_);}
	.st35{clip-path:url(#SVGID_34_);}
	.st36{fill:url(#SVGID_35_);}
	.st37{fill:#95BF47;}
	.st38{fill:#5E8E3E;}
	.st39{fill:#91C33E;}
	.st40{fill:#9B5C8F;}
	.st41{fill:#34313F;}
	.st42{fill:#5FBC98;}
	.st43{fill:#55AE8C;}
	.st44{fill:#6CD9AE;}
	.st45{fill:#FBAF29;}
	.st46{fill:#333C43;}
	.st47{fill:#F27224;}
	.st48{fill:#222222;}
	.st49{fill:#E53238;}
	.st50{fill:#0064D2;}
	.st51{fill:#F5AF02;}
	.st52{fill:#86B817;}
	.st53{fill-rule:evenodd;clip-rule:evenodd;fill:#0086CD;}
	.st54{fill:#A0DBE8;}
	.st55{fill:#525353;}
	.st56{fill:#AA9678;}
	.st57{fill:#C3B5A0;}
	.st58{fill:#776453;}
	.st59{fill:#8B7460;}
	.st60{fill:#BBBCBD;}
	.st61{fill:#676A6A;}
	.st62{fill:#909393;}
	.st63{fill:#E2DDDB;}
	.st64{fill:#FBB040;}
	.st65{fill:none;stroke:#000000;stroke-width:0;stroke-linecap:round;stroke-linejoin:round;}
	.st66{fill:#9F2255;}
	.st67{fill:#E2056F;}
</style>
<pattern  y="500" width="75.8" height="68" patternUnits="userSpaceOnUse" id="SVGID_2_" viewBox="1.3 -68.9 75.8 68" style="overflow:visible;">
	<g>
		<rect x="1.3" y="-68.9" class="st0" width="75.8" height="68"/>
		<g>
			<rect x="1.3" y="-68.9" class="st0" width="75.8" height="68"/>
			<g>
				<rect x="1.3" y="-68.9" class="st0" width="75.8" height="68"/>
				<g>
					<rect x="1.3" y="-68.9" class="st0" width="75.8" height="68"/>
					<g>
						<rect x="1.3" y="-68.9" class="st0" width="75.8" height="68"/>
						<rect x="1.3" y="-68.9" class="st0" width="75.8" height="68"/>
						<rect x="1.3" y="-68.9" class="st0" width="75.8" height="68"/>
						<rect x="1.3" y="-68.9" class="st0" width="75.8" height="68"/>
						<rect x="1.3" y="-68.9" class="st0" width="75.8" height="68"/>
						<rect x="1.3" y="-68.9" class="st0" width="75.8" height="68"/>
						<rect x="1.3" y="-68.9" class="st0" width="75.8" height="68"/>
						<rect x="1.3" y="-68.9" class="st0" width="75.8" height="68"/>
						<rect x="1.3" y="-68.9" class="st0" width="75.8" height="68"/>
						<circle class="st1" cx="0.9" cy="-29.4" r="0.9"/>
						<circle class="st1" cx="15.1" cy="-8.4" r="0.9"/>
						<circle class="st1" cx="14.2" cy="-26.6" r="0.9"/>
						<circle class="st1" cx="7" cy="-7.5" r="0.9"/>
						<path class="st2" d="M33.1-7.7"/>
						<circle class="st1" cx="27.6" cy="-10.5" r="0.9"/>
						<circle class="st1" cx="38.9" cy="-12.4" r="0.9"/>
						<circle class="st1" cx="33.1" cy="-0.9" r="0.9"/>
						<circle class="st1" cx="52.1" cy="-9.6" r="0.9"/>
						<path class="st2" d="M71-24.7"/>
						<circle class="st1" cx="65.5" cy="-27.5" r="0.9"/>
						<circle class="st1" cx="76.8" cy="-29.4" r="0.9"/>
						<circle class="st1" cx="71" cy="-17.9" r="0.9"/>
						<circle class="st1" cx="64.6" cy="-4.9" r="0.9"/>
						<circle class="st1" cx="0.9" cy="-63.4" r="0.9"/>
						<circle class="st1" cx="15.1" cy="-42.4" r="0.9"/>
						<circle class="st1" cx="14.2" cy="-60.6" r="0.9"/>
						<circle class="st1" cx="7" cy="-41.5" r="0.9"/>
						<path class="st2" d="M33.1-41.7"/>
						<circle class="st1" cx="27.6" cy="-44.5" r="0.9"/>
						<circle class="st1" cx="38.9" cy="-46.4" r="0.9"/>
						<circle class="st1" cx="53" cy="-25.4" r="0.9"/>
						<circle class="st1" cx="33.1" cy="-34.9" r="0.9"/>
						<circle class="st1" cx="52.1" cy="-43.6" r="0.9"/>
						<circle class="st1" cx="45" cy="-24.5" r="0.9"/>
						<circle class="st1" cx="26.7" cy="-21.9" r="0.9"/>
						<path class="st2" d="M71-58.7"/>
						<circle class="st1" cx="65.5" cy="-61.5" r="0.9"/>
						<circle class="st1" cx="76.8" cy="-63.4" r="0.9"/>
						<circle class="st1" cx="71" cy="-51.9" r="0.9"/>
						<circle class="st1" cx="64.6" cy="-38.9" r="0.9"/>
						<circle class="st1" cx="53" cy="-59.4" r="0.9"/>
						<circle class="st1" cx="33.1" cy="-68.9" r="0.9"/>
						<circle class="st1" cx="45" cy="-58.5" r="0.9"/>
						<circle class="st1" cx="26.7" cy="-55.9" r="0.9"/>
					</g>
				</g>
			</g>
		</g>
	</g>
</pattern>
<g>
	<pattern  id="SVGID_1_" xlink:href="#SVGID_2_" patternTransform="matrix(1.97 0 0 1.86 83550.0469 164613.4219)">
	</pattern>
	<rect y="0" class="st3" width="830.1" height="500"/>
</g>
<g id="Layer_1_1_">
	<title>platforms</title>
	<path class="st4" d="M735.7,438c-14.6-2.6-65.3-4.5-81.1-6.1s-37.7-4.5-36.1-12.1s65.3-39.8,65.3-39.8s30.4-17.7,34.9-21.2
		s6.2-5,7.4-6.5s1.9-5-0.6-6.3s-21.1-1.2-28.4,0s-60.8,10.9-68.4,12.6s-26.8,5-30.4,3.5s-8.1-3.8-4-9.8c4.3-6.1,31.8-37.6,43.3-48.4
		s27.9-30,29.9-33.6s4.3-7.6,2.2-9.6c-1.9-2-6.5-2.3-11.8,0L583,302c-9.6,5.3-25.9,14.9-30.1,13.2s-5.3-4.8-4-11.6
		c1.5-6.8,16.6-49.4,21.1-61.8s9.3-25.5,9.9-31.3s0.9-12.4-0.6-13.3s-4-2.3-7.1,0s-26.8,29.5-41.7,49.4s-27.9,32.8-31.5,35.8
		s-7.1,7.1-9.6,5s-7.1-11.6-7.9-34.5s-0.6-44.9-2.5-60.3s-2.2-22.7-6.2-24.2s-6.2,0.5-7.4,2.7s-37.2,98-50.6,98s-50.4-95.8-51.6-98
		s-3.4-4.3-7.4-2.7s-4.3,8.8-6.2,24.2s-1.6,37.3-2.5,60.3s-5.3,32.5-7.9,34.5s-5.9-2-9.6-5s-16.6-15.9-31.5-35.8
		s-38.6-47.1-41.7-49.4s-5.6-1-7.1,0s-1.2,7.6-0.6,13.3s5.3,18.9,9.9,31.3c4.6,12.4,19.7,55,21.1,61.8s0.3,9.8-4,11.6
		s-20.5-7.9-30.1-13.2l-74.9-41.3c-5.3-2.3-9.9-2-11.8,0s0.3,6.1,2.2,9.6s18.3,22.7,29.9,33.6s39.2,42.4,43.3,48.4
		c4.3,6.1-0.3,8.3-4,9.8s-22.8-1.8-30.4-3.5s-61.1-11.4-68.4-12.6s-25.9-1.2-28.4,0s-1.6,4.8-0.6,6.3s2.8,3,7.4,6.5
		s34.9,21.2,34.9,21.2s63.6,32.3,65.3,39.8s-20.3,10.6-36.1,12.1s-66.4,3.5-81.1,6.1s-14.7,7.6-14.7,7.6h672.1
		C750.4,445.6,750.3,440.6,735.7,438z"/>
	<rect x="325.8" y="339.1" class="st5" width="87.2" height="102.3"/>
	<rect x="413" y="339.2" class="st6" width="87.2" height="102.3"/>
	<rect x="326" y="382.4" class="st7" width="86.9" height="17.5"/>
	<rect x="413.1" y="382.4" class="st8" width="86.9" height="17.5"/>
	<line class="st9" x1="326.5" y1="399.8" x2="500.1" y2="399.8"/>
	<line class="st9" x1="326.8" y1="382.4" x2="500.4" y2="382.4"/>
	<rect x="445.5" y="339.2" class="st8" width="17.5" height="102.3"/>
	<line class="st9" x1="463" y1="441.4" x2="463" y2="339.2"/>
	<line class="st9" x1="445.5" y1="441.4" x2="445.5" y2="339.2"/>
	<rect x="363" y="339.1" class="st7" width="17.5" height="102.3"/>
	<line class="st9" x1="363" y1="441.4" x2="363" y2="339.2"/>
	<line class="st9" x1="380.5" y1="441.4" x2="380.5" y2="339.2"/>
	<line class="st9" x1="413.4" y1="339.4" x2="413.4" y2="441.2"/>
	<rect x="85.1" y="441" class="st10" width="653" height="8"/>
	<polygon class="st5" points="413.6,339.2 498.3,339.2 532.9,303.5 448.1,303.5 	"/>
	<polygon class="st8" points="445.5,339.2 462.9,339.2 497.4,303.5 480.1,303.5 	"/>
	<line class="st9" x1="480.1" y1="303.5" x2="445.5" y2="339.2"/>
	<line class="st9" x1="497.6" y1="303.5" x2="463" y2="339.2"/>
	<polygon class="st5" points="412.9,339.2 328.1,339.2 293.6,303.5 378.3,303.5 	"/>
	<polygon class="st8" points="380.9,339.1 363.6,339.1 329,303.4 346.3,303.4 	"/>
	<line class="st9" x1="346.3" y1="303.5" x2="380.9" y2="339.2"/>
	<line class="st9" x1="328.9" y1="303.4" x2="363.4" y2="339.1"/>
	<polyline class="st9" points="412.7,339.2 378.1,303.4 293.4,303.4 328.1,339.2 	"/>
	<polyline class="st9" points="326.2,441.4 326.2,339.1 499.8,339.1 499.8,441.4 	"/>
	<polyline class="st9" points="413.8,339.2 448.3,303.5 533.1,303.5 498.3,339.2 	"/>
	<path d="M585,342.1v-1.7c0-1.2,0.6-2.4,1.6-3l14.4-9.3c1-0.6,1.7-1.8,1.6-3v-7.5l-17.7,11.3l-17.7-11.3v23.9
		c0,6.5,2.9,11.9,7.6,14.9l10.1,6.4l10.1-6.4c4.7-3,7.6-8.4,7.6-14.9v-10.6L585,342.1z"/>
	<g>
		<g>
			<g>
				<g>
					<g>
						<g>
							<defs>
								<path id="SVGID_3_" d="M180.2,260.9h28.1c0.6,1.2,1.9,2,3.3,2c2,0,3.7-1.6,3.7-3.7l0,0l0,0c0-2-1.7-3.7-3.7-3.7
									c-1.5,0-2.9,1-3.4,2.4h-28c-2.7-0.1-4.8,2-4.9,4.7l0,0l0,0v30c0,2.7,2.2,4.9,4.9,5h30c2.7-0.1,4.8-2.3,4.8-5v-17.9
									c0-2.7-2.1-4.9-4.8-4.9h-17.7c-2.7,0-4.9,2.2-5,4.9v5.6c0.1,2.7,2.3,4.8,5,4.7h6.2c0.7,1.9,2.8,2.9,4.7,2.2
									c1.5-0.5,2.4-1.9,2.4-3.5c0-2-1.7-3.7-3.7-3.7c-1.4,0-2.7,0.8-3.3,2h-6.4c-1,0.1-1.8-0.6-1.9-1.6v-5.7
									c0.1-1,0.9-1.7,1.9-1.7h17.8c0.9,0,1.7,0.7,1.7,1.7l0,0v17.8c0,1-0.7,1.8-1.7,1.8h-30c-1,0-1.7-0.8-1.7-1.8v-30
									C178.6,261.5,179.3,260.8,180.2,260.9L180.2,260.9L180.2,260.9z M211.7,257.4c0.9,0,1.7,0.8,1.7,1.7c0,0.9-0.8,1.7-1.7,1.7
									s-1.7-0.8-1.7-1.7l0,0l0,0C209.8,258.2,210.6,257.4,211.7,257.4L211.7,257.4z M202,281.8c0.9,0,1.7,0.7,1.7,1.6l0,0
									c0,0.9-0.8,1.7-1.7,1.7s-1.7-0.8-1.7-1.7c0-0.9,0.8-1.7,1.7-1.7V281.8z"/>
							</defs>
							<clipPath id="SVGID_4_">
								<use xlink:href="#SVGID_3_"  style="overflow:visible;"/>
							</clipPath>
							<g class="st11">
								<rect x="174.1" y="256.4" class="st12" width="5.9" height="6.4"/>
							</g>
						</g>
					</g>
				</g>
			</g>
		</g>
		<g>
			<g>
				<g>
					<g>
						<g>
							<defs>
								<path id="SVGID_5_" d="M180.2,260.9h28.1c0.6,1.2,1.9,2,3.3,2c2,0,3.7-1.6,3.7-3.7l0,0l0,0c0-2-1.7-3.7-3.7-3.7
									c-1.5,0-2.9,1-3.4,2.4h-28c-2.7-0.1-4.8,2-4.9,4.7l0,0l0,0v30c0,2.7,2.2,4.9,4.9,5h30c2.7-0.1,4.8-2.3,4.8-5v-17.9
									c0-2.7-2.1-4.9-4.8-4.9h-17.7c-2.7,0-4.9,2.2-5,4.9v5.6c0.1,2.7,2.3,4.8,5,4.7h6.2c0.7,1.9,2.8,2.9,4.7,2.2
									c1.5-0.5,2.4-1.9,2.4-3.5c0-2-1.7-3.7-3.7-3.7c-1.4,0-2.7,0.8-3.3,2h-6.4c-1,0.1-1.8-0.6-1.9-1.6v-5.7
									c0.1-1,0.9-1.7,1.9-1.7h17.8c0.9,0,1.7,0.7,1.7,1.7l0,0v17.8c0,1-0.7,1.8-1.7,1.8h-30c-1,0-1.7-0.8-1.7-1.8v-30
									C178.6,261.5,179.3,260.8,180.2,260.9L180.2,260.9L180.2,260.9z M211.7,257.4c0.9,0,1.7,0.8,1.7,1.7c0,0.9-0.8,1.7-1.7,1.7
									s-1.7-0.8-1.7-1.7l0,0l0,0C209.8,258.2,210.6,257.4,211.7,257.4L211.7,257.4z M202,281.8c0.9,0,1.7,0.7,1.7,1.6l0,0
									c0,0.9-0.8,1.7-1.7,1.7s-1.7-0.8-1.7-1.7c0-0.9,0.8-1.7,1.7-1.7V281.8z"/>
							</defs>
							<clipPath id="SVGID_6_">
								<use xlink:href="#SVGID_5_"  style="overflow:visible;"/>
							</clipPath>
							<g class="st13">
								<rect x="174.1" y="292.4" class="st14" width="5.9" height="6.4"/>
							</g>
						</g>
					</g>
				</g>
			</g>
		</g>
		<g>
			<g>
				<g>
					<g>
						<g>
							<defs>
								<path id="SVGID_7_" d="M180.2,260.9h28.1c0.6,1.2,1.9,2,3.3,2c2,0,3.7-1.6,3.7-3.7l0,0l0,0c0-2-1.7-3.7-3.7-3.7
									c-1.5,0-2.9,1-3.4,2.4h-28c-2.7-0.1-4.8,2-4.9,4.7l0,0l0,0v30c0,2.7,2.2,4.9,4.9,5h30c2.7-0.1,4.8-2.3,4.8-5v-17.9
									c0-2.7-2.1-4.9-4.8-4.9h-17.7c-2.7,0-4.9,2.2-5,4.9v5.6c0.1,2.7,2.3,4.8,5,4.7h6.2c0.7,1.9,2.8,2.9,4.7,2.2
									c1.5-0.5,2.4-1.9,2.4-3.5c0-2-1.7-3.7-3.7-3.7c-1.4,0-2.7,0.8-3.3,2h-6.4c-1,0.1-1.8-0.6-1.9-1.6v-5.7
									c0.1-1,0.9-1.7,1.9-1.7h17.8c0.9,0,1.7,0.7,1.7,1.7l0,0v17.8c0,1-0.7,1.8-1.7,1.8h-30c-1,0-1.7-0.8-1.7-1.8v-30
									C178.6,261.5,179.3,260.8,180.2,260.9L180.2,260.9L180.2,260.9z M211.7,257.4c0.9,0,1.7,0.8,1.7,1.7c0,0.9-0.8,1.7-1.7,1.7
									s-1.7-0.8-1.7-1.7l0,0l0,0C209.8,258.2,210.6,257.4,211.7,257.4L211.7,257.4z M202,281.8c0.9,0,1.7,0.7,1.7,1.6l0,0
									c0,0.9-0.8,1.7-1.7,1.7s-1.7-0.8-1.7-1.7c0-0.9,0.8-1.7,1.7-1.7V281.8z"/>
							</defs>
							<clipPath id="SVGID_8_">
								<use xlink:href="#SVGID_7_"  style="overflow:visible;"/>
							</clipPath>
							<g class="st15">
								<rect x="210" y="292.4" class="st16" width="5.9" height="6.4"/>
							</g>
						</g>
					</g>
				</g>
			</g>
		</g>
		<g>
			<g>
				<g>
					<g>
						<g>
							<defs>
								<path id="SVGID_9_" d="M180.2,260.9h28.1c0.6,1.2,1.9,2,3.3,2c2,0,3.7-1.6,3.7-3.7l0,0l0,0c0-2-1.7-3.7-3.7-3.7
									c-1.5,0-2.9,1-3.4,2.4h-28c-2.7-0.1-4.8,2-4.9,4.7l0,0l0,0v30c0,2.7,2.2,4.9,4.9,5h30c2.7-0.1,4.8-2.3,4.8-5v-17.9
									c0-2.7-2.1-4.9-4.8-4.9h-17.7c-2.7,0-4.9,2.2-5,4.9v5.6c0.1,2.7,2.3,4.8,5,4.7h6.2c0.7,1.9,2.8,2.9,4.7,2.2
									c1.5-0.5,2.4-1.9,2.4-3.5c0-2-1.7-3.7-3.7-3.7c-1.4,0-2.7,0.8-3.3,2h-6.4c-1,0.1-1.8-0.6-1.9-1.6v-5.7
									c0.1-1,0.9-1.7,1.9-1.7h17.8c0.9,0,1.7,0.7,1.7,1.7l0,0v17.8c0,1-0.7,1.8-1.7,1.8h-30c-1,0-1.7-0.8-1.7-1.8v-30
									C178.6,261.5,179.3,260.8,180.2,260.9L180.2,260.9L180.2,260.9z M211.7,257.4c0.9,0,1.7,0.8,1.7,1.7c0,0.9-0.8,1.7-1.7,1.7
									s-1.7-0.8-1.7-1.7l0,0l0,0C209.8,258.2,210.6,257.4,211.7,257.4L211.7,257.4z M202,281.8c0.9,0,1.7,0.7,1.7,1.6l0,0
									c0,0.9-0.8,1.7-1.7,1.7s-1.7-0.8-1.7-1.7c0-0.9,0.8-1.7,1.7-1.7V281.8z"/>
							</defs>
							<clipPath id="SVGID_10_">
								<use xlink:href="#SVGID_9_"  style="overflow:visible;"/>
							</clipPath>
							<g class="st17">
								<rect x="210" y="268.5" class="st18" width="5.9" height="6.4"/>
							</g>
						</g>
					</g>
				</g>
			</g>
		</g>
		<g>
			<g>
				<g>
					<g>
						<g>
							<defs>
								<path id="SVGID_11_" d="M180.2,260.9h28.1c0.6,1.2,1.9,2,3.3,2c2,0,3.7-1.6,3.7-3.7l0,0l0,0c0-2-1.7-3.7-3.7-3.7
									c-1.5,0-2.9,1-3.4,2.4h-28c-2.7-0.1-4.8,2-4.9,4.7l0,0l0,0v30c0,2.7,2.2,4.9,4.9,5h30c2.7-0.1,4.8-2.3,4.8-5v-17.9
									c0-2.7-2.1-4.9-4.8-4.9h-17.7c-2.7,0-4.9,2.2-5,4.9v5.6c0.1,2.7,2.3,4.8,5,4.7h6.2c0.7,1.9,2.8,2.9,4.7,2.2
									c1.5-0.5,2.4-1.9,2.4-3.5c0-2-1.7-3.7-3.7-3.7c-1.4,0-2.7,0.8-3.3,2h-6.4c-1,0.1-1.8-0.6-1.9-1.6v-5.7
									c0.1-1,0.9-1.7,1.9-1.7h17.8c0.9,0,1.7,0.7,1.7,1.7l0,0v17.8c0,1-0.7,1.8-1.7,1.8h-30c-1,0-1.7-0.8-1.7-1.8v-30
									C178.6,261.5,179.3,260.8,180.2,260.9L180.2,260.9L180.2,260.9z M211.7,257.4c0.9,0,1.7,0.8,1.7,1.7c0,0.9-0.8,1.7-1.7,1.7
									s-1.7-0.8-1.7-1.7l0,0l0,0C209.8,258.2,210.6,257.4,211.7,257.4L211.7,257.4z M202,281.8c0.9,0,1.7,0.7,1.7,1.6l0,0
									c0,0.9-0.8,1.7-1.7,1.7s-1.7-0.8-1.7-1.7c0-0.9,0.8-1.7,1.7-1.7V281.8z"/>
							</defs>
							<clipPath id="SVGID_12_">
								<use xlink:href="#SVGID_11_"  style="overflow:visible;"/>
							</clipPath>
							<g class="st19">
								<rect x="186.6" y="268.5" class="st20" width="5.9" height="6.4"/>
							</g>
						</g>
					</g>
				</g>
			</g>
		</g>
		<g>
			<g>
				<g>
					<g>
						<g>
							<defs>
								<path id="SVGID_13_" d="M180.2,260.9h28.1c0.6,1.2,1.9,2,3.3,2c2,0,3.7-1.6,3.7-3.7l0,0l0,0c0-2-1.7-3.7-3.7-3.7
									c-1.5,0-2.9,1-3.4,2.4h-28c-2.7-0.1-4.8,2-4.9,4.7l0,0l0,0v30c0,2.7,2.2,4.9,4.9,5h30c2.7-0.1,4.8-2.3,4.8-5v-17.9
									c0-2.7-2.1-4.9-4.8-4.9h-17.7c-2.7,0-4.9,2.2-5,4.9v5.6c0.1,2.7,2.3,4.8,5,4.7h6.2c0.7,1.9,2.8,2.9,4.7,2.2
									c1.5-0.5,2.4-1.9,2.4-3.5c0-2-1.7-3.7-3.7-3.7c-1.4,0-2.7,0.8-3.3,2h-6.4c-1,0.1-1.8-0.6-1.9-1.6v-5.7
									c0.1-1,0.9-1.7,1.9-1.7h17.8c0.9,0,1.7,0.7,1.7,1.7l0,0v17.8c0,1-0.7,1.8-1.7,1.8h-30c-1,0-1.7-0.8-1.7-1.8v-30
									C178.6,261.5,179.3,260.8,180.2,260.9L180.2,260.9L180.2,260.9z M211.7,257.4c0.9,0,1.7,0.8,1.7,1.7c0,0.9-0.8,1.7-1.7,1.7
									s-1.7-0.8-1.7-1.7l0,0l0,0C209.8,258.2,210.6,257.4,211.7,257.4L211.7,257.4z M202,281.8c0.9,0,1.7,0.7,1.7,1.6l0,0
									c0,0.9-0.8,1.7-1.7,1.7s-1.7-0.8-1.7-1.7c0-0.9,0.8-1.7,1.7-1.7V281.8z"/>
							</defs>
							<clipPath id="SVGID_14_">
								<use xlink:href="#SVGID_13_"  style="overflow:visible;"/>
							</clipPath>
							<g class="st21">
								<rect x="186.6" y="280.2" class="st22" width="5.9" height="6.4"/>
							</g>
						</g>
					</g>
				</g>
			</g>
		</g>
		<g>
			<g>
				<g>
					<g>
						<g>
							<defs>
								<path id="SVGID_15_" d="M180.2,260.9h28.1c0.6,1.2,1.9,2,3.3,2c2,0,3.7-1.6,3.7-3.7l0,0l0,0c0-2-1.7-3.7-3.7-3.7
									c-1.5,0-2.9,1-3.4,2.4h-28c-2.7-0.1-4.8,2-4.9,4.7l0,0l0,0v30c0,2.7,2.2,4.9,4.9,5h30c2.7-0.1,4.8-2.3,4.8-5v-17.9
									c0-2.7-2.1-4.9-4.8-4.9h-17.7c-2.7,0-4.9,2.2-5,4.9v5.6c0.1,2.7,2.3,4.8,5,4.7h6.2c0.7,1.9,2.8,2.9,4.7,2.2
									c1.5-0.5,2.4-1.9,2.4-3.5c0-2-1.7-3.7-3.7-3.7c-1.4,0-2.7,0.8-3.3,2h-6.4c-1,0.1-1.8-0.6-1.9-1.6v-5.7
									c0.1-1,0.9-1.7,1.9-1.7h17.8c0.9,0,1.7,0.7,1.7,1.7l0,0v17.8c0,1-0.7,1.8-1.7,1.8h-30c-1,0-1.7-0.8-1.7-1.8v-30
									C178.6,261.5,179.3,260.8,180.2,260.9L180.2,260.9L180.2,260.9z M211.7,257.4c0.9,0,1.7,0.8,1.7,1.7c0,0.9-0.8,1.7-1.7,1.7
									s-1.7-0.8-1.7-1.7l0,0l0,0C209.8,258.2,210.6,257.4,211.7,257.4L211.7,257.4z M202,281.8c0.9,0,1.7,0.7,1.7,1.6l0,0
									c0,0.9-0.8,1.7-1.7,1.7s-1.7-0.8-1.7-1.7c0-0.9,0.8-1.7,1.7-1.7V281.8z"/>
							</defs>
							<clipPath id="SVGID_16_">
								<use xlink:href="#SVGID_15_"  style="overflow:visible;"/>
							</clipPath>
							<g class="st23">
								
									<linearGradient id="SVGID_17_" gradientUnits="userSpaceOnUse" x1="177" y1="697.16" x2="177" y2="668.5401" gradientTransform="matrix(1 0 0 1 0 -405.11)">
									<stop  offset="0" style="stop-color:#15998F"/>
									<stop  offset="1" style="stop-color:#36BCBD"/>
								</linearGradient>
								<rect x="174.1" y="262.5" class="st24" width="5.8" height="29.9"/>
							</g>
						</g>
					</g>
				</g>
			</g>
		</g>
		<g>
			<g>
				<g>
					<g>
						<g>
							<defs>
								<path id="SVGID_18_" d="M180.2,260.9h28.1c0.6,1.2,1.9,2,3.3,2c2,0,3.7-1.6,3.7-3.7l0,0l0,0c0-2-1.7-3.7-3.7-3.7
									c-1.5,0-2.9,1-3.4,2.4h-28c-2.7-0.1-4.8,2-4.9,4.7l0,0l0,0v30c0,2.7,2.2,4.9,4.9,5h30c2.7-0.1,4.8-2.3,4.8-5v-17.9
									c0-2.7-2.1-4.9-4.8-4.9h-17.7c-2.7,0-4.9,2.2-5,4.9v5.6c0.1,2.7,2.3,4.8,5,4.7h6.2c0.7,1.9,2.8,2.9,4.7,2.2
									c1.5-0.5,2.4-1.9,2.4-3.5c0-2-1.7-3.7-3.7-3.7c-1.4,0-2.7,0.8-3.3,2h-6.4c-1,0.1-1.8-0.6-1.9-1.6v-5.7
									c0.1-1,0.9-1.7,1.9-1.7h17.8c0.9,0,1.7,0.7,1.7,1.7l0,0v17.8c0,1-0.7,1.8-1.7,1.8h-30c-1,0-1.7-0.8-1.7-1.8v-30
									C178.6,261.5,179.3,260.8,180.2,260.9L180.2,260.9L180.2,260.9z M211.7,257.4c0.9,0,1.7,0.8,1.7,1.7c0,0.9-0.8,1.7-1.7,1.7
									s-1.7-0.8-1.7-1.7l0,0l0,0C209.8,258.2,210.6,257.4,211.7,257.4L211.7,257.4z M202,281.8c0.9,0,1.7,0.7,1.7,1.6l0,0
									c0,0.9-0.8,1.7-1.7,1.7s-1.7-0.8-1.7-1.7c0-0.9,0.8-1.7,1.7-1.7V281.8z"/>
							</defs>
							<clipPath id="SVGID_19_">
								<use xlink:href="#SVGID_18_"  style="overflow:visible;"/>
							</clipPath>
							<g class="st25">
								
									<linearGradient id="SVGID_20_" gradientUnits="userSpaceOnUse" x1="179.9" y1="700.61" x2="210.06" y2="700.61" gradientTransform="matrix(1 0 0 1 0 -405.11)">
									<stop  offset="0" style="stop-color:#15998F"/>
									<stop  offset="1" style="stop-color:#F16533"/>
								</linearGradient>
								<rect x="179.9" y="292.4" class="st26" width="30.2" height="6.2"/>
							</g>
						</g>
					</g>
				</g>
			</g>
		</g>
		<g>
			<g>
				<g>
					<g>
						<g>
							<defs>
								<path id="SVGID_21_" d="M180.2,260.9h28.1c0.6,1.2,1.9,2,3.3,2c2,0,3.7-1.6,3.7-3.7l0,0l0,0c0-2-1.7-3.7-3.7-3.7
									c-1.5,0-2.9,1-3.4,2.4h-28c-2.7-0.1-4.8,2-4.9,4.7l0,0l0,0v30c0,2.7,2.2,4.9,4.9,5h30c2.7-0.1,4.8-2.3,4.8-5v-17.9
									c0-2.7-2.1-4.9-4.8-4.9h-17.7c-2.7,0-4.9,2.2-5,4.9v5.6c0.1,2.7,2.3,4.8,5,4.7h6.2c0.7,1.9,2.8,2.9,4.7,2.2
									c1.5-0.5,2.4-1.9,2.4-3.5c0-2-1.7-3.7-3.7-3.7c-1.4,0-2.7,0.8-3.3,2h-6.4c-1,0.1-1.8-0.6-1.9-1.6v-5.7
									c0.1-1,0.9-1.7,1.9-1.7h17.8c0.9,0,1.7,0.7,1.7,1.7l0,0v17.8c0,1-0.7,1.8-1.7,1.8h-30c-1,0-1.7-0.8-1.7-1.8v-30
									C178.6,261.5,179.3,260.8,180.2,260.9L180.2,260.9L180.2,260.9z M211.7,257.4c0.9,0,1.7,0.8,1.7,1.7c0,0.9-0.8,1.7-1.7,1.7
									s-1.7-0.8-1.7-1.7l0,0l0,0C209.8,258.2,210.6,257.4,211.7,257.4L211.7,257.4z M202,281.8c0.9,0,1.7,0.7,1.7,1.6l0,0
									c0,0.9-0.8,1.7-1.7,1.7s-1.7-0.8-1.7-1.7c0-0.9,0.8-1.7,1.7-1.7V281.8z"/>
							</defs>
							<clipPath id="SVGID_22_">
								<use xlink:href="#SVGID_21_"  style="overflow:visible;"/>
							</clipPath>
							<g class="st27">
								
									<linearGradient id="SVGID_23_" gradientUnits="userSpaceOnUse" x1="213.1" y1="679.8801" x2="213.1" y2="697.4001" gradientTransform="matrix(1 0 0 1 0 -405.11)">
									<stop  offset="0" style="stop-color:#C13339"/>
									<stop  offset="1" style="stop-color:#F16533"/>
								</linearGradient>
								<rect x="210.2" y="274.7" class="st28" width="5.8" height="17.8"/>
							</g>
						</g>
					</g>
				</g>
			</g>
		</g>
		<g>
			<g>
				<g>
					<g>
						<g>
							<defs>
								<path id="SVGID_24_" d="M180.2,260.9h28.1c0.6,1.2,1.9,2,3.3,2c2,0,3.7-1.6,3.7-3.7l0,0l0,0c0-2-1.7-3.7-3.7-3.7
									c-1.5,0-2.9,1-3.4,2.4h-28c-2.7-0.1-4.8,2-4.9,4.7l0,0l0,0v30c0,2.7,2.2,4.9,4.9,5h30c2.7-0.1,4.8-2.3,4.8-5v-17.9
									c0-2.7-2.1-4.9-4.8-4.9h-17.7c-2.7,0-4.9,2.2-5,4.9v5.6c0.1,2.7,2.3,4.8,5,4.7h6.2c0.7,1.9,2.8,2.9,4.7,2.2
									c1.5-0.5,2.4-1.9,2.4-3.5c0-2-1.7-3.7-3.7-3.7c-1.4,0-2.7,0.8-3.3,2h-6.4c-1,0.1-1.8-0.6-1.9-1.6v-5.7
									c0.1-1,0.9-1.7,1.9-1.7h17.8c0.9,0,1.7,0.7,1.7,1.7l0,0v17.8c0,1-0.7,1.8-1.7,1.8h-30c-1,0-1.7-0.8-1.7-1.8v-30
									C178.6,261.5,179.3,260.8,180.2,260.9L180.2,260.9L180.2,260.9z M211.7,257.4c0.9,0,1.7,0.8,1.7,1.7c0,0.9-0.8,1.7-1.7,1.7
									s-1.7-0.8-1.7-1.7l0,0l0,0C209.8,258.2,210.6,257.4,211.7,257.4L211.7,257.4z M202,281.8c0.9,0,1.7,0.7,1.7,1.6l0,0
									c0,0.9-0.8,1.7-1.7,1.7s-1.7-0.8-1.7-1.7c0-0.9,0.8-1.7,1.7-1.7V281.8z"/>
							</defs>
							<clipPath id="SVGID_25_">
								<use xlink:href="#SVGID_24_"  style="overflow:visible;"/>
							</clipPath>
							<g class="st29">
								
									<linearGradient id="SVGID_26_" gradientUnits="userSpaceOnUse" x1="209.9146" y1="676.71" x2="192.7346" y2="676.71" gradientTransform="matrix(1 0 0 1 0 -405.11)">
									<stop  offset="0" style="stop-color:#C13339"/>
									<stop  offset="1" style="stop-color:#C8533A"/>
								</linearGradient>
								<rect x="192.4" y="268.5" class="st30" width="17.8" height="6.2"/>
							</g>
						</g>
					</g>
				</g>
			</g>
		</g>
		<g>
			<g>
				<g>
					<g>
						<g>
							<defs>
								<path id="SVGID_27_" d="M180.2,260.9h28.1c0.6,1.2,1.9,2,3.3,2c2,0,3.7-1.6,3.7-3.7l0,0l0,0c0-2-1.7-3.7-3.7-3.7
									c-1.5,0-2.9,1-3.4,2.4h-28c-2.7-0.1-4.8,2-4.9,4.7l0,0l0,0v30c0,2.7,2.2,4.9,4.9,5h30c2.7-0.1,4.8-2.3,4.8-5v-17.9
									c0-2.7-2.1-4.9-4.8-4.9h-17.7c-2.7,0-4.9,2.2-5,4.9v5.6c0.1,2.7,2.3,4.8,5,4.7h6.2c0.7,1.9,2.8,2.9,4.7,2.2
									c1.5-0.5,2.4-1.9,2.4-3.5c0-2-1.7-3.7-3.7-3.7c-1.4,0-2.7,0.8-3.3,2h-6.4c-1,0.1-1.8-0.6-1.9-1.6v-5.7
									c0.1-1,0.9-1.7,1.9-1.7h17.8c0.9,0,1.7,0.7,1.7,1.7l0,0v17.8c0,1-0.7,1.8-1.7,1.8h-30c-1,0-1.7-0.8-1.7-1.8v-30
									C178.6,261.5,179.3,260.8,180.2,260.9L180.2,260.9L180.2,260.9z M211.7,257.4c0.9,0,1.7,0.8,1.7,1.7c0,0.9-0.8,1.7-1.7,1.7
									s-1.7-0.8-1.7-1.7l0,0l0,0C209.8,258.2,210.6,257.4,211.7,257.4L211.7,257.4z M202,281.8c0.9,0,1.7,0.7,1.7,1.6l0,0
									c0,0.9-0.8,1.7-1.7,1.7s-1.7-0.8-1.7-1.7c0-0.9,0.8-1.7,1.7-1.7V281.8z"/>
							</defs>
							<clipPath id="SVGID_28_">
								<use xlink:href="#SVGID_27_"  style="overflow:visible;"/>
							</clipPath>
							<g class="st31">
								
									<linearGradient id="SVGID_29_" gradientUnits="userSpaceOnUse" x1="189.5" y1="679.94" x2="189.5" y2="685.2001" gradientTransform="matrix(1 0 0 1 0 -405.11)">
									<stop  offset="0" style="stop-color:#C8533A"/>
									<stop  offset="1" style="stop-color:#F05A28"/>
								</linearGradient>
								<rect x="186.6" y="274.7" class="st32" width="5.8" height="5.6"/>
							</g>
						</g>
					</g>
				</g>
			</g>
		</g>
		<g>
			<g>
				<g>
					<g>
						<g>
							<defs>
								<path id="SVGID_30_" d="M180.2,260.9h28.1c0.6,1.2,1.9,2,3.3,2c2,0,3.7-1.6,3.7-3.7l0,0l0,0c0-2-1.7-3.7-3.7-3.7
									c-1.5,0-2.9,1-3.4,2.4h-28c-2.7-0.1-4.8,2-4.9,4.7l0,0l0,0v30c0,2.7,2.2,4.9,4.9,5h30c2.7-0.1,4.8-2.3,4.8-5v-17.9
									c0-2.7-2.1-4.9-4.8-4.9h-17.7c-2.7,0-4.9,2.2-5,4.9v5.6c0.1,2.7,2.3,4.8,5,4.7h6.2c0.7,1.9,2.8,2.9,4.7,2.2
									c1.5-0.5,2.4-1.9,2.4-3.5c0-2-1.7-3.7-3.7-3.7c-1.4,0-2.7,0.8-3.3,2h-6.4c-1,0.1-1.8-0.6-1.9-1.6v-5.7
									c0.1-1,0.9-1.7,1.9-1.7h17.8c0.9,0,1.7,0.7,1.7,1.7l0,0v17.8c0,1-0.7,1.8-1.7,1.8h-30c-1,0-1.7-0.8-1.7-1.8v-30
									C178.6,261.5,179.3,260.8,180.2,260.9L180.2,260.9L180.2,260.9z M211.7,257.4c0.9,0,1.7,0.8,1.7,1.7c0,0.9-0.8,1.7-1.7,1.7
									s-1.7-0.8-1.7-1.7l0,0l0,0C209.8,258.2,210.6,257.4,211.7,257.4L211.7,257.4z M202,281.8c0.9,0,1.7,0.7,1.7,1.6l0,0
									c0,0.9-0.8,1.7-1.7,1.7s-1.7-0.8-1.7-1.7c0-0.9,0.8-1.7,1.7-1.7V281.8z"/>
							</defs>
							<clipPath id="SVGID_31_">
								<use xlink:href="#SVGID_30_"  style="overflow:visible;"/>
							</clipPath>
							<g class="st33">
								
									<linearGradient id="SVGID_32_" gradientUnits="userSpaceOnUse" x1="215.9" y1="664.61" x2="180.51" y2="664.61" gradientTransform="matrix(1 0 0 1 0 -405.11)">
									<stop  offset="0" style="stop-color:#107ABB"/>
									<stop  offset="1" style="stop-color:#36BCBD"/>
								</linearGradient>
								<polygon class="st34" points="207.2,255.1 207.2,256.4 179.9,256.4 179.9,262.5 207.2,262.5 207.2,263.9 215.9,263.9 
									215.9,255.1 								"/>
							</g>
						</g>
					</g>
				</g>
			</g>
		</g>
		<g>
			<g>
				<g>
					<g>
						<g>
							<defs>
								<path id="SVGID_33_" d="M180.2,260.9h28.1c0.6,1.2,1.9,2,3.3,2c2,0,3.7-1.6,3.7-3.7l0,0l0,0c0-2-1.7-3.7-3.7-3.7
									c-1.5,0-2.9,1-3.4,2.4h-28c-2.7-0.1-4.8,2-4.9,4.7l0,0l0,0v30c0,2.7,2.2,4.9,4.9,5h30c2.7-0.1,4.8-2.3,4.8-5v-17.9
									c0-2.7-2.1-4.9-4.8-4.9h-17.7c-2.7,0-4.9,2.2-5,4.9v5.6c0.1,2.7,2.3,4.8,5,4.7h6.2c0.7,1.9,2.8,2.9,4.7,2.2
									c1.5-0.5,2.4-1.9,2.4-3.5c0-2-1.7-3.7-3.7-3.7c-1.4,0-2.7,0.8-3.3,2h-6.4c-1,0.1-1.8-0.6-1.9-1.6v-5.7
									c0.1-1,0.9-1.7,1.9-1.7h17.8c0.9,0,1.7,0.7,1.7,1.7l0,0v17.8c0,1-0.7,1.8-1.7,1.8h-30c-1,0-1.7-0.8-1.7-1.8v-30
									C178.6,261.5,179.3,260.8,180.2,260.9L180.2,260.9L180.2,260.9z M211.7,257.4c0.9,0,1.7,0.8,1.7,1.7c0,0.9-0.8,1.7-1.7,1.7
									s-1.7-0.8-1.7-1.7l0,0l0,0C209.8,258.2,210.6,257.4,211.7,257.4L211.7,257.4z M202,281.8c0.9,0,1.7,0.7,1.7,1.6l0,0
									c0,0.9-0.8,1.7-1.7,1.7s-1.7-0.8-1.7-1.7c0-0.9,0.8-1.7,1.7-1.7V281.8z"/>
							</defs>
							<clipPath id="SVGID_34_">
								<use xlink:href="#SVGID_33_"  style="overflow:visible;"/>
							</clipPath>
							<g class="st35">
								
									<linearGradient id="SVGID_35_" gradientUnits="userSpaceOnUse" x1="192.4246" y1="688.66" x2="206.4846" y2="688.66" gradientTransform="matrix(1 0 0 1 0 -405.11)">
									<stop  offset="0" style="stop-color:#F05A28"/>
									<stop  offset="1" style="stop-color:#FAAB46"/>
								</linearGradient>
								<polygon class="st36" points="197.7,279.2 197.7,280.2 192.4,280.2 192.4,286.5 197.7,286.5 197.7,287.9 206.4,287.9 
									206.4,279.2 								"/>
							</g>
						</g>
					</g>
				</g>
			</g>
		</g>
	</g>
	<path class="st37" d="M453.5,158.4c-0.1-0.5-0.5-0.9-1-1c-0.4,0-9.6-0.7-9.6-0.7l-7.1-7c-0.8-0.5-1.7-0.6-2.6-0.3
		c-0.1,0-1.4,0.4-3.6,1.1c-2.1-6.1-5.9-11.7-12.5-11.7h-0.6c-1.9-2.5-4.2-3.6-6.2-3.6c-15.3,0-22.7,19.2-25,28.9
		c-6,1.8-10.2,3.2-10.7,3.3c-3.3,1-3.4,1.1-3.9,4.3c-0.3,2.4-9,69.7-9,69.7l67.9,12.7l36.8-8C466.5,246.3,453.6,159,453.5,158.4z
		 M425.9,151.6c-1.7,0.5-3.6,1.1-5.7,1.8v-1.2c0.1-3.2-0.4-6.3-1.4-9.3C422.2,143.3,424.5,147.2,425.9,151.6z M414.6,143.6
		c1.1,3.3,1.7,6.8,1.6,10.3v0.7c-3.7,1.2-7.8,2.4-11.9,3.7C406.6,149.5,410.9,145.3,414.6,143.6z M410.1,139.3c0.7,0,1.4,0.2,2,0.7
		c-4.9,2.3-10.2,8.1-12.4,19.8c-3.3,1-6.4,2-9.4,2.9C392.8,153.8,399,139.3,410.1,139.3z"/>
	<path class="st38" d="M452.5,157.4c-0.4,0-9.6-0.7-9.6-0.7l-7.1-7c-0.3-0.3-0.6-0.4-1-0.5l-5.1,105l36.8-8c0,0-12.9-87.3-13-87.9
		C453.4,157.8,453,157.5,452.5,157.4z"/>
	<path class="st8" d="M417.2,177.7l-4.5,13.5c-2.7-1.3-5.7-2-8.8-2.1c-7.1,0-7.5,4.5-7.5,5.6c0,6.2,16.1,8.5,16.1,23
		c0,11.4-7.2,18.7-16.9,18.7c-11.7,0-17.6-7.3-17.6-7.3l3.1-10.3c0,0,6.1,5.3,11.3,5.3c2.5,0.1,4.7-1.9,4.8-4.4v-0.2
		c0-8-13.2-8.4-13.2-21.6c0-11.1,8-21.9,24.1-21.9C414.2,176,417.2,177.7,417.2,177.7z"/>
	<path class="st39" d="M643.2,159.8h-6.6l-0.9-5.7c-1.4-0.4-2.8-1-4.1-1.7l-4.7,3.5l-4.7-4.7l3.5-4.7c-0.8-1.3-1.3-2.7-1.7-4.1
		l-5.7-0.9v-6.6l5.7-0.9c0.4-1.4,1-2.8,1.7-4.1l-3.5-4.7l4.7-4.7l4.7,3.5c1.3-0.8,2.7-1.3,4.1-1.7l0.9-5.7h6.6l0.9,5.7
		c1.4,0.4,2.8,1,4.1,1.7l4.7-3.5l4.7,4.7l-3.5,4.7c0.8,1.3,1.3,2.7,1.7,4.1l5.7,0.9v6.6l-5.7,0.9c-0.4,1.4-1,2.8-1.7,4.1l3.5,4.7
		l-4.7,4.7l-4.7-3.5c-1.3,0.8-2.7,1.3-4.1,1.7L643.2,159.8z M639.9,130.9c-4,0-7.2,3.2-7.1,7.2c0,4,3.2,7.2,7.2,7.1s7.2-3.2,7.1-7.2
		C647.1,134.1,643.9,131,639.9,130.9L639.9,130.9z"/>
	<g>
		<path class="st40" d="M318.1,19.5h51.5c3.2,0,5.9,2.6,5.9,5.8l0,0v19.8c0,3.2-2.6,5.9-5.8,5.9l0,0h-18.6l2.5,6.2L342.4,51h-24.3
			c-3.2,0-5.9-2.6-5.9-5.8V25.4C312.3,22.1,314.9,19.6,318.1,19.5z"/>
		<path class="st8" d="M315.5,24.9c0.8-0.9,2.2-1.1,3.1-0.3c0.4,0.3,0.7,0.8,0.8,1.4c0.8,5.4,1.7,10,2.6,13.7l5.7-10.8
			c0.3-0.8,1-1.4,1.9-1.6c1.1-0.1,1.8,0.6,2.1,2.2c0.5,3,1.4,6,2.5,8.9c0.7-6.6,1.8-11.3,3.4-14.2c0.6-1.1,1.9-1.4,3-0.9l0,0
			c0.1,0.1,0.2,0.1,0.3,0.2c0.5,0.3,0.8,0.9,0.8,1.5c0,0.4-0.1,0.8-0.3,1.2c-1,1.9-1.8,5-2.5,9.3c-0.6,3.3-0.8,6.6-0.7,9.9
			c0.1,0.6,0,1.2-0.3,1.7c-0.2,0.5-0.8,0.9-1.4,0.9c-0.8,0-1.5-0.3-2-1c-2.4-2.5-4.3-6.1-5.7-11c-1.7,3.3-2.9,5.8-3.7,7.5
			c-1.5,2.9-2.8,4.4-3.9,4.5c-0.7,0.1-1.3-0.5-1.8-1.8c-1.3-3.4-2.7-9.9-4.3-19.6C315,26,315.1,25.4,315.5,24.9z"/>
		<path class="st8" d="M371.1,28.9c-0.9-1.6-2.4-2.7-4.1-3c-0.5-0.1-0.9-0.2-1.4-0.2c-2.5,0-4.5,1.3-6.1,3.9c-1.3,2.2-2,4.7-2,7.3
			c-0.1,1.8,0.4,3.5,1.2,5.1c0.9,1.6,2.4,2.7,4.1,3c0.5,0.1,0.9,0.2,1.4,0.2c2.5,0,4.5-1.3,6.1-3.9c1.3-2.2,2-4.7,2-7.3
			C372.4,32.2,371.9,30.4,371.1,28.9z M367.9,36.1c-0.2,1.5-0.9,2.8-2,3.8c-0.8,0.7-1.4,1-2.1,0.8s-1.1-0.7-1.5-1.7
			c-0.3-0.8-0.5-1.6-0.5-2.4c0-0.6,0.1-1.3,0.2-1.9c0.2-1.1,0.7-2.2,1.4-3.1c0.9-1.3,1.8-1.8,2.7-1.6c0.6,0.1,1.1,0.7,1.5,1.7
			c0.3,0.8,0.5,1.6,0.5,2.4C367.9,34.7,367.9,35.4,367.9,36.1L367.9,36.1z"/>
		<path class="st8" d="M355,28.9c-0.9-1.6-2.4-2.7-4.1-3c-0.5-0.1-0.9-0.2-1.4-0.2c-2.5,0-4.5,1.3-6.1,3.9c-1.3,2.2-2,4.7-2,7.3
			c-0.1,1.8,0.4,3.5,1.2,5.1c0.9,1.6,2.4,2.7,4.1,3c0.5,0.1,0.9,0.2,1.4,0.2c2.5,0,4.5-1.3,6.1-3.9c1.3-2.2,2-4.7,2-7.3
			C356.2,32.2,355.7,30.5,355,28.9z M351.7,36.1c-0.2,1.5-0.9,2.8-2,3.8c-0.8,0.7-1.4,1-2.1,0.8s-1.1-0.7-1.5-1.7
			c-0.3-0.8-0.5-1.6-0.5-2.4c0-0.6,0.1-1.3,0.2-1.9c0.2-1.1,0.7-2.2,1.4-3.1c0.9-1.3,1.8-1.8,2.7-1.6c0.6,0.1,1.1,0.7,1.5,1.7
			c0.3,0.8,0.5,1.6,0.5,2.4C351.8,34.9,351.8,35.5,351.7,36.1z"/>
	</g>
	<path class="st41" d="M602.1,76.8c2.5-0.1,4.9,1.1,6.4,3.1V55.3c0-0.3-0.2-0.6-0.5-0.6l0,0c-0.1,0-0.3,0-0.4,0.1l-30.4,22.3h0.8
		c3.2,0,4.8,2,4.8,4.2c0.1,1.5-0.8,2.9-2.1,3.5c-0.1,0.1-0.2,0.2-0.1,0.4c0,0.1,0.1,0.1,0.1,0.1c1.5,0.7,2.4,2.2,2.4,3.8
		c0,2.5-1.6,4.5-4.8,4.5h-8.7c-0.1,0-0.3-0.1-0.3-0.2l0,0V82.9l-22.6,16.5c-0.2,0.1-0.3,0.5-0.1,0.7l0,0c0.1,0.2,0.3,0.2,0.4,0.2h61
		c0.3,0,0.5-0.2,0.5-0.4l0,0v-8.5c-1.7,1.6-4,2.5-6.4,2.5c-4.9,0-8.8-3.4-8.8-8.6S597.2,76.8,602.1,76.8z M590,93.3
		c0,0.1-0.1,0.3-0.2,0.3l0,0h-3c-0.1,0-0.3-0.1-0.3-0.2l0,0V77.3c0-0.1,0.1-0.3,0.2-0.3l0,0h3c0.1,0,0.3,0.1,0.3,0.2l0,0V93.3z"/>
	<path class="st41" d="M573.1,83.7h4.1c0.9,0.1,1.8-0.6,1.9-1.5c0.1-0.9-0.6-1.8-1.5-1.9l0,0c-0.1,0-0.2,0-0.4,0h-4.3
		c-0.1,0-0.2,0.1-0.2,0.2v3C572.8,83.5,573,83.7,573.1,83.7z"/>
	<path class="st41" d="M573.1,90.5h4.2c1,0.1,1.9-0.6,2.1-1.6l0,0c0-0.1,0-0.2,0-0.3c0-1-0.8-1.9-1.9-1.9l0,0h-4.4
		c-0.1,0-0.3,0.1-0.3,0.2l0,0v3.2C572.7,90.3,572.9,90.5,573.1,90.5z"/>
	<path class="st41" d="M605.8,81.8c-0.9-1.2-2.2-1.9-3.7-1.9c-3,0-5.4,2.4-5.4,5.4s2.4,5.4,5.4,5.4c1.2,0,2.4-0.4,3.4-1.2
		c0.1-0.1,0.1-0.1,0.1-0.2v-1.6c0-0.2-0.1-0.3-0.3-0.3h-3.8c-0.2,0-0.3-0.1-0.3-0.3v-2.4c0-0.2,0.1-0.3,0.3-0.3h6.9v-3.7l-2.2,1.2
		C606.1,82,605.9,82,605.8,81.8C605.8,81.9,605.8,81.9,605.8,81.8z"/>
	<g>
		<path class="st42" d="M230,117c0.1-1.7,0.1-3.4,0-5.1c-0.1-0.9-0.5-1.7-1-2.4l-4.5-4.5l-4.5-4.5c-0.7-0.6-1.5-0.9-2.4-1
			c-1.7-0.1-3.4-0.1-5.1,0c-0.8,0.1-1.6,0.5-2.2,1l-23,22.7c-0.5,0.5-0.6,1.2-0.1,1.8l0.1,0.1l17.1,17.1c0.5,0.5,1.2,0.5,1.8,0.1
			l0.1-0.1l22.9-22.9C229.6,118.6,229.9,117.9,230,117z M218.5,110.9c-0.8-0.8-0.8-2.2,0-3s2.2-0.8,3,0s0.8,2.1,0,2.9
			C220.7,111.7,219.4,111.7,218.5,110.9C218.6,110.9,218.5,110.9,218.5,110.9L218.5,110.9z"/>
		<path class="st43" d="M222.2,107.2c-1.2-1.2-3.1-1.2-4.3,0s-1.2,3.1,0,4.3c1.2,1.2,3.1,1.2,4.3,0
			C223.4,110.4,223.4,108.5,222.2,107.2z M218.5,110.9c-0.8-0.8-0.8-2.2,0-3s2.2-0.8,3,0s0.8,2.1,0,2.9
			C220.7,111.8,219.4,111.8,218.5,110.9C218.6,111,218.6,111,218.5,110.9L218.5,110.9z"/>
		<path class="st44" d="M198.1,99.7c-1.7-0.1-3.4-0.1-5.1,0c-0.9,0.1-1.7,0.5-2.4,1l-4.6,4.5l-4.5,4.5c-0.6,0.7-0.9,1.5-1,2.4
			c-0.1,1.7-0.1,3.4,0,5.1c0.1,0.8,0.5,1.6,1,2.2l22.8,22.9c0.5,0.5,1.2,0.6,1.8,0.1l0.1-0.1l17.1-17.1c0.5-0.5,0.6-1.2,0.1-1.7l0,0
			l-0.1-0.1l-22.9-22.9C199.7,100.1,198.9,99.8,198.1,99.7z M191.9,111c-0.8,0.8-2.2,0.8-3,0s-0.8-2.2,0-3s2.1-0.8,2.9,0
			C192.7,108.8,192.7,110.1,191.9,111L191.9,111z"/>
		<path class="st43" d="M188.3,107.3c-1.2,1.2-1.2,3.1,0,4.3s3.1,1.2,4.3,0s1.2-3.1,0-4.3C191.5,106.2,189.5,106.2,188.3,107.3z
			 M191.9,111c-0.8,0.8-2.2,0.8-3,0s-0.8-2.2,0-3s2.1-0.8,2.9,0c0.8,0.7,1,2,0.3,2.8l0,0C192.1,111,192,111,191.9,111L191.9,111z"/>
	</g>
	<g>
		<path d="M443.4,39l-1.6-2.1c-0.4-1.1-0.6-2.2-0.6-3.3V19.4c0-5.2-4.5-8.4-13.2-8c-5.3,0.2-10.3,2.2-11.7,8.5
			c-0.1,0.3,0,0.6,0.2,0.8c0.1,0.2,0.5,0.3,0.7,0.5l5.4,0.6c0.5,0.1,1-0.3,1.1-0.8c0.4-2.1,2.3-3.5,4.4-3.4c3.3,0,4.9,1.7,4.9,4v3
			l-6.9,0.5c-5.6,0.5-11,4-11.1,11c-0.1,6.4,4.1,9.5,10.1,9.2c3.4-0.2,6.6-1.7,8.8-4.2l3.3,3.7c0.2,0.2,0.4,0.3,0.7,0.3
			c0.3,0,0.6-0.1,0.8-0.3l4.4-4.1C443.6,40.1,443.8,39.4,443.4,39z M433.2,32.7c0,2.6-1.5,5.1-3.9,6.2c-3.3,1-5.6-1.6-5.5-4.4
			c0.2-3.1,2.7-5.5,5.8-5.6l3.6-0.1V32.7z"/>
		<path class="st45" d="M443.1,53.6c-0.5,1.1,0.7,0.3,0.8,0.2c1.5-1.4,2.6-5.5,1.9-6.1c-0.9-0.8-4.9-0.8-6.8,0.5
			c-0.8,0.6-0.3,0.7,0.5,0.6c1.2-0.1,2.5-0.2,3.7-0.1c1,0.1,1,0.6,0.8,1.6C443.9,51.5,443.6,52.6,443.1,53.6z"/>
		<path class="st45" d="M443.4,49.2c-10.6,4.2-22.5,3.7-32.6-1.5c-0.1-0.1-0.6-0.3-1.1-0.6c-0.3-0.3-0.5-0.2-0.6-0.1
			c0,0.1,0,0.2,0.1,0.3c5.5,5.1,12.9,7.7,20.5,7.3c5.2-0.2,10.2-1.8,14.5-4.6c0.5-0.3,0.6-0.8,0.5-0.9C444.2,49,443.8,49,443.4,49.2
			z"/>
	</g>
	<path class="st46" d="M267.7,323.4c-4.2,0-7.8,2.9-8.8,7c-1.9-6.3-6.9-7-9-7s-7,0.7-9,7c-1-4.1-4.6-7-8.8-7c-5.2,0-9.2,3.7-9.2,8.4
		c0,1.9,0.4,3.8,1.1,5.6l7,19.8c2.3,6.6,7.1,7.6,9.8,7.6c4,0.1,7.6-2.2,9.1-5.9c1.5,3.7,5.1,6,9.1,5.9c2.6,0,7.4-1,9.8-7.6l7.1-19.9
		l0.1-0.2c0.1-0.2,0.2-0.5,0.2-0.7c0.5-1.2,0.8-2.6,0.8-3.9c0.1-5-3.9-9-8.9-9.1H268L267.7,323.4z M271,335.6l-7.1,19.9
		c-0.9,2.4-2.3,4.2-5,4.2c-2.5,0-4-1.4-4.8-3.8l-4.2-13.2h-0.1l-4.2,13.2c-0.7,2.4-2.2,3.8-4.8,3.8s-4.1-1.8-5-4.2l-7-19.8
		c-0.5-1.2-0.8-2.6-0.9-3.9c0-1.8,1.7-3.3,4.1-3.3c1.9,0,3.6,1.4,3.9,3.3l4.8,15.8h0.1l4.8-15.4c0.6-2.2,1.8-3.6,4.2-3.6
		s3.6,1.4,4.2,3.6l4.8,15.4h0.1l4.8-15.8c0.3-1.9,2-3.3,3.9-3.3c2.1-0.2,3.9,1.4,4.1,3.5c0,0.2,0,0.3,0,0.5
		C271.7,333.5,271.5,334.6,271,335.6z"/>
	<path class="st47" d="M487.4,42.5v-9c0-0.3,0-0.5,0.6-0.5h7.6c1.3,0,2.1,1.1,2.6,3.3l0.4,1.7h1.3c0.2-4.8,0.4-6.9,0.4-6.9
		s-3.3,0.4-5.2,0.4h-9.8l-5.2-0.2v1.4l1.8,0.3c1.2,0.2,1.5,0.5,1.6,1.6c0,0,0.1,3.3,0.1,8.8s-0.1,8.8-0.1,8.8c0,1-0.4,1.4-1.6,1.6
		l-1.8,0.3v1.4l5.2-0.2h8.7c2,0,6.5,0.2,6.5,0.2c0.1-1.2,0.8-6.6,0.9-7.2h-1.2l-1.3,3c-1,2.3-2.5,2.5-4.2,2.5h-5
		c-1.7,0-2.5-0.7-2.5-2.1v-7.6c0,0,3.6,0,4.9,0.1c0.9,0.1,1.5,0.3,1.8,1.6l0.4,1.7h1.4l-0.1-4.4l0.2-4.4h-1.4l-0.5,1.9
		c-0.3,1.3-0.5,1.5-1.8,1.6C490.8,42.5,487.4,42.4,487.4,42.5L487.4,42.5L487.4,42.5z M507.2,34.4c-0.5,2.1-0.9,3.7-2.6,4.7
		c-0.7,0.5-1.5,0.8-2.4,0.9v1.3h3v10.2c0,2.9,1.9,4.3,4.4,4.3c2,0,4-0.8,4.7-2.6l-0.7-0.9c-0.6,0.9-1.7,1.4-2.7,1.4
		c-1.5,0-2.3-1-2.3-3.5v-9l4.9,0.4l0.3-2.3l-5.2,0.2v-5.2L507.2,34.4L507.2,34.4z M517.7,50.2h-1.3c0.1,0.7,0.1,1.7,0.1,2.5
		c0,0.7,0,1.4-0.1,2.1c1.6,0.6,3.4,0.9,5.1,0.9c3.5,0,6.2-1.7,6.2-4.9c0-5.6-8.4-4.8-8.4-8.5c0-1.6,1.4-2.2,2.9-2.2
		c1.2,0,2.2,0.4,2.4,1.1l0.8,2.5l1.2-0.1c0.1-1.3,0.2-2.9,0.4-4.1c-1.5-0.5-3.1-0.7-4.7-0.7c-3.3,0-5.9,1.4-5.9,4.6
		c0,5.6,8.2,4.4,8.2,8.5c0,1.5-0.9,2.5-2.9,2.5c-1.4,0.1-2.7-0.7-3.2-1.9L517.7,50.2L517.7,50.2z M537.8,54
		c-1.9,5.4-4.3,6.8-6.4,6.8c-0.9,0-1.3-0.4-1.5-1l-0.5-2.6l-1.4,0.1c-0.3,1.5-0.5,3.2-0.9,4.6c1,0.7,2.1,1,3.3,1
		c2.3,0,5.8-0.3,9-7.9l5.4-12.7c0.4-1,0.6-1.1,1.9-1.6l0.7-0.3v-1.2l-3.2,0.2l-3.4-0.2v1.2l0.9,0.3c0.9,0.3,1.3,0.6,1.3,1.2
		c0,0.4-0.1,0.7-0.3,1.1c-0.5,1.3-3.6,8.8-4.4,10.4L539,53c-1.5-3.6-3.7-9.7-4-10.7c-0.1-0.2-0.1-0.3-0.1-0.5c0-0.5,0.4-1,1.2-1.1
		l1.1-0.2v-1.2l-4.6,0.2l-3.6-0.2v1.2l0.6,0.2c0.8,0.3,1,0.5,1.5,1.7c2.8,6.3,4.1,9.8,5.8,14.3L537.8,54L537.8,54z"/>
	<path id="squarespace-logo-symbol" class="st48" d="M194,196.9c-0.6-0.6-1.6-0.6-2.2,0l-14.4,14.5c-2.1,2.1-5.4,2.1-7.4,0l0,0
		c-0.6-0.6-1.6-0.6-2.2,0c-0.6,0.6-0.6,1.6,0,2.2l0,0c3.3,3.3,8.6,3.3,11.8,0l14.5-14.4C194.6,198.5,194.6,197.5,194,196.9z
		 M198.8,192.1c-3.3-3.3-8.6-3.3-11.8,0l-14.5,14.4c-0.6,0.6-0.5,1.6,0.1,2.2c0.6,0.5,1.5,0.5,2.1,0l14.5-14.4
		c2.1-2.1,5.4-2.1,7.4,0s2.1,5.4,0,7.4L185,213.4c-0.6,0.6-0.5,1.6,0.1,2.2c0.6,0.5,1.5,0.5,2.1,0l11.6-11.6
		C202.1,200.6,202.1,195.4,198.8,192.1z M189.2,182.5c-3.3-3.3-8.6-3.3-11.8,0L162.9,197c-0.6,0.6-0.6,1.6,0,2.2
		c0.6,0.6,1.6,0.6,2.2,0l0,0l14.5-14.5c2.1-2.1,5.4-2.1,7.4,0l0,0c0.6,0.6,1.6,0.5,2.2-0.1C189.7,184,189.7,183,189.2,182.5z
		 M184.4,187.3c-0.6-0.6-1.6-0.6-2.2,0l0,0l-14.5,14.4c-2.1,2.1-5.4,2.1-7.4,0c-2.1-2.1-2.1-5.4,0-7.4l11.6-11.6
		c0.6-0.6,0.6-1.6,0-2.2l0,0c-0.6-0.6-1.6-0.6-2.2,0L158,192.1c-3.4,3.2-3.6,8.5-0.4,11.8c3.2,3.4,8.5,3.6,11.8,0.4
		c0.1-0.1,0.3-0.3,0.4-0.4l14.5-14.4C184.9,188.9,184.9,187.9,184.4,187.3z"/>
	<g id="Page-1">
		<g id="ebay-_x28_1_x29_" transform="translate(22.000000, 17.000000)">
			<path id="Shape" class="st49" d="M580.2,252.4c-6.1,0-11.2,2.6-11.2,10.4c0,6.2,3.4,10.1,11.4,10.1c9.3,0,9.9-6.2,9.9-6.2h-4.5
				c0,0-1,3.3-5.7,3.3c-3.8,0-6.6-2.6-6.6-6.2h17.3v-2.3C590.8,257.9,588.5,252.4,580.2,252.4L580.2,252.4z M580,255.3
				c3.7,0,6.2,2.2,6.2,5.6h-12.6C573.6,257.3,576.8,255.3,580,255.3z"/>
			<path id="Shape_1_" class="st50" d="M590.8,244.8V269c0,1.4-0.1,3.3-0.1,3.3h4.3c0,0,0.2-1.4,0.2-2.6c0,0,2.1,3.3,7.9,3.3
				c6.1,0,10.3-4.2,10.3-10.3c0-5.7-3.8-10.2-10.2-10.2c-6,0-7.9,3.3-7.9,3.3v-10.9L590.8,244.8L590.8,244.8z M602,255.4
				c4.1,0,6.8,3.1,6.8,7.2c0,4.4-3,7.3-6.8,7.3c-4.4,0-6.8-3.5-6.8-7.3C595.2,259.1,597.3,255.4,602,255.4L602,255.4z"/>
			<path id="Shape_2_" class="st51" d="M624,252.4c-9.2,0-9.8,5-9.8,5.8h4.6c0,0,0.2-2.9,4.9-2.9c3,0,5.4,1.4,5.4,4v0.9h-5.4
				c-7.1,0-10.9,2.1-10.9,6.3c0,4.2,3.5,6.4,8.2,6.4c6.4,0,8.5-3.5,8.5-3.5c0,1.4,0.1,2.8,0.1,2.8h4.1c0,0-0.2-1.7-0.2-2.8v-9.5
				C633.5,253.7,628.5,252.4,624,252.4L624,252.4z M629.1,263.1v1.3c0,1.6-1,5.7-7,5.7c-3.3,0-4.7-1.6-4.7-3.5
				C617.4,263.1,622.1,263.1,629.1,263.1z"/>
			<polygon id="Shape_3_" class="st52" points="631,253.2 636.2,253.2 643.6,268 650.9,253.2 655.6,253.2 642.2,279.5 637.3,279.5 
				641.2,272.2 			"/>
		</g>
	</g>
	<g>
		<path class="st53" d="M678.9,219.2c0,4.8-3.9,8.6-8.6,8.6h-20.7c-4.8,0-8.6-3.9-8.6-8.6v-20.6c0-4.8,3.9-8.6,8.6-8.6h20.7
			c4.8,0,8.6,3.9,8.6,8.6V219.2z"/>
		<path class="st8" d="M650.4,216.5c-1.8,0-3.3,1.5-3.3,3.3s1.5,3.3,3.3,3.3s3.3-1.5,3.3-3.3S652.3,216.5,650.4,216.5z M650.4,220.9
			c-0.6,0-1.2-0.5-1.2-1.2c0-0.6,0.5-1.2,1.2-1.2c0.6,0,1.2,0.5,1.2,1.2S651.1,220.9,650.4,220.9z"/>
		<path class="st8" d="M669.4,216.6c-1.8,0-3.3,1.5-3.3,3.3s1.5,3.3,3.3,3.3s3.3-1.5,3.3-3.3C672.6,218.1,671.2,216.6,669.4,216.6z
			 M669.4,221.1c-0.6,0-1.2-0.5-1.2-1.2c0-0.6,0.5-1.2,1.2-1.2c0.6,0,1.2,0.5,1.2,1.2C670.5,220.6,670,221.1,669.4,221.1z"/>
		<path class="st8" d="M674.7,195.9L674.7,195.9h-0.6c-1.4,0-2.6,0.9-2.9,2.3l-2.7,10.2c-0.5,1.9-2.4,3.2-4.3,3.2h-0.8
			c-0.9,0-1.5-0.5-1.8-0.8c-0.2-0.2-0.4-0.3-0.7-0.3h-1.8c-0.3,0-0.5,0.1-0.7,0.3c-0.4,0.4-1,0.8-1.8,0.8h-0.8c-1.9,0-3.7-1.2-4.3-3
			l-2.1-6.6c-0.4-1.3-1.6-2.1-2.9-2.1H646c-0.2,0-0.4,0.1-0.5,0.2c-0.1,0.2-0.1,0.3-0.1,0.5l2.9,9c1,3.2,3.6,5.1,7,5.1h2.5
			c0.7,0,1.8-0.4,2.2-0.8c0.1-0.1,0.2-0.1,0.3,0c0.4,0.4,1.5,0.8,2.2,0.8h2.2c3.5,0,6.3-2.1,7.2-5.5l3.4-12.6
			C675.2,196.3,675,196,674.7,195.9z"/>
		<g>
			<circle class="st8" cx="664.7" cy="206.7" r="1.7"/>
			<circle class="st8" cx="659.9" cy="206.7" r="1.7"/>
			<circle class="st8" cx="655.1" cy="206.7" r="1.7"/>
			<circle class="st8" cx="664.7" cy="201.9" r="1.7"/>
			<circle class="st8" cx="659.9" cy="201.9" r="1.7"/>
			<circle class="st8" cx="655.1" cy="201.9" r="1.7"/>
		</g>
	</g>
	<g id="XMLID_477_">
		<g>
			<path id="XMLID_602_" class="st54" d="M255.9,72.4c0.4-0.2,0.8-0.3,1.2-0.5c0.4-0.2,0.9-0.3,1.4-0.5c0.6-0.2,1.1-0.3,1.7-0.5
				c0.8-0.2,1.6-0.3,2.4-0.4c-0.4,1.4-0.9,2.8-1.5,4.2c0,0.3,0,0.5,0,0.8c1.1-0.2,2.2-0.3,3.3-0.3s2.3,0.1,3.3,0.3
				c0-0.3,0-0.5,0-0.8c-0.5-1.4-1-2.8-1.5-4.2c0.8,0.1,1.6,0.2,2.4,0.4c0.6,0.1,1.2,0.3,1.7,0.5c0.5,0.1,0.9,0.3,1.4,0.5
				c0.4,0.1,0.8,0.3,1.2,0.5c2.8,1.2,5.3,3,7.3,5.4c5.2-4.5,8.4-11,8.4-18.4c0-13.4-10.9-24.3-24.3-24.3
				c-13.4,0-24.3,10.9-24.3,24.3c0,7.4,3.3,13.9,8.4,18.4C250.7,75.4,253.2,73.6,255.9,72.4z"/>
			<path id="XMLID_601_" class="st55" d="M257.6,76.8c1.1-0.5,2.3-0.9,3.6-1.1c0-0.3,0-0.5,0-0.8c0.5-1.4,1-2.8,1.5-4.2
				c-0.8,0.1-1.6,0.2-2.4,0.4c-0.6,0.1-1.2,0.3-1.7,0.5c-0.5,0.1-0.9,0.3-1.4,0.5l1.8,0.4L257.6,76.8z"/>
			<path id="XMLID_600_" class="st55" d="M253.4,79.4c0-0.5,0.1-0.9,0.1-1.4c0-0.3,0.2-0.5,0.5-0.5h0.4l1.6-5.1
				c-2.8,1.2-5.3,3-7.3,5.4c1.1,1,2.4,1.9,3.7,2.6C252.6,80.1,253,79.7,253.4,79.4z"/>
			<path id="XMLID_599_" class="st55" d="M273.1,72.4l1.6,5.1h0.4c0.3,0,0.5,0.2,0.5,0.5c0,0.5,0,0.9,0.1,1.4c0.4,0.3,0.7,0.7,1.1,1
				c1.3-0.8,2.5-1.6,3.7-2.6C278.3,75.4,275.8,73.6,273.1,72.4z"/>
			<path id="XMLID_598_" class="st55" d="M270.1,72.3l1.8-0.4c-0.4-0.2-0.9-0.3-1.4-0.5c-0.6-0.2-1.1-0.3-1.7-0.5
				c-0.8-0.2-1.6-0.3-2.4-0.4c0.4,1.4,0.9,2.8,1.5,4.2c0,0.3,0,0.5,0,0.8c1.3,0.2,2.5,0.6,3.6,1.1L270.1,72.3z"/>
			<path id="XMLID_597_" d="M264.5,77.5h3.4c-0.1-0.6-0.1-1.3-0.1-1.9c-1.1-0.2-2.2-0.3-3.3-0.3s-2.3,0.1-3.3,0.3
				c0,0.6,0,1.3-0.1,1.9H264.5z"/>
			<path id="XMLID_596_" d="M252.3,80.4c0.3,0.2,0.6,0.3,0.9,0.5c0.1-0.5,0.2-1,0.2-1.5C253,79.7,252.6,80.1,252.3,80.4z"/>
			<path id="XMLID_595_" d="M257.3,77.5h3.7c0.1-0.6,0.1-1.3,0.1-1.9c-1.3,0.2-2.5,0.6-3.6,1.1L257.3,77.5z"/>
			<path id="XMLID_594_" d="M275.6,79.4c0,0.5,0.1,1,0.2,1.5c0.3-0.2,0.6-0.3,0.9-0.5C276.4,80.1,276,79.7,275.6,79.4z"/>
			<path id="XMLID_593_" d="M271.7,77.5l-0.2-0.7c-1.1-0.5-2.3-0.9-3.6-1.1c0,0.6,0,1.3,0.1,1.9H271.7z"/>
			<path id="XMLID_592_" class="st56" d="M257.3,77.5l0.2-0.7l1.3-4.5l-1.8-0.4c-0.4,0.1-0.8,0.3-1.2,0.5l-1.6,5.1h1.7H257.3z"/>
			<path id="XMLID_591_" class="st56" d="M271.4,76.8l0.2,0.7h1.3h1.7l-1.6-5.1c-0.4-0.2-0.8-0.3-1.2-0.5l-1.8,0.4L271.4,76.8z"/>
			<path id="XMLID_590_" class="st57" d="M254.4,78.6C254.5,78.6,254.5,78.6,254.4,78.6L254.4,78.6
				C254.4,78.6,254.4,78.6,254.4,78.6z"/>
			<path id="XMLID_589_" class="st57" d="M264.5,78.5h-3.6H257h-2.5c0,0,0,0,0,0c0,1-0.2,1.9-0.4,2.8c3.2,1.5,6.7,2.3,10.4,2.3V78.5
				z"/>
			<path id="XMLID_588_" class="st56" d="M274.6,78.5L274.6,78.5C274.5,78.6,274.5,78.6,274.6,78.5
				C274.6,78.6,274.6,78.6,274.6,78.5z"/>
			<path id="XMLID_587_" class="st56" d="M274.5,78.5H272h-3.9h-3.6h0v5.2c3.7,0,7.3-0.8,10.4-2.3C274.7,80.5,274.6,79.5,274.5,78.5
				C274.5,78.6,274.5,78.6,274.5,78.5z"/>
			<rect id="XMLID_586_" x="264.5" y="78" class="st58" width="0" height="0.5"/>
			<path id="XMLID_585_" class="st59" d="M275.6,79.4c0-0.5-0.1-0.9-0.1-1.4c0-0.3-0.2-0.5-0.5-0.5h-0.4h-1.7h-1.3h-3.7h-3.4h-3.4
				h-3.7h-1.3h-1.7h-0.4c-0.3,0-0.5,0.2-0.5,0.5c0,0.5,0,0.9-0.1,1.4c0,0.5-0.1,1-0.2,1.5c0.3,0.2,0.6,0.3,0.9,0.5
				c0.2-0.9,0.3-1.8,0.4-2.8c0,0,0,0,0,0h0h2.5h3.9h3.6h0h3.6h3.9h2.5h0c0,0,0,0,0,0c0,1,0.2,1.9,0.4,2.8c0.3-0.1,0.6-0.3,0.9-0.5
				C275.8,80.4,275.7,79.9,275.6,79.4z"/>
			<g>
				<path id="XMLID_584_" class="st0" d="M272.7,55.7L272.7,55.7C272.7,55.7,272.7,55.7,272.7,55.7c0.3,0.9,0.7,1.8,0.8,2.7
					c0,0.1,0,0.1,0,0.2c0,0.1,0,0.2,0,0.3c0-0.1,0.1-0.3,0.1-0.4C273.3,57.5,273,56.6,272.7,55.7C272.7,55.7,272.7,55.7,272.7,55.7
					C272.7,55.7,272.7,55.7,272.7,55.7L272.7,55.7z"/>
				<path id="XMLID_583_" class="st0" d="M279.8,61.2C279.8,61.2,279.7,61.2,279.8,61.2C279.7,61.2,279.7,61.2,279.8,61.2z"/>
				<path id="XMLID_582_" class="st0" d="M279.9,61.1C279.9,61.1,279.9,61.1,279.9,61.1C279.9,61.1,279.9,61.1,279.9,61.1z"/>
				<path id="XMLID_581_" class="st0" d="M272,55.1c-0.6-0.5-1.1-0.9-1.8-1.3l0,0C270.8,54.2,271.4,54.6,272,55.1z"/>
				<path id="XMLID_580_" class="st0" d="M277.6,60.9C277.6,60.9,277.6,60.9,277.6,60.9C277.6,60.9,277.6,60.9,277.6,60.9z"/>
				<path id="XMLID_579_" class="st0" d="M278.6,62.2C278.6,62.2,278.7,62.2,278.6,62.2C278.7,62.2,278.6,62.2,278.6,62.2z"/>
				<path id="XMLID_578_" class="st0" d="M273.4,58.9c0,0.1,0,0.1,0,0.2C273.4,59,273.4,58.9,273.4,58.9z"/>
				<path id="XMLID_577_" class="st0" d="M271.1,67.7c-0.4,0.6-0.6,1.2-0.7,1.8C270.4,68.9,270.7,68.4,271.1,67.7
					c0.1-0.2,0.2-0.4,0.4-0.6C271.3,67.3,271.2,67.5,271.1,67.7C271.1,67.7,271.1,67.7,271.1,67.7z"/>
				<path id="XMLID_576_" class="st0" d="M272.7,55.7c0,0,0-0.1,0.1-0.1l0,0C272.7,55.6,272.7,55.7,272.7,55.7
					c0.1,0.1,0.3,0.3,0.4,0.4C273,56,272.8,55.8,272.7,55.7z"/>
				<path id="XMLID_575_" class="st0" d="M267.9,58.9C267.9,58.9,267.9,58.9,267.9,58.9C267.9,58.9,267.9,58.9,267.9,58.9z"/>
				<path id="XMLID_574_" class="st0" d="M267.7,58.5L267.7,58.5L267.7,58.5z"/>
				<path id="XMLID_573_" class="st0" d="M269.3,53.3C269.3,53.3,269.3,53.3,269.3,53.3C269.3,53.3,269.3,53.3,269.3,53.3z"/>
				<path id="XMLID_572_" class="st0" d="M269.4,53.4c0,0-0.1,0-0.1-0.1C269.4,53.3,269.4,53.3,269.4,53.4z"/>
				<path id="XMLID_571_" class="st0" d="M270.2,55.3c0,0.1,0,0.1,0,0.2C270.2,55.4,270.2,55.4,270.2,55.3z"/>
				<path id="XMLID_570_" class="st0" d="M267.8,58.7C267.8,58.7,267.8,58.7,267.8,58.7C267.8,58.7,267.8,58.7,267.8,58.7z"/>
				<path id="XMLID_569_" class="st0" d="M279.6,63.5c0,0,0.1,0.1,0.1,0.1C279.7,63.5,279.6,63.5,279.6,63.5z"/>
				<path id="XMLID_568_" class="st0" d="M270.2,56.1c0,0.3,0,0.5,0,0.8C270.2,56.6,270.2,56.3,270.2,56.1z"/>
				<path id="XMLID_567_" class="st0" d="M267.9,59.1C267.9,59.1,267.9,59.1,267.9,59.1C267.9,59.1,267.9,59.1,267.9,59.1z"/>
				<path id="XMLID_566_" class="st0" d="M270.1,53.8c-0.1-0.1-0.3-0.2-0.5-0.3C269.8,53.6,270,53.7,270.1,53.8z"/>
				<path id="XMLID_565_" class="st0" d="M269.6,53.4c-0.1,0-0.1-0.1-0.1-0.1C269.5,53.4,269.5,53.4,269.6,53.4z"/>
				<path id="XMLID_564_" class="st0" d="M270.2,53.8L270.2,53.8C270.2,53.8,270.2,53.8,270.2,53.8
					C270.2,53.8,270.2,53.8,270.2,53.8z"/>
				<path id="XMLID_563_" class="st0" d="M280.4,59.7C280.4,59.7,280.4,59.6,280.4,59.7C280.4,59.6,280.4,59.6,280.4,59.7
					C280.4,59.6,280.4,59.6,280.4,59.7c0-0.1,0-0.1,0-0.1C280.4,59.6,280.4,59.6,280.4,59.7C280.4,59.6,280.4,59.7,280.4,59.7z"/>
				<path id="XMLID_562_" class="st0" d="M276.4,59.5C276.5,59.6,276.5,59.6,276.4,59.5C276.5,59.6,276.5,59.6,276.4,59.5
					L276.4,59.5C276.5,59.6,276.5,59.6,276.4,59.5L276.4,59.5z"/>
				<path id="XMLID_561_" class="st0" d="M273.1,56.1c0.3,0.3,0.6,0.6,1,0.9C273.8,56.7,273.4,56.4,273.1,56.1z"/>
				<path id="XMLID_560_" class="st0" d="M279.5,57.9c0.1,0,0.1,0,0.2,0C279.6,58,279.5,57.9,279.5,57.9z"/>
				<path id="XMLID_559_" class="st0" d="M278.5,59.1C278.5,59.2,278.5,59.2,278.5,59.1C278.5,59.2,278.5,59.2,278.5,59.1z"/>
				<path id="XMLID_558_" class="st0" d="M279.7,58c0,0,0.1,0,0.1,0.1C279.8,58,279.7,58,279.7,58z"/>
				<path id="XMLID_557_" class="st0" d="M280,58.3C280.1,58.3,280.1,58.3,280,58.3C280.1,58.3,280.1,58.3,280,58.3z"/>
				<path id="XMLID_556_" class="st0" d="M280.4,59.3C280.4,59.3,280.4,59.3,280.4,59.3C280.4,59.2,280.4,59.2,280.4,59.3
					C280.4,59.2,280.4,59.3,280.4,59.3C280.4,59.3,280.4,59.3,280.4,59.3z"/>
				<path id="XMLID_555_" class="st0" d="M280.4,60C280.4,60,280.4,60,280.4,60C280.4,60,280.4,60,280.4,60
					C280.4,60,280.4,60,280.4,60C280.4,60,280.4,60,280.4,60z"/>
				<path id="XMLID_554_" class="st0" d="M278.8,58.4C278.8,58.3,278.8,58.3,278.8,58.4C278.8,58.3,278.8,58.3,278.8,58.4z"/>
				<path id="XMLID_553_" class="st0" d="M279.3,58c0.1,0,0.1,0,0.2,0C279.4,57.9,279.3,58,279.3,58z"/>
				<path id="XMLID_552_" class="st0" d="M275,57.9c-0.1-0.2-0.3-0.3-0.5-0.5C274.7,57.6,274.8,57.7,275,57.9z"/>
				<path id="XMLID_551_" class="st0" d="M279.5,52.6L279.5,52.6C279.5,52.6,279.5,52.6,279.5,52.6v2.3l-0.9,4c0,0,0,0,0,0
					c0,0,0,0,0,0v0h0l0.9-4L279.5,52.6L279.5,52.6L279.5,52.6z"/>
				<path id="XMLID_550_" class="st0" d="M275.8,58.8c-0.1-0.1-0.2-0.2-0.2-0.3C275.6,58.6,275.7,58.7,275.8,58.8z"/>
				<path id="XMLID_549_" class="st0" d="M280.3,58.9C280.3,58.9,280.3,58.9,280.3,58.9C280.3,58.9,280.3,58.9,280.3,58.9
					C280.3,58.9,280.3,58.9,280.3,58.9L280.3,58.9L280.3,58.9z"/>
				<path id="XMLID_548_" class="st0" d="M278.5,59.6L278.5,59.6C278.5,59.6,278.5,59.6,278.5,59.6
					C278.5,59.6,278.5,59.6,278.5,59.6z"/>
				<path id="XMLID_547_" class="st0" d="M279.1,58.1c0,0,0.1,0,0.1-0.1C279.2,58,279.1,58,279.1,58.1z"/>
				<path id="XMLID_546_" class="st0" d="M278.9,58.2c0,0,0.1-0.1,0.1-0.1C279,58.1,279,58.2,278.9,58.2z"/>
				<path id="XMLID_545_" class="st0" d="M280.3,60.3C280.3,60.3,280.3,60.3,280.3,60.3c0,0.1,0,0.2-0.1,0.2
					C280.3,60.5,280.3,60.4,280.3,60.3L280.3,60.3L280.3,60.3z"/>
				<path id="XMLID_544_" class="st0" d="M250.7,58.9c0-0.1,0.1-0.1,0.1-0.2C250.8,58.8,250.8,58.8,250.7,58.9z"/>
				<path id="XMLID_543_" class="st0" d="M279.8,58.1c0,0,0.1,0.1,0.1,0.1C279.9,58.2,279.9,58.1,279.8,58.1z"/>
				<path id="XMLID_542_" class="st0" d="M251.4,57.9C251.4,57.8,251.4,57.8,251.4,57.9C251.4,57.8,251.4,57.8,251.4,57.9z"/>
				<path id="XMLID_541_" class="st0" d="M268,59.6L268,59.6C268,59.6,268,59.6,268,59.6L268,59.6L268,59.6L268,59.6
					C268,59.6,268,59.6,268,59.6z"/>
				<path id="XMLID_540_" class="st0" d="M249.7,60.8c0,0.1-0.1,0.2-0.1,0.3C249.6,61,249.6,60.9,249.7,60.8z"/>
				<path id="XMLID_539_" class="st0" d="M249.1,62C249.1,62.1,249.1,62.1,249.1,62C249.1,62.1,249.1,62.1,249.1,62z"/>
				<polygon id="XMLID_538_" class="st0" points="280.1,53.2 280.1,53.2 280.1,53.2 				"/>
				<polygon id="XMLID_537_" class="st0" points="253.9,55.1 253.9,55.1 253.9,55.1 				"/>
				<path id="XMLID_536_" class="st0" d="M253,56c0,0,0.1-0.1,0.1-0.1C253.1,55.9,253,56,253,56z"/>
				<path id="XMLID_535_" class="st0" d="M252.1,56.9c0-0.1,0.1-0.1,0.1-0.2C252.2,56.8,252.2,56.9,252.1,56.9z"/>
				<polygon id="XMLID_534_" class="st0" points="280.3,58.9 279.5,54.9 280.3,58.9 				"/>
				<path id="XMLID_533_" class="st0" d="M265.2,61.9C265.2,61.9,265.2,61.8,265.2,61.9C265.2,61.8,265.2,61.9,265.2,61.9z"/>
				<path id="XMLID_532_" class="st0" d="M265.4,61.9C265.4,61.9,265.4,61.9,265.4,61.9C265.4,61.9,265.4,61.9,265.4,61.9z"/>
				<path id="XMLID_531_" class="st0" d="M250.2,59.8c-0.1,0.1-0.1,0.2-0.2,0.3C250.1,60,250.1,59.9,250.2,59.8z"/>
				<path id="XMLID_530_" class="st0" d="M264.6,61.6C264.6,61.6,264.6,61.6,264.6,61.6C264.6,61.6,264.6,61.6,264.6,61.6z"/>
				<path id="XMLID_529_" class="st0" d="M265,61.8C265,61.8,265,61.8,265,61.8C265,61.8,265,61.8,265,61.8z"/>
				<path id="XMLID_528_" class="st0" d="M264.8,61.7C264.8,61.7,264.8,61.7,264.8,61.7C264.8,61.7,264.8,61.7,264.8,61.7z"/>
				<path id="XMLID_527_" class="st0" d="M263.6,60.5C263.6,60.5,263.6,60.5,263.6,60.5C263.6,60.5,263.6,60.5,263.6,60.5z"/>
				<path id="XMLID_526_" class="st0" d="M263.5,59.1C263.5,59.1,263.4,59.1,263.5,59.1C263.4,59.1,263.5,59.1,263.5,59.1z"/>
				<path id="XMLID_525_" class="st0" d="M263.7,58.5C263.7,58.5,263.7,58.5,263.7,58.5C263.7,58.5,263.7,58.5,263.7,58.5z"/>
				<path id="XMLID_524_" class="st0" d="M264.5,57.7C264.5,57.7,264.5,57.7,264.5,57.7C264.5,57.7,264.5,57.7,264.5,57.7z"/>
				<path id="XMLID_523_" class="st0" d="M263.5,58.9C263.5,58.9,263.5,58.9,263.5,58.9C263.5,58.9,263.5,58.9,263.5,58.9z"/>
				<path id="XMLID_522_" class="st0" d="M263.6,58.7C263.6,58.7,263.6,58.7,263.6,58.7C263.6,58.7,263.6,58.7,263.6,58.7z"/>
				<path id="XMLID_521_" class="st0" d="M266.1,57.4C266.1,57.4,266.1,57.4,266.1,57.4C266.1,57.4,266.1,57.4,266.1,57.4z"/>
				<path id="XMLID_520_" class="st0" d="M266.6,57.5C266.6,57.5,266.5,57.5,266.6,57.5C266.5,57.5,266.6,57.5,266.6,57.5z"/>
				<path id="XMLID_519_" class="st0" d="M264.8,57.5C264.8,57.5,264.8,57.5,264.8,57.5C264.8,57.5,264.8,57.5,264.8,57.5z"/>
				<path id="XMLID_518_" class="st0" d="M265.3,57.4C265.3,57.4,265.2,57.4,265.3,57.4C265.2,57.4,265.3,57.4,265.3,57.4z"/>
				<path id="XMLID_517_" class="st0" d="M268,59.3C268,59.3,268,59.3,268,59.3C268,59.3,268,59.3,268,59.3z"/>
				<path id="XMLID_516_" class="st0" d="M265.7,52.2C265.7,52.2,265.7,52.2,265.7,52.2C265.7,52.2,265.7,52.2,265.7,52.2z"/>
				<path id="XMLID_515_" class="st0" d="M265.7,52.1C265.7,52.1,265.7,52,265.7,52.1C265.7,52,265.7,52.1,265.7,52.1z"/>
				<path id="XMLID_514_" class="st0" d="M265.7,52C265.7,52,265.7,52,265.7,52C265.7,52,265.7,52,265.7,52z"/>
				<path id="XMLID_513_" class="st0" d="M265.7,52.5L265.7,52.5v-0.1c0,0,0-0.1,0-0.1C265.7,52.4,265.7,52.5,265.7,52.5z"/>
				<path id="XMLID_512_" class="st0" d="M280.1,60.8c0,0-0.1,0.1-0.1,0.1C280.1,60.9,280.1,60.9,280.1,60.8z"/>
				<path id="XMLID_511_" class="st0" d="M263.4,59.3C263.4,59.3,263.4,59.4,263.4,59.3C263.4,59.4,263.4,59.3,263.4,59.3z"/>
				<path id="XMLID_510_" class="st0" d="M263.4,60.1C263.4,60.1,263.4,60.1,263.4,60.1C263.4,60.1,263.4,60.1,263.4,60.1z"/>
				<path id="XMLID_509_" class="st0" d="M280.2,60.6c0,0.1,0,0.1-0.1,0.2C280.2,60.7,280.2,60.6,280.2,60.6z"/>
				<path id="XMLID_508_" class="st55" d="M271.5,74.1c-0.1-0.1-0.1-0.2-0.2-0.3C271.3,73.9,271.4,74,271.5,74.1L271.5,74.1z"/>
				<path id="XMLID_507_" class="st56" d="M272,74.6C272,74.6,272,74.6,272,74.6C272,74.6,272,74.6,272,74.6s-0.2-0.2-0.6-0.6v0
					C271.8,74.4,272,74.6,272,74.6z"/>
				<polygon id="XMLID_506_" class="st8" points="279.5,52.6 279.5,52.6 279.5,52.6 279.5,52.6 				"/>
				<polygon id="XMLID_505_" class="st8" points="280.4,59.6 280.4,59.6 280.4,59.6 				"/>
				<path id="XMLID_504_" class="st60" d="M280.7,54L280.7,54L280.7,54C280.7,54,280.7,54,280.7,54L280.7,54
					c-0.2-0.3-0.4-0.6-0.6-0.8c0,0,0,0,0,0c0,0,0,0,0,0c0,0,0,0,0,0v0c-0.1-0.1-0.2-0.2-0.3-0.3c0,0-0.1-0.1-0.1-0.1
					c-0.1-0.1-0.1-0.1-0.2-0.2v0v2.3l0.9,4v0c0,0,0,0.1,0,0.1l0.6,0.7l0,0h0.6c0-0.1,0-0.1,0-0.2v0C281.6,57.6,281.3,55.8,280.7,54
					L280.7,54C280.7,54,280.7,54,280.7,54z"/>
				<polygon id="XMLID_503_" class="st60" points="280.4,59.6 280.4,59.6 280.4,59.6 				"/>
				<path id="XMLID_502_" class="st61" d="M280.4,59.2C280.4,59.2,280.4,59.2,280.4,59.2C280.4,59.3,280.4,59.3,280.4,59.2
					C280.4,59.3,280.4,59.3,280.4,59.2c0,0.1,0,0.2,0,0.3c0,0,0,0,0,0.1c0,0,0,0,0,0c0,0,0,0,0,0c0,0,0,0,0,0.1c0,0.1,0,0.2,0,0.3
					c0,0,0,0,0,0c0,0,0,0,0,0c0,0,0,0,0,0c0,0.1,0,0.2-0.1,0.3c0,0,0,0,0,0v0l0,0c0,0,0,0,0,0v0l0.6-0.7l-0.6-0.7c0,0,0,0,0,0
					C280.4,59,280.4,59.1,280.4,59.2z"/>
				<path d="M280.4,60C280.4,60,280.4,60,280.4,60c0-0.1,0-0.2,0-0.3c0,0,0,0,0-0.1c0,0,0,0,0-0.1c0-0.1,0-0.2,0-0.3c0,0,0,0,0,0
					c0-0.1,0-0.2-0.1-0.3c0,0,0-0.1,0-0.1c-0.1-0.2-0.1-0.4-0.2-0.5c0,0,0,0,0-0.1c0,0-0.1-0.1-0.1-0.1c0,0-0.1-0.1-0.1-0.1
					c0,0,0,0-0.1,0c0,0-0.1,0-0.1-0.1c0,0,0,0-0.1,0c-0.1,0-0.1,0-0.2,0c-0.1,0-0.1,0-0.2,0c0,0,0,0-0.1,0c0,0-0.1,0-0.1,0.1
					c0,0,0,0-0.1,0c0,0-0.1,0.1-0.1,0.1c0,0-0.1,0.1-0.1,0.1c0,0,0,0,0,0.1c-0.1,0.1-0.2,0.3-0.2,0.5c0,0,0,0,0,0
					c0,0.1,0,0.2-0.1,0.3c0,0,0,0.1,0,0.1c0,0.1,0,0.2,0,0.3c0,0,0,0,0,0h0c0,0.9,0.4,1.7,1,1.7c0.1,0,0.2,0,0.3-0.1c0,0,0,0,0,0
					c0,0,0.1,0,0.1-0.1c0,0,0,0,0.1,0c0,0,0.1-0.1,0.1-0.1c0,0,0.1-0.1,0.1-0.1c0,0,0-0.1,0-0.1c0-0.1,0.1-0.1,0.1-0.2
					c0,0,0,0,0-0.1c0-0.1,0.1-0.2,0.1-0.2C280.4,60.2,280.4,60.1,280.4,60z M279.5,59.4c-0.2,0-0.4-0.3-0.4-0.6
					c0-0.3,0.2-0.6,0.4-0.6c0.2,0,0.4,0.3,0.4,0.6C279.9,59.1,279.7,59.4,279.5,59.4z"/>
				<path id="XMLID_499_" class="st8" d="M279.5,58.1c-0.2,0-0.4,0.3-0.4,0.6c0,0.3,0.2,0.6,0.4,0.6c0.2,0,0.4-0.3,0.4-0.6
					C279.9,58.4,279.7,58.1,279.5,58.1z"/>
				<path id="XMLID_498_" class="st62" d="M278.6,58.9L278.6,58.9c0.1-0.2,0.1-0.4,0.2-0.5c0,0,0,0,0-0.1c0,0,0.1-0.1,0.1-0.1
					c0,0,0.1-0.1,0.1-0.1c0,0,0,0,0.1,0c0,0,0.1,0,0.1-0.1c0,0,0,0,0.1,0c0.1,0,0.1,0,0.2,0c0.1,0,0.1,0,0.2,0c0,0,0,0,0.1,0
					c0,0,0.1,0,0.1,0.1c0,0,0,0,0.1,0c0,0,0.1,0.1,0.1,0.1c0,0,0.1,0.1,0.1,0.1c0,0,0,0,0,0.1c0.1,0.1,0.2,0.3,0.2,0.5l0,0h0l-0.9-4
					L278.6,58.9L278.6,58.9z"/>
				<path d="M268,59.6c0-0.1,0-0.2,0-0.2c0,0,0,0,0,0c0-0.1,0-0.2,0-0.2c0,0,0,0,0,0c0-0.1,0-0.1-0.1-0.2c0,0,0,0,0,0
					c0-0.1-0.1-0.1-0.1-0.2c0,0,0,0,0,0c0-0.1-0.1-0.1-0.1-0.2l0,0c-0.1-0.2-0.3-0.4-0.4-0.5c-0.2-0.2-0.4-0.4-0.7-0.5c0,0,0,0,0,0
					c-0.1-0.1-0.3-0.1-0.4-0.1c0,0,0,0,0,0c-0.1,0-0.3,0-0.4,0c-0.1,0-0.3,0-0.4,0c0,0,0,0,0,0c-0.1,0-0.3,0.1-0.4,0.1c0,0,0,0,0,0
					c-0.1,0.1-0.3,0.1-0.4,0.2c0,0,0,0,0,0c-0.1,0.1-0.2,0.2-0.3,0.3l0,0l0,0c-0.2,0.2-0.3,0.3-0.4,0.5c0,0,0,0,0,0
					c0,0.1-0.1,0.1-0.1,0.2c0,0,0,0,0,0c0,0.1,0,0.1-0.1,0.2c0,0,0,0,0,0c0,0.1,0,0.1,0,0.2c0,0,0,0,0,0.1c0,0.1,0,0.1,0,0.2
					c0,0,0,0,0,0.1c0,0.1,0,0.2,0,0.2c0,0.2,0,0.3,0,0.4c0,0,0,0,0,0c0,0.1,0.1,0.3,0.1,0.4c0,0,0,0,0,0c0.1,0.3,0.3,0.5,0.5,0.7
					c0.2,0.2,0.3,0.3,0.5,0.4c0,0,0,0,0,0c0.1,0,0.1,0.1,0.2,0.1c0,0,0,0,0,0c0.1,0,0.1,0,0.2,0.1c0,0,0,0,0,0c0.1,0,0.1,0,0.2,0
					c0,0,0,0,0,0c0.1,0,0.1,0,0.2,0c0,0,0,0,0.1,0c0.1,0,0.2,0,0.2,0c0.3,0,0.6-0.1,0.9-0.2c0.1-0.1,0.3-0.1,0.4-0.2
					c0.2-0.2,0.5-0.4,0.6-0.6c0.1-0.1,0.2-0.3,0.2-0.4C267.9,60.2,268,59.9,268,59.6C268,59.6,268,59.6,268,59.6L268,59.6
					C268,59.6,268,59.6,268,59.6L268,59.6z M265.7,59.3c-0.5,0-0.9-0.4-0.9-0.9c0-0.5,0.4-0.9,0.9-0.9c0.5,0,0.9,0.4,0.9,0.9
					C266.5,58.9,266.2,59.3,265.7,59.3z"/>
				<path id="XMLID_495_" class="st8" d="M265.7,57.6c-0.5,0-0.9,0.4-0.9,0.9c0,0.5,0.4,0.9,0.9,0.9c0.5,0,0.9-0.4,0.9-0.9
					C266.5,58,266.2,57.6,265.7,57.6z"/>
				<path id="XMLID_494_" class="st60" d="M264.1,58L264.1,58L264.1,58L264.1,58L264.1,58l1.6-4.8c0,0,0-0.3,0-0.6
					c0-0.1,0-0.2,0-0.2c0,0,0,0,0-0.1c0,0,0-0.1,0-0.1c0,0,0,0,0-0.1c0,0,0,0,0-0.1c0,0,0,0,0,0c0,0,0,0,0,0
					c-0.9-0.2-1.8-0.3-2.7-0.3c-0.3,0-0.6,0-0.9,0c0,0-0.1,0-0.1,0c-1.6,0.1-3.1,0.5-4.6,1.2c-1.2,0.6-2.4,1.3-3.4,2.2v0
					c0,0,0,0,0,0c-0.3,0.2-0.5,0.5-0.8,0.7c0,0-0.1,0.1-0.1,0.1c-0.2,0.2-0.5,0.5-0.7,0.8c0,0.1-0.1,0.1-0.1,0.2
					c-0.2,0.3-0.5,0.5-0.7,0.8c0,0,0,0-0.1,0.1c-0.2,0.3-0.4,0.6-0.6,0.8c0,0.1-0.1,0.1-0.1,0.2c-0.2,0.2-0.3,0.5-0.4,0.7h7.2h0
					L264.1,58z"/>
				<path id="XMLID_493_" class="st63" d="M270.2,57.4c0-0.2,0-0.4,0-0.6c0-0.3,0-0.5,0-0.8c0-0.2,0-0.4,0-0.6c0-0.1,0-0.1,0-0.2
					c0-0.5,0-1-0.1-1.5l0,0l0,0c0,0,0,0,0,0c0,0,0,0,0,0c0,0,0,0,0,0c0,0,0,0,0,0c-0.1-0.1-0.3-0.2-0.5-0.3c0,0,0,0,0,0
					c-0.1,0-0.1-0.1-0.1-0.1c0,0,0,0,0,0c0,0-0.1,0-0.1-0.1c0,0,0,0,0,0c0,0-0.1,0-0.1,0c-0.3-0.2-0.7-0.3-1-0.5
					c-0.8-0.3-1.9-0.6-2.5-0.8v0.4v0.1v0c0,0.3,0,0.6,0,0.6l1.6,4.8l0,0c0.2,0.2,0.3,0.3,0.4,0.5l0,0c0,0.1,0.1,0.1,0.1,0.2
					c0,0,0,0,0,0c0,0.1,0.1,0.1,0.1,0.2c0,0,0,0,0,0c0,0.1,0,0.1,0.1,0.2c0,0,0,0,0,0c0,0.1,0,0.1,0,0.2c0,0,0,0,0,0
					c0,0.1,0,0.2,0,0.2l0,0l0,0h1.9C270,58.9,270.1,58.2,270.2,57.4C270.2,57.4,270.2,57.4,270.2,57.4z"/>
				<polygon id="XMLID_492_" class="st64" points="272.7,55.7 272.7,55.7 272.7,55.7 				"/>
				<path id="XMLID_491_" class="st64" d="M268,66.5c0.4-0.4,0.8-0.8,1.2-1.3c0.2-0.2,0.5-0.5,0.7-0.7c1.6-1.7,2.8-3.4,3.5-5.5
					c0,0,0-0.1,0-0.2c0,0,0,0,0,0c0-0.1,0-0.2,0-0.3c0-0.1,0-0.1,0-0.2c-0.2-0.9-0.5-1.8-0.8-2.7c0,0,0,0,0,0c0,0,0,0,0,0
					c-0.1-0.1-0.1-0.1-0.2-0.2c-0.2-0.2-0.4-0.3-0.5-0.5c-0.6-0.5-1.1-0.9-1.8-1.3l0,0c0,0.5,0.1,1,0.1,1.5c0,0.1,0,0.1,0,0.2
					c0,0.2,0,0.4,0,0.6c0,0.3,0,0.5,0,0.8c0,0.2,0,0.4,0,0.6c0,0,0,0,0,0.1c-0.1,0.7-0.1,1.4-0.3,2.1l-0.2,1.1
					c-0.5,1.9-1.4,3.6-2.2,5.4c-0.2,0.5-0.4,1-0.6,1.4c0,0,0,0.1,0,0.1c0.2-0.3,0.5-0.5,0.6-0.6C267.6,66.8,267.8,66.7,268,66.5z"/>
				<path id="XMLID_490_" class="st62" d="M264.1,57.9L264.1,57.9c0.1-0.1,0.2-0.2,0.3-0.3c0,0,0,0,0,0c0.1-0.1,0.2-0.1,0.4-0.2
					c0,0,0,0,0,0c0.1-0.1,0.3-0.1,0.4-0.1c0,0,0,0,0,0c0.1,0,0.3,0,0.4,0c0.2,0,0.3,0,0.4,0c0,0,0,0,0,0c0.1,0,0.3,0.1,0.4,0.1
					c0,0,0,0,0,0c0.3,0.1,0.5,0.3,0.7,0.5l0,0l-1.6-4.8L264.1,57.9z"/>
				<path id="XMLID_489_" class="st61" d="M263.6,60.5c-0.1-0.1-0.1-0.3-0.1-0.4c0,0,0,0,0,0c0-0.1,0-0.3,0-0.4c0-0.1,0-0.2,0-0.2
					c0,0,0,0,0-0.1c0-0.1,0-0.1,0-0.2c0,0,0,0,0-0.1c0-0.1,0-0.1,0-0.2c0,0,0,0,0,0c0-0.1,0-0.1,0.1-0.2c0,0,0,0,0,0
					c0-0.1,0.1-0.1,0.1-0.2c0,0,0,0,0,0c0.1-0.2,0.3-0.4,0.4-0.5v0l-6.6,1.6h0l6.6,1.6C263.8,61,263.7,60.7,263.6,60.5
					C263.6,60.5,263.6,60.5,263.6,60.5z"/>
				<path id="XMLID_488_" class="st63" d="M278.5,59.2C278.5,59.2,278.5,59.2,278.5,59.2c0-0.2,0.1-0.3,0.1-0.4c0,0,0,0,0,0l0.9-4
					l0-2.3c-0.7-0.6-1.5-0.9-2.3-0.9c-1,0-1.9,0.6-2.6,1.2c-0.8,0.7-1.3,1.7-1.8,2.6c0,0,0,0.1-0.1,0.1c0.1,0.1,0.3,0.3,0.4,0.4
					c0.3,0.3,0.6,0.6,1,0.9c0.1,0.1,0.3,0.3,0.4,0.4c0.2,0.2,0.3,0.3,0.5,0.5c0.2,0.2,0.4,0.4,0.6,0.6c0.1,0.1,0.2,0.2,0.2,0.3
					c0.2,0.3,0.5,0.5,0.7,0.8l0,0c0,0,0.1,0.1,0.1,0.1h2c0,0,0,0,0,0C278.5,59.4,278.5,59.3,278.5,59.2z"/>
				<polygon id="XMLID_487_" class="st63" points="272.7,55.7 272.7,55.7 272.7,55.7 272.7,55.7 272.7,55.7 				"/>
				<path id="XMLID_486_" class="st55" d="M249.1,62.1C249.1,62.1,249.1,62.1,249.1,62.1c0.1-0.4,0.3-0.7,0.4-1
					c0-0.1,0.1-0.2,0.1-0.3c0.1-0.3,0.2-0.5,0.4-0.7c0.1-0.1,0.1-0.2,0.2-0.3c0-0.1,0.1-0.1,0.1-0.2c0.1-0.2,0.3-0.5,0.4-0.7
					c0-0.1,0.1-0.1,0.1-0.2c0.2-0.3,0.4-0.6,0.6-0.8c0,0,0,0,0.1-0.1c0.2-0.3,0.4-0.6,0.7-0.8c0-0.1,0.1-0.1,0.1-0.2
					c0.2-0.3,0.5-0.5,0.7-0.8c0,0,0.1-0.1,0.1-0.1c0.3-0.3,0.5-0.5,0.8-0.7c0,0,0,0,0,0c1.1-3.7,4.4-6.3,8.4-6.3
					c1.6,0,3.2,0.5,4.5,1.3c1.4,0.9,2.5,2.1,3.3,3.6c0,0,0,0,0,0c0,0,0,0.1,0.1,0.1l0,0l0,0c0,0,0,0,0,0c0,0,0,0,0,0
					c0.6,0.4,1.2,0.8,1.8,1.3c0.2,0.2,0.4,0.3,0.5,0.5c0.1,0.1,0.1,0.1,0.2,0.2c0,0,0,0,0,0c0,0,0,0,0,0c0,0,0-0.1,0.1-0.1
					c0.6-3.5,2.1-6.1,3.9-6.1c1.4,0,2.6,1.4,3.4,3.7l0,0c0,0,0,0,0,0c0.2,0.2,0.4,0.5,0.6,0.8l0,0c0,0,0,0,0,0l0,0l0,0
					c0,0,0,0.1,0,0.1v0l0-0.1c-2.3-6.7-8.7-11.6-16.2-11.6c-9.4,0-17.1,7.6-17.1,17.1c0,1.9,0.3,3.6,0.8,5.3c0,0,0,0,0,0
					c0.1-0.5,0.2-1,0.4-1.5C248.8,62.8,249,62.5,249.1,62.1z"/>
				<path id="XMLID_485_" class="st8" d="M280.9,59.6l-0.6,0.7v0c0,0,0,0,0,0c0,0.1-0.1,0.2-0.1,0.2c0,0,0,0,0,0.1
					c0,0.1,0,0.1-0.1,0.2c0,0,0,0.1,0,0.1c0,0-0.1,0.1-0.1,0.1c0,0.1-0.1,0.1-0.1,0.1c0,0,0,0-0.1,0c0,0-0.1,0-0.1,0.1c0,0,0,0,0,0
					c-0.1,0-0.2,0.1-0.3,0.1c-0.5,0-1-0.8-1-1.7h0h0h-2h0c0,0,0,0,0,0c0.4,0.4,0.7,0.8,1.1,1.3c0,0,0,0,0,0c0.3,0.4,0.7,0.8,1,1.3
					c0,0,0,0,0,0.1c0.3,0.4,0.6,0.8,0.9,1.2c0,0,0.1,0.1,0.1,0.1c0.3,0.4,0.7,0.9,1,1.3c0,0,0,0,0,0c0.6-1.7,0.9-3.4,0.9-5.3h0
					L280.9,59.6L280.9,59.6z"/>
				<path id="XMLID_484_" d="M261.9,51.7c0,0,0.1,0,0.1,0c0.3,0,0.6,0,0.9,0c0.9,0,1.8,0.1,2.7,0.3c0,0,0,0,0,0c0,0,0,0,0,0
					c0,0,0,0,0,0.1c0,0,0,0,0,0.1c0,0,0,0.1,0,0.1c0,0,0,0,0,0.1c0,0,0,0.1,0,0.1V52c0.6,0.1,1.7,0.4,2.5,0.8c0.3,0.1,0.7,0.3,1,0.5
					c0,0,0,0,0.1,0c0,0,0,0,0,0c0,0,0.1,0,0.1,0.1c0,0,0,0,0,0c0,0,0.1,0.1,0.1,0.1c0,0,0,0,0,0c0.2,0.1,0.4,0.3,0.5,0.3
					c0,0,0,0,0,0c0,0,0,0,0,0l0,0c0,0,0-0.1-0.1-0.1c0,0,0,0,0,0c-0.7-1.5-1.9-2.7-3.3-3.6c-1.4-0.8-2.9-1.3-4.5-1.3
					c-4,0-7.3,2.7-8.4,6.3c1-0.9,2.2-1.6,3.4-2.2C258.8,52.3,260.4,51.9,261.9,51.7z"/>
				<line id="XMLID_483_" class="st65" x1="265.7" y1="52.4" x2="265.7" y2="52.5"/>
				<path id="XMLID_482_" d="M274.6,52.9c0.7-0.7,1.6-1.2,2.6-1.2c0.8,0,1.5,0.3,2.3,0.9c0,0,0,0,0,0l0,0v0c0.1,0.1,0.1,0.1,0.2,0.2
					c0,0,0.1,0.1,0.1,0.1c0.1,0.1,0.2,0.2,0.3,0.3v0c0,0,0,0,0,0c0,0,0,0,0,0l0,0l0,0c-0.8-2.2-2-3.7-3.4-3.7
					c-1.8,0-3.4,2.5-3.9,6.1l0,0C273.2,54.6,273.8,53.7,274.6,52.9z"/>
				<path id="XMLID_481_" class="st8" d="M258.4,75.3c0.2,0.1,0.3,0.1,0.5,0.2c1.8,0.6,3.7,1,5.6,1c2.3,0,4.4-0.4,6.4-1.2
					c0.1,0,0.2-0.1,0.3-0.1c0.2-0.1,0.3-0.1,0.5-0.2c0.1-0.1,0.3-0.1,0.4-0.2c0,0-0.1,0-0.1,0v0c-0.6,0.1-1.2,0.1-1.8,0
					c-3.5-0.5-4.3-2.2-4.2-4c-0.3-0.1-0.5-0.3-0.8-0.5c-2.7-2-4.3-4-4.3-4s2.1,1.6,5.2,2.8c0.1,0,0.1,0,0.2,0.1
					c0.1-0.5,0.3-1,0.5-1.4v0c0,0,0-0.1,0-0.1c0.2-0.5,0.4-1,0.6-1.4c0.8-1.8,1.7-3.5,2.2-5.4l0.2-1.1H268h0l0,0c0,0,0,0,0,0l0,0
					l0,0c0,0,0,0,0,0c0,0.3-0.1,0.6-0.2,0.9c-0.1,0.1-0.1,0.3-0.2,0.4c-0.2,0.2-0.4,0.5-0.6,0.6c-0.1,0.1-0.3,0.2-0.4,0.2
					c-0.3,0.1-0.6,0.2-0.9,0.2c-0.1,0-0.2,0-0.2,0c0,0,0,0-0.1,0c-0.1,0-0.1,0-0.2,0c0,0,0,0,0,0c-0.1,0-0.1,0-0.2,0c0,0,0,0,0,0
					c-0.1,0-0.1,0-0.2-0.1c0,0,0,0,0,0c-0.1,0-0.1-0.1-0.2-0.1c0,0,0,0,0,0c-0.2-0.1-0.4-0.3-0.5-0.4l-6.6-1.6h-7.2
					c0,0.1-0.1,0.1-0.1,0.2c-0.1,0.1-0.1,0.2-0.2,0.3c-0.1,0.2-0.3,0.5-0.4,0.7c0,0.1-0.1,0.2-0.1,0.3c-0.1,0.3-0.3,0.6-0.4,1
					c0,0,0,0,0,0c-0.1,0.4-0.3,0.8-0.4,1.1c-0.2,0.5-0.3,1-0.4,1.5c1.1,3.4,3.3,6.4,6.2,8.5c0.1,0.1,0.2,0.1,0.3,0.2
					c0.5,0.3,1,0.7,1.5,0.9C257,74.7,257.7,75.1,258.4,75.3z"/>
				<path id="XMLID_480_" class="st66" d="M270.2,70c0,0.2,0,0.4,0,0.5c0,0.3,0,0.6,0.1,0.9c0,0.2,0.1,0.4,0.1,0.5
					c0.1,0.3,0.2,0.5,0.3,0.7c0.1,0.2,0.2,0.4,0.3,0.6c0,0.1,0.1,0.1,0.1,0.2c0.1,0.1,0.1,0.2,0.2,0.2c0.1,0.1,0.2,0.2,0.2,0.3
					c0.3,0.4,0.6,0.6,0.6,0.6s0,0,0,0c0,0,0,0,0,0v0c0,0,0.1,0,0.1,0c0.8-0.1,1.5-0.3,2.3-0.6c0.4-0.1,0.8-0.3,1.1-0.5
					c0.1-0.1,0.2-0.1,0.3-0.2c3.9-1.9,7.2-5.2,7.2-5.2C278.2,70.6,273.4,70.6,270.2,70z"/>
				<path id="XMLID_479_" class="st67" d="M279.6,63.5c-0.3-0.4-0.6-0.8-0.9-1.2c0,0,0,0,0-0.1c-0.3-0.4-0.7-0.8-1-1.3c0,0,0,0,0,0
					c-0.4-0.4-0.7-0.9-1.1-1.3c0,0,0-0.1-0.1-0.1c-0.2-0.3-0.4-0.5-0.7-0.8c-0.1-0.1-0.2-0.2-0.2-0.3c-0.2-0.2-0.4-0.4-0.6-0.6
					c-0.1-0.2-0.3-0.3-0.5-0.5c-0.1-0.1-0.3-0.3-0.4-0.4c-0.3-0.3-0.6-0.6-1-0.9c-0.1-0.1-0.3-0.3-0.4-0.4c0,0,0,0,0,0
					c0.3,0.9,0.7,1.8,0.8,2.7c0,0.2,0.1,0.5,0.1,0.7c0.4,3.2-0.6,5.3-2.2,8c-0.1,0.2-0.2,0.4-0.4,0.6c-0.4,0.6-0.6,1.2-0.7,1.8
					c0,0.2-0.1,0.4-0.1,0.5c3.2,0.5,8,0.6,12.9-1.8c0,0-1-1.4-2.4-3.4c-0.3-0.4-0.6-0.9-1-1.3C279.7,63.5,279.6,63.5,279.6,63.5z"/>
				<path id="XMLID_478_" d="M272,74.6c0,0-0.2-0.2-0.6-0.6c-0.1-0.1-0.1-0.2-0.2-0.3c-0.1-0.1-0.1-0.2-0.2-0.2
					c0-0.1-0.1-0.1-0.1-0.2c-0.1-0.2-0.2-0.4-0.3-0.6c-0.1-0.2-0.2-0.5-0.3-0.7c0-0.2-0.1-0.4-0.1-0.5c0-0.3-0.1-0.6-0.1-0.9
					c0-0.2,0-0.4,0-0.5c0-0.2,0.1-0.4,0.1-0.5c0.1-0.6,0.4-1.1,0.7-1.8c0,0,0,0,0,0c0.1-0.2,0.2-0.4,0.4-0.6c1.6-2.7,2.7-4.8,2.2-8
					c0-0.2-0.1-0.5-0.1-0.7c0,0.2,0,0.3-0.1,0.4c0,0,0,0,0,0c0,0.1,0,0.1,0,0.2c-0.7,2.1-1.9,3.7-3.5,5.5c-0.2,0.2-0.4,0.5-0.7,0.7
					c-0.4,0.4-0.8,0.8-1.2,1.3c-0.2,0.2-0.3,0.3-0.5,0.5c-0.2,0.2-0.4,0.4-0.6,0.6v0c-0.2,0.4-0.3,0.9-0.5,1.4c-0.1,0-0.1,0-0.2-0.1
					c-3.1-1.2-5.2-2.8-5.2-2.8s1.6,2.1,4.3,4c0.3,0.2,0.5,0.4,0.8,0.5c-0.1,1.8,0.7,3.5,4.2,4C270.8,74.8,271.4,74.8,272,74.6
					C272,74.7,272,74.6,272,74.6C272,74.6,272,74.6,272,74.6z"/>
			</g>
		</g>
	</g>
</g>
</svg>
