<svg xmlns="http://www.w3.org/2000/svg" xmlns:xlink="http://www.w3.org/1999/xlink" width="260" height="43" viewBox="0 0 260 43">
    <defs>
        <path id="a" d="M0 0h304v100H0z"/>
        <path id="c" d="M.253.504h21.246V29.17H.253z"/>
        <path id="e" d="M0 .669h42.453v37.294H0z"/>
        <path id="g" d="M.71.562h9.102v4.511H.709z"/>
        <path id="i" d="M.934.562h9.104v4.511H.934z"/>
        <path id="k" d="M0 43.721h259.938V1.268H0z"/>
    </defs>
    <g fill="none" fill-rule="evenodd" transform="translate(-22 -29)">
        <mask id="b" fill="#fff">
            <use xlink:href="#a"/>
        </mask>
        <g mask="url(#b)">
            <g transform="translate(22 28)">
                <path fill="#1E0047" d="M110.917 23.57c-.026-2.526-.976-4.577-2.851-6.152-1.875-1.575-4.231-2.363-7.068-2.363a11.44 11.44 0 0 0-5.116 1.19c-1.615.796-2.968 2.033-4.063 3.712-1.093 1.68-1.641 3.626-1.641 5.838 0 3.202 1.055 5.78 3.164 7.733 2.11 1.953 4.635 2.93 7.577 2.93 3.36 0 6.274-1.276 8.749-3.828l-2.579-2.851c-1.509 1.822-3.43 2.734-5.76 2.734-2.33 0-4.173-.833-5.526-2.5l15.153-6.365-.039-.079zm-16.481 3.046a4.965 4.965 0 0 1-.038-.742c0-2.136.709-3.802 2.128-5 1.419-1.197 2.988-1.797 4.705-1.797 2.265 0 3.842.86 4.726 2.578l-11.521 4.96zM85.162 16.344a9.065 9.065 0 0 0-2.872 3.202v-4.179h-4.373v20.777h4.373V27.24c0-2.37.547-4.257 1.642-5.663 1.093-1.405 2.72-2.11 4.881-2.11h.235l-.04-4.413c-1.354.027-2.635.457-3.846 1.29M126.595 25.56c-.703-.469-1.361-.833-1.972-1.093a22.545 22.545 0 0 0-1.894-.704c-.652-.208-1.4-.414-2.246-.624-.847-.208-1.504-.43-1.973-.664-.678-.312-1.015-.807-1.015-1.484 0-.755.326-1.322.976-1.698.65-.377 1.497-.567 2.538-.567 1.979 0 3.815.56 5.507 1.68l1.64-3.243c-2.134-1.405-4.4-2.109-6.794-2.109-2.396 0-4.343.581-5.84 1.739-1.497 1.158-2.245 2.701-2.245 4.628 0 2.734 2.16 4.686 6.483 5.857.104.027.26.08.468.157 2.76.833 4.141 1.772 4.141 2.813 0 .703-.288 1.283-.86 1.738-.573.455-1.353.682-2.342.682-2.266 0-4.61-.91-7.03-2.733l-2.11 3.398c1.25.989 2.688 1.758 4.316 2.304 1.626.547 3.195.82 4.706.82 2.24 0 4.075-.591 5.507-1.777 1.431-1.185 2.148-2.766 2.148-4.745s-.704-3.437-2.11-4.374M71.978 11.227c-1.901-1.588-4.921-2.382-9.062-2.382h-9.373v27.3h4.61v-8.008h4.842c4.01 0 6.984-.767 8.925-2.303 1.938-1.536 2.909-3.958 2.909-7.265 0-3.305-.951-5.754-2.851-7.342m-3.26 11.268c-.927.976-2.664 1.465-5.215 1.465h-5.35V13.024h4.686c2.5 0 4.335.391 5.507 1.171 1.171.783 1.757 2.116 1.757 4.004 0 1.889-.463 3.32-1.386 4.296M138.94 32.669c-.938 0-1.667-.293-2.187-.88-.522-.585-.782-1.371-.782-2.362V18.882h5.468v-3.515h-5.468V8.845h-4.374V29.31c0 2.187.657 3.924 1.972 5.214 1.314 1.289 2.903 1.933 4.764 1.933 1.862 0 3.561-.69 5.098-2.07l-1.797-3.085c-.858.911-1.758 1.367-2.695 1.367M160.678 18.96c-1.77-2.602-4.023-3.906-6.758-3.906-2.733 0-5.102.964-7.107 2.89-2.005 1.928-3.007 4.505-3.007 7.733 0 3.23.976 5.834 2.928 7.813 1.953 1.978 4.245 2.968 6.874 2.968 1.303 0 2.598-.32 3.886-.958a8.313 8.313 0 0 0 3.184-2.752v3.396h4.374V15.367h-4.374v3.593zm-1.719 11.736c-1.198 1.264-2.655 1.895-4.374 1.895-1.719 0-3.216-.626-4.491-1.875-1.276-1.25-1.914-2.871-1.914-4.862 0-1.992.625-3.652 1.875-4.98 1.249-1.328 2.747-1.992 4.492-1.992 1.744 0 3.214.664 4.412 1.992 1.198 1.328 1.797 2.982 1.797 4.96 0 1.979-.6 3.6-1.797 4.862z"/>
                <path fill="#E2056E" d="M225.185 15.055c-3.124 0-5.729 1.034-7.81 3.104-2.084 2.071-3.125 4.603-3.125 7.597 0 2.995 1.04 5.526 3.125 7.596 2.081 2.07 4.686 3.105 7.81 3.105 3.124 0 5.727-1.035 7.811-3.105 2.083-2.07 3.124-4.601 3.124-7.596 0-2.994-1.041-5.526-3.124-7.597-2.084-2.07-4.687-3.104-7.811-3.104m4.705 15.603c-1.236 1.262-2.805 1.894-4.705 1.894-1.901 0-3.47-.632-4.706-1.894-1.237-1.263-1.855-2.896-1.855-4.902 0-2.005.618-3.638 1.855-4.902 1.236-1.262 2.805-1.893 4.706-1.893 1.9 0 3.469.631 4.705 1.893 1.237 1.264 1.856 2.897 1.856 4.902 0 2.006-.62 3.64-1.856 4.902"/>
                <g transform="translate(238.439 14.55)">
                    <mask id="d" fill="#fff">
                        <use xlink:href="#c"/>
                    </mask>
                    <path fill="#E2056E" d="M18.531 3.394c-1.98-1.927-4.362-2.89-7.148-2.89-2.786 0-5.038 1.315-6.756 3.945V.817H.253V29.17h4.374v-10.7c2.084 2.29 4.433 3.435 7.05 3.435s4.907-1.002 6.873-3.006c1.966-2.005 2.949-4.61 2.949-7.813 0-3.2-.99-5.765-2.968-7.693m-3.32 12.732c-1.276 1.25-2.773 1.875-4.491 1.875-1.719 0-3.177-.63-4.375-1.894-1.197-1.263-1.796-2.884-1.796-4.862 0-1.979.6-3.626 1.796-4.942C7.543 4.99 9.014 4.331 10.76 4.331c1.744 0 3.242.658 4.491 1.972 1.25 1.316 1.875 2.97 1.875 4.96 0 1.992-.638 3.614-1.914 4.863" mask="url(#d)"/>
                </g>
                <path fill="#E2056E" d="M204.066 15.055c-1.458 0-2.82.365-4.081 1.093-1.263.729-2.207 1.732-2.832 3.008V7.205h-4.375v28.94h4.375V24.896c0-1.926.56-3.391 1.68-4.393 1.119-1.002 2.434-1.503 3.943-1.503 3.177 0 4.765 1.913 4.765 5.74v11.405h4.375V23.413c0-2.708-.722-4.778-2.168-6.21-1.444-1.432-3.34-2.148-5.682-2.148M187.548 23.022c-1.42-1.222-3.528-2.174-6.326-2.85-2.8-.677-4.628-1.309-5.488-1.896-.859-.584-1.289-1.432-1.289-2.538 0-1.106.43-1.933 1.289-2.48.86-.546 1.96-.82 3.301-.82 1.34 0 2.7.234 4.08.703 1.38.47 2.473 1.068 3.281 1.797l2.46-3.476c-1.25-1.042-2.734-1.85-4.452-2.421a16.314 16.314 0 0 0-5.194-.86c-2.708 0-4.98.683-6.816 2.05-1.835 1.368-2.753 3.313-2.753 5.84 0 2.525.808 4.4 2.422 5.623.806.65 1.732 1.179 2.773 1.582 1.041.404 2.564.847 4.57 1.328 2.005.482 3.416 1.016 4.237 1.602.82.586 1.23 1.405 1.23 2.46 0 1.054-.436 1.9-1.309 2.538-.872.64-2.05.957-3.535.957-2.967 0-5.831-1.197-8.591-3.593l-2.89 3.476c3.306 2.943 7.094 4.413 11.365 4.413 2.916 0 5.272-.742 7.07-2.227 1.795-1.483 2.694-3.415 2.694-5.799 0-2.383-.71-4.185-2.13-5.409"/>
                <g transform="translate(0 .6)">
                    <mask id="f" fill="#fff">
                        <use xlink:href="#e"/>
                    </mask>
                    <path fill="#A0DBE8" d="M13.76 33.24c.34-.15.684-.29 1.03-.419.39-.147.785-.285 1.186-.406a18.157 18.157 0 0 1 3.585-.715 63.95 63.95 0 0 1-1.295 3.677c.02.236.032.473.039.711a15.08 15.08 0 0 1 5.844 0c.006-.238.018-.475.037-.711A64.93 64.93 0 0 1 22.89 31.7a18.157 18.157 0 0 1 3.587.715c.4.12.793.259 1.185.406a18.425 18.425 0 0 1 7.426 5.142c4.508-3.893 7.364-9.644 7.364-16.068 0-11.723-9.504-21.226-21.226-21.226C9.504.669-.001 10.172-.001 21.895c0 6.424 2.858 12.175 7.365 16.068a18.41 18.41 0 0 1 6.396-4.722" mask="url(#f)"/>
                </g>
                <path fill="#525353" d="M15.16 37.68c.996-.44 2.048-.777 3.143-.992a11.04 11.04 0 0 0-.036-.712 63.95 63.95 0 0 0 1.295-3.677 18.76 18.76 0 0 0-2.078.322 18.67 18.67 0 0 0-2.695.8l1.549.375-1.179 3.885zM11.512 39.969c.039-.396.062-.794.062-1.197 0-.243.198-.44.44-.44h.385l1.361-4.492a18.41 18.41 0 0 0-6.396 4.722c.99.856 2.061 1.621 3.2 2.285.303-.306.62-.6.948-.878M28.693 33.84l1.361 4.493h.386c.242 0 .438.196.438.439 0 .403.024.802.063 1.197.328.279.644.572.948.878a21.367 21.367 0 0 0 3.2-2.285 18.425 18.425 0 0 0-6.396-4.722M26.116 33.795l1.547-.374a18.678 18.678 0 0 0-2.694-.8 18.78 18.78 0 0 0-2.078-.321 65.281 65.281 0 0 0 1.295 3.677c-.02.234-.03.473-.037.71a14.99 14.99 0 0 1 3.145.993l-1.178-3.885z"/>
                <path fill="#000" d="M21.227 38.332h2.99c-.06-.552-.083-1.1-.068-1.645a15.1 15.1 0 0 0-5.846 0c.016.544-.007 1.093-.068 1.645h2.992zM10.565 40.846c.246.144.496.284.748.418.089-.425.156-.858.2-1.295-.33.279-.645.572-.948.877"/>
                <path fill="#000" d="M14.962 38.332h3.274c.06-.552.082-1.1.068-1.645a14.99 14.99 0 0 0-3.145.993l-.197.652zM30.941 39.969c.043.437.11.87.2 1.295.252-.133.501-.274.747-.417a15.124 15.124 0 0 0-.947-.878M27.491 38.332l-.197-.652a14.99 14.99 0 0 0-3.145-.993 12.15 12.15 0 0 0 .069 1.645h3.273z"/>
                <path fill="#AA9678" d="M14.962 38.332l.197-.652 1.178-3.885-1.547-.375c-.346.13-.69.269-1.03.42l-1.36 4.492H14.961zM27.294 37.68l.197.652h2.563l-1.361-4.492c-.34-.15-.684-.289-1.03-.42l-1.547.376 1.178 3.885z"/>
                <path fill="#C3B5A0" d="M12.444 39.24l.04-.03h-.038l-.002.03"/>
                <g transform="translate(11.415 38.648)">
                    <mask id="h" fill="#fff">
                        <use xlink:href="#g"/>
                    </mask>
                    <path fill="#C3B5A0" d="M9.812.562H1.069l-.039.03C1 1.42.89 2.233.71 3.024a21.144 21.144 0 0 0 9.102 2.048V.562z" mask="url(#h)"/>
                </g>
                <path fill="#AA9678" d="M30.007 39.21h-.038l.04.03-.002-.03"/>
                <g transform="translate(20.293 38.648)">
                    <mask id="j" fill="#fff">
                        <use xlink:href="#i"/>
                    </mask>
                    <path fill="#AA9678" d="M9.676.562H.934v4.511c3.258 0 6.344-.737 9.104-2.048A13.022 13.022 0 0 1 9.717.591l-.04-.029" mask="url(#j)"/>
                </g>
                <mask id="l" fill="#fff">
                    <use xlink:href="#k"/>
                </mask>
                <path fill="#776453" d="M21.226 39.21v-.439z" mask="url(#l)"/>
                <path fill="#8A7460" d="M30.941 39.969a12.486 12.486 0 0 1-.062-1.197.44.44 0 0 0-.44-.44H12.014a.44.44 0 0 0-.44.44 12.486 12.486 0 0 1-.261 2.492c.268.142.536.279.81.41.18-.792.292-1.605.321-2.434l.002-.03H30.008v.03c.03.829.142 1.642.322 2.433.274-.13.543-.267.81-.41a12.168 12.168 0 0 1-.199-1.294" mask="url(#l)"/>
                <path fill="#525353" d="M27.304 35.303" mask="url(#l)"/>
                <path fill="#AA9678" d="M27.793 35.788s0 .005.003.014l-.003-.014s-.216-.171-.489-.484c.273.313.489.484.489.484" mask="url(#l)"/>
                <path fill="#FFF" d="M34.278 16.582v.002-.002zM35.132 22.694v-.006.006" mask="url(#l)"/>
                <path fill="#BBBCBD" d="M35.36 17.771c-.004-.005-.008-.009-.01-.014a7.273 7.273 0 0 0-.546-.67l-.001-.003.001.002a.022.022 0 0 0-.005-.006v.001a5.089 5.089 0 0 0-.257-.263c-.032-.032-.066-.059-.1-.09-.054-.049-.108-.1-.164-.145v1.975l.757 3.462c.008.027.018.052.025.08l.524.586.005-.005h.548c0-.05.004-.102.004-.152v-.002a14.858 14.858 0 0 0-.781-4.756M35.133 22.688v-.005.005" mask="url(#l)"/>
                <path fill="#676A6A" d="M35.109 22.357l.002.017c.002.003.002.006.003.01.01.082.014.166.016.252 0 .015.003.03.003.046v.012c0 .017-.003.033-.004.05a2.229 2.229 0 0 1-.015.246v.001a.037.037 0 0 1-.003.012l-.002.019a2.515 2.515 0 0 1-.048.25v.002l.002-.002.001-.006v.002l.52-.581-.525-.587h.002c.02.082.036.168.048.257" mask="url(#l)"/>
                <path fill="#000" d="M34.31 22.493c-.178 0-.322-.246-.322-.55 0-.303.144-.549.321-.549.177 0 .32.246.32.55 0 .303-.143.549-.32.549m.8.529c0-.01.003-.02.006-.032.009-.08.012-.163.014-.246 0-.02.003-.037.003-.056l-.002-.052a2.298 2.298 0 0 0-.017-.251c0-.01-.003-.02-.005-.028a2.237 2.237 0 0 0-.048-.256c-.007-.03-.018-.055-.025-.083a1.67 1.67 0 0 0-.2-.433l-.034-.047a.815.815 0 0 0-.179-.188c-.013-.011-.029-.02-.045-.03a.594.594 0 0 0-.298-.096.517.517 0 0 0-.198.043.646.646 0 0 0-.101.054c-.016.01-.03.018-.045.029a.824.824 0 0 0-.11.101c-.024.027-.046.056-.069.087a1.582 1.582 0 0 0-.233.482 2.26 2.26 0 0 0-.06.259c-.005.025-.011.049-.015.074a2.625 2.625 0 0 0-.021.287l-.002.04h.003c0 .81.383 1.464.855 1.464.08 0 .158-.02.233-.057.011-.006.024-.012.036-.02a.661.661 0 0 0 .09-.06c.016-.013.031-.028.047-.043a.896.896 0 0 0 .107-.12c.023-.03.047-.06.068-.096.014-.021.026-.045.04-.068.023-.045.046-.092.066-.14l.023-.053a2.02 2.02 0 0 0 .115-.465" mask="url(#l)"/>
                <path fill="#FFF" d="M34.31 21.395c-.178 0-.322.246-.322.549 0 .303.144.549.321.549.177 0 .32-.246.32-.55 0-.302-.143-.548-.32-.548" mask="url(#l)"/>
                <path fill="#909393" d="M33.523 22.02a1.62 1.62 0 0 1 .2-.435c.01-.017.022-.032.033-.047.023-.03.045-.06.069-.087a.824.824 0 0 1 .11-.101c.014-.011.03-.02.044-.03a.599.599 0 0 1 .3-.096.517.517 0 0 1 .196.043c.036.014.07.032.103.054.015.01.03.018.044.029.039.03.075.063.11.101.025.027.046.056.07.087l.032.047c.081.121.15.268.2.435l-.755-3.462-.756 3.462z" mask="url(#l)"/>
                <path fill="#000" d="M22.263 22.42a.752.752 0 1 1 0-1.503.752.752 0 0 1 0 1.504m1.999.235a2.233 2.233 0 0 0-.014-.207l-.001-.003a2.05 2.05 0 0 0-.033-.196c0-.003 0-.004-.002-.005a1.864 1.864 0 0 0-.052-.188v-.005a2.203 2.203 0 0 0-.07-.18l-.003-.004a2.043 2.043 0 0 0-.446-.632 2.007 2.007 0 0 0-.985-.512l-.01-.001a1.895 1.895 0 0 0-.76-.002l-.014.002c-.12.024-.238.06-.35.105l-.01.004a2.01 2.01 0 0 0-.616.396l-.002.006-.007.001a2.018 2.018 0 0 0-.363.464l-.004.005c-.029.054-.057.108-.08.164-.005.005-.007.011-.01.018-.023.05-.043.104-.06.158-.004.01-.01.02-.012.03-.016.051-.03.103-.04.154-.004.015-.01.03-.012.044-.011.051-.018.103-.024.156l-.008.047a1.894 1.894 0 0 0 .027.595 2.039 2.039 0 0 0 .11.37c.002 0 .002.002.003.004a2.005 2.005 0 0 0 .871.985h.003c.053.03.109.058.166.083l.014.007c.052.022.106.041.16.06a2.367 2.367 0 0 0 .183.052c.013.003.027.008.041.01.05.01.103.018.156.025l.047.007a2.013 2.013 0 0 0 .987-.146 2.014 2.014 0 0 0 1.064-1.065c.101-.238.157-.502.157-.777l-.001-.014v-.015" mask="url(#l)"/>
                <path fill="#FFF" d="M22.263 20.918a.752.752 0 1 0 0 1.504.752.752 0 0 0 0-1.504" mask="url(#l)"/>
                <path fill="#BBBCBD" d="M20.887 21.236l.008-.002v-.007l1.38-4.212v-.499c-.002-.07-.002-.14-.002-.204V16.018a11.2 11.2 0 0 0-3.164-.214l-.117.007a11.85 11.85 0 0 0-4.004 1.04 12.821 12.821 0 0 0-2.99 1.915v.003c-.243.205-.475.422-.702.645l-.128.125c-.214.215-.42.437-.619.667-.044.05-.086.101-.13.15-.2.238-.395.479-.58.727l-.046.065c-.176.24-.343.486-.506.737-.032.048-.064.096-.095.146-.13.209-.252.42-.374.635h6.274l5.795-1.43z" mask="url(#l)"/>
                <path fill="#E2DDDB" d="M26.184 20.761a21.007 21.007 0 0 0 .055-1.162c.004-.172.002-.345.002-.518 0-.05.002-.1 0-.15a24.965 24.965 0 0 0-.05-1.34h-.002c0-.002 0-.003-.002-.004a.06.06 0 0 0-.014-.008l-.02-.013c-.082-.047-.283-.16-.465-.265l-.01-.005c-.047-.026-.09-.05-.13-.075h-.003l-.09-.05-.018-.01a12.7 12.7 0 0 0-.947-.45c-.713-.303-1.674-.566-2.216-.693v.997l1.365 4.22.002.002a2.074 2.074 0 0 1 .448.634c.027.06.05.12.07.181l.001.004c.02.062.038.124.052.188l.001.005c.016.065.026.13.035.198v.002c.007.068.012.136.014.207l.005.01h1.671c.113-.611.192-1.231.241-1.853l.005-.052" mask="url(#l)"/>
                <path fill="#FBB03F" d="M28.37 19.27l-.002.006.002-.007" mask="url(#l)"/>
                <path fill="#FBB03F" d="M24.276 28.679c.379-.377.737-.74 1.079-1.094.203-.21.4-.418.59-.624 1.397-1.516 2.423-2.936 3.04-4.76.015-.045.029-.1.043-.166l.006-.029c.015-.068.03-.144.043-.23.007-.059.012-.116.017-.17-.155-.796-.457-1.568-.722-2.332 0 .003.001.005.003.008l-.008-.006c-.05-.049-.104-.094-.156-.141a13.628 13.628 0 0 0-.48-.424c-.488-.412-1-.787-1.539-1.118.028.446.046.892.05 1.338v.15c0 .173 0 .347-.003.52a19.605 19.605 0 0 1-.06 1.212c-.05.623-.128 1.241-.24 1.854l-.197.928c-.41 1.663-1.243 3.171-1.928 4.729-.181.412-.354.83-.505 1.254l-.043.12c.214-.224.403-.418.547-.561.157-.155.312-.307.463-.458" mask="url(#l)"/>
                <path fill="#909393" d="M20.896 21.227c.09-.084.187-.16.29-.226V21a2.032 2.032 0 0 1 .687-.277l.013-.002c.121-.023.248-.037.377-.037a2.012 2.012 0 0 1 .75.147 2.01 2.01 0 0 1 .628.406l-.001-.004-1.366-4.218-1.378 4.212z" mask="url(#l)"/>
                <path fill="#676A6A" d="M20.411 23.439a2.039 2.039 0 0 1-.109-.36v-.01a2.028 2.028 0 0 1-.028-.594l.007-.047c.007-.052.014-.104.025-.156.003-.015.008-.03.012-.044.011-.051.024-.103.04-.154l.012-.03c.017-.055.038-.108.06-.159l.008-.017c.025-.056.052-.11.082-.164l.004-.005c.098-.173.221-.329.363-.463l-5.795 1.43h-.011l5.74 1.402a2.052 2.052 0 0 1-.408-.624c0-.003-.002-.004-.002-.005" mask="url(#l)"/>
                <path fill="#E2DDDB" d="M33.449 22.353c.003-.025.008-.05.014-.074a2.06 2.06 0 0 1 .054-.24l.005-.027.756-3.462v-1.974c-.618-.51-1.278-.789-1.967-.789-.87 0-1.682.481-2.29 1.075-.663.65-1.176 1.467-1.591 2.292a9.07 9.07 0 0 0-.057.111 28.761 28.761 0 0 1 1.211 1.131c.127.125.251.253.377.38.132.135.265.271.395.408.168.176.335.355.5.535l.207.227c.199.221.397.442.59.666.034.034.057.058.066.069h1.705c0-.014.003-.027.003-.041.001-.099.009-.194.022-.287M28.372 19.275l-.001-.005-.004.005.008.007c-.002-.002-.003-.005-.003-.007" mask="url(#l)"/>
                <path fill="#525353" d="M7.79 24.845l.015-.038c.11-.286.23-.57.356-.85l.108-.234c.104-.22.213-.438.327-.652l.139-.263c.026-.048.057-.093.083-.142.12-.214.243-.427.373-.635.032-.05.065-.096.097-.146a15.486 15.486 0 0 1 .551-.801 14.01 14.01 0 0 1 .71-.878 14.03 14.03 0 0 1 1.448-1.438l.002-.002c.954-3.194 3.871-5.52 7.323-5.52 1.39 0 2.773.4 3.957 1.126a7.746 7.746 0 0 1 2.848 3.1l.01.02c.016.031.034.062.05.095l.002.002a12.761 12.761 0 0 1 1.544 1.121c.162.138.322.28.479.424.052.048.105.093.156.141l.002-.005.003-.004c.016-.037.034-.073.052-.109.487-3.07 1.841-5.282 3.438-5.282 1.205 0 2.272 1.255 2.932 3.188l.007.02.002.003c.187.203.368.426.544.672v-.001l.012.014c.009.028.016.057.027.085l-.026-.1c-1.987-5.884-7.553-10.121-14.107-10.121-8.222 0-14.887 6.666-14.887 14.887 0 1.62.258 3.18.74 4.633 0-.003 0-.005.002-.009a15.592 15.592 0 0 1 .68-2.3" mask="url(#l)"/>
                <path fill="#FFF" d="M35.584 22.687l-.519.58-.001.004c-.02.076-.045.147-.071.216l-.022.053a2.861 2.861 0 0 1-.106.208c-.022.036-.046.066-.069.098a.969.969 0 0 1-.108.118l-.046.044a.79.79 0 0 1-.126.079.52.52 0 0 1-.233.057c-.472 0-.855-.655-.855-1.462h-1.714.002c.318.367.63.74.938 1.116l.012.014c.3.366.596.735.887 1.107.016.018.03.037.043.054.278.354.552.71.825 1.067l.078.104c.288.378.572.757.855 1.136l.007.008c.49-1.448.763-2.997.78-4.606h-.552l-.005.005z" mask="url(#l)"/>
                <path fill="#000" d="M18.992 15.81l.117-.007c.265-.019.532-.03.802-.03.807 0 1.596.087 2.362.244v.295l.001.085v-.38c.542.128 1.502.392 2.216.693.3.127.594.265.883.415l.064.035.018.01a8.442 8.442 0 0 0 .093.052l.13.074.01.006.465.265.02.012.014.007c-.015-.031-.034-.062-.05-.095l-.01-.019a7.757 7.757 0 0 0-2.848-3.1 7.63 7.63 0 0 0-3.956-1.126c-3.452 0-6.37 2.326-7.324 5.521a12.78 12.78 0 0 1 2.989-1.915 11.822 11.822 0 0 1 4.004-1.041" mask="url(#l)"/>
                <path stroke-linecap="round" stroke-linejoin="round" d="M22.274 16.396v.09" mask="url(#l)"/>
                <path fill="#000" d="M30.022 16.862c.608-.594 1.418-1.075 2.288-1.075.689 0 1.35.28 1.968.79v.006c.056.045.11.096.164.147.034.029.067.055.1.087.086.084.173.171.258.264v-.001c0 .002.003.005.005.006-.002 0-.002-.001-.002-.002l-.007-.02c-.66-1.934-1.729-3.19-2.932-3.19-1.598 0-2.952 2.213-3.439 5.283l.005-.004c.415-.824.929-1.642 1.592-2.291" mask="url(#l)"/>
                <path fill="#FFF" d="M15.923 36.409c.136.053.274.1.413.148 1.54.539 3.193.836 4.918.836a14.83 14.83 0 0 0 5.559-1.077c.091-.037.181-.077.27-.115.147-.063.292-.126.435-.193.128-.06.256-.118.383-.182-.03.004-.06.01-.091.013a6.117 6.117 0 0 1-1.583-.011c-3.063-.44-3.741-1.917-3.645-3.455a7.685 7.685 0 0 1-.672-.435c-2.357-1.71-3.754-3.531-3.754-3.531s1.817 1.403 4.531 2.453c.059.023.113.042.17.063.127-.437.277-.855.409-1.225l.043-.12c.15-.424.323-.843.504-1.255.685-1.557 1.519-3.065 1.928-4.728l.197-.928h-1.676v.017a1.984 1.984 0 0 1-.34 1.12 2.023 2.023 0 0 1-.88.723 2.011 2.011 0 0 1-.988.146c-.015-.001-.03-.005-.047-.007a2.068 2.068 0 0 1-.154-.025c-.014-.002-.028-.007-.042-.01a2.14 2.14 0 0 1-.155-.042c-.009-.002-.018-.006-.027-.01a1.777 1.777 0 0 1-.342-.15h-.001a2.05 2.05 0 0 1-.466-.36l-5.739-1.402H8.817c-.026.048-.056.094-.082.14-.048.088-.093.175-.139.263-.114.216-.223.432-.327.653l-.108.234c-.126.28-.246.563-.356.85l-.015.039a15.75 15.75 0 0 0-.681 2.3 14.917 14.917 0 0 0 5.412 7.413c.073.054.15.102.224.153a14.685 14.685 0 0 0 3.178 1.697" mask="url(#l)"/>
                <path fill="#9F2255" d="M26.202 31.785a4.033 4.033 0 0 0 .113 1.726 4.504 4.504 0 0 0 .635 1.334 4.535 4.535 0 0 0 .354.458c.272.314.488.485.488.485l.005.014.013.038c.03-.004.06-.01.091-.013a9.422 9.422 0 0 0 1.993-.5c.336-.121.67-.253 1-.403.1-.047.2-.098.3-.146 3.409-1.649 6.264-4.566 6.264-4.566-4.283 2.106-8.471 2.022-11.256 1.573" mask="url(#l)"/>
                <path fill="#E2056E" d="M34.42 26.04a108.71 108.71 0 0 0-.823-1.067 73.694 73.694 0 0 0-.93-1.162l-.012-.013a56.043 56.043 0 0 0-.94-1.116l-.061-.07a41.81 41.81 0 0 0-.591-.666c-.068-.076-.137-.152-.208-.227-.164-.18-.331-.358-.498-.535-.131-.137-.264-.272-.397-.407-.125-.127-.249-.257-.376-.381-.274-.269-.55-.535-.832-.793a13.64 13.64 0 0 0-.38-.337l-.002.004c.27.772.576 1.555.73 2.361.04.21.073.415.1.613.375 2.791-.519 4.613-1.94 7.01l-.313.525a5.662 5.662 0 0 0-.653 1.535c-.04.16-.07.318-.092.471 2.785.45 6.973.533 11.257-1.572 0 0-.84-1.236-2.105-2.933a115.613 115.613 0 0 0-.934-1.24" mask="url(#l)"/>
                <path fill="#000" d="M27.793 35.788s-.216-.171-.489-.484a4.348 4.348 0 0 1-.355-.458l-.104-.158a4.477 4.477 0 0 1-.637-1.651 4.144 4.144 0 0 1-.006-1.252c.022-.153.052-.31.091-.471a5.726 5.726 0 0 1 .656-1.54c.107-.176.21-.35.312-.52 1.42-2.397 2.314-4.22 1.94-7.01-.028-.198-.061-.403-.1-.613-.022.145-.044.27-.067.375l-.006.03c-.014.063-.028.12-.043.164-.617 1.826-1.643 3.245-3.04 4.762-.19.205-.387.413-.59.624-.342.354-.7.715-1.08 1.093l-.462.458a30.79 30.79 0 0 0-.547.562c-.132.369-.283.786-.41 1.225-.057-.023-.11-.042-.168-.063-2.716-1.05-4.533-2.453-4.533-2.453s1.399 1.82 3.754 3.53c.228.164.453.308.673.436-.097 1.537.583 3.015 3.646 3.455a6.222 6.222 0 0 0 1.581.011c-.005-.016-.009-.03-.013-.038l-.003-.014" mask="url(#l)"/>
            </g>
        </g>
    </g>
</svg>
