<svg xmlns="http://www.w3.org/2000/svg" xmlns:xlink="http://www.w3.org/1999/xlink" width="20" height="20" viewBox="0 0 20 20">
    <defs>
        <path id="a" d="M0 10.492l1.238-1.237 1.2 1.201-1.236 1.238L0 10.492zm2.274-2.274l1.237-1.237 1.201 1.202L3.475 9.42 2.274 8.218zm6.98 2.237l1.203-1.2 1.237 1.237-1.201 1.201-1.238-1.238zm-1.07-3.474L9.42 8.218 8.218 9.42 6.981 8.182l1.202-1.2zm2.308-6.98l1.201 1.2-1.238 1.238-1.2-1.202L10.491 0zM9.42 3.475L8.183 4.713 6.982 3.51l1.237-1.237 1.2 1.202zM0 1.202L1.202 0l1.237 1.237L1.237 2.44 0 1.202zm3.511 3.51L2.274 3.477l1.202-1.201 1.237 1.237-1.202 1.2zm2.336-.183l1.317 1.318-1.317 1.318L4.53 5.847l1.318-1.318z"/>
    </defs>
    <g fill="none" fill-rule="evenodd" transform="translate(4 4)">
        <mask id="b" fill="#fff">
            <use xlink:href="#a"/>
        </mask>
        <use fill="#221E1F" xlink:href="#a"/>
        <g fill="#777" mask="url(#b)">
            <path d="M-4-4h20v20H-4z"/>
        </g>
    </g>
</svg>
