<svg xmlns="http://www.w3.org/2000/svg" xmlns:xlink="http://www.w3.org/1999/xlink" viewBox="0 0 44 44"><defs><style>.cls-1{fill:none;}.cls-2{clip-path:url(#clip-path);}.cls-3{fill:#fff;}.cls-4{fill:#222;}</style><clipPath id="clip-path"><rect class="cls-1" x="234.23" y="-179.45" width="896" height="64.1"/></clipPath></defs><title>Artboard 2 copy 5</title><g id="Layer_1" data-name="Layer 1"><g class="cls-2"><image width="2992" height="1378" transform="translate(22.98 -491.23) scale(0.43)" xlink:href="../ikona_photo_video_lapai/image-2018-08-08-17-07-26-084.png"/></g><polygon class="cls-3" points="28.42 12.36 18.07 22.7 27.44 32.52 38.01 21.95 28.42 12.36"/><path class="cls-4" d="M27.42,34,16.68,22.68,28.42,10.94l11,11Zm-8-11.23,8,8.37L36.59,22l-8.17-8.18Z"/><rect class="cls-3" x="32.61" y="7.3" width="4.91" height="16.45" transform="translate(-0.71 29.34) rotate(-45)"/><path class="cls-4" d="M39.14,24.49l-13-13L31,6.56l13,13Zm-10.21-13L39.14,21.66,41.2,19.6,31,9.39Z"/><rect class="cls-3" x="0.71" y="12.92" width="16.45" height="4.91" transform="translate(-8.26 10.82) rotate(-45)"/><path class="cls-4" d="M4.86,24.34,0,19.45l13-13L17.9,11.3ZM2.8,19.45l2.06,2.06L15.07,11.3,13,9.24Z"/><path class="cls-3" d="M21.61,15.24,15.2,12.58,5.76,22,20.43,36.53l0,.06,1.83,1.83a1.92,1.92,0,0,0,2.7,0l.1-.11a1.9,1.9,0,0,0,0-2.7L23.46,34h0l1.73,1.73a1.92,1.92,0,0,0,2.7,0l.1-.11a1.9,1.9,0,0,0,0-2.7l-1.79-1.78,0,0,1.86,1.87a1.92,1.92,0,0,0,2.7,0l.1-.11a1.9,1.9,0,0,0,0-2.7L29,28.21h0l2,2a1.92,1.92,0,0,0,2.7,0l.1-.11a1.9,1.9,0,0,0,0-2.7l-2.53-2.53,0,0-9.63-9.64"/><path class="cls-4" d="M23.65,40a2.89,2.89,0,0,1-2.06-.85l-1.92-1.93L4.35,22,15,11.4l7.2,3L34.5,26.69a2.92,2.92,0,0,1,0,4.11l-.11.1a2.87,2.87,0,0,1-2,.85,2.86,2.86,0,0,1-.84,1.79l-.1.1a2.89,2.89,0,0,1-1.95.85,2.91,2.91,0,0,1-.84,1.79l-.11.1a2.87,2.87,0,0,1-2,.85A2.91,2.91,0,0,1,25.81,39l-.1.1A2.89,2.89,0,0,1,23.65,40ZM7.18,22,23,37.71a.91.91,0,0,0,1.28,0l.11-.11a.91.91,0,0,0,0-1.28L22.05,34l1.39-1.44.74.7L25.91,35a.91.91,0,0,0,1.28,0l.1-.11a.89.89,0,0,0,0-1.28l-2.46-2.47,1.36-1.46,2.61,2.58a.91.91,0,0,0,1.28,0l.11-.11a.92.92,0,0,0,0-1.28l-2.61-2.61L29,26.77l.74.72,2,2a.92.92,0,0,0,1.29,0l.1-.11a.89.89,0,0,0,0-1.28l-12-12-5.6-2.33Z"/><path class="cls-3" d="M9.51,25.65h3.33A1.39,1.39,0,0,1,14.22,27v1.15a1.39,1.39,0,0,1-1.39,1.39H9.51a.72.72,0,0,1-.72-.72V26.37A.72.72,0,0,1,9.51,25.65Z" transform="translate(-16.15 16.22) rotate(-45)"/><path class="cls-4" d="M11,31.62a1.75,1.75,0,0,1-1.22-.5L8,29.36a1.72,1.72,0,0,1,0-2.43l2.35-2.36a2.4,2.4,0,0,1,3.38,0l.81.82a2.38,2.38,0,0,1,0,3.37l-2.35,2.36A1.75,1.75,0,0,1,11,31.62ZM9.61,28.14,11,29.51l2.16-2.16a.41.41,0,0,0,.11-.27.44.44,0,0,0-.11-.28L12.31,26a.33.33,0,0,0-.55,0Z"/><path class="cls-3" d="M12.53,29h3.33a1.39,1.39,0,0,1,1.39,1.39v1.15a1.39,1.39,0,0,1-1.39,1.39H12.53a.72.72,0,0,1-.72-.72V29.69a.72.72,0,0,1,.72-.72Z" transform="translate(-17.62 19.33) rotate(-45)"/><path class="cls-4" d="M14,34.94a1.74,1.74,0,0,1-1.22-.5L11,32.68a1.72,1.72,0,0,1,0-2.43l2.35-2.35a2.43,2.43,0,0,1,3.38,0l.81.81a2.39,2.39,0,0,1,0,3.38l-2.35,2.35A1.74,1.74,0,0,1,14,34.94Zm-1.36-3.47L14,32.83l2.16-2.16a.37.37,0,0,0,.11-.27.39.39,0,0,0-.11-.28l-.82-.81a.33.33,0,0,0-.55,0Z"/><path class="cls-3" d="M15.7,32.14H19a1.39,1.39,0,0,1,1.39,1.39v1.15A1.39,1.39,0,0,1,19,36.07H15.7a.72.72,0,0,1-.72-.72V32.86a.72.72,0,0,1,.72-.72Z" transform="translate(-18.93 22.5) rotate(-45)"/><path class="cls-4" d="M17.16,38.11a1.71,1.71,0,0,1-1.22-.5l-1.75-1.75a1.71,1.71,0,0,1,0-2.44l2.35-2.35a2.45,2.45,0,0,1,3.38,0l.81.81a2.39,2.39,0,0,1,0,3.38l-2.35,2.35A1.71,1.71,0,0,1,17.16,38.11ZM15.8,34.64,17.16,36l2.16-2.16a.39.39,0,0,0,0-.54l-.82-.82a.32.32,0,0,0-.54,0Z"/><path class="cls-3" d="M25.1,17.94l-2.72,2.87a4.16,4.16,0,0,1-.91,2.87c-2.72,2.12-4.38.76-4.38.76l1.1-5.7L23,13.94l4.79-1.2.65-.38L38,22l-4,4.33"/><path class="cls-4" d="M34.71,27,33.25,25.6,36.62,22l-8.36-8.36-.25.1-4.52,1.13-4.38,4.39-.89,4.61A3.4,3.4,0,0,0,20.77,23a3.2,3.2,0,0,0,.61-2.06l0-.45,3-3.19,1.45,1.37L23.39,21.2a5.23,5.23,0,0,1-1.17,3.14l-.13.13c-3.32,2.58-5.54.82-5.63.74L16,24.83l1.26-6.58L22.47,13l4.92-1.24,1.19-.7L39.4,21.92Z"/></g></svg>