<?xml version="1.0" encoding="UTF-8" standalone="no"?>
<svg width="170px" height="45px" viewBox="0 0 170 45" version="1.1" xmlns="http://www.w3.org/2000/svg" xmlns:xlink="http://www.w3.org/1999/xlink">
    <!-- Generator: Sketch 41.1 (35376) - http://www.bohemiancoding.com/sketch -->
    <title>Artboard Copy</title>
    <desc>Created with Sketch.</desc>
    <defs></defs>
    <g id="Page-1" stroke="none" stroke-width="1" fill="none" fill-rule="evenodd">
        <g id="Artboard-Copy" fill="#F0473D">
            <path d="M5.68096918,41.3174779 C5.74475902,41.259532 5.88280467,41.1366294 6.09331945,40.9531045 C6.45197063,40.6404357 6.87954753,40.2757833 7.37425971,39.8634811 C8.7970023,38.6777415 10.4670136,37.3531944 12.3699145,35.9244962 C17.8193345,31.833071 24.0299155,27.7384369 30.8854002,23.9171682 C47.0083893,14.9301634 64.1062797,8.86515705 81.6037176,7.05399973 C103.565799,4.7807078 124.855051,9.3799767 145.01003,22.202371 C150.233379,25.5254129 155.36021,29.3920562 160.383872,33.8208101 C161.419579,34.7338681 162.999366,34.634441 163.912424,33.5987334 C164.825482,32.5630257 164.726055,30.983239 163.690347,30.070181 C158.473605,25.4712107 153.138941,21.4478211 147.693886,17.9837317 C126.558541,4.53763828 104.140491,-0.305492842 81.0889188,2.08057212 C62.8491719,3.96856574 45.1247816,10.2558057 28.4510219,19.5498117 C21.3876725,23.4869449 14.9900671,27.7048842 9.36786734,31.9260324 C7.39570132,33.4067349 5.65950704,34.7837741 4.17314528,36.0225351 C3.64967093,36.4588082 3.19392657,36.8474828 2.80765174,37.1842337 C2.57121091,37.3903607 2.40775617,37.535885 2.31903082,37.616482 C1.29702903,38.5448556 1.22112842,40.1259473 2.14950207,41.1479491 C3.07787571,42.1699509 4.6589674,42.2458515 5.68096918,41.3174779 Z" id="Path-2"></path>
            <path d="M143.599033,35.3465289 C142.229686,35.523313 141.262922,36.7767004 141.439706,38.1460479 C141.61649,39.5153955 142.869878,40.4821591 144.239225,40.3053749 L168.698982,37.1475955 L166.285437,11.0710752 C166.158188,9.69623969 164.940507,8.68487146 163.565672,8.81212108 C162.190836,8.9393707 161.179468,10.1570513 161.306717,11.5318869 L163.275792,32.8062394 L143.599033,35.3465289 Z" id="Path-3"></path>
        </g>
    </g>
</svg>