<?xml version="1.0" encoding="UTF-8"?>
<svg width="80px" height="100px" viewBox="0 0 80 100" version="1.1" xmlns="http://www.w3.org/2000/svg" xmlns:xlink="http://www.w3.org/1999/xlink">
    <!-- Generator: Sketch 52.5 (67469) - http://www.bohemiancoding.com/sketch -->
    <title>Artboard Copy 7</title>
    <desc>Created with Sketch.</desc>
    <g id="Artboard-Copy-7" stroke="none" stroke-width="1" fill="none" fill-rule="evenodd">
        <g id="file-alert-outline-copy" fill="#F0473C" fill-rule="nonzero">
            <path d="M30,80 L20,80 L20,70 L30,70 L30,80 Z M30,60 L20,60 L20,35 L30,35 L30,60 Z M50,0 L10,0 C4.4771525,0 0,4.4771525 0,10 L0,90 C0,95.5228475 4.4771525,100 10,100 L70,100 C75.5228475,100 80,95.5228475 80,90 L80,30 L50,0 Z M70,90 L10,90 L10,10 L45,10 L45,35 L70,35 L70,90 Z" id="Shape"></path>
        </g>
    </g>
</svg>