<?xml version="1.0" encoding="UTF-8"?>
<svg width="24px" height="48px" viewBox="0 0 24 48" version="1.1" xmlns="http://www.w3.org/2000/svg" xmlns:xlink="http://www.w3.org/1999/xlink">
    <!-- Generator: Sketch 48.2 (47327) - http://www.bohemiancoding.com/sketch -->
    <title>ic_signin_24@3x</title>
    <desc>Created with Sketch.</desc>
    <defs></defs>
    <g id="00-dash" stroke="none" stroke-width="1" fill="none" fill-rule="evenodd" transform="translate(-388.000000, -7.000000)">
        <g id="ic_signin_24" transform="translate(388.000000, 7.000000)">
            <polygon id="Shape" fill-opacity="0.01" fill="#FFFFFF" points="0 0 24 0 24 24 0 24"></polygon>
            <polygon id="Shape-Copy-2" fill-opacity="0.01" fill="#FFFFFF" points="0 24 24 24 24 48 0 48"></polygon>
            <path d="M12,12 C14.21,12 16,10.21 16,8 C16,5.79 14.21,4 12,4 C9.79,4 8,5.79 8,8 C8,10.21 9.79,12 12,12 Z M12,14 C9.33,14 4,15.34 4,18 L4,20 L20,20 L20,18 C20,15.34 14.67,14 12,14 Z" id="Shape" fill="#A6A6A6" fill-rule="nonzero"></path>
            <path d="M12,36 C14.21,36 16,34.21 16,32 C16,29.79 14.21,28 12,28 C9.79,28 8,29.79 8,32 C8,34.21 9.79,36 12,36 Z M12,38 C9.33,38 4,39.34 4,42 L4,44 L20,44 L20,42 C20,39.34 14.67,38 12,38 Z" id="Shape-Copy-3" fill="#808080" fill-rule="nonzero"></path>
        </g>
    </g>
</svg>