<?xml version="1.0" encoding="UTF-8"?>
<svg width="24px" height="48px" viewBox="0 0 24 48" version="1.1" xmlns="http://www.w3.org/2000/svg" xmlns:xlink="http://www.w3.org/1999/xlink">
    <!-- Generator: Sketch 48.2 (47327) - http://www.bohemiancoding.com/sketch -->
    <title>ic_signup_24@3x</title>
    <desc>Created with Sketch.</desc>
    <defs></defs>
    <g id="00-dash" stroke="none" stroke-width="1" fill="none" fill-rule="evenodd" transform="translate(-419.000000, -7.000000)">
        <g id="ic_signup_24" transform="translate(419.000000, 7.000000)">
            <polygon id="Shape" fill-opacity="0.01" fill="#FFFFFF" points="0 0 24 0 24 24 0 24"></polygon>
            <polygon id="Shape-Copy-4" fill-opacity="0.01" fill="#FFFFFF" points="0 24 24 24 24 48 0 48"></polygon>
            <path d="M15,12 C17.21,12 19,10.21 19,8 C19,5.79 17.21,4 15,4 C12.79,4 11,5.79 11,8 C11,10.21 12.79,12 15,12 Z M6,10 L6,7 L4,7 L4,10 L1,10 L1,12 L4,12 L4,15 L6,15 L6,12 L9,12 L9,10 L6,10 Z M15,14 C12.33,14 7,15.34 7,18 L7,20 L23,20 L23,18 C23,15.34 17.67,14 15,14 Z" id="Shape" fill="#A6A6A6" fill-rule="nonzero"></path>
            <path d="M15,36 C17.21,36 19,34.21 19,32 C19,29.79 17.21,28 15,28 C12.79,28 11,29.79 11,32 C11,34.21 12.79,36 15,36 Z M6,34 L6,31 L4,31 L4,34 L1,34 L1,36 L4,36 L4,39 L6,39 L6,36 L9,36 L9,34 L6,34 Z M15,38 C12.33,38 7,39.34 7,42 L7,44 L23,44 L23,42 C23,39.34 17.67,38 15,38 Z" id="Shape-Copy-5" fill="#808080" fill-rule="nonzero"></path>
        </g>
    </g>
</svg>