<?xml version="1.0" encoding="UTF-8"?>
<svg width="336px" height="336px" viewBox="0 0 336 150" version="1.1" xmlns="http://www.w3.org/2000/svg" xmlns:xlink="http://www.w3.org/1999/xlink">
    <!-- Generator: Sketch 46.2 (44496) - http://www.bohemiancoding.com/sketch -->
    <title>Slice</title>
    <desc>Created with Sketch.</desc>
    <defs></defs>
    <g id="Page-1" stroke="none" stroke-width="1" fill="none" fill-rule="evenodd">
        <g id="ebay-(1)" transform="translate(22.000000, 17.000000)" fill-rule="nonzero">
            <path d="M37.9601033,25.6951233 C17.30751,25.6951233 0.0976666667,34.4558233 0.0976666667,60.8902833 C0.0976666667,81.83197 11.67019,95.0189233 38.4923867,95.0189233 C70.0641133,95.0189233 72.0877667,74.2217833 72.0877667,74.2217833 L56.7902367,74.2217833 C56.7902367,74.2217833 53.51059,85.4202433 37.55967,85.4202433 C24.56805,85.4202433 15.22428,76.6439167 15.22428,64.3437767 L73.6885233,64.3437767 L73.6885233,56.6242033 C73.6885233,44.4549367 65.96309,25.6951233 37.9601033,25.6951233 L37.9601033,25.6951233 Z M37.4258667,35.5604333 C49.79242,35.5604333 58.2230067,43.1364367 58.2230067,54.4911633 L15.5622067,54.4911633 C15.5622067,42.4361667 26.5672867,35.5604333 37.4258667,35.5604333 Z" id="Shape" fill="#E53238"></path>
            <path d="M73.67778,0.0976666667 L73.67778,81.74407 C73.67778,86.3783533 73.34669,92.8858833 73.34669,92.8858833 L87.9371133,92.8858833 C87.9371133,92.8858833 88.4615833,88.2125333 88.4615833,83.9405933 C88.4615833,83.9405933 95.67036,95.21914 115.27206,95.21914 C135.912933,95.21914 149.93396,80.8875333 149.93396,60.3570233 C149.93396,41.2563533 137.055633,25.8943633 115.305267,25.8943633 C94.93786,25.8943633 88.60906,36.8926067 88.60906,36.8926067 L88.60906,0.0976666667 L73.67778,0.0976666667 Z M111.53924,35.9930967 C125.55636,35.9930967 134.470397,46.39655 134.470397,60.3570233 C134.470397,75.32737 124.175353,85.1204067 111.639837,85.1204067 C96.6792567,85.1204067 88.60906,73.4384967 88.60906,60.48985 C88.60906,48.42411 95.8500667,35.9930967 111.53924,35.9930967 L111.53924,35.9930967 Z" id="Shape" fill="#0064D2"></path>
            <path d="M186.196617,25.6951233 C155.126897,25.6951233 153.134497,42.7067033 153.134497,45.4257433 L168.599037,45.4257433 C168.599037,45.4257433 169.40967,35.49402 185.130097,35.49402 C195.345053,35.49402 203.260937,40.1703 203.260937,49.1585633 L203.260937,52.3581233 L185.130097,52.3581233 C161.060147,52.3581233 148.335157,59.39989 148.335157,73.6895 C148.335157,87.7515467 160.09227,95.4027533 175.98166,95.4027533 C197.636313,95.4027533 204.611667,83.43761 204.611667,83.43761 C204.611667,88.1969067 204.977917,92.88686 204.977917,92.88686 L218.725477,92.88686 C218.725477,92.88686 218.193193,87.07374 218.193193,83.3545933 L218.193193,51.2085867 C218.193193,30.1301667 201.19138,25.6951233 186.196617,25.6951233 L186.196617,25.6951233 Z M203.260937,61.9568033 L203.260937,66.2228833 C203.260937,71.7869533 199.826977,85.62046 179.613883,85.62046 C168.54532,85.62046 163.799697,80.0964333 163.799697,73.6885233 C163.799697,62.0320067 179.780893,61.9568033 203.260937,61.9568033 Z" id="Shape" fill="#F5AF02"></path>
            <polygon id="Shape" fill="#86B817" points="209.865157 28.3633767 227.26252 28.3633767 252.231003 78.38629 277.141863 28.3633767 292.902333 28.3633767 247.527377 117.41975 230.99534 117.41975 244.088533 92.59386"></polygon>
        </g>
    </g>
</svg>