<svg xmlns="http://www.w3.org/2000/svg" xmlns:xlink="http://www.w3.org/1999/xlink" width="56" height="56" viewBox="0 0 56 56">
    <defs>
        <path id="a" d="M0 0h45.883v32.715H0z"/>
    </defs>
    <g fill="none" fill-rule="evenodd" transform="translate(5 10)">
        <mask id="b" fill="#fff">
            <use xlink:href="#a"/>
        </mask>
        <path fill="#FF8C44" d="M45.759 17.134c-.813-2.094-4.228-.124-2.961 1.46 1.308 1.61 3.65.344 2.96-1.46M1.605 7.672C.034 7.245-.682 9.517.847 9.93c1.556.426 2.314-1.832.757-2.26m1.873 17.74a.487.487 0 0 0-.688.096.487.487 0 0 0 .096.689.296.296 0 0 1 .07.041c.22.165.522.124.688-.096a.487.487 0 0 0-.166-.73m23.537.633c-.633-.358-1.225.565-.537.84.813.345 1.144-.496.537-.84m-1.487 1.832a1.243 1.243 0 0 0-1.57.785c-.22.647.138 1.35.785 1.57.096.028.193.055.29.055.647.22 1.349-.138 1.57-.785a1.244 1.244 0 0 0-.786-1.57 1.072 1.072 0 0 0-.289-.055m.91-11.817a.78.78 0 0 0 .963-.496.78.78 0 0 0-.496-.964c-.055-.013-.096-.027-.151-.027a.78.78 0 0 0-.964.496.78.78 0 0 0 .496.964c.055.013.11.027.151.027M8.518 22.064a1.438 1.438 0 0 1 1.543-1.336c.757.055 1.35.689 1.35 1.446-.042 1.598-2.976 1.377-2.893-.11m-1.46-6.087c-3.663 2.837-4.09 6.486-2.465 8.36 3.512 4.035 7.478 2.602 8.553 6.294.495 1.707 1.28 2.286 2.024 2.024.937-.33.386-1.9-1.253-3.154-1.487-1.143.909-.716 3.264-1.13 5.178-.908 7.768-2.836 9.503-4.42 3.457-3.182 4.751-.592 10.935 2.782 3.664 1.997 8.8.62 8.154-1.35-.538-1.666-3.1-.95-5.165-.468-3.801.909-8.057-1.777-7.038-4.366.592-1.501 3.457-.799 5.73-1.17 1.873-.304.977-2.52-1.226-1.584-1.722.716-5.027 1.997-3.36-1.212 1.666-3.21 6.555-3.333 7.23-5.22.675-1.887-2.493-3.016-5.399-.537s-3.663 6.666-6.377 8.194c-2.19 1.212-3.787-2.066-6.844-3.897a14.245 14.245 0 0 0-4.67-1.832 2.092 2.092 0 0 1-1.735-1.708 4.832 4.832 0 0 1 2.108-4.228c1.046-.73 1.597-1.501 1.074-2.093-.868-.978-2.769.4-3.292 1.68-1.226 3.03-.51 5.261-1.983 5.385-1.06.083-1.501-.262-2.052-3.994a11.777 11.777 0 0 1 .303-4.6c.248-1.088.564-2.713-.592-3.457-1.226-.799-2.37.275-2.507 1.446a12.097 12.097 0 0 0 .689 4.256c.454 1.611 2.3 6.432.248 7.12-1.846.606-1.901-2.19-3.168-3.773-.964-1.212-3.14-2.039-3.691-.91-.358.73.317 1.42 1.446 1.543a2.485 2.485 0 0 1 2.314 1.804c.303 1.143.647 3.168-.758 4.215" mask="url(#b)"/>
    </g>
</svg>
