<svg xmlns="http://www.w3.org/2000/svg" xmlns:xlink="http://www.w3.org/1999/xlink" width="304" height="87" viewBox="0 0 304 87">
    <defs>
        <path id="a" d="M.364.405H5.84v2.842H.364z"/>
        <path id="c" d="M.364.405H5.84v2.842H.364z"/>
    </defs>
    <g fill="none" fill-rule="evenodd">
        <path fill="#F2C994" d="M296.513 62.286c3.8-.863 6.275 1.29 6.275 1.29l.103-4.123s-5.06-1.6-7.866-.289c-2.332 1.09-2.897 3.821-2.667 6.176.049 3.12 2.768 7.463 3.532 8.622-.74 1.43-2.216 2.845-5.159 2.469l1.072 2.088-1.418 1.743s4.684-.361 5.954-3.113c1.268-2.753.288-5.789.288-5.789v.001c-.255-.864-.724-1.957-1.41-3.377a20.838 20.838 0 0 1-1.455-3.989c.563-.743 1.426-1.407 2.75-1.709"/>
        <path fill="#21BBB5" d="M295.03 10.083s1.691-1.021 2.641-2.878c0 0 1.735.604 2.553.147 0 0-.893 4.507-5.194 2.731"/>
        <path fill="#EC4742" d="M192.732 20.222s1.874-.622 3.21-2.222c0 0 1.559.974 2.457.71 0 0-1.864 4.197-5.667 1.512M251.153 31.053s1.874-.622 3.21-2.222c0 0 1.558.975 2.457.71 0 0-1.864 4.198-5.667 1.512M206.598 9s-.769 2.687-2.938 4.664c0 0 1.449 2.155 1.127 3.442 0 0 5.778-2.86 1.81-8.106M273.28 12.66s3.543.397 5.382-1.067c0 0 3.069 3.46 7.302 4.374 0 0-1.5 1.92-5.141 2.004 0 0-5.515-1.633-7.543-5.311"/>
        <path fill="#21BBB5" d="M268.235 42s2.247 1.596 4.034 1.296c0 0 .788 3.49 3.31 5.692 0 0-1.726.737-4.219-.57 0 0-3.12-3.172-3.125-6.418"/>
        <path fill="#EC4742" d="M297.515 35.226s1.874-.622 3.21-2.222c0 0 1.559.975 2.457.71 0 0-1.864 4.198-5.667 1.512M161.935 8.221s1.874-.621 3.21-2.221c0 0 1.558.974 2.457.71 0 0-1.864 4.197-5.667 1.511"/>
        <path fill="#17BCB5" d="M244.144 40.719s.703 1.852 2.353 3.118c0 0-.897 1.612-.593 2.502 0 0-4.255-1.672-1.76-5.62"/>
        <path fill="#F8D9B3" d="M225.851 29.725s.77-2.687 2.938-4.665c0 0-1.449-2.155-1.127-3.442 0 0-5.778 2.86-1.81 8.107"/>
        <path fill="#21BBB5" d="M282.101 64s-.769 2.687-2.938 4.664c0 0 1.45 2.156 1.127 3.442 0 0 5.779-2.86 1.811-8.106"/>
        <path fill="#F2C994" d="M270 59.978s-1.551-.174-2.196-.978c0 0-1.645 1.18-3.543 1.159 0 0 .456.967 2.004 1.357 0 0 2.514-.163 3.736-1.538M233.39 10.219s-1.553-.175-2.197-.98c0 0-1.646 1.182-3.543 1.16 0 0 .455.967 2.003 1.357 0 0 2.515-.163 3.736-1.537M218.069 22.157s-1.272.297-2.004-.157c0 0-.97 1.392-2.47 1.905 0 0 .627.635 1.956.509 0 0 1.937-.832 2.518-2.257"/>
        <path fill="#21BBB5" d="M295.047 46.557s-.73.712-1.4.704c0 0-.09 1.32-.885 2.27 0 0 .673.17 1.51-.45 0 0 .96-1.338.775-2.524"/>
        <path fill="#EC4742" d="M192.623 7s-.918.894-1.76.885c0 0-.111 1.658-1.111 2.851 0 0 .847.214 1.897-.566 0 0 1.206-1.68.974-3.17"/>
        <g transform="translate(264.534 .05)">
            <mask id="b" fill="#fff">
                <use xlink:href="#a"/>
            </mask>
            <path fill="#EC4742" d="M5.84.749S4.3 1.003 3.46.404c0 0-1.264 1.585-3.096 2.08 0 0 .7.807 2.296.76 0 0 2.376-.84 3.18-2.495" mask="url(#b)"/>
        </g>
        <path fill="#F2C994" d="M248.193 7.8s2.247 1.595 4.033 1.295c0 0 .789 3.49 3.31 5.692 0 0-1.726.738-4.218-.57 0 0-3.12-3.172-3.125-6.418"/>
        <g>
            <path fill="#F2C994" d="M13.448 62.286c-3.8-.863-6.275 1.29-6.275 1.29l-.104-4.123s5.061-1.6 7.867-.289c2.332 1.09 2.897 3.821 2.667 6.176-.049 3.12-2.768 7.463-3.532 8.622.74 1.43 2.216 2.845 5.159 2.469l-1.072 2.088 1.418 1.743s-4.685-.361-5.954-3.113c-1.269-2.753-.288-5.789-.288-5.789v.001c.255-.864.724-1.957 1.41-3.377a20.838 20.838 0 0 0 1.455-3.989c-.563-.743-1.426-1.407-2.751-1.709"/>
            <path fill="#21BBB5" d="M8.97 10.083S7.279 9.062 6.329 7.205c0 0-1.735.604-2.553.147 0 0 .893 4.507 5.194 2.731"/>
            <path fill="#EC4742" d="M6.61 85.672s-1.874-.622-3.211-2.222c0 0-1.558.975-2.457.71 0 0 1.864 4.198 5.668 1.512M52.847 31.053s-1.874-.622-3.21-2.222c0 0-1.558.975-2.457.71 0 0 1.864 4.198 5.667 1.512M101.376 26s.769 2.687 2.938 4.664c0 0-1.45 2.155-1.127 3.442 0 0-5.779-2.86-1.811-8.106M128.2 8s.768 2.687 2.937 4.664c0 0-1.449 2.155-1.127 3.442 0 0-5.778-2.86-1.81-8.106M30.72 12.66s-3.543.397-5.382-1.067c0 0-3.069 3.46-7.302 4.374 0 0 1.5 1.92 5.141 2.004 0 0 5.515-1.633 7.543-5.311"/>
            <path fill="#21BBB5" d="M35.765 42s-2.247 1.596-4.034 1.296c0 0-.788 3.49-3.31 5.692 0 0 1.726.737 4.219-.57 0 0 3.12-3.172 3.125-6.418"/>
            <path fill="#EC4742" d="M6.485 35.226s-1.874-.622-3.21-2.222c0 0-1.559.975-2.457.71 0 0 1.864 4.198 5.667 1.512M105.307 18.221s-1.874-.621-3.21-2.221c0 0-1.558.974-2.457.71 0 0 1.864 4.197 5.667 1.511"/>
            <path fill="#17BCB5" d="M59.856 40.719s-.703 1.852-2.353 3.118c0 0 .897 1.612.593 2.502 0 0 4.255-1.672 1.76-5.62"/>
            <path fill="#F8D9B3" d="M78.149 29.725s-.77-2.687-2.938-4.665c0 0 1.449-2.155 1.127-3.442 0 0 5.778 2.86 1.81 8.107"/>
            <path fill="#21BBB5" d="M90.448 9s.769 2.687 2.938 4.664c0 0-1.45 2.156-1.127 3.442 0 0-5.779-2.86-1.811-8.106"/>
            <path fill="#F2C994" d="M34 59.978s1.551-.174 2.196-.978c0 0 1.645 1.18 3.543 1.159 0 0-.456.967-2.004 1.357 0 0-2.514-.163-3.736-1.538M70.61 10.219s1.553-.175 2.197-.98c0 0 1.646 1.182 3.543 1.16 0 0-.455.967-2.003 1.357 0 0-2.515-.163-3.736-1.537M109.775 23.157s1.272.297 2.003-.157c0 0 .97 1.392 2.47 1.905 0 0-.627.635-1.956.509 0 0-1.937-.832-2.517-2.257"/>
            <path fill="#21BBB5" d="M8.953 46.557s.73.712 1.4.704c0 0 .09 1.32.885 2.27 0 0-.673.17-1.51-.45 0 0-.96-1.338-.775-2.524"/>
            <path fill="#EC4742" d="M108.397 6s.917.894 1.76.885c0 0 .11 1.658 1.111 2.851 0 0-.847.214-1.898-.566 0 0-1.205-1.68-.973-3.17"/>
            <g transform="matrix(-1 0 0 1 39.466 .05)">
                <mask id="d" fill="#fff">
                    <use xlink:href="#c"/>
                </mask>
                <path fill="#EC4742" d="M5.84.749S4.3 1.003 3.46.404c0 0-1.264 1.585-3.096 2.08 0 0 .7.807 2.296.76 0 0 2.376-.84 3.18-2.495" mask="url(#d)"/>
            </g>
            <path fill="#F2C994" d="M55.807 7.8s-2.247 1.595-4.033 1.295c0 0-.789 3.49-3.31 5.692 0 0 1.726.738 4.218-.57 0 0 3.12-3.172 3.125-6.418"/>
        </g>
    </g>
</svg>
