<?xml version="1.0" encoding="UTF-8"?>
<svg width="237px" height="151px" viewBox="0 0 237 151" version="1.1" xmlns="http://www.w3.org/2000/svg" xmlns:xlink="http://www.w3.org/1999/xlink">
    <!-- Generator: sketchtool 51.2 (57519) - http://www.bohemiancoding.com/sketch -->
    <title>A3B4C7FE-4E73-4124-BAF4-5B06F6CF0CF8</title>
    <desc>Created with sketchtool.</desc>
    <defs></defs>
    <g id="2018" stroke="none" stroke-width="1" fill="none" fill-rule="evenodd">
        <g id="pf-holiday-deadlines-1-countdown" transform="translate(-556.000000, -662.000000)">
            <g id="Stacked-Group-2" transform="translate(268.000000, 662.000000)">
                <g id="countdown-timer">
                    <g transform="translate(177.000000, 0.000000)">
                        <g id="countdown-bg" transform="translate(111.000000, 0.000000)">
                            <path d="M170.339357,10.1199418 C162.490544,-3.4064902 142.940786,-3.36495188 135.149308,10.1947593 L103.44017,65.3802406 L71.7307888,120.565722 C63.9395533,134.12519 73.7506308,151.03323 89.3904367,150.999951 L153.043154,150.864891 L216.695872,150.72983 C232.335921,150.696551 242.074844,133.747216 234.226273,120.220784 L202.282694,65.1703628 L170.339357,10.1199418 Z" id="Fill-1" fill="#EFFBFA"></path>
                            <path d="M77.2109599,7.7072092 C71.2308952,-2.5943522 56.3357006,-2.56271029 50.3995098,7.76426431 L26.2401882,49.7927014 L2.08061725,91.8213877 C-3.85557351,102.148362 3.61944501,115.025127 15.5357004,114.999963 L64.0328308,114.897065 L112.53021,114.794166 C124.446466,114.768753 131.866642,101.860097 125.886577,91.5587847 L101.548769,49.6327478 L77.2109599,7.7072092 Z" id="Fill-1" fill="#FFF3F4"></path>
                        </g>
                    </g>
                </g>
            </g>
        </g>
    </g>
</svg>