<svg xmlns="http://www.w3.org/2000/svg" width="22" height="22" viewBox="0 0 22 22">
    <g fill="#FFF" fill-rule="evenodd">
        <path fill-opacity=".01" d="M0 0h22v22H0z"/>
        <path fill-rule="nonzero" d="M19.99 6.191c.026.11 0 .235-.078.373l-2.154 3.393c-.079.138-.21.207-.392.207a.416.416 0 0 1-.196-.042l-1.723-.413v8.027c0 .276-.144.414-.43.414H6.594c-.26 0-.391-.138-.391-.414V9.71l-1.567.413c-.183.083-.326.028-.43-.165L2.051 6.564a.49.49 0 0 1-.039-.331.372.372 0 0 1 .235-.29L6.595 3.75h2.037c.261 0 .392.138.392.414 0 .414.215.765.646 1.055.43.29.875.434 1.332.434.457 0 .907-.144 1.35-.434.445-.29.667-.641.667-1.055 0-.276.13-.414.391-.414h2.037l4.308 2.152c.13.055.21.151.235.29z"/>
    </g>
</svg>
