<?xml version="1.0" encoding="UTF-8" standalone="no"?>
<svg width="180px" height="76px" viewBox="0 0 180 76" version="1.1" xmlns="http://www.w3.org/2000/svg" xmlns:xlink="http://www.w3.org/1999/xlink">
    <!-- Generator: Sketch 41 (35326) - http://www.bohemiancoding.com/sketch -->
    <title>Group 17</title>
    <desc>Created with Sketch.</desc>
    <defs></defs>
    <g id="Page-1" stroke="none" stroke-width="1" fill="none" fill-rule="evenodd">
        <g id="01-youtuber-merch" transform="translate(-176.000000, -320.000000)">
            <g id="Page-1" transform="translate(176.000000, 319.000000)">
                <g id="Group-17" transform="translate(0.000000, 0.162162)">
                    <path d="M126.463189,0.837837838 C126.463189,0.837837838 103.997227,0.837837838 89.0207547,1.92233807 L89.0207547,1.92233807 C86.9279554,2.17191377 82.3674521,2.19319263 78.296547,6.46338973 L78.296547,6.46338973 C75.0879942,9.71689042 74.0435658,17.1049806 74.0435658,17.1049806 L74.0435658,17.1049806 C74.0435658,17.1049806 72.972973,25.7802611 72.972973,34.4569842 L72.972973,34.4569842 L72.972973,42.5909163 C72.972973,51.2661968 74.0435658,59.9418379 74.0435658,59.9418379 L74.0435658,59.9418379 C74.0435658,59.9418379 75.0879942,67.3295674 78.296547,70.5834288 L78.296547,70.5834288 C82.3674521,74.8539866 87.7164737,74.7183789 90.0981575,75.1655955 L90.0981575,75.1655955 C98.6600329,75.988979 126.486486,76.2432432 126.486486,76.2432432 L126.486486,76.2432432 C126.486486,76.2432432 148.975388,76.2093413 163.952218,75.1252018 L163.952218,75.1252018 C166.043942,74.8752654 170.606955,74.8539866 174.676068,70.5834288 L174.676068,70.5834288 C177.884979,67.3295674 178.930841,59.9418379 178.930841,59.9418379 L178.930841,59.9418379 C178.930841,59.9418379 180,51.2661968 180,42.5909163 L180,42.5909163 L180,34.4569842 C180,25.7802611 178.930841,17.1049806 178.930841,17.1049806 L178.930841,17.1049806 C178.930841,17.1049806 177.884979,9.71689042 174.676068,6.46338973 L174.676068,6.46338973 C170.606955,2.19319263 166.043942,2.17191377 163.952218,1.92233807 L163.952218,1.92233807 C148.975388,0.837837838 126.510142,0.837837838 126.510142,0.837837838 L126.510142,0.837837838 L126.463189,0.837837838 Z" id="Fill-1" fill="#FFFFFF"></path>
                    <path d="M67.0695224,61.7804208 L60.254972,61.7804208 L60.254972,57.8092233 C57.67154,60.7897875 55.4815587,62.2952324 53.0943141,62.2952324 C50.9997365,62.2952324 49.545368,61.3006279 48.8169284,59.5034806 C48.3743413,58.4110402 48.0605133,56.7048694 48.0605133,54.1990438 L48.0605133,25.3176076 L54.8750637,25.3176076 L54.8750637,52.393954 L54.8750637,54.9210797 C55.0339504,55.9344571 55.4614737,56.3045005 56.3279976,56.3045005 C57.6320874,56.3045005 58.8124392,55.1636838 60.254972,53.1159899 L60.254972,25.3176076 L67.0695224,25.3176076 L67.0695224,61.7804208 Z" id="Fill-3" fill="#FFFFFF"></path>
                    <path d="M36.2247153,50.9498822 C36.5833758,54.5600617 35.4708108,56.3514328 33.3547136,56.3514328 C31.238975,56.3514328 30.127486,54.5600617 30.4861465,50.9498822 L30.4861465,36.5091641 C30.127486,32.8989846 31.2393337,31.2068935 33.3554309,31.2068935 C35.4715281,31.2068935 36.5869624,32.8989846 36.2283019,36.5091641 L36.2247153,50.9498822 Z M43.0392657,37.2312 C43.0392657,33.3343723 42.2616896,30.4086828 40.8873024,28.5667692 C39.0717627,26.0728572 36.2247153,25.0518984 33.3554309,25.0518984 C30.1077596,25.0518984 27.6362298,26.0728572 25.8235594,28.5667692 C24.4272939,30.4086828 23.6784107,33.3661418 23.6784107,37.2629696 L23.6715961,50.2278463 C23.6715961,54.102291 24.3376288,56.7796001 25.7338943,58.6038238 C27.5469233,61.0901545 30.4861465,62.407148 33.3554309,62.407148 C36.2247153,62.407148 39.2155856,61.0901545 41.0307666,58.6038238 C42.4051538,56.7796001 43.0392657,54.102291 43.0392657,50.2278463 L43.0392657,37.2312 Z" id="Fill-5" fill="#FFFFFF"></path>
                    <path d="M16.1397246,41.9244334 L16.1397246,61.7804208 L8.96651368,61.7804208 L8.96651368,41.9244334 C8.96651368,41.9244334 1.53327384,17.5806319 0,13.0429972 L7.53187149,13.0429972 L12.5656723,32.0596179 L17.5743668,13.0429972 L25.1062383,13.0429972 L16.1397246,41.9244334 Z" id="Fill-7" fill="#FFFFFF"></path>
                    <path d="M157.810641,35.411128 C157.810641,32.0370543 158.729529,31.1168195 160.898349,31.1168195 C163.05103,31.1168195 163.90787,32.1193663 163.90787,35.4562553 L163.90787,39.3974883 L157.810641,39.4039866 L157.810641,35.411128 Z M170.734974,44.8127575 L170.733539,37.4321065 C170.733539,33.5764348 169.979276,30.7558015 168.621746,28.9312168 C166.801543,26.4625761 164.21596,25.1560521 160.958604,25.1560521 C157.643864,25.1560521 155.05828,26.4625761 153.180333,28.9312168 C151.800925,30.7558015 150.99609,33.7363658 150.99609,37.5923985 L150.99609,50.2280268 C150.99609,54.0616765 151.880906,56.7451229 153.259956,58.5502127 C155.137544,61.0152432 157.723128,62.2459534 161.120002,62.2459534 C164.512213,62.2459534 167.177061,60.9545922 168.973233,58.335407 C169.762645,57.1787055 170.27266,55.8682103 170.491802,54.4190842 C170.549905,53.7645587 170.722421,52.2742766 170.722421,50.1680978 L170.722421,49.144973 L163.908229,49.144973 C163.908229,51.7670464 163.919706,53.3262829 163.859451,53.6822466 C163.488955,55.4295735 162.557155,56.304681 160.958604,56.304681 C158.729529,56.304681 157.788045,54.6270306 157.810641,51.2959179 L157.810641,44.8127575 L170.734974,44.8127575 Z" id="Fill-9" fill="#E62D27"></path>
                    <path d="M139.877613,51.3109002 C139.877613,54.9210797 139.032251,56.3045005 137.159684,56.3045005 C136.090517,56.3045005 134.858876,55.750699 133.772852,54.6578976 L133.780384,32.7636029 C134.86605,31.6848812 136.090517,31.117 137.159684,31.117 C139.032251,31.117 139.877613,32.1769487 139.877613,35.7871282 L139.877613,51.3109002 Z M140.633311,25.0995528 C138.244632,25.0995528 135.870299,26.5782823 133.772852,29.1758065 L133.780384,13.4040152 L127.324494,13.4040152 L127.324494,61.7804208 L133.780384,61.7804208 L133.789351,58.145692 C135.958888,60.8475504 138.324613,62.2457729 140.633311,62.2457729 C143.218895,62.2457729 145.108319,60.8526047 145.974843,58.1702413 C146.408463,56.6409692 146.692164,54.2864101 146.692164,50.9498822 L146.692164,36.5091641 C146.692164,33.0921292 146.257109,30.755982 145.823488,29.3046899 C144.956964,26.6028315 143.218895,25.0995528 140.633311,25.0995528 L140.633311,25.0995528 Z" id="Fill-11" fill="#E62D27"></path>
                    <path d="M121.944586,61.7804208 L115.130036,61.7804208 L115.130036,57.8092233 C112.546604,60.7897875 110.356622,62.2952324 107.969378,62.2952324 C105.8748,62.2952324 104.420432,61.3006279 103.691992,59.5034806 C103.249405,58.4110402 102.935577,56.7048694 102.935577,54.1990438 L102.935577,25.6786256 L109.750127,25.6786256 L109.750127,52.393954 L109.750127,54.9210797 C109.909014,55.9344571 110.336537,56.3045005 111.203061,56.3045005 C112.507151,56.3045005 113.687503,55.1636838 115.130036,53.1159899 L115.130036,25.6786256 L121.944586,25.6786256 L121.944586,61.7804208 Z" id="Fill-13" fill="#E62D27"></path>
                    <polygon id="Fill-15" fill="#E62D27" points="96.1210267 61.7804208 88.9478157 61.7804208 88.9478157 20.2633563 81.4159442 20.2633563 81.4159442 13.4115966 104.011559 13.4040152 104.011559 20.2633563 96.1210267 20.2633563"></polygon>
                </g>
            </g>
        </g>
    </g>
</svg>