<?xml version="1.0" encoding="utf-8"?>
<!-- Generator: Adobe Illustrator 22.0.1, SVG Export Plug-In . SVG Version: 6.00 Build 0)  -->
<svg version="1.1" id="Layer_1" xmlns="http://www.w3.org/2000/svg" xmlns:xlink="http://www.w3.org/1999/xlink" x="0px" y="0px"
	 viewBox="0 0 100 20" style="enable-background:new 0 0 100 20;" xml:space="preserve">
<style type="text/css">
	.st0{fill:#FFFFFF;}
	.st1{clip-path:url(#SVGID_2_);fill:#3ED2D3;}
	.st2{clip-path:url(#SVGID_4_);fill:#FFFFFF;}
</style>
<title>image-controls-tune1</title>
<desc>Created with Sketch.</desc>
<g id="Group-2-Copy" transform="translate(21.000000, 1.000000)">
	
		<g id="Group-3" transform="translate(9.000000, 9.000000) rotate(-315.000000) translate(-9.000000, -9.000000) translate(3.000000, 3.000000)">
		
			<rect id="Rectangle-3-Copy" x="5" y="0" transform="matrix(2.535182e-06 1 -1 2.535182e-06 12 -1.521107e-05)" class="st0" width="2" height="12"/>
		
			<rect id="Rectangle-3-Copy-2" x="0" y="5" transform="matrix(2.535182e-06 1 -1 2.535182e-06 12 -1.521107e-05)" class="st0" width="12" height="2"/>
	</g>
</g>
<path id="Page-1-Copy" class="st0" d="M70.5,9.7c-0.1,0-0.2,0.1-0.2,0.1c-0.1,0-0.2,0-0.2-0.1l-5.7-2.8C64.1,6.8,64,6.6,64,6.4
	c0-0.2,0.1-0.4,0.3-0.5L70,3.1c0.2-0.1,0.3-0.1,0.5,0l5.7,2.8c0.2,0.1,0.3,0.3,0.3,0.5c0,0.2-0.1,0.4-0.3,0.5L70.5,9.7z M70.5,11.8
	c-0.1,0-0.2,0.1-0.2,0.1c-0.1,0-0.2,0-0.2-0.1L64.3,9c-0.3-0.1-0.4-0.5-0.2-0.7c0.1-0.3,0.5-0.4,0.7-0.2l5.4,2.7l5.4-2.7
	c0.3-0.1,0.6,0,0.7,0.2c0.1,0.3,0,0.6-0.2,0.7L70.5,11.8z M70.5,13.9c-0.1,0-0.2,0.1-0.2,0.1c-0.1,0-0.2,0-0.2-0.1l-5.7-2.8
	c-0.3-0.1-0.4-0.5-0.2-0.7c0.1-0.3,0.5-0.4,0.7-0.2l5.4,2.7l5.4-2.7c0.3-0.1,0.6,0,0.7,0.2c0.1,0.3,0,0.6-0.2,0.7L70.5,13.9z
	 M70.5,16c-0.1,0-0.2,0.1-0.2,0.1c-0.1,0-0.2,0-0.2-0.1l-5.7-2.8c-0.3-0.1-0.4-0.5-0.2-0.7c0.1-0.3,0.5-0.4,0.7-0.2l5.4,2.7l5.4-2.7
	c0.3-0.1,0.6,0,0.7,0.2c0.1,0.3,0,0.6-0.2,0.7L70.5,16z"/>
<path id="Page-1-Copy-2" class="st0" d="M11,6c-0.5,0-0.8-0.1-1.2-0.4c-0.3-0.3-0.5-0.6-0.5-1c0-0.4,0.2-0.8,0.5-1.1S10.5,3,11,3
	c0.5,0,0.8,0.2,1.1,0.5s0.5,0.6,0.5,1.1c0,0.4-0.1,0.8-0.5,1C11.8,5.9,11.4,6,11,6z M12.2,15.2c-0.5,0.2-1,0.4-1.3,0.5
	c-0.3,0.1-0.7,0.2-1.1,0.2c-0.6,0-1.2-0.2-1.5-0.5c-0.4-0.3-0.5-0.7-0.5-1.2c0-0.2,0-0.4,0.1-0.6c0-0.2,0.1-0.4,0.1-0.7l0.7-2.4
	c0.1-0.2,0.1-0.5,0.2-0.6c0.1-0.2,0.1-0.4,0.1-0.6c0-0.3-0.1-0.5-0.2-0.6C8.6,8.5,8.3,8.5,8,8.5c-0.2,0-0.3,0-0.5,0.1S7.1,8.7,7,8.7
	L7.2,8c0.5-0.2,0.9-0.4,1.3-0.5c0.4-0.1,0.8-0.2,1.2-0.2c0.6,0,1.2,0.2,1.5,0.5c0.4,0.3,0.5,0.7,0.5,1.2c0,0.1,0,0.3-0.1,0.5
	c0,0.2-0.1,0.5-0.1,0.7l-0.7,2.4c-0.1,0.2-0.1,0.4-0.2,0.6s-0.1,0.4-0.1,0.6c0,0.3,0.1,0.5,0.2,0.6c0.1,0.1,0.4,0.2,0.8,0.2
	c0.2,0,0.3-0.1,0.6-0.1c0.2-0.1,0.4-0.1,0.5-0.2L12.2,15.2z"/>
<g id="Group-Copy" transform="translate(41.000000, 1.000000)">
	
		<g id="noun_540287_cc" transform="translate(9.353553, 9.146447) rotate(-45.000000) translate(-9.353553, -9.146447) translate(5.353553, 1.146447)">
		<g id="Group" transform="translate(0.000000, 0.000000)">
			<g id="Shape" transform="translate(0.000000, 0.000000)">
				<path class="st0" d="M3,9c0,1,0,2,0,3H0l4,4l4-4H5c0-1.1,0-2,0-3H3z"/>
				<path class="st0" d="M4,0L0,4h3c0,1,0,2,0,3h2c0-1,0-2,0-3h3L4,0z"/>
			</g>
		</g>
	</g>
</g>
<g>
	<defs>
		<circle id="SVGID_1_" cx="55" cy="77" r="10"/>
	</defs>
	<clipPath id="SVGID_2_">
		<use xlink:href="#SVGID_1_"  style="overflow:visible;"/>
	</clipPath>
	<rect x="40" y="62" class="st1" width="30" height="30"/>
</g>
<g>
	<defs>
		<path id="SVGID_3_" d="M84,10.8c0-3,2.1-5.6,4.9-6.1V3l4.4,2.6l-4.4,2.6V6.7c-1.7,0.5-3,2.2-3,4.1c0,2.3,1.8,4.3,4.1,4.3
			c2.3,0,4.1-1.9,4.1-4.3c0-0.6-0.1-1.2-0.4-1.8l1.7-0.8C95.8,9,96,9.9,96,10.8c0,3.4-2.7,6.2-6,6.2C86.7,17,84,14.2,84,10.8z"/>
	</defs>
	<clipPath id="SVGID_4_">
		<use xlink:href="#SVGID_3_"  style="overflow:visible;"/>
	</clipPath>
	<rect x="77.9" y="-3.3" class="st2" width="24.1" height="26.6"/>
</g>
</svg>
