<?xml version="1.0" encoding="UTF-8" standalone="no"?>
<svg width="84px" height="21px" viewBox="0 0 84 21" version="1.1" xmlns="http://www.w3.org/2000/svg" xmlns:xlink="http://www.w3.org/1999/xlink">
    <!-- Generator: Sketch 41.2 (35397) - http://www.bohemiancoding.com/sketch -->
    <title>Artboard Copy</title>
    <desc>Created with Sketch.</desc>
    <defs></defs>
    <g id="04-PP:-Clothin_Retail-price" stroke="none" stroke-width="1" fill="none" fill-rule="evenodd">
        <g id="Artboard-Copy" fill="#FFFFFF">
            <path d="M73.4774444,10.673582 C73.4012139,10.7113122 73.3184034,10.7302124 73.2355928,10.7302124 C73.1527822,10.7302124 73.0698317,10.7113122 72.9937412,10.673582 L67.3029832,7.85333319 C67.117622,7.76149258 67.0001612,7.57228132 67.0001612,7.36528994 C67.0001612,7.15829856 67.117412,6.96915729 67.3029832,6.87724668 L72.9939512,4.05664788 C73.1462722,3.98111737 73.3252634,3.98111737 73.4775844,4.05664788 L79.1683424,6.87724668 C79.3537036,6.96908729 79.4711644,7.15829856 79.4711644,7.36528994 C79.4711644,7.57228132 79.3537736,7.76128258 79.1682023,7.85333319 L73.4774444,10.673582 Z M73.4774444,12.8483565 C73.4012139,12.8860867 73.3184034,12.9051969 73.2355928,12.9051969 C73.1527822,12.9051969 73.0698317,12.8862967 72.9937412,12.8485665 L67.3029832,10.0279677 C67.0334115,9.8943368 66.9231607,9.56757462 67.0567916,9.29814282 C67.1902125,9.02871102 67.5173947,8.91832029 67.7866165,9.05195118 L73.2357328,11.7525692 L78.6846391,9.05195118 C78.9537209,8.91853029 79.2808331,9.02850102 79.414464,9.29814282 C79.5480249,9.56757462 79.4377741,9.8943368 79.1682023,10.0279677 L73.4774444,12.8483565 Z M73.4774444,14.9209303 C73.4012139,14.9586606 73.3184034,14.9777707 73.2355928,14.9777707 C73.1527822,14.9777707 73.0698317,14.9588706 72.9937412,14.9211403 L67.3029832,12.1007515 C67.0334115,11.9671206 66.9231607,11.6403584 67.0567916,11.3707166 C67.1902125,11.1012848 67.5173947,10.9912441 67.7866165,11.124525 L73.2357328,13.825143 L78.6846391,11.124735 C78.9537209,10.9905441 79.2808331,11.1012848 79.414464,11.3707166 C79.5480249,11.6401484 79.4377741,11.9669106 79.1682023,12.1005415 L73.4774444,14.9209303 Z M73.4774444,16.9935741 C73.4012139,17.0313044 73.3184034,17.0504145 73.2355928,17.0504145 C73.1527822,17.0504145 73.0698317,17.0315144 72.9937412,16.9937841 L67.3029832,14.1733953 C67.0334115,14.0397644 66.9231607,13.7130023 67.0567916,13.4433605 C67.1902125,13.1741387 67.5173947,13.0635379 67.7866165,13.1971688 L73.2357328,15.8977868 L78.6846391,13.1973788 C78.9537209,13.0636079 79.2808331,13.1739287 79.414464,13.4433605 C79.5480249,13.7127223 79.4377741,14.0395544 79.1682023,14.1731853 L73.4774444,16.9935741 Z" id="Page-1"></path>
            <polygon id="Page-1" transform="translate(52.563320, 10.563320) rotate(45.000000) translate(-52.563320, -10.563320) " points="56.249845 7.45867968 56.2498448 9.52280955 53.5421268 9.52280955 51.584514 9.52280955 48.8772227 9.52280955 48.8772226 7.45867968 44.9718108 10.4432401 48.8772226 13.6679609 48.8772227 11.3647612 51.584514 11.3647612 53.5421268 11.3647612 56.2498448 11.3647612 56.249845 13.6679611 60.15483 10.4432401"></polygon>
            <rect id="Rectangle-12" transform="translate(31.656854, 10.656854) rotate(45.000000) translate(-31.656854, -10.656854) " x="30.1568542" y="4.15685425" width="3" height="13"></rect>
            <rect id="Rectangle-12-Copy" transform="translate(31.656854, 10.656854) rotate(-45.000000) translate(-31.656854, -10.656854) " x="30.1568542" y="4.15685425" width="3" height="13"></rect>
            <path d="M10.9666667,6.975 C10.5,6.975 10.15,6.85833333 9.8,6.56666667 C9.50833333,6.275 9.33333333,5.925 9.33333333,5.51666667 C9.33333333,5.10833333 9.50833333,4.75833333 9.8,4.46666667 C10.0916667,4.175 10.5,4 10.9666667,4 C11.4333333,4 11.7833333,4.175 12.075,4.46666667 C12.3666667,4.75833333 12.5416667,5.10833333 12.5416667,5.51666667 C12.5416667,5.925 12.425,6.275 12.075,6.56666667 C11.7833333,6.85833333 11.375,6.975 10.9666667,6.975 Z M12.1916667,16.25 C11.6666667,16.4833333 11.2,16.6 10.9083333,16.7166667 C10.6166667,16.8333333 10.2083333,16.8916667 9.8,16.8916667 C9.15833333,16.8916667 8.63333333,16.7166667 8.28333333,16.425 C7.93333333,16.1333333 7.75833333,15.725 7.75833333,15.2 C7.75833333,15.025 7.75833333,14.7916667 7.81666667,14.6166667 C7.81666667,14.4416667 7.875,14.2083333 7.93333333,13.9166667 L8.63333333,11.525 C8.69166667,11.2916667 8.75,11.0583333 8.80833333,10.8833333 C8.86666667,10.65 8.86666667,10.475 8.86666667,10.3 C8.86666667,10.0083333 8.80833333,9.775 8.69166667,9.65833333 C8.575,9.54166667 8.34166667,9.48333333 7.99166667,9.48333333 C7.81666667,9.48333333 7.64166667,9.48333333 7.46666667,9.54166667 C7.29166667,9.6 7.11666667,9.65833333 7,9.71666667 L7.175,8.95833333 C7.64166667,8.78333333 8.05,8.60833333 8.45833333,8.49166667 C8.86666667,8.375 9.21666667,8.31666667 9.625,8.31666667 C10.2666667,8.31666667 10.7916667,8.49166667 11.1416667,8.78333333 C11.4916667,9.075 11.6666667,9.48333333 11.6666667,10.0083333 C11.6666667,10.125 11.6666667,10.3 11.6083333,10.5333333 C11.6083333,10.7666667 11.55,11.0583333 11.4916667,11.2333333 L10.7916667,13.625 C10.7333333,13.8 10.675,14.0333333 10.6166667,14.2666667 C10.5583333,14.5 10.5583333,14.675 10.5583333,14.85 C10.5583333,15.1416667 10.6166667,15.375 10.7916667,15.4916667 C10.9083333,15.6083333 11.2,15.6666667 11.55,15.6666667 C11.725,15.6666667 11.9,15.6083333 12.1333333,15.6083333 C12.3666667,15.55 12.4833333,15.4916667 12.6,15.4333333 L12.1916667,16.25 Z" id="Page-1"></path>
        </g>
    </g>
</svg>