<?xml version="1.0" encoding="UTF-8"?>
<svg width="48px" height="32px" viewBox="0 0 50 34" version="1.1" xmlns="http://www.w3.org/2000/svg" xmlns:xlink="http://www.w3.org/1999/xlink">
    <!-- Generator: Sketch 61.2 (89653) - https://sketch.com -->
    <title>Visa-light 2</title>
    <desc>Created with Sketch.</desc>
    <defs>
        <polygon id="path-1" points="0.00624873874 0.0144644845 10.827451 0.0144644845 10.827451 15.0736549 0.00624873874 15.0736549"></polygon>
    </defs>
    <g id="09--Footer" stroke="none" stroke-width="1" fill="none" fill-rule="evenodd">
        <g id="Visa-light-2" transform="translate(1.000000, 1.000000)">
            <g id="Visa-light">
                <rect id="Rectangle" fill="#FFFFFF" x="0" y="0" width="48" height="32" rx="4"></rect>
                <g id="Group-73" transform="translate(2.000000, 8.000000)">
                    <g id="Group-3" transform="translate(33.172549, 0.040693)">
                        <mask id="mask-2" fill="white">
                            <use xlink:href="#path-1"></use>
                        </mask>
                        <g id="Clip-2"></g>
                        <path d="M8.53938627,9.11413396 L8.79191176,9.11413396 C9.00442745,9.11413396 9.0060451,9.11424376 9.02140196,8.90271749 C9.02815294,8.80951592 9.05860784,8.76126808 9.16019608,8.73375122 C9.4606902,8.65243043 9.67221373,8.46141553 9.75980392,8.14889161 C9.86143529,7.78625318 9.72419412,7.54764925 9.36363137,7.46198024 C9.24534902,7.43387043 9.12309804,7.42324141 9.00447059,7.39642729 C8.97198824,7.38907043 8.92143137,7.35079278 8.92248824,7.32885396 C8.92423529,7.29235514 8.95417255,7.23642102 8.98436863,7.22636298 C9.05325882,7.203392 9.1347451,7.18165082 9.20162941,7.19847278 C9.33032941,7.2307771 9.45245098,7.29018102 9.58706078,7.34211827 C9.67568627,7.17965239 9.77194706,7.00317553 9.88175294,6.80186102 C9.73057843,6.75271278 9.60381961,6.70529945 9.47363137,6.67167749 C9.40344706,6.65353788 9.37223725,6.63289475 9.39803333,6.55458259 C9.42033529,6.48683357 9.43135686,6.41524141 9.4472098,6.34604298 C9.42784118,6.33697318 9.41848039,6.32891357 9.40892549,6.328672 C9.31922157,6.32647592 9.22947451,6.32348925 9.13981373,6.32485082 C8.97802745,6.32733239 8.94931961,6.28492612 8.94280588,6.50209631 C8.93944118,6.6147771 8.90521176,6.68955357 8.7794451,6.72772141 C8.59048235,6.78503906 8.42584902,6.89873004 8.33467843,7.08550651 C8.16411373,7.43479278 8.19176471,7.80542494 8.66577843,7.92948141 C8.74890392,7.95122259 8.83530784,7.95978729 8.91897255,7.97968376 C8.98846667,7.99619827 9.08992549,7.98679906 9.09203922,8.08926808 C9.09432549,8.19937945 8.99405294,8.21481788 8.91291176,8.22329475 C8.7113098,8.2443771 8.54182353,8.1626171 8.38963529,8.03563984 C8.36079804,8.01159278 8.33198235,7.98752376 8.29505686,7.95669082 C8.18958627,8.15306416 8.09213922,8.334592 7.99065882,8.52358651 C8.03010784,8.55160847 8.05907451,8.58064063 8.09388627,8.5954422 C8.25759216,8.6651018 8.42287255,8.73085239 8.59803137,8.8022469 C8.58248039,8.88490729 8.56321961,8.98731043 8.53938627,9.11413396 M1.35882353,5.99528533 C1.35882353,5.99528533 1.37118235,5.94938729 1.39406667,5.80077867 C1.49289412,5.15884298 1.58930588,4.51649004 1.68673137,3.87429082 C1.78525686,3.22495435 1.88432157,2.57572769 1.9825451,1.92632533 C2.07145098,1.33850102 2.16126275,0.750764549 2.24594118,0.162303373 C2.2575451,0.0816633725 2.28959608,0.0589998431 2.36359804,0.0585606275 C2.81276471,0.0559912157 3.2619098,0.0505010196 3.71109804,0.0455598431 C4.60925882,0.0356774902 5.50746275,0.0245214118 6.4056451,0.0160665098 C6.75020392,0.0128163137 7.09478431,0.0155174902 7.47055294,0.0155174902 C7.16654314,1.98851827 6.86270588,3.96039906 6.55643137,5.9479818 C6.6124451,5.95180298 6.66004706,5.95790808 6.70764902,5.95790808 C7.96928431,5.95773239 9.23094118,5.95913788 10.4925765,5.95349396 C10.6515373,5.95279122 10.7642765,5.99750337 10.827451,6.14901082 L10.827451,6.28077553 C10.7971902,6.46298416 10.7631765,6.64466573 10.7373157,6.82753318 C10.6444196,7.4851269 10.5541333,8.14311592 10.4631137,8.8010171 C10.4386549,8.9780869 10.4126647,9.15498102 10.3916784,9.33249004 C10.3653431,9.55537004 10.2332353,9.67824063 10.0099353,9.67824063 C8.71952745,9.67824063 7.42909804,9.67777945 6.13866863,9.6773622 C5.98423725,9.67734024 5.98052745,9.67648376 5.9569098,9.8276618 C5.85212941,10.4981245 5.74989412,11.1689826 5.64632157,11.839643 C5.54106667,12.5210861 5.43507843,13.2023975 5.32988824,13.8838406 C5.27648431,14.2299206 5.2209451,14.5757151 5.17327843,14.9226296 C5.15897843,15.0264822 5.12716471,15.0738955 5.0134549,15.0736549 C3.38515294,15.0703818 1.75685098,15.0715238 0.12854902,15.0711285 C-0.000496078431,15.0711065 -0.00468039216,15.060741 0.0149686275,14.9317873 C0.120611765,14.2391661 0.224292157,13.5462375 0.328964706,12.8534626 C0.433076471,12.1643771 0.537598039,11.4753136 0.641882353,10.7862281 C0.696947059,10.422294 0.719745098,10.279483 0.776470588,9.90430494 L1.35882353,5.99528533" id="Fill-1" fill="#35715A" mask="url(#mask-2)"></path>
                    </g>
                    <path d="M26.6803922,7.85873255 C26.6803922,6.13645804 25.2753471,4.74030118 23.5421569,4.74030118 C21.8089667,4.74030118 20.4039216,6.13645804 20.4039216,7.85873255 C20.4039216,9.58100706 21.8089667,10.9771639 23.5421569,10.9771639 C25.2753471,10.9771639 26.6803922,9.58100706 26.6803922,7.85873255" id="Fill-4" fill="#BED2C8"></path>
                    <path d="M12.882389,4.46274541 C12.8736753,4.45909992 12.86494,4.45543247 12.8562263,4.45178698 C12.1719831,5.68455561 11.48774,6.91732424 10.7944165,8.16640973 C11.1452086,8.18360502 11.4679184,8.19383875 11.7896145,8.21808345 C11.9082204,8.22699953 11.9480145,8.18413208 11.9756871,8.07265914 C12.2232086,7.07546384 12.4767694,6.0798058 12.7282165,5.08359875 C12.780391,4.87683796 12.8310341,4.6697258 12.882389,4.46274541 L12.882389,4.46274541 Z M8.62745098e-06,14.9740333 C0.238924314,14.6183344 0.47941451,14.2637556 0.716475294,13.906805 C1.86547922,12.1769321 3.01372824,10.4465321 4.16191255,8.7160662 C5.1773851,7.18559718 6.19218902,5.65468894 7.20768314,4.1242858 C8.09851059,2.78177914 8.98914392,1.43914071 9.88404784,0.0994889412 C9.91612039,0.0515046275 9.99174,0.031696 10.0497165,0.00475011765 C10.0705733,-0.00491262745 10.0993675,0.00319090196 10.1245165,0.00319090196 C14.3518165,0.00314698039 18.5791165,0.00310305882 22.8063949,0.00305913725 L22.8374969,0.00305913725 C21.865291,0.14117051 20.9359635,0.427583059 20.0731969,0.900376784 C17.5249929,2.29677522 15.882089,4.41104973 15.2413714,7.30299953 C15.0992341,7.94453992 15.045442,8.59692894 15.0774067,9.25353443 C15.15184,10.7845085 15.6419224,12.1484489 16.6818322,13.2799125 C17.4530184,14.119034 18.3996008,14.6636176 19.4870263,14.9552568 C19.7844792,15.0350403 20.0891145,15.0871313 20.3617851,15.1457666 C20.3665302,15.145547 20.3390086,15.1478748 20.3114439,15.1478748 C17.1481459,15.1480944 13.9848694,15.1481603 10.8215929,15.1482262 C10.78924,15.1482262 10.7568871,15.1487155 10.7245341,15.1479846 C10.5899675,15.144976 10.5476067,15.1021744 10.5714616,14.9636238 C10.6358655,14.5899611 10.7068047,14.2174623 10.7764498,13.8447878 C10.9533341,12.8985415 11.1308871,11.952427 11.3082459,11.0062905 C11.3202812,10.9420991 11.3328773,10.8780395 11.3481478,10.7987172 C11.3057439,10.7941054 11.26884,10.7866387 11.2319361,10.7865729 C10.6100478,10.7856725 9.98818118,10.7865948 9.36631451,10.784245 C9.29401647,10.7839815 9.24887333,10.8093023 9.2066851,10.8695187 C8.25106549,12.2332835 7.29296549,13.5952035 6.33777725,14.9592756 C6.27656549,15.0466795 6.21362824,15.093456 6.10164392,15.0929729 C5.66690667,15.0911282 5.23214784,15.1002638 4.79736745,15.1040191 C3.89180863,15.1118152 2.98620667,15.1179642 2.08062627,15.1263972 C1.45901843,15.1321729 0.837410588,15.1399689 0.215802745,15.1485336 C0.130369412,15.1497195 0.0500047059,15.1476113 8.62745098e-06,15.0618764 L8.62745098e-06,14.9740333 Z" id="Fill-6" fill="#35715A"></path>
                    <path d="M25.0298443,0.00315137255 L28.8467365,0.00315137255 C29.9897012,0.00315137255 31.1326443,0.00305254902 32.275609,0.00331607843 C32.4559659,0.00336 32.4923737,0.0545286275 32.4634286,0.238691765 C32.351358,0.952065882 32.2426522,1.66603294 32.1317463,2.37960471 C32.0129678,3.14375216 31.8929384,3.90768 31.773858,4.67173961 C31.7131855,5.06097255 31.56406,5.91105255 31.5088875,6.30105412 C31.4939404,6.40664157 31.4663325,6.45486745 31.3462169,6.45440955 C29.7791914,6.44827922 28.2121443,6.44823529 26.6451188,6.44634667 C26.6101561,6.44630275 26.5751502,6.4421302 26.5255639,6.43894588 C26.5461188,6.26257882 26.6504031,5.63529098 26.6713031,5.46955294 C26.7476992,4.86442353 26.8248502,4.25940392 26.9021306,3.65438431 C26.984911,3.00612392 27.0682737,2.35797333 27.151162,1.70971294 C27.1965424,1.35462902 27.240262,0.99932549 27.2876267,0.644505098 C27.29716,0.573022745 27.2726796,0.540564706 27.2068737,0.517110588 C26.5580894,0.286236863 25.8939482,0.122343529 25.2120561,0.0337976471 C25.1517286,0.0259356863 25.0915953,0.0166682353 25.0313757,0.00808156863 C25.0308796,0.0064345098 25.0303404,0.00480941176 25.0298443,0.00315137255" id="Fill-11" fill="#35715A"></path>
                    <path d="M31.0527153,9.36027922 C31.0052859,9.66469961 30.8945094,10.3326369 30.8488271,10.6273067 C30.7443271,11.3013271 30.6403878,11.9754133 30.5355427,12.6493678 C30.43128,13.3196988 30.3261114,13.9898761 30.2215251,14.6601851 C30.2035153,14.7755231 30.1846212,14.8907733 30.1694584,15.0065067 C30.1569702,15.1018824 30.1090231,15.1511404 30.012482,15.1481318 C29.9729898,15.14688 29.9334329,15.1482635 29.8938976,15.1482635 C27.4467212,15.1482635 24.9995231,15.1482635 22.5523035,15.1482635 L22.459429,15.1482635 C23.1635369,15.0732894 23.8646467,14.9881475 24.5498388,14.8036549 C24.7158525,14.7589647 24.8774231,14.697211 25.0414094,14.6443733 C25.1056192,14.6236863 25.1387055,14.5838714 25.1513231,14.513531 C25.3746663,13.2674322 25.6001016,12.0217067 25.8252349,10.7759592 C25.8823055,10.4601631 26.0061957,9.77142902 26.0607427,9.45517176 C26.0740506,9.37795765 26.1105663,9.35612863 26.184482,9.35656784 C26.6443898,9.35935686 27.1043192,9.35823686 27.5642271,9.35781961 C28.6925682,9.35676549 29.820931,9.35531608 30.9492722,9.3543497 C30.9806329,9.3543497 31.0120153,9.35786353 31.0527153,9.36027922" id="Fill-13" fill="#35715A"></path>
                    <path d="M27.3705882,7.85873255 C27.3705882,6.82780549 26.5497725,5.99206588 25.5372549,5.99206588 C24.5247373,5.99206588 23.7039216,6.82780549 23.7039216,7.85873255 C23.7039216,8.88965961 24.5247373,9.72539922 25.5372549,9.72539922 C26.5497725,9.72539922 27.3705882,8.88965961 27.3705882,7.85873255" id="Fill-43" fill="#B5CBC1"></path>
                    <path d="M28.5137255,7.85873255 C28.5137255,6.82780549 27.6929098,5.99206588 26.6803922,5.99206588 C25.6678745,5.99206588 24.8470588,6.82780549 24.8470588,7.85873255 C24.8470588,8.88965961 25.6678745,9.72539922 26.6803922,9.72539922 C27.6929098,9.72539922 28.5137255,8.88965961 28.5137255,7.85873255" id="Fill-45" fill="#AAC4B9"></path>
                    <path d="M29.6568627,7.85873255 C29.6568627,6.82780549 28.8360471,5.99206588 27.8235294,5.99206588 C26.8110118,5.99206588 25.9901961,6.82780549 25.9901961,7.85873255 C25.9901961,8.88965961 26.8110118,9.72539922 27.8235294,9.72539922 C28.8360471,9.72539922 29.6568627,8.88965961 29.6568627,7.85873255" id="Fill-47" fill="#9FBCB0"></path>
                    <path d="M30.8,7.85873255 C30.8,6.82780549 29.9791843,5.99206588 28.9666667,5.99206588 C27.954149,5.99206588 27.1333333,6.82780549 27.1333333,7.85873255 C27.1333333,8.88965961 27.954149,9.72539922 28.9666667,9.72539922 C29.9791843,9.72539922 30.8,8.88965961 30.8,7.85873255" id="Fill-49" fill="#95B5A8"></path>
                    <path d="M31.9431373,7.85873255 C31.9431373,6.82780549 31.1223216,5.99206588 30.1098039,5.99206588 C29.0972863,5.99206588 28.2764706,6.82780549 28.2764706,7.85873255 C28.2764706,8.88965961 29.0972863,9.72539922 30.1098039,9.72539922 C31.1223216,9.72539922 31.9431373,8.88965961 31.9431373,7.85873255" id="Fill-51" fill="#8CAE9F"></path>
                    <path d="M33.0862745,7.85873255 C33.0862745,6.82780549 32.2654588,5.99206588 31.2529412,5.99206588 C30.2404235,5.99206588 29.4196078,6.82780549 29.4196078,7.85873255 C29.4196078,8.88965961 30.2404235,9.72539922 31.2529412,9.72539922 C32.2654588,9.72539922 33.0862745,8.88965961 33.0862745,7.85873255" id="Fill-53" fill="#82A898"></path>
                    <path d="M34.2294118,7.85873255 C34.2294118,6.82780549 33.4085961,5.99206588 32.3960784,5.99206588 C31.3835608,5.99206588 30.5627451,6.82780549 30.5627451,7.85873255 C30.5627451,8.88965961 31.3835608,9.72539922 32.3960784,9.72539922 C33.4085961,9.72539922 34.2294118,8.88965961 34.2294118,7.85873255" id="Fill-55" fill="#77A191"></path>
                    <path d="M35.372549,7.85873255 C35.372549,6.82780549 34.5517333,5.99206588 33.5392157,5.99206588 C32.526698,5.99206588 31.7058824,6.82780549 31.7058824,7.85873255 C31.7058824,8.88965961 32.526698,9.72539922 33.5392157,9.72539922 C34.5517333,9.72539922 35.372549,8.88965961 35.372549,7.85873255" id="Fill-57" fill="#709B89"></path>
                    <path d="M36.5156863,7.85873255 C36.5156863,6.82780549 35.6948706,5.99206588 34.6823529,5.99206588 C33.6698353,5.99206588 32.8490196,6.82780549 32.8490196,7.85873255 C32.8490196,8.88965961 33.6698353,9.72539922 34.6823529,9.72539922 C35.6948706,9.72539922 36.5156863,8.88965961 36.5156863,7.85873255" id="Fill-59" fill="#679482"></path>
                    <path d="M37.6588235,7.85873255 C37.6588235,6.82780549 36.8380078,5.99206588 35.8254902,5.99206588 C34.8129725,5.99206588 33.9921569,6.82780549 33.9921569,7.85873255 C33.9921569,8.88965961 34.8129725,9.72539922 35.8254902,9.72539922 C36.8380078,9.72539922 37.6588235,8.88965961 37.6588235,7.85873255" id="Fill-61" fill="#5D8D7B"></path>
                    <path d="M38.8019608,7.85873255 C38.8019608,6.82780549 37.9811451,5.99206588 36.9686275,5.99206588 C35.9561098,5.99206588 35.1352941,6.82780549 35.1352941,7.85873255 C35.1352941,8.88965961 35.9561098,9.72539922 36.9686275,9.72539922 C37.9811451,9.72539922 38.8019608,8.88965961 38.8019608,7.85873255" id="Fill-63" fill="#578774"></path>
                    <path d="M39.945098,7.85873255 C39.945098,6.82780549 39.1242824,5.99206588 38.1117647,5.99206588 C37.0992471,5.99206588 36.2784314,6.82780549 36.2784314,7.85873255 C36.2784314,8.88965961 37.0992471,9.72539922 38.1117647,9.72539922 C39.1242824,9.72539922 39.945098,8.88965961 39.945098,7.85873255" id="Fill-65" fill="#4D816E"></path>
                    <path d="M41.0882353,7.85873255 C41.0882353,6.82780549 40.2674196,5.99206588 39.254902,5.99206588 C38.2423843,5.99206588 37.4215686,6.82780549 37.4215686,7.85873255 C37.4215686,8.88965961 38.2423843,9.72539922 39.254902,9.72539922 C40.2674196,9.72539922 41.0882353,8.88965961 41.0882353,7.85873255" id="Fill-67" fill="#467D68"></path>
                    <path d="M41.1313725,7.85873255 C41.1313725,6.82780549 41.4105569,5.99206588 40.3980392,5.99206588 C39.3855216,5.99206588 38.5647059,6.82780549 38.5647059,7.85873255 C38.5647059,8.88965961 39.3855216,9.72539922 40.3980392,9.72539922 C41.4105569,9.72539922 41.1313725,8.88965961 41.1313725,7.85873255" id="Fill-69" fill="#35715A"></path>
                </g>
                <rect id="Rectangle" stroke="#E5E5E5" x="-0.5" y="-0.5" width="49" height="33" rx="4"></rect>
            </g>
        </g>
    </g>
</svg>