<svg xmlns="http://www.w3.org/2000/svg" width="48" height="32" viewBox="0 0 50 34">
    <g fill="none" fill-rule="evenodd" transform="translate(1 1)">
        <rect width="48" height="32" x="-.5" y="-.5" fill="#FFF" stroke="#E5E5E5" rx="4"/>
        <g fill="#0072CE">
            <path d="M48 19.083h-2.459c-.245 0-.408.009-.546.102-.142.092-.197.228-.197.408 0 .214.12.36.295.422.143.05.295.064.52.064l.731.02c.738.018 1.23.146 1.531.456.055.043.088.092.125.14v-1.612zm0 3.736c-.328.481-.966.725-1.83.725h-2.606V22.33h2.595c.257 0 .437-.034.546-.14a.5.5 0 0 0 .16-.37.466.466 0 0 0-.166-.375c-.097-.086-.24-.126-.475-.126-1.267-.043-2.847.04-2.847-1.754 0-.822.52-1.687 1.936-1.687H48v-1.128h-2.497c-.753 0-1.3.181-1.688.463v-.463h-3.693c-.591 0-1.284.147-1.612.463v-.463h-6.595v.463c-.525-.38-1.41-.463-1.82-.463h-4.35v.463c-.415-.404-1.338-.463-1.901-.463h-4.869l-1.114 1.21-1.043-1.21H9.545v7.908h7.136l1.148-1.23 1.081 1.23 4.399.004v-1.86h.432c.584.01 1.272-.014 1.88-.278v2.134h3.627v-2.06h.175c.224 0 .246.008.246.232v1.828h11.02c.7 0 1.432-.18 1.837-.506v.506h3.496c.727 0 1.438-.102 1.978-.364v-1.474zm-5.381-2.264c.262.273.403.618.403 1.2 0 1.22-.759 1.79-2.12 1.79h-2.627v-1.216h2.617c.256 0 .437-.034.551-.14a.504.504 0 0 0 .16-.37.487.487 0 0 0-.165-.375c-.103-.086-.246-.126-.48-.126-1.262-.043-2.842.04-2.842-1.754 0-.822.514-1.687 1.929-1.687h2.704v1.206h-2.475c-.245 0-.404.01-.54.102-.148.092-.203.228-.203.408 0 .214.126.36.295.422.143.05.296.065.526.065l.726.02c.732.017 1.235.144 1.54.455zm-12.174-.35c-.18.108-.404.117-.667.117H28.14v-1.273h1.662c.24 0 .48.005.644.102.174.092.279.268.279.51 0 .243-.105.438-.28.544zm.814.705c.3.112.546.311.661.476.19.277.218.535.224 1.035v1.123h-1.355v-.709c0-.34.033-.846-.218-1.11-.197-.202-.497-.25-.99-.25H28.14v2.07h-1.356v-5.668h3.115c.683 0 1.18.03 1.623.267.426.258.694.612.694 1.259 0 .904-.602 1.366-.957 1.507zm1.705-3.033h4.503v1.172h-3.16v1.03h3.082v1.156h-3.082v1.128l3.16.005v1.176h-4.503v-5.667zm-9.103 2.615h-1.743V19.05h1.759c.487 0 .825.2.825.695 0 .49-.322.748-.84.748zm-3.087 2.537l-2.071-2.309 2.07-2.235v4.544zm-5.35-.666h-3.316v-1.128h2.961V20.08h-2.961v-1.03h3.382l1.476 1.651-1.541 1.663zm10.726-2.62c0 1.575-1.17 1.9-2.349 1.9h-1.683v1.901h-2.623l-1.66-1.876-1.727 1.876h-5.344v-5.667h5.426l1.66 1.857 1.716-1.857h4.31c1.071 0 2.274.297 2.274 1.867zM4.327 11.345l-.924-2.259-.918 2.259h1.842zm20.342-.9c-.185.113-.404.117-.667.117h-1.639V9.304h1.661c.236 0 .48.01.64.102.175.082.283.258.283.5 0 .248-.103.448-.278.54zm11.693.9l-.934-2.259-.929 2.259h1.863zM14.567 13.79h-1.383l-.005-4.438-1.957 4.438h-1.184L8.076 9.348v4.442H5.332l-.518-1.264h-2.81l-.523 1.264H.016l2.416-5.666h2.004l2.295 5.365V8.124h2.202l1.765 3.844 1.622-3.844h2.247v5.666zm5.512 0h-4.507V8.124h4.507v1.18h-3.158v1.02h3.082v1.162h-3.082v1.132h3.158v1.172zm6.355-4.14c0 .903-.6 1.37-.95 1.51.294.113.546.312.666.477.191.282.224.534.224 1.04v1.113h-1.361l-.005-.715c0-.34.032-.83-.213-1.103-.197-.2-.498-.243-.983-.243h-1.449v2.061h-1.349V8.124h3.103c.69 0 1.198.018 1.634.271.427.253.683.623.683 1.255zm2.159 4.14h-1.377V8.124h1.377v5.666zm15.97 0h-1.912l-2.557-4.253v4.253h-2.747l-.526-1.264H34.02l-.51 1.264h-1.578c-.656 0-1.486-.146-1.956-.627-.475-.48-.721-1.133-.721-2.163 0-.84.147-1.609.727-2.216.436-.452 1.12-.66 2.049-.66h1.306v1.214h-1.279c-.492 0-.77.073-1.038.335-.23.239-.388.69-.388 1.284 0 .607.12 1.045.371 1.33.208.225.585.293.94.293h.606l1.902-4.456h2.021l2.285 5.36v-5.36h2.054l2.371 3.946V8.124h1.382v5.666zM0 14.903h2.305l.52-1.259H3.99l.518 1.259h4.536v-.962l.404.966h2.355l.405-.98v.976h11.271l-.005-2.066h.218c.153.005.198.02.198.273v1.793h5.83v-.48c.47.252 1.2.48 2.163.48h2.453l.525-1.259h1.163l.514 1.259h4.726v-1.196l.716 1.196h3.787V7h-3.748v.933L41.493 7h-3.846v.933L37.165 7H31.97c-.87 0-1.634.122-2.252.461V7h-3.585v.461C25.74 7.111 25.205 7 24.61 7H11.512l-.879 2.041L9.731 7H5.605v.933L5.152 7H1.634L0 10.758v4.145z"/>
        </g>
    </g>
</svg>
