<svg xmlns="http://www.w3.org/2000/svg" width="48" height="32" viewBox="0 0 50 34">
    <defs>
        <rect id="a" width="48" height="32" rx="4"/>
        <linearGradient id="b" x1="49.995%" x2="49.995%" y1=".349%" y2="100.507%">
            <stop offset="0%" stop-color="#3E5EA1"/>
            <stop offset="100%" stop-color="#286432"/>
        </linearGradient>
        <linearGradient id="c" x1="49.995%" x2="49.995%" y1=".349%" y2="100.507%">
            <stop offset="0%" stop-color="#3E5EA0"/>
            <stop offset="100%" stop-color="#346D3F"/>
        </linearGradient>
    </defs>
    <g fill="none" fill-rule="evenodd">
        <rect width="48" height="32" x="-.5" y="-.5" stroke="#E5E5E5" rx="4" transform="translate(1 1)"/>
        <path fill="url(#b)" d="M8.937 7.988h8.301c-.075 1.799-.754 3.67-2.188 4.965-1.359 1.295-3.321 1.943-5.208 2.159-2.49.216-5.283-.216-7.245-1.8-1.057-.79-1.736-1.87-2.189-3.094C.031 8.923-.12 7.484.106 6.117.333 4.893.861 3.67 1.691 2.663c.604-.648 1.283-1.152 2.038-1.584C5.239.288 7.049 0 8.786 0c.754 0 1.51.072 2.264.216.905.216 1.811.504 2.641.935a6.42 6.42 0 0 1 2.944 3.31c.377.864.528 1.728.603 2.591H8.937v.936z" transform="translate(9 9)"/>
        <path fill="url(#c)" d="M30.069 8.132c.905.143 1.66.647 2.113 1.367.68.791.755 1.87.528 2.806-.075.216-.15.36-.226.576-.378.648-.981 1.223-1.66 1.511-.453.144-.982.216-1.51.288h-11.17V7.988h8.981c.981 0 1.963-.072 2.944.144zm-2.34-7.7c.68 0 1.359 0 2.038.072 1.056.072 1.962.647 2.566 1.51.453.72.604 1.656.453 2.448-.151.791-.604 1.439-1.283 1.942-.755.576-1.66.72-2.642.72H18.144V.432h9.585z" transform="translate(9 9)"/>
    </g>
</svg>
