<svg xmlns="http://www.w3.org/2000/svg" width="48" height="32" viewBox="0 0 50 34">
    <g fill="none" fill-rule="evenodd" transform="translate(1 1)">
        <rect width="48" height="32" x="-.5" y="-.5" fill="#FFF" stroke="#E5E5E5" rx="4"/>
        <path fill="#1A1919" d="M9.615 18.537c0-.583-.303-.545-.593-.551v-.169c.251.012.509.012.76.012.27 0 .638-.012 1.115-.012 1.668 0 2.577 1.122 2.577 2.27 0 .643-.374 2.258-2.654 2.258-.329 0-.632-.013-.935-.013-.29 0-.573.006-.863.013v-.17c.387-.038.574-.051.593-.492v-3.146zm.63 3.042c0 .5.355.558.671.558 1.392 0 1.848-1.057 1.848-2.024 0-1.213-.772-2.088-2.015-2.088-.265 0-.387.019-.503.026v3.528zM13.7 22.176h.121c.18 0 .31 0 .31-.215v-1.757c0-.285-.097-.325-.336-.454v-.103a7.81 7.81 0 0 0 .69-.234.226.226 0 0 1 .116-.033c.032 0 .045.039.045.091v2.49c0 .215.142.215.322.215h.11v.169c-.22 0-.445-.013-.677-.013-.232 0-.464.006-.702.013v-.17zm.688-3.795c-.167 0-.315-.155-.315-.324a.33.33 0 0 1 .315-.312c.168 0 .316.137.316.312a.323.323 0 0 1-.316.324zM15.69 20.243c0-.24-.072-.305-.374-.428v-.123c.277-.09.54-.176.85-.312.02 0 .038.013.038.065v.422c.368-.266.684-.487 1.116-.487.547 0 .74.402.74.908v1.673c0 .215.142.215.322.215h.116v.169c-.226 0-.45-.013-.683-.013-.232 0-.464.006-.696.013v-.17h.117c.18 0 .308 0 .308-.214v-1.679c0-.37-.224-.551-.592-.551-.206 0-.534.168-.748.311v1.92c0 .214.143.214.323.214h.116v.169c-.225 0-.451-.013-.683-.013-.232 0-.464.006-.696.013v-.17h.117c.18 0 .309 0 .309-.214v-1.718M18.988 20.555c-.013.058-.013.155 0 .376.038.616.432 1.121.947 1.121.354 0 .632-.194.87-.434l.09.091c-.297.396-.664.733-1.192.733-1.024 0-1.23-1-1.23-1.414 0-1.272.85-1.648 1.3-1.648.522 0 1.083.33 1.09 1.019 0 .039 0 .077-.007.116l-.058.04h-1.81zm1.14-.208c.161 0 .18-.085.18-.163 0-.33-.2-.596-.56-.596-.393 0-.663.291-.74.759h1.12zM21.01 22.176h.175c.18 0 .308 0 .308-.215V20.14c0-.2-.238-.24-.334-.292v-.097c.47-.201.728-.37.786-.37.038 0 .057.02.057.085v.584h.014c.16-.253.432-.669.824-.669.161 0 .367.11.367.344 0 .175-.122.331-.302.331-.2 0-.2-.156-.426-.156-.11 0-.47.15-.47.539v1.523c0 .215.129.215.31.215h.36v.169c-.355-.007-.624-.013-.902-.013-.264 0-.534.006-.766.013v-.17M23.49 21.443c.084.428.342.792.813.792.38 0 .52-.234.52-.461 0-.766-1.403-.52-1.403-1.563 0-.364.29-.83.999-.83.205 0 .482.058.733.188l.045.66h-.148c-.064-.408-.29-.641-.702-.641-.258 0-.502.149-.502.428 0 .76 1.494.525 1.494 1.544 0 .428-.34.882-1.108.882-.257 0-.56-.09-.785-.22l-.072-.747.116-.032M31.156 18.99h-.16c-.124-.757-.658-1.063-1.38-1.063-.74 0-1.816.5-1.816 2.056 0 1.31.928 2.252 1.92 2.252.637 0 1.166-.442 1.295-1.123l.148.039-.148.947c-.271.169-1 .344-1.425.344-1.506 0-2.46-.98-2.46-2.439 0-1.33 1.18-2.284 2.442-2.284.521 0 1.024.17 1.52.345l.064.927M31.388 22.176h.122c.181 0 .31 0 .31-.215V18.35c0-.422-.097-.434-.342-.506v-.104c.258-.084.529-.2.664-.279.07-.038.122-.071.141-.071.04 0 .052.039.052.091v4.481c0 .215.142.215.322.215h.11v.169c-.22 0-.445-.013-.677-.013-.231 0-.463.006-.702.013v-.17M35.524 21.988c0 .117.07.123.18.123.078 0 .174-.006.258-.006v.136a6.489 6.489 0 0 0-.928.201l-.032-.02v-.525c-.386.318-.683.545-1.14.545-.349 0-.71-.227-.71-.771V20.01c0-.17-.025-.332-.385-.363v-.124c.232-.006.746-.045.83-.045.072 0 .072.045.072.188v1.673c0 .195 0 .752.56.752.219 0 .509-.168.78-.395v-1.745c0-.13-.31-.2-.541-.265v-.117c.579-.04.94-.091 1.004-.091.052 0 .052.045.052.117v2.393M36.806 19.847c.257-.22.605-.467.96-.467.747 0 1.198.656 1.198 1.363 0 .85-.619 1.7-1.54 1.7-.477 0-.728-.157-.896-.228l-.192.149-.135-.071c.057-.383.09-.759.09-1.155V18.35c0-.422-.097-.434-.342-.506v-.104c.258-.084.528-.2.663-.279.071-.038.123-.071.142-.071.039 0 .052.04.052.091v2.367zm0 1.764c0 .247.232.662.663.662.69 0 .98-.68.98-1.258 0-.7-.528-1.284-1.03-1.284-.24 0-.44.155-.613.305v1.575zM9.015 26.116h.05c.126 0 .259-.017.259-.2v-1.85c0-.184-.133-.201-.26-.201h-.049v-.106c.137 0 .347.014.52.014.175 0 .385-.014.55-.014v.106h-.05c-.126 0-.26.017-.26.201v1.85c0 .183.134.2.26.2h.05v.106c-.169 0-.38-.013-.554-.013-.172 0-.38.013-.516.013v-.106"/>
        <path fill="#1A1919" d="M10.084 26.237c-.17 0-.379-.014-.553-.014-.172 0-.378.014-.516.014H9v-.136h.064c.127-.003.243-.013.244-.186v-1.849c0-.173-.117-.184-.244-.186H9v-.137h.015c.138 0 .348.014.52.014.174 0 .384-.014.55-.014h.015v.137h-.064c-.128.002-.244.013-.245.186v1.85c0 .172.117.182.245.185h.064v.136h-.016zm-.015-.03v-.075h-.033c-.126 0-.275-.022-.276-.217v-1.849c.001-.195.15-.217.276-.217h.033v-.075c-.161 0-.365.014-.535.014-.166 0-.368-.013-.503-.014v.075h.033c.125 0 .274.022.274.217v1.85c0 .194-.149.216-.274.216h-.033v.075c.135-.001.333-.014.5-.014.17 0 .373.013.538.014zM12.492 25.527l.007-.007v-1.324c0-.29-.2-.332-.305-.332h-.077v-.105c.165 0 .326.014.49.014.144 0 .289-.014.432-.014v.105h-.052c-.148 0-.313.029-.313.449v1.606c0 .123.004.247.021.356h-.133l-1.805-2.026v1.454c0 .308.06.413.33.413h.059v.106c-.15 0-.301-.014-.452-.014-.157 0-.319.014-.477.014v-.106h.05c.241 0 .315-.166.315-.447v-1.487a.315.315 0 0 0-.319-.318h-.046v-.105c.133 0 .27.014.403.014.105 0 .207-.014.312-.014l1.56 1.768"/>
        <path fill="#1A1919" d="M12.695 26.29l-.144-.005-1.78-1.996v1.414c.005.307.051.395.315.398h.075v.136h-.015c-.152 0-.303-.014-.452-.014-.157 0-.318.014-.477.014h-.015v-.136h.064c.232-.001.298-.151.3-.432v-1.487a.301.301 0 0 0-.303-.302h-.061v-.137h.015c.134 0 .271.014.403.014.104 0 .206-.014.324-.008l1.54 1.746v-1.299c-.002-.28-.188-.314-.29-.316h-.092v-.137h.015c.166 0 .327.014.49.014.143 0 .287-.014.432-.014h.015v.137h-.067c-.145.004-.293.016-.298.433v1.606c0 .123.004.246.021.353l.003.018h-.018zm-.133-.03h.116a2.393 2.393 0 0 1-.019-.341v-1.606c0-.424.177-.464.328-.464h.037v-.075c-.138 0-.277.014-.416.014-.16 0-.317-.013-.475-.014v.075h.061c.108 0 .32.048.32.347l-.004 1.335-.007.007-.012.01-1.559-1.774c-.104 0-.205.014-.312.014-.129 0-.26-.013-.387-.014l-.001.075h.031c.164 0 .334.127.334.333v1.487c0 .282-.079.462-.33.463h-.034v.075c.151-.001.308-.014.46-.014.147 0 .293.013.438.014v-.075h-.045c-.275 0-.344-.122-.344-.429V24.21l1.82 2.05zm-.07-.733l.011-.01-.01.01zm-.008-.007v-.002l-.003-.002.003.004zM13.564 23.935c-.263 0-.273.064-.326.321h-.105c.014-.099.031-.197.042-.3.014-.099.021-.197.021-.3h.084c.028.106.116.103.211.103H15.3c.095 0 .183-.004.19-.11l.083.015c-.013.095-.027.19-.038.285-.007.096-.007.19-.007.286l-.105.04c-.007-.131-.024-.34-.26-.34h-.574v1.878c0 .272.123.303.29.303h.068v.106c-.137 0-.383-.013-.572-.013-.21 0-.456.013-.593.013v-.106h.067c.193 0 .291-.017.291-.296v-1.885h-.575"/>
        <path fill="#1A1919" d="M14.946 26.237c-.138 0-.384-.014-.572-.014-.21 0-.455.014-.593.014h-.015v-.136h.082c.193-.005.271-.007.275-.28v-1.87h-.559v-.032h.59v1.901c0 .283-.114.312-.306.312h-.052v.075c.139-.001.375-.014.578-.014.183 0 .417.013.556.014v-.075h-.051c-.17 0-.306-.042-.306-.32V23.92h.59c.235.001.266.202.273.334l.076-.028c0-.093 0-.185.007-.278.01-.09.023-.18.036-.271l-.053-.009c-.016.103-.115.108-.203.107h-1.826c-.083 0-.173-.004-.204-.102h-.058c0 .097-.007.192-.02.286-.01.097-.027.19-.04.284h.075c.046-.247.076-.326.338-.323v.031c-.26.005-.254.049-.31.31l-.003.012h-.135l.001-.018c.015-.099.032-.198.043-.3.014-.098.02-.196.02-.298v-.015h.112l.003.01c.024.09.088.09.178.092h1.826c.097-.001.169-.003.175-.095v-.017l.017.003.099.016-.003.016a8.39 8.39 0 0 0-.038.284c-.006.095-.006.19-.006.285v.01l-.01.005-.125.045v-.02c-.01-.133-.024-.325-.245-.325h-.56v1.863c.004.266.108.285.276.288h.082v.136h-.015M15.684 26.116h.05c.126 0 .26-.017.26-.2v-1.85c0-.184-.134-.201-.26-.201h-.05v-.106c.213 0 .579.014.873.014.295 0 .659-.014.897-.014-.006.151-.003.385.008.54l-.106.028c-.017-.23-.059-.413-.427-.413h-.487v.924h.417c.21 0 .256-.12.276-.31h.106a8.105 8.105 0 0 0 0 .815l-.106.021c-.02-.211-.03-.349-.273-.349h-.42v.822c0 .23.203.23.427.23.42 0 .607-.028.712-.43l.098.024a7.991 7.991 0 0 0-.12.561c-.224 0-.627-.013-.942-.013-.316 0-.733.013-.933.013v-.106"/>
        <path fill="#1A1919" d="M17.56 26.237c-.225 0-.629-.014-.943-.014-.316 0-.733.014-.933.014h-.014v-.136h.064c.126-.002.242-.013.243-.186v-1.849c-.001-.172-.117-.184-.243-.186h-.064v-.137h.014c.214 0 .579.014.873.014.294 0 .658-.014.897-.014h.016l-.001.016a5.606 5.606 0 0 0 .007.538v.013l-.011.004-.123.032-.001-.018c-.02-.229-.051-.396-.412-.399h-.473v.894h.402c.203-.002.239-.106.262-.297l.001-.014h.135v.016a8.408 8.408 0 0 0 0 .815v.012l-.013.003-.122.025v-.017c-.025-.215-.026-.333-.259-.336h-.406v.807c.001.215.185.214.413.215.422-.003.591-.024.697-.42l.003-.014.015.003.112.029-.003.015a8.102 8.102 0 0 0-.119.56l-.002.012h-.012zm-.013-.03c.03-.179.07-.357.113-.535l-.069-.017c-.105.395-.308.43-.722.427-.22 0-.442 0-.443-.245V25h.436c.245-.003.27.146.287.347l.076-.016a7.53 7.53 0 0 1 0-.788h-.076c-.02.184-.077.313-.29.31h-.433v-.955h.503c.364-.003.425.187.44.41l.076-.021a5.983 5.983 0 0 1-.006-.513c-.239 0-.594.014-.882.014-.288 0-.643-.013-.857-.014v.075h.034c.124 0 .273.022.274.217v1.85c0 .194-.15.215-.274.216H15.7v.075c.204 0 .609-.014.917-.014.31 0 .704.013.93.014zM18.152 24.132c0-.257-.14-.268-.25-.268h-.063v-.105c.113 0 .33.014.544.014.21 0 .378-.014.564-.014.441 0 .835.12.835.62 0 .318-.21.512-.488.622l.6.903c.098.15.167.191.34.212v.106c-.116 0-.228-.013-.344-.013-.108 0-.221.013-.33.013a9.778 9.778 0 0 1-.729-1.144h-.23v.756c0 .272.125.282.286.282h.064v.106c-.2 0-.403-.013-.603-.013-.168 0-.333.013-.509.013v-.106h.064c.13 0 .249-.06.249-.19v-1.794zm.449.819h.17c.352 0 .54-.134.54-.55 0-.314-.2-.515-.511-.515-.106 0-.15.01-.2.014v1.051z"/>
        <path fill="#1A1919" d="M20.234 26.237c-.118 0-.23-.014-.345-.014-.106 0-.219.014-.34.008a9.877 9.877 0 0 1-.726-1.137h-.207v.74c.003.265.11.263.271.267h.079v.136h-.016c-.2 0-.404-.014-.602-.014-.168 0-.332.014-.509.014h-.015v-.136h.079c.126-.001.232-.056.233-.175v-1.794c-.003-.25-.124-.249-.233-.252h-.079v-.137h.015c.114 0 .33.014.544.014.21 0 .377-.014.564-.014.442.001.849.124.85.636 0 .319-.21.518-.48.629l.589.888c.098.146.16.183.33.205l.012.002v.134h-.014zM18.6 25.063h.24l.004.008c.228.405.459.787.717 1.136.106 0 .22-.014.328-.014.112 0 .22.012.33.014v-.078c-.165-.02-.242-.07-.338-.216l-.61-.919.017-.007c.275-.109.478-.297.478-.608 0-.49-.378-.603-.819-.605-.184 0-.353.014-.564.014-.206 0-.414-.013-.529-.014v.075h.049c.109 0 .263.018.263.283v1.794c0 .142-.131.206-.263.206h-.049v.075c.169 0 .329-.014.494-.014.195 0 .393.013.587.014v-.075h-.048c-.16 0-.302-.02-.302-.299v-.77h.015zm0-.097h-.015v-1.08l.013-.001c.048-.004.096-.014.202-.014.319 0 .527.209.527.53-.001.422-.202.565-.555.565H18.6zm.172-.03c.347-.003.522-.124.525-.534-.002-.309-.192-.5-.497-.501-.095 0-.14.008-.184.013v1.022h.156zM22.613 25.527l.006-.007v-1.324c0-.29-.199-.332-.304-.332h-.077v-.105c.165 0 .326.014.49.014.145 0 .288-.014.432-.014v.105h-.052c-.148 0-.312.029-.312.449v1.606c0 .123.003.247.02.356h-.132l-1.805-2.026v1.454c0 .308.059.413.329.413h.06v.106c-.151 0-.302-.014-.453-.014-.158 0-.319.014-.477.014v-.106h.05c.241 0 .315-.166.315-.447v-1.487a.315.315 0 0 0-.319-.318h-.046v-.105c.133 0 .27.014.404.014.104 0 .206-.014.311-.014l1.56 1.768"/>
        <path fill="#1A1919" d="M22.816 26.29l-.144-.005-1.779-1.996v1.414c.004.308.05.395.315.398h.074v.136h-.015c-.152 0-.302-.014-.452-.014-.157 0-.319.014-.477.014h-.015v-.136h.064c.232-.001.298-.151.3-.433v-1.486a.3.3 0 0 0-.303-.302h-.061v-.137h.015c.134 0 .271.014.404.014.103 0 .204-.014.322-.01l1.54 1.748v-1.299c0-.28-.187-.315-.289-.316h-.092v-.137h.015c.165 0 .327.014.49.014.144 0 .287-.014.432-.014h.015v.137h-.067c-.145.003-.294.016-.298.433v1.606c0 .123.004.246.021.354l.002.017h-.017zm-.132-.03h.114a2.427 2.427 0 0 1-.018-.341v-1.606c0-.424.177-.463.328-.464h.036v-.075c-.138 0-.276.014-.415.014-.161 0-.317-.013-.476-.014v.075h.062c.108 0 .32.048.32.347l-.005 1.335-.006.007-.011.011-1.56-1.775c-.104 0-.205.014-.311.014-.13 0-.261-.013-.389-.014v.075h.031c.165 0 .334.126.334.333v1.486c0 .283-.08.463-.33.464h-.035v.075c.152-.001.308-.014.462-.014.147 0 .292.013.437.014v-.075h-.044c-.276 0-.345-.121-.346-.429V24.21l1.822 2.05zm-.071-.733l.011-.01-.011.01zm-.008-.007v-.001l-.003-.003.003.004zM23.724 25.718c-.035.12-.078.212-.078.275 0 .106.148.123.263.123h.04v.106a6.289 6.289 0 0 0-.803 0v-.106h.02c.137 0 .253-.081.305-.23l.56-1.619c.047-.13.11-.307.131-.438.112-.039.252-.109.319-.152.01-.003.017-.007.028-.007.01 0 .017 0 .025.011.01.028.02.06.031.088l.645 1.846c.042.123.084.254.129.36.042.1.116.141.232.141h.021v.106a9.894 9.894 0 0 0-1.01 0v-.106h.039c.08 0 .218-.014.218-.102 0-.046-.032-.141-.071-.254l-.137-.41h-.795l-.112.368zm.512-1.564h-.008l-.325.999h.654l-.321-.999z"/>
        <path fill="#1A1919" d="M25.591 26.237c-.157-.006-.315-.014-.482-.014-.172 0-.347.008-.526.014l-.016.001V26.1h.054c.081 0 .202-.018.202-.086 0-.04-.03-.137-.07-.25l-.133-.399h-.773l-.109.357c-.035.12-.078.213-.077.27.001.087.132.108.248.108h.054v.138h-.016c-.14-.007-.283-.015-.423-.015-.125 0-.252.008-.378.014l-.016.001V26.1h.036c.13 0 .24-.075.29-.218l.562-1.62c.045-.131.109-.307.139-.448a1.8 1.8 0 0 0 .318-.151c.01-.003.02-.008.034-.008.008 0 .027.002.038.02l.032.09.646 1.845c.04.124.083.254.129.359.04.094.105.131.217.131h.036v.138h-.016zm-.993-.031c.173-.006.343-.013.51-.013.163 0 .316.007.468.013v-.074h-.005c-.12 0-.203-.047-.246-.15-.045-.107-.088-.238-.13-.362l-.645-1.846c-.01-.028-.02-.06-.03-.085-.003-.003-.002-.003-.005-.003h-.006c-.007 0-.012.002-.02.004a1.293 1.293 0 0 1-.313.141c-.021.134-.084.31-.13.441l-.56 1.62c-.054.153-.177.24-.32.24h-.005v.074c.12-.006.241-.013.363-.013.135 0 .274.007.408.013v-.074h-.023c-.114-.002-.274-.014-.278-.14 0-.07.043-.16.078-.279l.015.005-.015-.005.115-.377h.818l.14.419c.04.113.071.207.071.259-.005.108-.153.116-.232.118h-.023v.074zm-.717-1.038l.336-1.03h.019v.016l-.004.001.004-.001v-.016h.01l.333 1.03h-.698zm.042-.03h.614l-.305-.946-.309.945zm.297-.98l.008-.002-.008.003zM25.746 23.935c-.263 0-.273.064-.326.321h-.105c.013-.099.031-.197.042-.3.014-.099.02-.197.02-.3h.085c.028.106.116.103.21.103h1.81c.093 0 .181-.004.188-.11l.084.015c-.013.095-.027.19-.038.285-.008.096-.008.19-.008.286l-.105.04c-.006-.131-.023-.34-.259-.34h-.575v1.878c0 .272.123.303.291.303h.067v.106c-.137 0-.382-.013-.571-.013-.21 0-.456.013-.593.013v-.106h.067c.193 0 .29-.017.29-.296v-1.885h-.574"/>
        <path fill="#1A1919" d="M27.127 26.237c-.137 0-.383-.014-.572-.014-.209 0-.454.014-.592.014h-.015v-.136h.082c.193-.005.27-.007.275-.28v-1.87h-.559v-.032h.59v1.901c0 .283-.114.311-.306.312h-.052v.075c.139-.001.374-.014.577-.014.184 0 .418.013.557.014v-.075h-.052c-.169 0-.305-.041-.306-.32V23.92h.59c.236.001.266.202.273.334l.076-.028c0-.093 0-.185.008-.277.01-.091.023-.182.035-.272l-.053-.009c-.016.103-.115.109-.202.107h-1.827c-.082 0-.172-.004-.204-.103h-.057c0 .098-.008.193-.021.287-.01.097-.027.19-.04.284h.075c.046-.247.077-.327.34-.323v.031c-.26.005-.255.049-.312.31l-.003.012h-.135l.002-.018c.015-.099.032-.198.042-.3.015-.098.021-.196.021-.298v-.015h.111l.003.01c.025.09.089.09.178.092h1.827c.097-.001.168-.003.174-.095v-.017l.017.003.1.016-.003.016c-.014.095-.028.19-.038.284-.007.095-.007.19-.007.285v.01l-.01.005-.125.045v-.02c-.01-.133-.023-.325-.245-.325h-.56v1.863c.004.266.11.285.276.288h.082v.136h-.015M27.884 26.116h.049c.126 0 .259-.017.259-.2v-1.85c0-.184-.133-.201-.26-.201h-.048v-.106c.136 0 .346.014.518.014.175 0 .386-.014.55-.014v.106h-.048c-.127 0-.26.017-.26.201v1.85c0 .183.133.2.26.2h.049v.106c-.168 0-.379-.013-.554-.013-.172 0-.379.013-.515.013v-.106"/>
        <path fill="#1A1919" d="M28.953 26.237c-.17 0-.38-.014-.554-.014-.172 0-.379.014-.515.014h-.015v-.136h.064c.126-.002.243-.013.243-.186v-1.849c0-.172-.117-.184-.243-.186h-.064v-.137h.015c.136 0 .347.014.518.014.174 0 .385-.014.55-.014h.015v.137h-.063c-.128.002-.244.014-.245.186v1.85c.001.172.117.183.245.185h.063v.136h-.014zm-.016-.03v-.075h-.033c-.126 0-.275-.022-.275-.217v-1.849c0-.195.149-.217.275-.217h.033v-.075c-.162 0-.365.014-.535.014-.167 0-.367-.013-.503-.014v.075h.034c.124 0 .274.022.274.217v1.85c0 .194-.15.216-.274.216h-.034v.075c.135-.002.333-.014.5-.014.17 0 .373.013.538.014zM30.35 23.706c.748 0 1.343.466 1.343 1.218 0 .812-.578 1.351-1.324 1.351-.744 0-1.311-.508-1.311-1.267a1.28 1.28 0 0 1 1.293-1.302m.052 2.414c.68 0 .8-.604.8-1.119 0-.516-.277-1.14-.86-1.14-.612 0-.795.55-.795 1.023 0 .632.288 1.236.855 1.236"/>
        <path fill="#1A1919" d="M29.042 25.008a1.297 1.297 0 0 1 1.308-1.318v.031c-.72 0-1.278.561-1.278 1.287.001.75.56 1.251 1.297 1.251.738 0 1.309-.532 1.31-1.336-.001-.742-.587-1.201-1.329-1.202v-.03c.753 0 1.357.471 1.358 1.232 0 .82-.586 1.366-1.34 1.367-.75-.001-1.325-.515-1.326-1.282m.49-.124c.002-.475.186-1.039.812-1.039.595.002.872.638.874 1.156-.002.515-.122 1.133-.814 1.133v-.03c.666 0 .782-.588.783-1.103 0-.511-.274-1.124-.843-1.125-.602.001-.78.538-.78 1.008 0 .629.284 1.22.84 1.22v.03c-.582 0-.87-.614-.871-1.25M34.055 25.527l.008-.007v-1.324c0-.29-.2-.332-.306-.332h-.076v-.105c.164 0 .326.014.49.014.144 0 .288-.014.431-.014v.105h-.052c-.147 0-.313.029-.313.449v1.606c0 .123.004.247.022.356h-.133L32.32 24.25v1.454c0 .308.06.413.33.413h.06v.106c-.151 0-.302-.014-.453-.014-.158 0-.319.014-.477.014v-.106h.05c.242 0 .315-.166.315-.447v-1.487a.315.315 0 0 0-.32-.318h-.045v-.105c.134 0 .27.014.404.014.105 0 .206-.014.311-.014l1.56 1.768"/>
        <path fill="#1A1919" d="M34.259 26.29l-.145-.005-1.779-1.996v1.414c.004.308.05.394.314.397h.075v.137h-.014c-.152 0-.303-.014-.453-.014-.157 0-.318.014-.477.014h-.014V26.1h.063c.231 0 .298-.15.3-.431v-1.487a.3.3 0 0 0-.303-.302h-.06v-.137h.014c.134 0 .271.014.403.014.104 0 .205-.014.324-.008l1.54 1.746v-1.299c-.001-.28-.188-.314-.29-.316h-.092v-.137h.016c.164 0 .326.014.49.014.143 0 .286-.014.432-.014h.014v.137h-.067c-.145.004-.294.017-.297.433v1.606c0 .123.003.246.02.354l.003.017h-.017zm-.133-.03h.114a2.516 2.516 0 0 1-.018-.341v-1.606c0-.425.177-.463.328-.464h.038v-.075c-.14 0-.277.014-.418.014-.16 0-.316-.013-.475-.014v.075h.062c.108 0 .32.049.32.347l-.004 1.335-.007.007-.01.011-1.56-1.775c-.104 0-.206.014-.313.014-.129 0-.26-.013-.388-.014v.075h.03c.166 0 .335.126.335.333v1.487c0 .282-.078.462-.33.463h-.035v.075c.152-.001.308-.014.462-.014.147 0 .292.013.437.014v-.075h-.045c-.275 0-.344-.121-.344-.429V24.21l1.82 2.05zm-.07-.733l.01-.01-.01.01zm-.009-.007v-.001l-.003-.003.003.004zM35.165 25.718c-.034.12-.076.212-.076.275 0 .106.147.123.262.123h.04v.106a6.248 6.248 0 0 0-.802 0v-.106h.019c.137 0 .254-.081.305-.23l.562-1.619c.045-.13.108-.307.129-.438.112-.039.252-.109.32-.152.01-.003.016-.007.027-.007.01 0 .017 0 .024.011l.032.088.645 1.846c.042.123.084.254.13.36.042.1.115.141.231.141h.022v.106a9.898 9.898 0 0 0-1.01 0v-.106h.038c.08 0 .218-.014.218-.102 0-.046-.032-.141-.07-.254l-.137-.41h-.796l-.113.368zm.513-1.564h-.007l-.327.999h.657l-.323-.999z"/>
        <path fill="#1A1919" d="M37.033 26.237c-.158-.006-.315-.014-.482-.014-.172 0-.347.008-.526.014l-.015.001v-.137h.053c.082 0 .202-.019.202-.087.001-.04-.03-.137-.07-.25l-.133-.399h-.774l-.108.357c-.035.121-.076.213-.076.27 0 .087.131.109.247.109h.054v.137h-.016c-.14-.007-.283-.015-.423-.015-.126 0-.251.008-.378.014l-.015.001v-.137h.035c.13 0 .24-.076.291-.22l.56-1.62c.046-.13.11-.306.14-.446.11-.039.25-.11.319-.152.01-.003.019-.008.033-.008a.04.04 0 0 1 .038.021c.011.028.021.06.033.088l.644 1.846c.043.124.084.254.13.36.041.093.105.13.217.13h.036v.138h-.016zm-.994-.03c.174-.007.344-.014.512-.014.162 0 .315.007.468.013v-.074h-.006c-.12 0-.202-.047-.246-.15-.046-.107-.087-.238-.13-.362l-.644-1.846a3.507 3.507 0 0 1-.03-.084c-.003-.004-.003-.004-.005-.004h-.007c-.007 0-.011.002-.02.004a1.341 1.341 0 0 1-.312.141c-.022.134-.085.31-.13.441l-.562 1.62c-.053.153-.176.24-.319.24h-.005v.074c.12-.006.241-.013.363-.013.136 0 .274.007.409.013v-.074h-.024c-.114-.002-.273-.014-.278-.14 0-.07.044-.16.078-.279l.014.005-.014-.005.116-.377h.817l.14.419c.04.113.071.207.071.259-.005.108-.152.116-.232.118h-.024v.074zm-.716-1.039l.337-1.03h.018v.016l-.004.001.004-.001v-.016h.01l.332 1.03h-.697zm.043-.03h.613l-.305-.946-.308.945zm.297-.98l.007-.002-.007.003zM37.917 25.876c0 .142.098.184.21.198.144.011.302.011.463-.007a.498.498 0 0 0 .336-.19.813.813 0 0 0 .11-.255h.1c-.038.201-.087.4-.129.6-.308 0-.617-.013-.925-.013-.309 0-.617.013-.925.013v-.106h.048c.127 0 .264-.017.264-.236v-1.814c0-.184-.137-.202-.264-.202h-.048v-.105c.185 0 .368.014.553.014.18 0 .354-.014.533-.014v.105h-.088c-.133 0-.238.004-.238.191v1.821"/>
        <path fill="#1A1919" d="M39.007 26.237c-.309 0-.618-.014-.925-.014-.308 0-.617.014-.926.014h-.015v-.136h.064c.127-.003.247-.012.249-.221v-1.815c-.002-.171-.122-.183-.249-.185h-.064v-.137h.015c.187 0 .369.014.554.014.178 0 .353-.014.533-.014h.014v.137h-.102c-.136.003-.22-.003-.223.175v1.821c0 .132.087.167.196.183a2.823 2.823 0 0 0 .46-.007.49.49 0 0 0 .326-.184.797.797 0 0 0 .106-.25l.003-.011h.132l-.003.019c-.04.201-.088.398-.13.6l-.003.011h-.012zm-.013-.03c.04-.192.087-.38.125-.57h-.073a.801.801 0 0 1-.107.249.52.52 0 0 1-.348.196 2.672 2.672 0 0 1-.466.007c-.114-.013-.224-.062-.224-.213v-1.82c0-.197.123-.207.254-.207h.072v-.075c-.172 0-.343.014-.517.014-.181 0-.359-.013-.538-.014v.075h.033c.125 0 .278.022.278.216v1.815c0 .228-.152.252-.278.252h-.033v.075c.302 0 .606-.014.91-.014.305 0 .609.013.912.014zM39.225 23.658c.286 0 .5.222.5.505a.491.491 0 0 1-.5.502c-.286 0-.5-.219-.5-.502 0-.283.214-.505.5-.505zm0 .914a.404.404 0 0 0 .395-.409c0-.217-.169-.41-.395-.41a.406.406 0 0 0-.396.41c0 .217.17.409.396.409zm-.249-.143v-.025c.061-.009.073-.007.073-.045v-.373c0-.052-.005-.07-.07-.068v-.025h.255c.088 0 .17.042.17.134 0 .074-.05.13-.12.152l.083.115a.533.533 0 0 0 .11.119v.016h-.097c-.047 0-.088-.099-.18-.232h-.055v.167c0 .033.011.031.073.04v.025h-.242zm.169-.266h.059c.064 0 .094-.049.094-.128 0-.08-.046-.109-.097-.109h-.056v.237z"/>
        <path fill="#FFFFFE" d="M17.201 11.298c0-3.301 2.658-5.977 5.937-5.977 3.278 0 5.936 2.676 5.936 5.977 0 3.302-2.658 5.978-5.936 5.978-3.279 0-5.937-2.676-5.937-5.978"/>
        <path fill="#0069AA" d="M26.728 11.18a3.595 3.595 0 0 0-2.292-3.353v6.707a3.595 3.595 0 0 0 2.292-3.353zm-4.846 3.352V7.828a3.599 3.599 0 0 0 0 6.704zm1.278-9.02c-3.11.001-5.628 2.538-5.628 5.669 0 3.13 2.519 5.666 5.628 5.667 3.109-.001 5.628-2.537 5.629-5.667-.001-3.13-2.52-5.668-5.63-5.669zm-.014 11.87c-3.402.017-6.202-2.759-6.202-6.137 0-3.692 2.8-6.246 6.202-6.245h1.594c3.362 0 6.43 2.552 6.43 6.245 0 3.377-3.068 6.137-6.43 6.137h-1.594z"/>
    </g>
</svg>
