<?xml version="1.0" encoding="UTF-8"?>
<svg width="48px" height="32px" viewBox="0 0 48 32" version="1.1" xmlns="http://www.w3.org/2000/svg" xmlns:xlink="http://www.w3.org/1999/xlink">
    <!-- Generator: Sketch 52.4 (67378) - http://www.bohemiancoding.com/sketch -->
    <title>payment-method/diners-club</title>
    <desc>Created with Sketch.</desc>
    <defs>
        <polygon id="path-1" points="0 0.251655629 39.8286093 0.251655629 39.8286093 10.8450331 0 10.8450331"></polygon>
    </defs>
    <g id="Symbols" stroke="none" stroke-width="1" fill="none" fill-rule="evenodd">
        <g id="payment-method/diners-club">
            <g id="Group-3">
                <path d="M3,0.5 C1.61928813,0.5 0.5,1.61928813 0.5,3 L0.5,29 C0.5,30.3807119 1.61928813,31.5 3,31.5 L45,31.5 C46.3807119,31.5 47.5,30.3807119 47.5,29 L47.5,3 C47.5,1.61928813 46.3807119,0.5 45,0.5 L3,0.5 Z" id="Rectangle-7" stroke="#E5E5E5" fill="#FFFFFF"></path>
                <g id="DCI_updated_logos_color_2c" transform="translate(4.000000, 10.000000)">
                    <path d="M0.221986755,5.64794702 C0.221986755,2.81960265 2.51496689,0.526357616 5.34357616,0.526357616 C8.17218543,0.526357616 10.4649007,2.81960265 10.4649007,5.64794702 C10.4649007,8.47655629 8.17218543,10.7695364 5.34357616,10.7695364 C2.51496689,10.7695364 0.221986755,8.47655629 0.221986755,5.64794702" id="Fill-1" fill="#FFFFFE"></path>
                    <path d="M14.5210596,5.15125828 C14.5210596,5.58119205 14.8283444,5.63099338 15.101457,5.63099338 C16.3070199,5.63099338 16.7025166,4.7218543 16.7025166,3.89059603 C16.7025166,2.84741722 16.0331126,2.09403974 14.9562914,2.09403974 C14.7274172,2.09403974 14.6219868,2.11019868 14.5210596,2.11629139 L14.5210596,5.15125828 Z M13.9743046,2.53430464 C13.9743046,2.03258278 13.7123179,2.06569536 13.461457,2.05986755 L13.461457,1.91549669 C13.6786755,1.92609272 13.9017219,1.92609272 14.1197351,1.92609272 C14.3539073,1.92609272 14.672053,1.91549669 15.0850331,1.91549669 C16.5298013,1.91549669 17.3165563,2.88 17.3165563,3.86834437 C17.3165563,4.42092715 16.9931126,5.81006623 15.0180132,5.81006623 C14.7340397,5.81006623 14.4709934,5.7992053 14.2092715,5.7992053 C13.9578808,5.7992053 13.7123179,5.80476821 13.461457,5.81006623 L13.461457,5.66463576 C13.7954967,5.63099338 13.9578808,5.62013245 13.9743046,5.2407947 L13.9743046,2.53430464 Z" id="Fill-2" fill="#1A1919"></path>
                    <path d="M18.1096689,2.4007947 C17.9639735,2.4007947 17.8357616,2.26701987 17.8357616,2.12211921 C17.8357616,1.98225166 17.9695364,1.85350993 18.1096689,1.85350993 C18.2543046,1.85350993 18.3830464,1.97086093 18.3830464,2.12211921 C18.3830464,2.27258278 18.2598675,2.4007947 18.1096689,2.4007947 Z M17.5123179,5.66463576 L17.6180132,5.66463576 C17.7745695,5.66463576 17.8858278,5.66463576 17.8858278,5.48 L17.8858278,3.96874172 C17.8858278,3.72291391 17.802649,3.68927152 17.5954967,3.57854305 L17.5954967,3.48900662 C17.8582781,3.41033113 18.1703311,3.30543046 18.1928477,3.28768212 C18.2323179,3.26596026 18.2651656,3.26039735 18.2935099,3.26039735 C18.3210596,3.26039735 18.3324503,3.29350993 18.3324503,3.33801325 L18.3324503,5.48 C18.3324503,5.66463576 18.4553642,5.66463576 18.6111258,5.66463576 L18.7059603,5.66463576 L18.7059603,5.81006623 C18.5162914,5.81006623 18.3210596,5.7992053 18.1202649,5.7992053 C17.9194702,5.7992053 17.7186755,5.80476821 17.5123179,5.81006623 L17.5123179,5.66463576 Z" id="Fill-3" fill="#1A1919"></path>
                    <path d="M19.2362914,4.0018543 C19.2362914,3.79576159 19.1748344,3.73986755 18.9128477,3.63443709 L18.9128477,3.52768212 C19.1523179,3.44980132 19.3811921,3.37668874 19.6490066,3.26039735 C19.6659603,3.26039735 19.6821192,3.27125828 19.6821192,3.31523179 L19.6821192,3.6789404 C20.0007947,3.44980132 20.2744371,3.26039735 20.6482119,3.26039735 C21.122649,3.26039735 21.2898013,3.60582781 21.2898013,4.0410596 L21.2898013,5.48 C21.2898013,5.66463576 21.4129801,5.66463576 21.5684768,5.66463576 L21.6691391,5.66463576 L21.6691391,5.81006623 C21.4733775,5.81006623 21.2784106,5.7992053 21.0781457,5.7992053 C20.8768212,5.7992053 20.6760265,5.80476821 20.4752318,5.81006623 L20.4752318,5.66463576 L20.5756291,5.66463576 C20.7319205,5.66463576 20.8429139,5.66463576 20.8429139,5.48 L20.8429139,4.03576159 C20.8429139,3.71708609 20.6482119,3.5613245 20.3300662,3.5613245 C20.1512583,3.5613245 19.8670199,3.70622517 19.6821192,3.82940397 L19.6821192,5.48 C19.6821192,5.66463576 19.8058278,5.66463576 19.9621192,5.66463576 L20.0625166,5.66463576 L20.0625166,5.81006623 C19.8670199,5.81006623 19.6712583,5.7992053 19.4699338,5.7992053 C19.2699338,5.7992053 19.0686093,5.80476821 18.8678146,5.81006623 L18.8678146,5.66463576 L18.9690066,5.66463576 C19.1250331,5.66463576 19.2362914,5.66463576 19.2362914,5.48 L19.2362914,4.0018543" id="Fill-4" fill="#1A1919"></path>
                    <path d="M23.0813245,4.09112583 C23.2203974,4.09112583 23.2365563,4.01880795 23.2365563,3.95205298 C23.2365563,3.66701987 23.0638411,3.4381457 22.7512583,3.4381457 C22.4113907,3.4381457 22.1769536,3.68927152 22.1099338,4.09112583 L23.0813245,4.09112583 Z M22.0937748,4.27019868 C22.0818543,4.3205298 22.0818543,4.40370861 22.0937748,4.59364238 C22.1263576,5.12397351 22.4672848,5.5589404 22.9133775,5.5589404 C23.2203974,5.5589404 23.4609272,5.39152318 23.666755,5.18490066 L23.7449007,5.26304636 C23.4882119,5.60344371 23.1703311,5.89350993 22.7131126,5.89350993 C21.8254305,5.89350993 21.6471523,5.03443709 21.6471523,4.67735099 C21.6471523,3.58357616 22.3835762,3.26039735 22.7735099,3.26039735 C23.2256954,3.26039735 23.7117881,3.54437086 23.7168212,4.13562914 C23.7168212,4.16980132 23.7168212,4.20291391 23.7117881,4.23655629 L23.6609272,4.27019868 L22.0937748,4.27019868 Z" id="Fill-5" fill="#1A1919"></path>
                    <path d="M23.8450331,5.66463576 L23.9962914,5.66463576 C24.1523179,5.66463576 24.2630464,5.66463576 24.2630464,5.48 L24.2630464,3.91284768 C24.2630464,3.73986755 24.0572185,3.70622517 23.973245,3.66119205 L23.973245,3.57854305 C24.3806623,3.40503311 24.6042384,3.26039735 24.6548344,3.26039735 C24.6876821,3.26039735 24.7043709,3.27629139 24.7043709,3.33271523 L24.7043709,3.83470199 L24.7162914,3.83470199 C24.8553642,3.61721854 25.0898013,3.26039735 25.4299338,3.26039735 C25.5695364,3.26039735 25.7478146,3.35443709 25.7478146,3.55576159 C25.7478146,3.70622517 25.6423841,3.8407947 25.4858278,3.8407947 C25.3123179,3.8407947 25.3123179,3.70622517 25.117351,3.70622517 C25.0225166,3.70622517 24.7101987,3.83470199 24.7101987,4.16980132 L24.7101987,5.48 C24.7101987,5.66463576 24.821457,5.66463576 24.9777483,5.66463576 L25.2900662,5.66463576 L25.2900662,5.81006623 C24.9833113,5.80476821 24.749404,5.7992053 24.509404,5.7992053 C24.2805298,5.7992053 24.0463576,5.80476821 23.8450331,5.81006623 L23.8450331,5.66463576" id="Fill-6" fill="#1A1919"></path>
                    <path d="M25.9931126,5.03443709 C26.0662252,5.40238411 26.2892715,5.71523179 26.6966887,5.71523179 C27.0254305,5.71523179 27.1475497,5.51390728 27.1475497,5.3189404 C27.1475497,4.66092715 25.9321854,4.87205298 25.9321854,3.97430464 C25.9321854,3.66119205 26.1835762,3.26039735 26.797351,3.26039735 C26.9756291,3.26039735 27.2153642,3.31046358 27.4328477,3.42172185 L27.4723179,3.99072848 L27.3438411,3.99072848 C27.2882119,3.6394702 27.0927152,3.4381457 26.7353642,3.4381457 C26.512053,3.4381457 26.3006623,3.56715232 26.3006623,3.80662252 C26.3006623,4.46013245 27.594702,4.25880795 27.594702,5.13483444 C27.594702,5.50278146 27.2990728,5.89350993 26.6352318,5.89350993 C26.4113907,5.89350993 26.149404,5.81562914 25.9541722,5.70437086 L25.8929801,5.06225166 L25.9931126,5.03443709" id="Fill-7" fill="#1A1919"></path>
                    <path d="M32.6328477,2.92503311 L32.4935099,2.92503311 C32.3875497,2.27258278 31.9242384,2.01033113 31.3001325,2.01033113 C30.6577483,2.01033113 29.7255629,2.4397351 29.7255629,3.77827815 C29.7255629,4.90622517 30.5303311,5.71523179 31.3888742,5.71523179 C31.9411921,5.71523179 32.3989404,5.33615894 32.5107285,4.74993377 L32.6384106,4.78304636 L32.5107285,5.59788079 C32.2762914,5.74331126 31.6450331,5.89350993 31.2768212,5.89350993 C29.9713907,5.89350993 29.1464901,5.05086093 29.1464901,3.79576159 C29.1464901,2.65192053 30.1666225,1.83125828 31.2606623,1.83125828 C31.7128477,1.83125828 32.1475497,1.97668874 32.5772185,2.12715232 L32.6328477,2.92503311" id="Fill-8" fill="#1A1919"></path>
                    <path d="M32.8336424,5.66463576 L32.9401325,5.66463576 C33.0964238,5.66463576 33.2082119,5.66463576 33.2082119,5.48 L33.2082119,2.37350993 C33.2082119,2.01033113 33.1242384,1.9989404 32.9123179,1.93774834 L32.9123179,1.84847682 C33.1350993,1.77589404 33.3695364,1.67602649 33.4871523,1.60821192 C33.5480795,1.57509934 33.5931126,1.54675497 33.6095364,1.54675497 C33.6434437,1.54675497 33.6540397,1.58039735 33.6540397,1.62543046 L33.6540397,5.48 C33.6540397,5.66463576 33.7772185,5.66463576 33.9335099,5.66463576 L34.0283444,5.66463576 L34.0283444,5.81006623 C33.8394702,5.81006623 33.6434437,5.7992053 33.4421192,5.7992053 C33.2418543,5.7992053 33.0410596,5.80476821 32.8336424,5.81006623 L32.8336424,5.66463576" id="Fill-9" fill="#1A1919"></path>
                    <path d="M36.4166887,5.50278146 C36.4166887,5.60344371 36.4776159,5.60874172 36.5727152,5.60874172 C36.6394702,5.60874172 36.7237086,5.60344371 36.7962914,5.60344371 L36.7962914,5.7210596 C36.5557616,5.74331126 36.098543,5.86013245 35.9917881,5.89350993 L35.9642384,5.87708609 L35.9642384,5.42569536 C35.6299338,5.69880795 35.3724503,5.89350993 34.9761589,5.89350993 C34.6749669,5.89350993 34.3629139,5.69880795 34.3629139,5.23046358 L34.3629139,3.8015894 C34.3629139,3.65615894 34.3403974,3.51629139 34.0286093,3.48900662 L34.0286093,3.38304636 C34.2299338,3.37668874 34.6749669,3.34410596 34.7480795,3.34410596 C34.8100662,3.34410596 34.8100662,3.38304636 34.8100662,3.50543046 L34.8100662,4.94490066 C34.8100662,5.11205298 34.8100662,5.59205298 35.2953642,5.59205298 C35.4845033,5.59205298 35.7356291,5.44688742 35.9698013,5.25271523 L35.9698013,3.75072848 C35.9698013,3.6394702 35.7019868,3.57854305 35.5017219,3.52211921 L35.5017219,3.42172185 C36.0037086,3.38807947 36.3165563,3.34410596 36.3719205,3.34410596 C36.4166887,3.34410596 36.4166887,3.38304636 36.4166887,3.44450331 L36.4166887,5.50278146" id="Fill-10" fill="#1A1919"></path>
                    <path d="M37.5266225,5.17933775 C37.5266225,5.39152318 37.7271523,5.74834437 38.1017219,5.74834437 C38.6990728,5.74834437 38.9501987,5.16211921 38.9501987,4.66543046 C38.9501987,4.06331126 38.4921854,3.5613245 38.0574834,3.5613245 C37.8498013,3.5613245 37.677351,3.69536424 37.5266225,3.82437086 L37.5266225,5.17933775 Z M37.5266225,3.66119205 C37.7496689,3.47231788 38.0516556,3.26039735 38.3581457,3.26039735 C39.0055629,3.26039735 39.3960265,3.82437086 39.3960265,4.43152318 C39.3960265,5.16211921 38.8606623,5.89350993 38.0617219,5.89350993 C37.6490066,5.89350993 37.432053,5.7597351 37.2866225,5.69880795 L37.1192053,5.82649007 L37.002649,5.76556291 C37.0519205,5.43655629 37.08,5.11205298 37.08,4.77218543 L37.08,2.37350993 C37.08,2.01033113 36.9968212,1.9989404 36.7846358,1.93774834 L36.7846358,1.84847682 C37.0084768,1.77589404 37.2418543,1.67602649 37.3594702,1.60821192 C37.4201325,1.57509934 37.4651656,1.54675497 37.482649,1.54675497 C37.5160265,1.54675497 37.5266225,1.58039735 37.5266225,1.62543046 L37.5266225,3.66119205 Z" id="Fill-11" fill="#1A1919"></path>
                    <path d="M13.4550993,9.05377483 L13.4977483,9.05377483 C13.6066225,9.05377483 13.7223841,9.0392053 13.7223841,8.8807947 L13.7223841,7.29059603 C13.7223841,7.13218543 13.6066225,7.11761589 13.4977483,7.11761589 L13.4550993,7.11761589 L13.4550993,7.02569536 C13.5737748,7.02569536 13.7557616,7.03788079 13.9049007,7.03788079 C14.0564238,7.03788079 14.2384106,7.02569536 14.3811921,7.02569536 L14.3811921,7.11761589 L14.338543,7.11761589 C14.2296689,7.11761589 14.1139073,7.13218543 14.1139073,7.29059603 L14.1139073,8.8807947 C14.1139073,9.0392053 14.2296689,9.05377483 14.338543,9.05377483 L14.3811921,9.05377483 L14.3811921,9.14516556 C14.2354967,9.14516556 14.0529801,9.13350993 13.9017219,9.13350993 C13.7525828,9.13350993 13.5737748,9.14516556 13.4550993,9.14516556 L13.4550993,9.05377483" id="Fill-12" fill="#1A1919"></path>
                    <path d="M14.4140456,9.13245033 L14.4143237,9.06781457 L14.3834561,9.06781457 C14.2697186,9.06781457 14.1337342,9.04847682 14.133178,8.8807947 L14.133178,7.29059603 C14.1337342,7.12291391 14.2697186,7.10410596 14.3834561,7.10410596 L14.4140456,7.10410596 L14.4140456,7.0394702 C14.2669377,7.0394702 14.0822881,7.05139073 13.92795,7.05139073 C13.7766708,7.05139073 13.5934116,7.04 13.4699411,7.0394702 L13.4699411,7.10410596 L13.5005306,7.10410596 C13.61399,7.10410596 13.7499744,7.12291391 13.7499744,7.29059603 L13.7499744,8.8807947 C13.7499744,9.04847682 13.61399,9.06781457 13.5005306,9.06781457 L13.4699411,9.06781457 L13.4699411,9.13245033 C13.5934116,9.13086093 13.7736118,9.12 13.9246129,9.12 C14.0797853,9.12 14.2641569,9.13139073 14.4140456,9.13245033 Z M14.42795,9.1581457 C14.2738899,9.1581457 14.0828443,9.14622517 13.9246129,9.14622517 C13.7683282,9.14622517 13.5808977,9.1581457 13.4557586,9.1581457 L13.4418543,9.1581457 L13.4418543,9.0413245 L13.5005306,9.0413245 C13.6159366,9.0386755 13.7216096,9.02940397 13.7221658,8.8807947 L13.7221658,7.29059603 C13.7216096,7.14198675 13.6159366,7.13218543 13.5005306,7.13006623 L13.4418543,7.13006623 L13.4418543,7.01324503 L13.4557586,7.01324503 C13.5808977,7.01324503 13.7719433,7.02490066 13.92795,7.02490066 C14.0864594,7.02490066 14.2772269,7.01324503 14.42795,7.01324503 L14.4418543,7.01324503 L14.4418543,7.13006623 L14.3834561,7.13006623 C14.267772,7.13218543 14.1618209,7.14198675 14.1612648,7.29059603 L14.1612648,8.8807947 C14.1618209,9.02940397 14.267772,9.0386755 14.3834561,9.0413245 L14.4418543,9.0413245 L14.4418543,9.1581457 L14.42795,9.1581457 Z" id="Fill-13" fill="#1A1919"></path>
                    <path d="M16.4670199,8.54728477 L16.4731126,8.54092715 L16.4731126,7.40264901 C16.4731126,7.15390728 16.2998675,7.11761589 16.2084768,7.11761589 L16.1419868,7.11761589 L16.1419868,7.02569536 C16.2845033,7.02569536 16.4246358,7.03788079 16.5671523,7.03788079 C16.6913907,7.03788079 16.8164238,7.02569536 16.9401325,7.02569536 L16.9401325,7.11761589 L16.8950993,7.11761589 C16.7674172,7.11761589 16.6243709,7.14145695 16.6243709,7.50251656 L16.6243709,8.88450331 C16.6243709,8.99072848 16.6280795,9.09668874 16.642649,9.19072848 L16.5274172,9.19072848 L14.9639735,7.44821192 L14.9639735,8.69880795 C14.9639735,8.96370861 15.0150993,9.05377483 15.2490066,9.05377483 L15.3006623,9.05377483 L15.3006623,9.14516556 C15.1703311,9.14516556 15.0394702,9.13350993 14.9088742,9.13350993 C14.773245,9.13350993 14.6328477,9.14516556 14.4964238,9.14516556 L14.4964238,9.05377483 L14.5388079,9.05377483 C14.7483444,9.05377483 14.8124503,8.91205298 14.8124503,8.66887417 L14.8124503,7.39019868 C14.8124503,7.22013245 14.672053,7.11761589 14.535894,7.11761589 L14.4964238,7.11761589 L14.4964238,7.02569536 C14.6113907,7.02569536 14.7300662,7.03788079 14.845298,7.03788079 C14.9364238,7.03788079 15.0249007,7.02569536 15.1157616,7.02569536 L16.4670199,8.54728477" id="Fill-14" fill="#1A1919"></path>
                    <path d="M16.5274172,9.17748344 L16.6280795,9.17748344 C16.6140397,9.08635762 16.6119205,8.98490066 16.6119205,8.88450331 L16.6119205,7.50251656 C16.6119205,7.13827815 16.7642384,7.10410596 16.8950993,7.10410596 L16.9274172,7.10410596 L16.9274172,7.0394702 C16.8071523,7.04 16.6876821,7.05139073 16.5671523,7.05139073 C16.4280795,7.05139073 16.2927152,7.04 16.1552318,7.0394702 L16.1552318,7.10410596 L16.2084768,7.10410596 C16.3019868,7.10410596 16.4858278,7.14569536 16.4858278,7.40264901 L16.4823841,8.55019868 L16.4757616,8.55602649 L16.4654305,8.56582781 L15.1157616,7.0394702 C15.0254305,7.0394702 14.9374834,7.05139073 14.845298,7.05139073 C14.7340397,7.05139073 14.6196026,7.04 14.5096689,7.0394702 L14.5091391,7.10410596 L14.535894,7.10410596 C14.6784106,7.10410596 14.8249007,7.21298013 14.8249007,7.39019868 L14.8249007,8.66887417 C14.8249007,8.91205298 14.757351,9.06675497 14.5388079,9.06781457 L14.5096689,9.06675497 L14.5096689,9.13245033 C14.6410596,9.13086093 14.7761589,9.12 14.9088742,9.12 C15.0360265,9.12 15.1621192,9.13086093 15.2871523,9.13245033 L15.2871523,9.06781457 L15.2490066,9.06781457 C15.0100662,9.06675497 14.9507285,8.96317881 14.9507285,8.69880795 L14.9507285,7.41403974 L16.5274172,9.17748344 Z M16.642649,9.20423841 L16.5176159,9.1997351 L14.9766887,7.48238411 L14.9766887,8.69880795 C14.9806623,8.96317881 15.0206623,9.0381457 15.2490066,9.0413245 L15.3144371,9.0413245 L15.3144371,9.1581457 L15.3006623,9.1581457 C15.1692715,9.1581457 15.0386755,9.14622517 14.9088742,9.14622517 C14.7735099,9.14622517 14.6339073,9.1581457 14.495894,9.1581457 L14.482649,9.1581457 L14.482649,9.0413245 L14.5388079,9.0413245 C14.7398675,9.0397351 14.7968212,8.91099338 14.7994702,8.66887417 L14.7994702,7.39019868 C14.7989404,7.22887417 14.6662252,7.13059603 14.535894,7.13006623 L14.482649,7.13006623 L14.482649,7.01324503 L14.495894,7.01324503 C14.6121854,7.01324503 14.730596,7.02490066 14.845298,7.02490066 C14.9353642,7.02490066 15.0233113,7.01324503 15.1258278,7.01774834 L16.4598675,8.5192053 L16.4598675,7.40264901 C16.4582781,7.1610596 16.2974834,7.13218543 16.2084768,7.13006623 L16.1282119,7.13006623 L16.1282119,7.01324503 L16.1419868,7.01324503 C16.2850331,7.01324503 16.4251656,7.02490066 16.5671523,7.02490066 C16.6903311,7.02490066 16.8150993,7.01324503 16.9401325,7.01324503 L16.9539073,7.01324503 L16.9539073,7.13006623 L16.8950993,7.13006623 C16.7695364,7.13377483 16.6413245,7.14516556 16.6376159,7.50251656 L16.6376159,8.88450331 C16.6376159,8.99019868 16.6407947,9.09615894 16.6556291,9.18887417 L16.6580132,9.20423841 L16.642649,9.20423841 Z" id="Fill-15" fill="#1A1919"></path>
                    <path d="M17.394702,7.17774834 C17.1668874,7.17774834 17.1586755,7.23258278 17.1128477,7.45403974 L17.0217219,7.45403974 C17.0341722,7.36900662 17.0490066,7.28423841 17.058543,7.19576159 C17.0704636,7.11099338 17.0765563,7.02569536 17.0765563,6.93801325 L17.1496689,6.93801325 C17.1740397,7.02913907 17.2498013,7.02569536 17.3319205,7.02569536 L18.8982781,7.02569536 C18.9801325,7.02569536 19.0561589,7.02304636 19.0622517,6.93192053 L19.1345695,6.94437086 C19.1234437,7.02569536 19.1109934,7.10781457 19.1017219,7.19019868 C19.0953642,7.27178808 19.0953642,7.35417219 19.0953642,7.43576159 L19.0047682,7.46993377 C18.9986755,7.35708609 18.9833113,7.17774834 18.7798675,7.17774834 L18.2821192,7.17774834 L18.2821192,8.79284768 C18.2821192,9.02728477 18.3888742,9.05377483 18.5340397,9.05377483 L18.5915232,9.05377483 L18.5915232,9.14516556 C18.4733775,9.14516556 18.2603974,9.13350993 18.0966887,9.13350993 C17.9149669,9.13350993 17.7019868,9.14516556 17.5833113,9.14516556 L17.5833113,9.05377483 L17.6410596,9.05377483 C17.8087417,9.05377483 17.8929801,9.0392053 17.8929801,8.7997351 L17.8929801,7.17774834 L17.394702,7.17774834" id="Fill-16" fill="#1A1919"></path>
                    <path d="M18.592053,9.1581457 C18.4723179,9.1581457 18.2598675,9.14622517 18.0966887,9.14622517 C17.9149669,9.14622517 17.7030464,9.1581457 17.5833113,9.1581457 L17.570596,9.1581457 L17.570596,9.0413245 L17.6410596,9.0413245 C17.8087417,9.03708609 17.8760265,9.03496689 17.8797351,8.7997351 L17.8797351,7.19072848 L17.394702,7.19072848 L17.394702,7.16476821 L17.9062252,7.16476821 L17.9062252,8.7997351 C17.9062252,9.04291391 17.8082119,9.06781457 17.6410596,9.06781457 L17.5965563,9.06781457 L17.5965563,9.13192053 C17.7165563,9.13086093 17.9205298,9.12 18.0966887,9.12 C18.2553642,9.12 18.4580132,9.13086093 18.5780132,9.13192053 L18.5780132,9.06781457 L18.5340397,9.06781457 C18.3872848,9.06781457 18.2683444,9.03205298 18.2683444,8.79284768 L18.2683444,7.16476821 L18.7798675,7.16476821 C18.9838411,7.16529801 19.0103311,7.33801325 19.0169536,7.45086093 L19.0831788,7.42649007 C19.0831788,7.34781457 19.0834437,7.26834437 19.0884768,7.18807947 C19.0969536,7.11046358 19.1083444,7.03284768 19.1197351,6.95523179 L19.0736424,6.94754967 C19.0588079,7.03549669 18.9740397,7.0405298 18.8977483,7.0394702 L17.3319205,7.0394702 C17.3258278,7.0394702 17.3207947,7.0394702 17.3160265,7.0394702 C17.2445033,7.0394702 17.1668874,7.03602649 17.1398675,6.95152318 L17.0892715,6.95152318 C17.0892715,7.03549669 17.0831788,7.11655629 17.0712583,7.19788079 C17.0627815,7.2810596 17.0490066,7.3613245 17.0376159,7.4410596 L17.1025166,7.4410596 C17.1427815,7.22993377 17.1684768,7.1610596 17.394702,7.16476821 L17.394702,7.19072848 C17.170596,7.19523179 17.1756291,7.23258278 17.1255629,7.45695364 L17.1239735,7.46754967 L17.0066225,7.46754967 L17.0084768,7.45192053 C17.0203974,7.36715232 17.0362914,7.28211921 17.045298,7.19364238 C17.0577483,7.10940397 17.0635762,7.02490066 17.0635762,6.93801325 L17.0635762,6.92476821 L17.1597351,6.92476821 L17.1618543,6.93456954 C17.1827815,7.01112583 17.2384106,7.01165563 17.3160265,7.01324503 C17.3213245,7.01324503 17.3258278,7.01324503 17.3319205,7.01324503 L18.8977483,7.01324503 C18.9822517,7.01165563 19.0439735,7.01006623 19.0492715,6.93086093 L19.0503311,6.91682119 L19.0638411,6.9194702 L19.149404,6.93298013 L19.1478146,6.94596026 C19.135894,7.02754967 19.1239735,7.10940397 19.1152318,7.19072848 C19.1088742,7.27178808 19.1088742,7.35417219 19.1088742,7.43576159 L19.1088742,7.44529801 L19.1001325,7.44874172 L18.9925828,7.48821192 L18.992053,7.46993377 C18.9838411,7.35629139 18.9716556,7.19072848 18.7798675,7.19072848 L18.2950993,7.19072848 L18.2950993,8.79284768 C18.2982781,9.02225166 18.3891391,9.0381457 18.5340397,9.0413245 L18.6045033,9.0413245 L18.6045033,9.1581457 L18.592053,9.1581457" id="Fill-17" fill="#1A1919"></path>
                    <path d="M19.232053,9.05377483 L19.2744371,9.05377483 C19.3835762,9.05377483 19.4988079,9.0392053 19.4988079,8.8807947 L19.4988079,7.29059603 C19.4988079,7.13218543 19.3835762,7.11761589 19.2744371,7.11761589 L19.232053,7.11761589 L19.232053,7.02569536 C19.4164238,7.02569536 19.7335099,7.03788079 19.9878146,7.03788079 C20.2431788,7.03788079 20.5584106,7.02569536 20.7642384,7.02569536 C20.7594702,7.15655629 20.7621192,7.35708609 20.7713907,7.49059603 L20.6794702,7.51496689 C20.6651656,7.31788079 20.6286093,7.16 20.3096689,7.16 L19.8887417,7.16 L19.8887417,7.95470199 L20.2487417,7.95470199 C20.4312583,7.95470199 20.4712583,7.85245033 20.4887417,7.68821192 L20.5793377,7.68821192 C20.5735099,7.80688742 20.570596,7.92476821 20.570596,8.04317881 C20.570596,8.1592053 20.5735099,8.27390728 20.5793377,8.38940397 L20.4887417,8.40741722 C20.4712583,8.22543046 20.4619868,8.10701987 20.2519205,8.10701987 L19.8887417,8.10701987 L19.8887417,8.81403974 C19.8887417,9.01192053 20.064106,9.01192053 20.2580132,9.01192053 C20.6227815,9.01192053 20.7830464,8.98754967 20.8741722,8.6413245 L20.9592053,8.66251656 C20.9197351,8.82410596 20.8834437,8.98384106 20.8561589,9.14516556 C20.6619868,9.14516556 20.3125828,9.13350993 20.0392053,9.13350993 C19.7660927,9.13350993 19.4047682,9.14516556 19.232053,9.14516556 L19.232053,9.05377483" id="Fill-18" fill="#1A1919"></path>
                    <path d="M20.8450331,9.13192053 C20.8712583,8.97880795 20.9056954,8.82490066 20.9435762,8.67231788 L20.8834437,8.65748344 C20.7925828,8.99735099 20.6166887,9.02728477 20.2580132,9.02463576 C20.0664901,9.02463576 19.8752318,9.02463576 19.8741722,8.81403974 L19.8741722,8.09403974 L20.2519205,8.09403974 C20.464106,8.09139073 20.4850331,8.21960265 20.5001325,8.39258278 L20.5658278,8.37907285 C20.5605298,8.26728477 20.557351,8.15443709 20.557351,8.04317881 C20.557351,7.92953642 20.5605298,7.81562914 20.5658278,7.70066225 L20.5001325,7.70066225 C20.4834437,7.85960265 20.4341722,7.97033113 20.2487417,7.96821192 L19.8741722,7.96821192 L19.8741722,7.14622517 L20.3096689,7.14622517 C20.6254305,7.14463576 20.6781457,7.30754967 20.6911258,7.49801325 L20.7568212,7.4802649 C20.7515232,7.39443709 20.7486093,7.28529801 20.7486093,7.18384106 C20.7486093,7.13112583 20.7496689,7.08238411 20.7509934,7.0394702 C20.5446358,7.04 20.2370861,7.05139073 19.9878146,7.05139073 C19.7382781,7.05139073 19.4307285,7.04 19.2450331,7.0394702 L19.2450331,7.10410596 L19.2744371,7.10410596 C19.3825166,7.10410596 19.512053,7.12291391 19.5125828,7.29059603 L19.5125828,8.8807947 C19.512053,9.04847682 19.3825166,9.06675497 19.2744371,9.06781457 L19.2450331,9.06781457 L19.2450331,9.13192053 C19.421457,9.13139073 19.7727152,9.12 20.0392053,9.12 C20.3072848,9.12 20.6487417,9.13139073 20.8450331,9.13192053 Z M20.8561589,9.1581457 C20.6611921,9.1581457 20.312053,9.14569536 20.0392053,9.14569536 C19.7660927,9.14569536 19.405298,9.1581457 19.232053,9.1581457 L19.218543,9.1581457 L19.218543,9.0413245 L19.2744371,9.0413245 C19.384106,9.0392053 19.4845033,9.02940397 19.4855629,8.8807947 L19.4855629,7.29059603 C19.4845033,7.14251656 19.384106,7.13271523 19.2744371,7.13006623 L19.218543,7.13006623 L19.218543,7.01324503 L19.232053,7.01324503 C19.4169536,7.01324503 19.7335099,7.02490066 19.9878146,7.02490066 C20.2423841,7.02490066 20.5578808,7.01324503 20.7642384,7.01324503 L20.7780132,7.01324503 L20.7780132,7.02649007 C20.7753642,7.07205298 20.7743046,7.12582781 20.7743046,7.18384106 C20.7743046,7.28847682 20.7780132,7.40317881 20.7838411,7.48953642 L20.7838411,7.50066225 L20.7737748,7.50357616 L20.6672848,7.53165563 L20.666755,7.51549669 C20.6487417,7.3189404 20.6227815,7.17562914 20.3096689,7.17298013 L19.9006623,7.17298013 L19.9006623,7.94119205 L20.2487417,7.94119205 C20.424106,7.94039735 20.4545695,7.85033113 20.4754967,7.68688742 L20.4765563,7.67496689 L20.5933775,7.67496689 L20.5933775,7.68821192 C20.5870199,7.80688742 20.5835762,7.92476821 20.5835762,8.04317881 C20.5835762,8.1581457 20.5870199,8.27337748 20.5933775,8.38940397 L20.5933775,8.3997351 L20.5825166,8.40238411 L20.4765563,8.42304636 L20.4754967,8.40900662 C20.4545695,8.22384106 20.4535099,8.12238411 20.2519205,8.1197351 L19.9006623,8.1192053 L19.9006623,8.81403974 C19.9011921,8.9989404 20.0598675,8.99788079 20.2580132,8.9989404 C20.6238411,8.99682119 20.7700662,8.97880795 20.861457,8.63761589 L20.8643709,8.62543046 L20.877351,8.62781457 L20.9745695,8.65324503 L20.9719205,8.66569536 C20.9324503,8.82596026 20.8964238,8.98701987 20.8691391,9.14728477 L20.8670199,9.1581457 L20.8561589,9.1581457 Z" id="Fill-19" fill="#1A1919"></path>
                    <path d="M21.7578808,8.05218543 L21.9062252,8.05218543 C22.2100662,8.05218543 22.3735099,7.93721854 22.3735099,7.57854305 C22.3735099,7.30913907 22.2005298,7.13536424 21.9303311,7.13536424 C21.8386755,7.13536424 21.7997351,7.14516556 21.7578808,7.14754967 L21.7578808,8.05218543 Z M21.3692715,7.34781457 C21.3692715,7.12582781 21.2476821,7.11761589 21.1536424,7.11761589 L21.0982781,7.11761589 L21.0982781,7.02569536 C21.1954967,7.02569536 21.3838411,7.03788079 21.5695364,7.03788079 C21.7509934,7.03788079 21.8972185,7.02569536 22.058543,7.02569536 C22.44,7.02569536 22.7803974,7.12900662 22.7803974,7.5605298 C22.7803974,7.83364238 22.5986755,8.0002649 22.3589404,8.09562914 L22.8781457,8.87152318 C22.9629139,9.0005298 23.0230464,9.03602649 23.1721854,9.05377483 L23.1721854,9.14516556 C23.072053,9.14516556 22.9750993,9.13350993 22.8749669,9.13350993 C22.7803974,9.13350993 22.6831788,9.14516556 22.589404,9.14516556 C22.3557616,8.8389404 22.1549669,8.51099338 21.9576159,8.1613245 L21.7578808,8.1613245 L21.7578808,8.81112583 C21.7578808,9.04556291 21.866755,9.05377483 22.0063576,9.05377483 L22.0617219,9.05377483 L22.0617219,9.14516556 C21.887947,9.14516556 21.7117881,9.13350993 21.5388079,9.13350993 C21.3931126,9.13350993 21.250596,9.14516556 21.0982781,9.14516556 L21.0982781,9.05377483 L21.1536424,9.05377483 C21.2654305,9.05377483 21.3692715,9.00291391 21.3692715,8.89033113 L21.3692715,7.34781457 Z" id="Fill-20" fill="#1A1919"></path>
                    <path d="M21.9062252,8.0392053 C22.2066225,8.03602649 22.3584106,7.93192053 22.3610596,7.57907285 C22.3594702,7.31417219 22.1944371,7.14966887 21.9303311,7.14807947 C21.847947,7.14807947 21.8095364,7.15549669 21.7708609,7.1594702 L21.7708609,8.0392053 L21.9062252,8.0392053 Z M21.757351,8.06490066 L21.7443709,8.06490066 L21.7443709,7.13536424 L21.7557616,7.13430464 C21.797351,7.13059603 21.8381457,7.12291391 21.9303311,7.12291391 C22.2066225,7.12291391 22.3864901,7.30225166 22.3870199,7.57907285 C22.3859603,7.94119205 22.2121854,8.06490066 21.9062252,8.06490066 L21.757351,8.06490066 Z M21.757351,8.14834437 L21.9650331,8.14834437 L21.9684768,8.15496689 C22.1660927,8.50410596 22.3658278,8.83178808 22.589404,9.13245033 C22.6823841,9.13245033 22.7798675,9.12 22.8739073,9.12 C22.9708609,9.12 23.0649007,9.13033113 23.1589404,9.13192053 L23.1589404,9.06516556 C23.0164238,9.04794702 22.9499338,9.00503311 22.8672848,8.8794702 L22.338543,8.08874172 L22.3539073,8.08264901 C22.5915232,7.98887417 22.7671523,7.82701987 22.7676821,7.56 C22.7671523,7.13933775 22.4397351,7.0410596 22.058543,7.0394702 C21.8980132,7.0394702 21.7517881,7.05139073 21.5695364,7.05139073 C21.3904636,7.05139073 21.2108609,7.04 21.1117881,7.0394702 L21.1117881,7.10410596 L21.1536424,7.10410596 C21.2476821,7.10410596 21.381457,7.1197351 21.381457,7.34781457 L21.381457,8.89033113 C21.381457,9.01218543 21.2680795,9.06781457 21.1536424,9.06781457 L21.1117881,9.06781457 L21.1117881,9.13192053 C21.2577483,9.13139073 21.3957616,9.12 21.5382781,9.12 C21.7086093,9.12 21.8794702,9.13139073 22.0476821,9.13192053 L22.0476821,9.06781457 L22.0063576,9.06781457 C21.8678146,9.06781457 21.7443709,9.05059603 21.7443709,8.81112583 L21.7443709,8.14834437 L21.757351,8.14834437 Z M23.1721854,9.1581457 C23.0704636,9.1581457 22.9740397,9.14622517 22.8739073,9.14622517 C22.7819868,9.14622517 22.6842384,9.1581457 22.578543,9.15364238 C22.3462252,8.84768212 22.1464901,8.5218543 21.9501987,8.17456954 L21.7708609,8.17456954 L21.7708609,8.81112583 C21.7740397,9.0397351 21.8659603,9.03761589 22.0063576,9.0413245 L22.0744371,9.0413245 L22.0744371,9.1581457 L22.0606623,9.1581457 C21.8868874,9.1581457 21.7101987,9.14622517 21.5382781,9.14622517 C21.3931126,9.14622517 21.2511258,9.1581457 21.0982781,9.1581457 L21.0858278,9.1581457 L21.0858278,9.0413245 L21.1536424,9.0413245 C21.2627815,9.0402649 21.3544371,8.99258278 21.3554967,8.89033113 L21.3554967,7.34781457 C21.3533775,7.13271523 21.2476821,7.13324503 21.1536424,7.13006623 L21.0858278,7.13006623 L21.0858278,7.01324503 L21.0982781,7.01324503 C21.1970861,7.01324503 21.3843709,7.02490066 21.5695364,7.02490066 C21.7504636,7.02490066 21.8966887,7.01324503 22.058543,7.01324503 C22.4405298,7.01324503 22.7931126,7.1197351 22.7941722,7.56 C22.7941722,7.83417219 22.6127152,8.00556291 22.3788079,8.10066225 L22.8887417,8.86437086 C22.9735099,8.99072848 23.0259603,9.02225166 23.1737748,9.0413245 L23.1849007,9.04238411 L23.1849007,9.1581457 L23.1721854,9.1581457 Z" id="Fill-21" fill="#1A1919"></path>
                    <path d="M25.2331126,8.54728477 L25.2389404,8.54092715 L25.2389404,7.40264901 C25.2389404,7.15390728 25.0659603,7.11761589 24.9753642,7.11761589 L24.9083444,7.11761589 L24.9083444,7.02569536 C25.0516556,7.02569536 25.1901987,7.03788079 25.3335099,7.03788079 C25.4582781,7.03788079 25.5825166,7.02569536 25.7072848,7.02569536 L25.7072848,7.11761589 L25.6619868,7.11761589 C25.5343046,7.11761589 25.3915232,7.14145695 25.3915232,7.50251656 L25.3915232,8.88450331 C25.3915232,8.99072848 25.3941722,9.09668874 25.4090066,9.19072848 L25.2943046,9.19072848 L23.7308609,7.44821192 L23.7308609,8.69880795 C23.7308609,8.96370861 23.7825166,9.05377483 24.0164238,9.05377483 L24.0680795,9.05377483 L24.0680795,9.14516556 C23.9372185,9.14516556 23.8063576,9.13350993 23.6760265,9.13350993 C23.5393377,9.13350993 23.3997351,9.14516556 23.2633113,9.14516556 L23.2633113,9.05377483 L23.3049007,9.05377483 C23.5149669,9.05377483 23.578543,8.91205298 23.578543,8.66887417 L23.578543,7.39019868 C23.578543,7.22013245 23.4389404,7.11761589 23.3025166,7.11761589 L23.2633113,7.11761589 L23.2633113,7.02569536 C23.3780132,7.02569536 23.4974834,7.03788079 23.6121854,7.03788079 C23.7030464,7.03788079 23.7909934,7.02569536 23.8823841,7.02569536 L25.2331126,8.54728477" id="Fill-22" fill="#1A1919"></path>
                    <path d="M25.2943046,9.17748344 L25.3936424,9.17748344 C25.3809272,9.08688742 25.3780132,8.98490066 25.3780132,8.88450331 L25.3780132,7.50251656 C25.3780132,7.13827815 25.5316556,7.10463576 25.6619868,7.10410596 L25.6937748,7.10410596 L25.6937748,7.0394702 C25.5743046,7.04 25.4540397,7.05139073 25.3335099,7.05139073 C25.1944371,7.05139073 25.058543,7.04 24.9218543,7.0394702 L24.9218543,7.10410596 L24.9753642,7.10410596 C25.0686093,7.10463576 25.2529801,7.14569536 25.2529801,7.40264901 L25.2487417,8.55019868 L25.2431788,8.55602649 L25.2331126,8.56635762 L23.8823841,7.0394702 C23.792053,7.0394702 23.7035762,7.05139073 23.6121854,7.05139073 C23.4996026,7.05139073 23.3862252,7.04 23.2760265,7.0394702 L23.2760265,7.10410596 L23.3025166,7.10410596 C23.4450331,7.10463576 23.5915232,7.21245033 23.5915232,7.39019868 L23.5915232,8.66834437 C23.5915232,8.91205298 23.522649,9.06675497 23.3049007,9.06781457 L23.2760265,9.06781457 L23.2760265,9.13192053 C23.4074172,9.13086093 23.5425166,9.12 23.6760265,9.12 C23.802649,9.12 23.9287417,9.13086093 24.0545695,9.13192053 L24.0545695,9.06781457 L24.0164238,9.06781457 C23.7772185,9.06781457 23.717351,8.96370861 23.7168212,8.69880795 L23.7168212,7.41403974 L25.2943046,9.17748344 Z M25.4090066,9.20423841 L25.2845033,9.1997351 L23.7435762,7.48238411 L23.7435762,8.69880795 C23.7475497,8.96370861 23.7872848,9.0381457 24.0164238,9.0413245 L24.0807947,9.0413245 L24.0807947,9.1581457 L24.0675497,9.1581457 C23.9361589,9.1581457 23.8058278,9.14569536 23.6760265,9.14569536 C23.5401325,9.14569536 23.3997351,9.1581457 23.2633113,9.1581457 L23.2490066,9.1581457 L23.2490066,9.0413245 L23.3049007,9.0413245 C23.5054305,9.0402649 23.5631788,8.91099338 23.565298,8.66834437 L23.565298,7.39019868 C23.5645033,7.22834437 23.4328477,7.13059603 23.3025166,7.13006623 L23.2490066,7.13006623 L23.2490066,7.01324503 L23.2633113,7.01324503 C23.378543,7.01324503 23.4980132,7.02490066 23.6121854,7.02490066 C23.7017219,7.02490066 23.789404,7.01324503 23.8911258,7.01668874 L25.2259603,8.5192053 L25.2259603,7.40264901 C25.2256954,7.1610596 25.0635762,7.13165563 24.9753642,7.13006623 L24.8950993,7.13006623 L24.8950993,7.01324503 L24.9083444,7.01324503 C25.0521854,7.01324503 25.1917881,7.02490066 25.3335099,7.02490066 C25.4572185,7.02490066 25.5819868,7.01324503 25.7070199,7.01324503 L25.72,7.01324503 L25.72,7.13006623 L25.6619868,7.13006623 C25.5369536,7.13324503 25.4076821,7.14516556 25.4045033,7.50251656 L25.4045033,8.88450331 C25.4045033,8.99019868 25.4071523,9.09509934 25.4222517,9.18887417 L25.4238411,9.20423841 L25.4090066,9.20423841 Z" id="Fill-23" fill="#1A1919"></path>
                    <path d="M26.6389404,7.36609272 L26.6328477,7.36609272 L26.3501987,8.22543046 L26.9178808,8.22543046 L26.6389404,7.36609272 Z M26.1960265,8.71125828 C26.165298,8.81403974 26.1282119,8.89377483 26.1282119,8.94754967 C26.1282119,9.0392053 26.2566887,9.05377483 26.3565563,9.05377483 L26.3901987,9.05377483 L26.3901987,9.14516556 C26.2680795,9.13907285 26.1438411,9.13350993 26.0222517,9.13350993 C25.9128477,9.13350993 25.8039735,9.13907285 25.6948344,9.14516556 L25.6948344,9.05377483 L25.7125828,9.05377483 C25.8309934,9.05377483 25.9316556,8.98384106 25.9761589,8.85668874 L26.4625166,7.46384106 C26.5017219,7.35099338 26.5570861,7.1994702 26.5748344,7.08662252 C26.672053,7.05350993 26.7936424,6.99284768 26.8513907,6.95629139 C26.8606623,6.95311258 26.8654305,6.95046358 26.8754967,6.95046358 C26.8842384,6.95046358 26.8903311,6.95046358 26.8969536,6.9594702 C26.9059603,6.98357616 26.914702,7.01112583 26.9245033,7.03549669 L27.4829139,8.62331126 C27.5189404,8.72927152 27.5554967,8.84211921 27.594702,8.93324503 C27.6315232,9.01801325 27.6953642,9.05377483 27.7954967,9.05377483 L27.8135099,9.05377483 L27.8135099,9.14516556 C27.6770861,9.13907285 27.5401325,9.13350993 27.3949669,9.13350993 C27.2463576,9.13350993 27.0943046,9.13907285 26.9398675,9.14516556 L26.9398675,9.05377483 L26.973245,9.05377483 C27.0423841,9.05377483 27.1610596,9.04238411 27.1610596,8.96635762 C27.1610596,8.92635762 27.1340397,8.84476821 27.0996026,8.74754967 L26.9817219,8.39496689 L26.2921854,8.39496689 L26.1960265,8.71125828 Z" id="Fill-24" fill="#1A1919"></path>
                    <path d="M26.3682119,8.21245033 L26.8993377,8.21245033 L26.6352318,7.3986755 L26.3682119,8.21245033 Z M26.3316556,8.2389404 L26.6225166,7.35311258 L26.6389404,7.35311258 L26.6389404,7.36609272 L26.6357616,7.36715232 L26.6389404,7.36609272 L26.6389404,7.35311258 L26.647947,7.35311258 L26.9361589,8.2389404 L26.3316556,8.2389404 Z M26.9525828,9.13086093 C27.1022517,9.12609272 27.2500662,9.12 27.3949669,9.12 C27.5361589,9.12 27.6680795,9.12609272 27.8002649,9.13086093 L27.8002649,9.06781457 L27.7954967,9.06781457 C27.6919205,9.06860927 27.6203974,9.02728477 27.5827815,8.93827815 C27.5433113,8.84635762 27.5062252,8.73350993 27.4707285,8.62728477 L26.9115232,7.0394702 C26.9022517,7.01509934 26.893245,6.98781457 26.8858278,6.96609272 C26.882649,6.96291391 26.8837086,6.96291391 26.8810596,6.96291391 C26.8794702,6.96291391 26.877351,6.96291391 26.8754967,6.96291391 C26.8691391,6.96291391 26.8654305,6.96503311 26.8580132,6.96715232 C26.7992053,7.00476821 26.677351,7.06490066 26.5872848,7.08874172 C26.5687417,7.20397351 26.5141722,7.35523179 26.4744371,7.46754967 L25.9891391,8.86119205 C25.9425166,8.99311258 25.8362914,9.06781457 25.7125828,9.06781457 L25.7078146,9.06781457 L25.7078146,9.13086093 C25.8116556,9.12609272 25.9168212,9.12 26.0222517,9.12 C26.1396026,9.12 26.2596026,9.12609272 26.3756291,9.13086093 L26.3756291,9.06781457 L26.3565563,9.06781457 C26.2572185,9.06675497 26.1192053,9.05589404 26.1154967,8.94807947 C26.1154967,8.88768212 26.1525828,8.80953642 26.1825166,8.70754967 L26.1960265,8.71125828 L26.1825166,8.70701987 L26.282649,8.38278146 L26.9901987,8.38278146 L27.1117881,8.74331126 C27.1462252,8.8410596 27.1740397,8.9218543 27.1740397,8.96635762 C27.1692715,9.05933775 27.0415894,9.06622517 26.973245,9.06781457 L26.9525828,9.06781457 L26.9525828,9.13086093 Z M27.8124503,9.1581457 C27.6765563,9.15258278 27.5401325,9.14569536 27.3949669,9.14569536 C27.2463576,9.14569536 27.0953642,9.15258278 26.9398675,9.1581457 L26.9260927,9.1592053 L26.9260927,9.0402649 L26.973245,9.0402649 C27.0429139,9.0402649 27.1470199,9.02463576 27.1470199,8.96635762 C27.1475497,8.93165563 27.1210596,8.84821192 27.0874172,8.75205298 L26.9721854,8.40847682 L26.3019868,8.40847682 L26.2074172,8.71470199 C26.1764238,8.81880795 26.1406623,8.89907285 26.1406623,8.94807947 C26.1417219,9.02225166 26.2556291,9.0402649 26.3565563,9.0402649 L26.402649,9.0402649 L26.402649,9.1592053 L26.3891391,9.1581457 C26.2675497,9.15258278 26.1433113,9.14569536 26.0222517,9.14569536 C25.9133775,9.14569536 25.8039735,9.15258278 25.6950993,9.1581457 L25.6818543,9.1592053 L25.6818543,9.0402649 L25.7125828,9.0402649 C25.8256954,9.0402649 25.9194702,8.97562914 25.9631788,8.85245033 L26.4498013,7.45907285 C26.4898013,7.34622517 26.5443709,7.19523179 26.5703311,7.07470199 C26.6654305,7.0415894 26.7875497,6.98066225 26.8463576,6.94384106 C26.8548344,6.94066225 26.8630464,6.93668874 26.8754967,6.93668874 C26.882649,6.93615894 26.8993377,6.93854305 26.9086093,6.95470199 C26.9178808,6.97960265 26.9271523,7.00635762 26.9361589,7.03072848 L27.4956291,8.61907285 C27.5313907,8.72529801 27.5676821,8.83735099 27.6068874,8.92688742 C27.6421192,9.00821192 27.6980132,9.0402649 27.7954967,9.0402649 L27.826755,9.0402649 L27.826755,9.1592053 L27.8124503,9.1581457 Z" id="Fill-25" fill="#1A1919"></path>
                    <path d="M27.9472848,7.17774834 C27.7192053,7.17774834 27.7107285,7.23258278 27.6649007,7.45403974 L27.573245,7.45403974 C27.5856954,7.36900662 27.6013245,7.28423841 27.6100662,7.19576159 C27.6225166,7.11099338 27.6283444,7.02569536 27.6283444,6.93801325 L27.7011921,6.93801325 C27.7255629,7.02913907 27.8015894,7.02569536 27.8831788,7.02569536 L29.4498013,7.02569536 C29.5316556,7.02569536 29.6071523,7.02304636 29.6135099,6.93192053 L29.6863576,6.94437086 C29.674702,7.02569536 29.6630464,7.10781457 29.653245,7.19019868 C29.6460927,7.27178808 29.6460927,7.35417219 29.6460927,7.43576159 L29.5557616,7.46993377 C29.5504636,7.35708609 29.5348344,7.17774834 29.3313907,7.17774834 L28.8336424,7.17774834 L28.8336424,8.79284768 C28.8336424,9.02728477 28.9401325,9.05377483 29.0855629,9.05377483 L29.1427815,9.05377483 L29.1427815,9.14516556 C29.0249007,9.14516556 28.8124503,9.13350993 28.6484768,9.13350993 C28.4662252,9.13350993 28.253245,9.14516556 28.1345695,9.14516556 L28.1345695,9.05377483 L28.1925828,9.05377483 C28.3602649,9.05377483 28.445298,9.0392053 28.445298,8.7997351 L28.445298,7.17774834 L27.9472848,7.17774834" id="Fill-26" fill="#1A1919"></path>
                    <path d="M29.1427815,9.1581457 C29.0243709,9.1581457 28.8119205,9.14622517 28.6484768,9.14622517 C28.466755,9.14622517 28.2548344,9.1581457 28.1345695,9.1581457 L28.1221192,9.1581457 L28.1221192,9.0413245 L28.1925828,9.0413245 C28.3602649,9.03708609 28.4270199,9.03496689 28.4312583,8.7997351 L28.4312583,7.19072848 L27.9472848,7.19072848 L27.9472848,7.16476821 L28.4574834,7.16476821 L28.4574834,8.7997351 C28.4574834,9.04291391 28.3597351,9.06675497 28.1925828,9.06781457 L28.1480795,9.06781457 L28.1480795,9.13245033 C28.2680795,9.13086093 28.472053,9.12 28.6484768,9.12 C28.8068874,9.12 29.0100662,9.13086093 29.1300662,9.13245033 L29.1295364,9.06781457 L29.0850331,9.06781457 C28.9390728,9.06675497 28.8209272,9.03205298 28.8203974,8.79284768 L28.8203974,7.16476821 L29.3313907,7.16476821 C29.535894,7.16529801 29.5615894,7.33801325 29.567947,7.45086093 L29.6339073,7.42649007 C29.6339073,7.34781457 29.6339073,7.26834437 29.6402649,7.18860927 C29.6484768,7.11046358 29.6603974,7.03284768 29.6709934,6.95576159 L29.6256954,6.94754967 C29.6113907,7.03549669 29.5258278,7.0405298 29.4498013,7.0394702 L27.8831788,7.0394702 C27.877351,7.0394702 27.8723179,7.0394702 27.8678146,7.0394702 C27.7960265,7.04 27.7189404,7.03602649 27.6913907,6.95046358 L27.6415894,6.95046358 C27.6405298,7.03549669 27.6352318,7.11655629 27.6230464,7.19788079 C27.6148344,7.2815894 27.5997351,7.3613245 27.5886093,7.4410596 L27.6540397,7.4410596 C27.6937748,7.22993377 27.7197351,7.1605298 27.9472848,7.16476821 L27.9472848,7.19072848 C27.7218543,7.19470199 27.7268874,7.23258278 27.6776159,7.45695364 L27.6754967,7.46754967 L27.5578808,7.46754967 L27.56,7.45192053 C27.5721854,7.36715232 27.5875497,7.28211921 27.5965563,7.19470199 C27.6090066,7.10940397 27.6148344,7.02490066 27.6148344,6.93801325 L27.6148344,6.92476821 L27.7107285,6.92476821 L27.7133775,6.93456954 C27.7348344,7.01112583 27.7907285,7.01165563 27.8678146,7.01324503 C27.8731126,7.01324503 27.8778808,7.01324503 27.8831788,7.01324503 L29.4498013,7.01324503 C29.5337748,7.01165563 29.5954967,7.01006623 29.6005298,6.93086093 L29.6010596,6.91682119 L29.6153642,6.9194702 L29.7019868,6.93298013 L29.6993377,6.94596026 C29.6863576,7.02754967 29.6752318,7.10940397 29.6662252,7.19072848 C29.6603974,7.27178808 29.6603974,7.35417219 29.6603974,7.43576159 L29.6603974,7.44529801 L29.6511258,7.44874172 L29.5435762,7.48821192 L29.5435762,7.46993377 C29.535894,7.35629139 29.5234437,7.19072848 29.3313907,7.19072848 L28.8466225,7.19072848 L28.8466225,8.79284768 C28.8498013,9.02225166 28.9403974,9.0381457 29.0850331,9.0413245 L29.1560265,9.0413245 L29.1560265,9.1581457 L29.1427815,9.1581457" id="Fill-27" fill="#1A1919"></path>
                    <path d="M29.7984106,9.05377483 L29.8407947,9.05377483 C29.9507285,9.05377483 30.0656954,9.0392053 30.0656954,8.8807947 L30.0656954,7.29059603 C30.0656954,7.13218543 29.9507285,7.11761589 29.8407947,7.11761589 L29.7984106,7.11761589 L29.7984106,7.02569536 C29.9168212,7.02569536 30.0988079,7.03788079 30.2474172,7.03788079 C30.3992053,7.03788079 30.581457,7.02569536 30.7247682,7.02569536 L30.7247682,7.11761589 L30.6823841,7.11761589 C30.5724503,7.11761589 30.4564238,7.13218543 30.4564238,7.29059603 L30.4564238,8.8807947 C30.4564238,9.0392053 30.5724503,9.05377483 30.6823841,9.05377483 L30.7247682,9.05377483 L30.7247682,9.14516556 C30.578543,9.14516556 30.3968212,9.13350993 30.2447682,9.13350993 C30.0956291,9.13350993 29.9168212,9.14516556 29.7984106,9.14516556 L29.7984106,9.05377483" id="Fill-28" fill="#1A1919"></path>
                    <path d="M30.7581264,9.13192053 L30.7581264,9.06781457 L30.7283297,9.06781457 C30.6138769,9.06781457 30.4779816,9.04847682 30.4779816,8.8807947 L30.4779816,7.29059603 C30.4779816,7.12291391 30.6138769,7.10410596 30.7283297,7.10410596 L30.7581264,7.10410596 L30.7581264,7.0394702 C30.6110922,7.04 30.4270209,7.05139073 30.2710755,7.05139073 C30.1195856,7.05139073 29.9363498,7.04 29.8129858,7.0394702 L29.8129858,7.10410596 L29.8436179,7.10410596 C29.9569569,7.10410596 30.0934091,7.12291391 30.0934091,7.29059603 L30.0934091,8.8807947 C30.0934091,9.04847682 29.9569569,9.06781457 29.8436179,9.06781457 L29.8129858,9.06781457 L29.8129858,9.13192053 C29.9363498,9.13033113 30.116244,9.12 30.2682907,9.12 C30.4231223,9.12 30.608029,9.13086093 30.7581264,9.13192053 Z M30.7728856,9.1581457 C30.618611,9.1581457 30.4275778,9.14569536 30.2682907,9.14569536 C30.1120668,9.14569536 29.92354,9.1581457 29.7990621,9.1581457 L29.7856954,9.1581457 L29.7856954,9.0413245 L29.8436179,9.0413245 C29.9591846,9.0392053 30.0647263,9.02940397 30.0652832,8.8807947 L30.0652832,7.29059603 C30.0647263,7.14251656 29.9591846,7.13218543 29.8436179,7.13006623 L29.7856954,7.13006623 L29.7856954,7.01324503 L29.7990621,7.01324503 C29.92354,7.01324503 30.1154085,7.02490066 30.2710755,7.02490066 C30.4306411,7.02490066 30.6216742,7.01324503 30.7728856,7.01324503 L30.7856954,7.01324503 L30.7856954,7.13006623 L30.7283297,7.13006623 C30.6116491,7.13218543 30.506386,7.14251656 30.5052721,7.29059603 L30.5052721,8.8807947 C30.506386,9.02940397 30.6116491,9.0392053 30.7283297,9.0413245 L30.7856954,9.0413245 L30.7856954,9.1581457 L30.7728856,9.1581457 Z" id="Fill-29" fill="#1A1919"></path>
                    <path d="M31.9809272,9.05721854 C32.5708609,9.05721854 32.6725828,8.53801325 32.6725828,8.09562914 C32.6725828,7.65165563 32.4336424,7.11443709 31.9295364,7.11443709 C31.3984106,7.11443709 31.2405298,7.58807947 31.2405298,7.99417219 C31.2405298,8.53801325 31.4895364,9.05721854 31.9809272,9.05721854 Z M31.9353642,6.98066225 C32.5825166,6.98066225 33.098543,7.38145695 33.098543,8.02834437 C33.098543,8.72662252 32.5976159,9.19072848 31.9509934,9.19072848 C31.3064901,9.19072848 30.815894,8.75417219 30.815894,8.10066225 C30.815894,7.46993377 31.304106,6.98066225 31.9353642,6.98066225 Z" id="Fill-30" fill="#1A1919"></path>
                    <path d="M31.226755,7.99417219 C31.2278146,7.58596026 31.3880795,7.10066225 31.9295364,7.10066225 C32.4455629,7.10172185 32.6855629,7.64900662 32.6860927,8.09562914 C32.6855629,8.53801325 32.581457,9.06966887 31.9809272,9.06966887 L31.9809272,9.04450331 C32.5589404,9.04397351 32.658543,8.53801325 32.6601325,8.09562914 C32.6601325,7.65509934 32.4227815,7.12794702 31.9295364,7.12741722 C31.4087417,7.12794702 31.2545695,7.58993377 31.2535099,7.99417219 C31.2540397,8.53536424 31.5009272,9.04291391 31.9809272,9.04450331 L31.9809272,9.06966887 C31.477351,9.06913907 31.2278146,8.54092715 31.226755,7.99417219 Z M30.8018543,8.10066225 C30.8034437,7.46225166 31.2974834,6.96821192 31.9353642,6.96715232 L31.9353642,6.99390728 C31.3107285,6.99390728 30.8278146,7.47629139 30.8278146,8.10066225 C30.8286093,8.74649007 31.3133775,9.17695364 31.9509934,9.17748344 C32.5909934,9.17695364 33.0845033,8.7194702 33.0860927,8.02781457 C33.0855629,7.38940397 32.5772185,6.99443709 31.9353642,6.99390728 L31.9353642,6.96715232 C32.5872848,6.96821192 33.1101987,7.37324503 33.1112583,8.02781457 C33.1107285,8.73350993 32.6039735,9.20264901 31.9509934,9.20423841 C31.3017219,9.20264901 30.8034437,8.7602649 30.8018543,8.10066225 Z" id="Fill-31" fill="#1A1919"></path>
                    <path d="M35.1446358,8.54728477 L35.1507285,8.54092715 L35.1507285,7.40264901 C35.1507285,7.15390728 34.9777483,7.11761589 34.8855629,7.11761589 L34.8203974,7.11761589 L34.8203974,7.02569536 C34.9621192,7.02569536 35.1022517,7.03788079 35.2445033,7.03788079 C35.3698013,7.03788079 35.4940397,7.02569536 35.6180132,7.02569536 L35.6180132,7.11761589 L35.5727152,7.11761589 C35.4447682,7.11761589 35.3019868,7.14145695 35.3019868,7.50251656 L35.3019868,8.88450331 C35.3019868,8.99072848 35.3056954,9.09668874 35.3202649,9.19072848 L35.2047682,9.19072848 L33.6415894,7.44821192 L33.6415894,8.69880795 C33.6415894,8.96370861 33.6929801,9.05377483 33.9271523,9.05377483 L33.978543,9.05377483 L33.978543,9.14516556 C33.847947,9.14516556 33.7178808,9.13350993 33.5870199,9.13350993 C33.4503311,9.13350993 33.3104636,9.14516556 33.1735099,9.14516556 L33.1735099,9.05377483 L33.2164238,9.05377483 C33.4264901,9.05377483 33.4890066,8.91205298 33.4890066,8.66887417 L33.4890066,7.39019868 C33.4890066,7.22013245 33.3501987,7.11761589 33.2127152,7.11761589 L33.1735099,7.11761589 L33.1735099,7.02569536 C33.2892715,7.02569536 33.4074172,7.03788079 33.5229139,7.03788079 C33.6137748,7.03788079 33.7017219,7.02569536 33.7928477,7.02569536 L35.1446358,8.54728477" id="Fill-32" fill="#1A1919"></path>
                    <path d="M35.2047682,9.17748344 L35.3051656,9.17748344 C35.2916556,9.08635762 35.2890066,8.98490066 35.2890066,8.88450331 L35.2890066,7.50251656 C35.2890066,7.13774834 35.4423841,7.10463576 35.5727152,7.10410596 L35.6055629,7.10410596 L35.6055629,7.0394702 C35.4850331,7.04 35.3650331,7.05139073 35.2434437,7.05139073 C35.1064901,7.05139073 34.9703311,7.04 34.8328477,7.0394702 L34.8328477,7.10410596 L34.8855629,7.10410596 C34.9801325,7.10463576 35.1634437,7.14622517 35.1634437,7.40264901 L35.1597351,8.55019868 L35.1544371,8.55602649 L35.1446358,8.56635762 L33.7928477,7.0394702 C33.7033113,7.0394702 33.6148344,7.05139073 33.5229139,7.05139073 C33.4108609,7.05139073 33.2966887,7.04 33.186755,7.0394702 L33.186755,7.10410596 L33.2127152,7.10410596 C33.3557616,7.10463576 33.5025166,7.21245033 33.5025166,7.39019868 L33.5025166,8.66887417 C33.5025166,8.91205298 33.4349669,9.06675497 33.2164238,9.06781457 L33.186755,9.06781457 L33.186755,9.13192053 C33.3186755,9.13086093 33.4535099,9.12 33.5870199,9.12 C33.7136424,9.12 33.84,9.13086093 33.965298,9.13192053 L33.965298,9.06781457 L33.9260927,9.06781457 C33.6876821,9.06781457 33.6283444,8.96370861 33.6283444,8.69880795 L33.6283444,7.41403974 L35.2047682,9.17748344 Z M35.3202649,9.20423841 L35.194702,9.1997351 L33.6540397,7.48238411 L33.6540397,8.69880795 C33.6577483,8.96370861 33.6980132,9.03761589 33.9260927,9.0402649 L33.992053,9.0402649 L33.992053,9.1581457 L33.978543,9.1581457 C33.8474172,9.1581457 33.7168212,9.14622517 33.5870199,9.14622517 C33.4508609,9.14622517 33.3112583,9.1581457 33.1735099,9.1581457 L33.1610596,9.1581457 L33.1610596,9.0402649 L33.2164238,9.0402649 C33.4166887,9.0397351 33.4744371,8.91099338 33.4760265,8.66887417 L33.4760265,7.39019868 C33.4760265,7.22834437 33.3438411,7.13059603 33.2127152,7.13006623 L33.1610596,7.13006623 L33.1610596,7.01324503 L33.1735099,7.01324503 C33.2898013,7.01324503 33.4084768,7.02490066 33.5229139,7.02490066 C33.6127152,7.02490066 33.7001325,7.01324503 33.8034437,7.01774834 L35.1369536,8.5192053 L35.1369536,7.40264901 C35.1364238,7.1610596 34.9750993,7.13218543 34.8855629,7.13006623 L34.8063576,7.13006623 L34.8063576,7.01324503 L34.8198675,7.01324503 C34.962649,7.01324503 35.1033113,7.02490066 35.2434437,7.02490066 C35.3687417,7.02490066 35.4919205,7.01324503 35.6180132,7.01324503 L35.6309934,7.01324503 L35.6309934,7.13006623 L35.5727152,7.13006623 C35.447947,7.13377483 35.3184106,7.14516556 35.3157616,7.50251656 L35.3157616,8.88450331 C35.3157616,8.99019868 35.3184106,9.09615894 35.3324503,9.18887417 L35.3350993,9.20423841 L35.3202649,9.20423841 Z" id="Fill-33" fill="#1A1919"></path>
                    <path d="M36.549404,7.36609272 L36.5435762,7.36609272 L36.2609272,8.22543046 L36.8296689,8.22543046 L36.549404,7.36609272 Z M36.1059603,8.71125828 C36.0765563,8.81403974 36.0397351,8.89377483 36.0397351,8.94754967 C36.0397351,9.0392053 36.1682119,9.05377483 36.2670199,9.05377483 L36.3009272,9.05377483 L36.3009272,9.14516556 C36.1793377,9.13907285 36.0550993,9.13350993 35.9335099,9.13350993 C35.8230464,9.13350993 35.7144371,9.13907285 35.6060927,9.14516556 L35.6060927,9.05377483 L35.6227815,9.05377483 C35.7417219,9.05377483 35.842649,8.98384106 35.8874172,8.85668874 L36.3740397,7.46384106 C36.413245,7.35099338 36.4678146,7.1994702 36.4858278,7.08662252 C36.5827815,7.05350993 36.7043709,6.99284768 36.7621192,6.95629139 C36.7713907,6.95311258 36.7774834,6.95046358 36.786755,6.95046358 C36.7952318,6.95046358 36.8007947,6.95046358 36.8076821,6.9594702 C36.8169536,6.98357616 36.8254305,7.01112583 36.8354967,7.03549669 L37.3939073,8.62331126 C37.429404,8.72927152 37.466755,8.84211921 37.5059603,8.93324503 C37.5422517,9.01801325 37.6066225,9.05377483 37.706755,9.05377483 L37.7247682,9.05377483 L37.7247682,9.14516556 C37.5883444,9.13907285 37.4511258,9.13350993 37.3059603,9.13350993 C37.1570861,9.13350993 37.0047682,9.13907285 36.8500662,9.14516556 L36.8500662,9.05377483 L36.8837086,9.05377483 C36.9533775,9.05377483 37.0723179,9.04238411 37.0723179,8.96635762 C37.0723179,8.92635762 37.0445033,8.84476821 37.0108609,8.74754967 L36.8929801,8.39496689 L36.2042384,8.39496689 L36.1059603,8.71125828 Z" id="Fill-34" fill="#1A1919"></path>
                    <path d="M36.2794702,8.21192053 L36.810596,8.21192053 L36.5459603,7.3992053 L36.2794702,8.21192053 Z M36.242649,8.23788079 L36.5348344,7.35311258 L36.549404,7.35311258 L36.549404,7.36609272 L36.5464901,7.36715232 L36.549404,7.36609272 L36.549404,7.35311258 L36.5592053,7.35311258 L36.8463576,8.23788079 L36.242649,8.23788079 Z M36.8635762,9.13139073 C37.0129801,9.12609272 37.1613245,9.12 37.3059603,9.12 C37.4468874,9.12 37.5790728,9.12609272 37.7109934,9.13086093 L37.7109934,9.06781457 L37.7062252,9.06781457 C37.6037086,9.06781457 37.5313907,9.02728477 37.4937748,8.93827815 C37.453245,8.84635762 37.4172185,8.73350993 37.3809272,8.62728477 L36.8230464,7.0394702 C36.8137748,7.01509934 36.8039735,6.98781457 36.7968212,6.96715232 C36.7941722,6.96291391 36.7941722,6.96291391 36.7917881,6.96291391 C36.7907285,6.96291391 36.7886093,6.96291391 36.786755,6.96291391 C36.7801325,6.96291391 36.7769536,6.96503311 36.7687417,6.96715232 C36.7101987,7.00423841 36.5891391,7.06543046 36.4980132,7.08874172 C36.48,7.20397351 36.4243709,7.35523179 36.3859603,7.46754967 L35.8996026,8.86119205 C35.853245,8.99311258 35.7480795,9.06781457 35.6227815,9.06781457 L35.6180132,9.06781457 L35.6180132,9.13086093 C35.7229139,9.12609272 35.8278146,9.12 35.9335099,9.12 C36.0508609,9.12 36.1703311,9.12609272 36.2882119,9.13086093 L36.2882119,9.06781457 L36.2670199,9.06781457 C36.1687417,9.06675497 36.0299338,9.05589404 36.0264901,8.94754967 C36.026755,8.88768212 36.0646358,8.81006623 36.0943046,8.70754967 L36.1059603,8.71125828 L36.0943046,8.70701987 L36.1939073,8.38278146 L36.9022517,8.38278146 L37.0233113,8.74331126 C37.0574834,8.8410596 37.0845033,8.9218543 37.0845033,8.96635762 C37.08,9.05933775 36.9528477,9.06622517 36.8831788,9.06781457 L36.8635762,9.06781457 L36.8635762,9.13139073 Z M37.7239735,9.1581457 C37.5872848,9.15311258 37.4503311,9.14622517 37.3059603,9.14622517 C37.1576159,9.14622517 37.005298,9.15311258 36.850596,9.1581457 L36.8370861,9.1592053 L36.8370861,9.0413245 L36.8831788,9.0413245 C36.9536424,9.0413245 37.058543,9.02463576 37.0590728,8.96635762 C37.0596026,8.93165563 37.0323179,8.84874172 36.9978808,8.75205298 L36.882649,8.40847682 L36.2124503,8.40847682 L36.1189404,8.71470199 C36.0887417,8.81933775 36.0519205,8.89907285 36.0529801,8.94754967 C36.0529801,9.02225166 36.1666225,9.0413245 36.2670199,9.0413245 L36.3133775,9.0413245 L36.3133775,9.1592053 L36.2998675,9.1581457 C36.1788079,9.15311258 36.0540397,9.14622517 35.9335099,9.14622517 C35.824106,9.14622517 35.7154967,9.15311258 35.6060927,9.1581457 L35.5928477,9.1592053 L35.5928477,9.0413245 L35.6227815,9.0413245 C35.7361589,9.0402649 35.8312583,8.97509934 35.8752318,8.85245033 L36.3610596,7.45907285 C36.4,7.34622517 36.4548344,7.19523179 36.4810596,7.07470199 C36.5769536,7.0415894 36.6990728,6.98066225 36.757351,6.94384106 C36.765298,6.94066225 36.7745695,6.93721854 36.786755,6.93721854 C36.7941722,6.93615894 36.8100662,6.93854305 36.8201325,6.95523179 C36.8286093,6.97907285 36.8376159,7.00635762 36.8474172,7.03072848 L37.4060927,8.61907285 C37.4421192,8.72529801 37.4789404,8.83735099 37.5184106,8.92741722 C37.5541722,9.00821192 37.6087417,9.0402649 37.7062252,9.0413245 L37.7372185,9.0413245 L37.7372185,9.1592053 L37.7239735,9.1581457 Z" id="Fill-35" fill="#1A1919"></path>
                    <path d="M38.4900662,8.84768212 C38.4900662,8.96927152 38.5745695,9.00556291 38.6715232,9.01801325 C38.7962914,9.02728477 38.9324503,9.02728477 39.0728477,9.01192053 C39.1997351,8.99735099 39.3096689,8.92397351 39.3637086,8.84768212 C39.4121854,8.78066225 39.4389404,8.69615894 39.4582781,8.62887417 L39.5462252,8.62887417 C39.5125828,8.80238411 39.4701987,8.97245033 39.4333775,9.14516556 C39.1663576,9.14516556 38.8988079,9.13350993 38.6325828,9.13350993 C38.3650331,9.13350993 38.0977483,9.14516556 37.8304636,9.14516556 L37.8304636,9.05377483 L37.8723179,9.05377483 C37.9825166,9.05377483 38.1009272,9.0392053 38.1009272,8.85033113 L38.1009272,7.29059603 C38.1009272,7.13218543 37.9825166,7.11761589 37.8723179,7.11761589 L37.8304636,7.11761589 L37.8304636,7.02569536 C37.9912583,7.02569536 38.1496689,7.03788079 38.3101987,7.03788079 C38.4651656,7.03788079 38.6169536,7.02569536 38.7721854,7.02569536 L38.7721854,7.11761589 L38.6956291,7.11761589 C38.5806623,7.11761589 38.4900662,7.1207947 38.4900662,7.2815894 L38.4900662,8.84768212" id="Fill-36" fill="#1A1919"></path>
                    <path d="M39.4230464,9.13192053 C39.4582781,8.96741722 39.4980132,8.80582781 39.5298013,8.6418543 L39.4675497,8.6418543 C39.4490066,8.70860927 39.4219868,8.78993377 39.3737748,8.85562914 C39.317351,8.93483444 39.2050331,9.00874172 39.0728477,9.02463576 C38.9933775,9.03364238 38.914702,9.03708609 38.8405298,9.03708609 C38.7819868,9.03708609 38.7239735,9.03470199 38.669404,9.03099338 C38.5713907,9.01960265 38.4752318,8.97774834 38.4762914,8.84768212 L38.4762914,7.2815894 C38.4762914,7.11258278 38.5825166,7.10410596 38.6956291,7.10410596 L38.7586755,7.10410596 L38.7586755,7.0394702 C38.6092715,7.04 38.4609272,7.05139073 38.3101987,7.05139073 C38.1523179,7.05139073 37.9986755,7.04 37.8434437,7.0394702 L37.8434437,7.10410596 L37.8723179,7.10410596 C37.9809272,7.10410596 38.1133775,7.12291391 38.1133775,7.29006623 L38.1133775,8.85033113 C38.1133775,9.04688742 37.981457,9.06781457 37.8723179,9.06781457 L37.8434437,9.06781457 L37.8434437,9.13192053 C38.1051656,9.13139073 38.3684768,9.12 38.6325828,9.12 C38.8961589,9.12 39.1594702,9.13139073 39.4230464,9.13192053 Z M39.4333775,9.1581457 C39.1658278,9.1581457 38.8988079,9.14622517 38.6325828,9.14622517 C38.3650331,9.14622517 38.0977483,9.1581457 37.8299338,9.1581457 L37.8174834,9.1581457 L37.8174834,9.0413245 L37.8723179,9.0413245 C37.9825166,9.0386755 38.0871523,9.03099338 38.0882119,8.85033113 L38.0882119,7.29006623 C38.0871523,7.14251656 37.9835762,7.13218543 37.8723179,7.13006623 L37.8174834,7.13006623 L37.8174834,7.01324503 L37.8299338,7.01324503 C37.9917881,7.01324503 38.1496689,7.02490066 38.3101987,7.02490066 C38.4646358,7.02490066 38.6164238,7.01324503 38.7721854,7.01324503 L38.784106,7.01324503 L38.784106,7.13006623 L38.6956291,7.13006623 C38.5780132,7.13324503 38.5043709,7.12794702 38.5017219,7.2815894 L38.5017219,8.84768212 C38.5033113,8.9610596 38.5769536,8.99099338 38.6725828,9.00503311 C38.7255629,9.00874172 38.7825166,9.01086093 38.8405298,9.01086093 C38.914702,9.01086093 38.9917881,9.00715232 39.0712583,8.9989404 C39.1941722,8.98384106 39.3003974,8.91284768 39.3531126,8.8405298 C39.4,8.77536424 39.4264901,8.69218543 39.4445033,8.62596026 L39.4476821,8.61536424 L39.5621192,8.61536424 L39.5589404,8.63205298 C39.525298,8.80529801 39.4831788,8.97509934 39.4466225,9.14834437 L39.4434437,9.1581457 L39.4333775,9.1581457 Z" id="Fill-37" fill="#1A1919"></path>
                    <g id="Group-41">
                        <mask id="mask-2" fill="white">
                            <use xlink:href="#path-1"></use>
                        </mask>
                        <g id="Clip-39"></g>
                        <path d="M39.6100173,7.44137623 L39.6680123,7.44137623 C39.7326353,7.44137623 39.7628756,7.39286877 39.7628756,7.31451056 C39.7628756,7.23407938 39.7152368,7.2067162 39.6646983,7.2067162 L39.6100173,7.2067162 L39.6100173,7.44137623 Z M39.4405889,7.70547242 L39.4405889,7.6801822 C39.5014837,7.67230492 39.513497,7.67479248 39.513497,7.63582068 L39.513497,7.2655885 C39.513497,7.2129351 39.5076975,7.19552217 39.4422459,7.19842432 L39.4422459,7.17271952 L39.6986668,7.17271952 C39.7856594,7.17271952 39.8672667,7.21542267 39.8672667,7.3053895 C39.8672667,7.38084555 39.8183851,7.43515733 39.7492054,7.4567162 L39.8308126,7.57197325 C39.8697522,7.62296827 39.9128342,7.67230492 39.9414174,7.68930326 L39.9414174,7.70547242 L39.8440687,7.70547242 C39.7976726,7.70547242 39.7570761,7.60679912 39.6646983,7.47537291 L39.6100173,7.47537291 L39.6100173,7.6407958 C39.6100173,7.67479248 39.621202,7.67230492 39.6816826,7.6801822 L39.6816826,7.70547242 L39.4405889,7.70547242 Z M39.6891391,7.84726346 C39.9128342,7.84726346 40.084748,7.65696495 40.084748,7.44137623 C40.084748,7.2262021 39.9161482,7.03341603 39.6891391,7.03341603 C39.463787,7.03341603 39.2927016,7.2262021 39.2927016,7.44137623 C39.2927016,7.65696495 39.463787,7.84726346 39.6891391,7.84726346 Z M39.6891391,6.94013245 C39.9749717,6.94013245 40.1891391,7.1606963 40.1891391,7.44137623 C40.1891391,7.72247076 39.9749717,7.94013245 39.6891391,7.94013245 C39.4041349,7.94013245 39.1891391,7.72247076 39.1891391,7.44137623 C39.1891391,7.1606963 39.4041349,6.94013245 39.6891391,6.94013245 Z" id="Fill-38" fill="#1A1919" mask="url(#mask-2)"></path>
                        <path d="M8.4410596,5.54701987 C8.4386755,4.23549669 7.61880795,3.11708609 6.46384106,2.67417219 L6.46384106,8.41986755 C7.61880795,7.97642384 8.4386755,6.85907285 8.4410596,5.54701987 Z M4.25986755,8.41880795 L4.25986755,2.67470199 C3.10596026,3.1189404 2.28741722,4.23602649 2.28450331,5.54701987 C2.28741722,6.85801325 3.10596026,7.97509934 4.25986755,8.41880795 Z M5.36238411,0.690331126 C2.6802649,0.691390728 0.507549669,2.86490066 0.507019868,5.54701987 C0.507549669,8.22887417 2.6802649,10.4021192 5.36238411,10.402649 C8.04476821,10.4021192 10.2182781,8.22887417 10.2190728,5.54701987 C10.2182781,2.86490066 8.04476821,0.691390728 5.36238411,0.690331126 Z M5.35072848,10.8609272 C2.41562914,10.8749669 0,8.49695364 0,5.60238411 C0,2.4392053 2.41562914,0.251125828 5.35072848,0.251655629 L6.72609272,0.251655629 C9.62622517,0.251125828 12.2736424,2.4381457 12.2736424,5.60238411 C12.2736424,8.49589404 9.62622517,10.8609272 6.72609272,10.8609272 L5.35072848,10.8609272 Z" id="Fill-40" fill="#2C67A5" mask="url(#mask-2)"></path>
                    </g>
                </g>
            </g>
        </g>
    </g>
</svg>