<svg xmlns="http://www.w3.org/2000/svg" xmlns:xlink="http://www.w3.org/1999/xlink" width="48" height="32" viewBox="0 0 50 34">
    <defs>
        <rect id="a" width="48" height="32" rx="4"/>
        <path id="b" d="M12 32h32.01A3.991 3.991 0 0 0 48 28.007V18s-12.714 9.671-36 14z"/>
    </defs>
    <g fill="none" fill-rule="evenodd">
        <g transform="translate(1 1)">
            <rect width="48" height="32" x="-.5" y="-.5" stroke="#E5E5E5" rx="4"/>
            <use fill="#E6772F" xlink:href="#b"/>
        </g>
        <path fill="#1A1919" d="M9.99 18.331c-.36.31-.818.446-1.552.446h-.304v-3.702h.304c.734 0 1.175.126 1.553.452.39.337.624.856.624 1.393 0 .54-.234 1.077-.624 1.411zm-1.325-4.204H7v5.599h1.655c.881 0 1.517-.202 2.074-.648a2.772 2.772 0 0 0 1.055-2.15c0-1.653-1.281-2.801-3.119-2.801zM12.307 14.127h1.13v5.599h-1.13zM16.21 16.273c-.682-.241-.881-.402-.881-.704 0-.352.356-.619.845-.619.34 0 .62.131.917.45l.59-.744a2.586 2.586 0 0 0-1.706-.623c-1.029 0-1.812.69-1.812 1.601 0 .774.364 1.167 1.427 1.54.445.149.67.25.785.32.227.14.34.343.34.576 0 .456-.375.79-.881.79-.54 0-.976-.26-1.237-.748l-.73.682c.522.738 1.148 1.067 2.01 1.067 1.177 0 2.006-.759 2.006-1.84 0-.89-.384-1.294-1.673-1.748M18.24 16.928c0 1.646 1.34 2.922 3.068 2.922.487 0 .904-.092 1.418-.326v-1.287c-.454.44-.853.613-1.369.613-1.14 0-1.949-.795-1.949-1.93 0-1.073.834-1.922 1.9-1.922.537 0 .948.183 1.418.63v-1.286c-.497-.242-.904-.342-1.395-.342-1.717 0-3.092 1.301-3.092 2.928M31.908 17.886l-1.55-3.76h-1.236l2.464 5.741h.608l2.51-5.74H33.48l-1.571 3.759M35.22 19.726h3.213v-.949h-2.08v-1.511h2v-.949h-2v-1.242h2.08v-.948h-3.214v5.599M40.646 16.701h-.329v-1.693h.348c.708 0 1.087.286 1.087.832 0 .56-.38.861-1.106.861zm2.273-.922c0-1.049-.746-1.652-2.055-1.652h-1.683v5.599h1.136v-2.251h.148l1.565 2.251h1.395l-1.829-2.36c.855-.168 1.323-.73 1.323-1.587z"/>
        <path fill="#E6772F" d="M29.282 16.94c0 1.613-1.356 2.92-3.03 2.92-1.673 0-3.028-1.307-3.028-2.92 0-1.612 1.355-2.918 3.029-2.918 1.673 0 3.03 1.306 3.03 2.919"/>
    </g>
</svg>
