<?xml version="1.0" encoding="UTF-8"?>
<svg width="30px" height="30px" viewBox="0 0 30 30" version="1.1" xmlns="http://www.w3.org/2000/svg" xmlns:xlink="http://www.w3.org/1999/xlink">
    <!-- Generator: Sketch 51.1 (57501) - http://www.bohemiancoding.com/sketch -->
    <title>Artboard</title>
    <desc>Created with Sketch.</desc>
    <defs></defs>
    <g id="Artboard" stroke="none" stroke-width="1" fill="none" fill-rule="evenodd">
        <circle id="Oval-Copy-3" stroke="#F5F5F5" stroke-width="2" fill="#F6908F" fill-rule="nonzero" cx="15" cy="15" r="13"></circle>
        <g id="information-variant-(2)-copy-3" transform="translate(12.000000, 8.000000)" fill="#333333" fill-rule="nonzero">
            <path d="M4.71428571,0 C4.00420532,0 3.42857143,0.553060015 3.42857143,1.23529412 C3.42857143,1.91752822 4.00420532,2.47058824 4.71428571,2.47058824 C5.42436611,2.47058824 6,1.91752822 6,1.23529412 C6,0.553060015 5.42436611,0 4.71428571,0 Z M4.40571429,3.92823529 C3.38571429,4.01058824 0.6,6.14352941 0.6,6.14352941 C0.428571429,6.26705882 0.48,6.25882353 0.617142857,6.48941176 C0.754285714,6.71176471 0.737142857,6.72823529 0.9,6.62117647 C1.07142857,6.51411765 1.35428571,6.34117647 1.82571429,6.06117647 C3.64285714,4.94117647 2.11714286,7.52705882 1.33714286,11.8835294 C1.02857143,14.0411765 3.05142857,12.9294118 3.57428571,12.6 C4.08857143,12.2788235 5.46857143,11.3647059 5.60571429,11.2741176 C5.79428571,11.1505882 5.65714286,11.0517647 5.51142857,10.8458824 C5.40857143,10.7058824 5.30571429,10.8047059 5.30571429,10.8047059 C4.74857143,11.1588235 3.72857143,11.9 3.59142857,11.4305882 C3.42857143,10.9611765 4.47428571,7.74117647 5.04857143,5.52588235 C5.14285714,4.99882353 5.4,3.84588235 4.40571429,3.92823529 Z" id="Shape"></path>
        </g>
    </g>
</svg>