<?xml version="1.0" encoding="UTF-8"?><svg width="20" height="20" viewBox="0 0 20 20" xmlns="http://www.w3.org/2000/svg"><g fill="none" fill-rule="evenodd"><path d="M0 0h20v20H0z"/><path d="M10 4.75c-3.712 0-6.882 2.309-8.167 5.568 1.285 3.26 4.455 5.568 8.167 5.568 3.712 0 6.882-2.309 8.167-5.568C16.882 7.058 13.712 4.75 10 4.75zm0 9.28a3.713 3.713 0 0 1-3.712-3.712A3.713 3.713 0 0 1 10 6.606a3.713 3.713 0 0 1 3.712 3.712A3.713 3.713 0 0 1 10 14.03zm0-5.94a2.224 2.224 0 0 0-2.227 2.228c0 1.233.995 2.227 2.227 2.227a2.224 2.224 0 0 0 2.227-2.227A2.224 2.224 0 0 0 10 8.091z" fill="#6C6C6C"/></g></svg>
