<svg xmlns="http://www.w3.org/2000/svg" width="48" height="32" viewBox="0 0 50 34">
    <g fill="none" fill-rule="evenodd" transform="translate(1 1)">
        <rect width="48" height="32" x="-.5" y="-.5" fill="#FFF" stroke="#E5E5E5" rx="4"/>
        <path fill="#54B230" d="M31.245 15.611h2.158a1.215 1.215 0 0 1 .142.01 1.507 1.507 0 0 1 .093.015l.014.003a.869.869 0 0 1 .214.079.937.937 0 0 1 .357.315.968.968 0 0 1 .167.56 1.044 1.044 0 0 1-.096.435.96.96 0 0 1-.642.518l-.014.003a.451.451 0 0 1-.057.01 1.503 1.503 0 0 1-.178.014H31.245v-1.962zm2.87-2.22a.982.982 0 0 1-.07.622.855.855 0 0 1-.464.423.95.95 0 0 1-.178.05l-.009.002a.587.587 0 0 1-.062.008 1.962 1.962 0 0 1-.143.009h-1.944v-1.811h1.979a1.512 1.512 0 0 1 .17.015l.009.002a.889.889 0 0 1 .285.102.933.933 0 0 1 .214.167.846.846 0 0 1 .214.41zM38.538 4h.014v18.598a3.788 3.788 0 0 1-.335 1.55 3.782 3.782 0 0 1-.392.667l-.036.048a3.887 3.887 0 0 1-.107.133l-.036.043-.035.04a3.763 3.763 0 0 1-.072.078l-.035.037-.036.037-.035.035-.036.034a3.792 3.792 0 0 1-.214.19l-.036.028-.035.028-.036.027-.036.027-.035.026-.036.025-.036.025-.035.024-.036.024-.036.023a3.418 3.418 0 0 1-.07.044l-.037.02a3.847 3.847 0 0 1-.035.022l-.036.02-.036.02-.035.019-.036.019-.036.017-.035.018-.036.017-.036.017-.035.016-.036.016-.035.016-.036.014-.036.015-.035.014-.036.013-.036.014-.035.012-.036.013-.036.012-.035.011-.036.011-.036.011-.035.01-.036.01-.036.01-.035.009-.036.009-.036.008-.035.008-.036.008-.036.007-.035.007-.036.007-.036.006-.035.006-.036.005-.035.005-.036.005-.036.004-.035.004-.036.004-.036.003-.035.003-.036.003-.036.002-.035.002-.036.002-.036.001-.035.001H34.9l-.036.001H29.44v-7.583H35.221l.036-.001.035-.001.036-.002.036-.001.035-.003.036-.002.035-.003.036-.003.036-.004c.012 0 .024-.002.035-.004l.036-.004.036-.005.035-.005.036-.006.036-.006.035-.006.036-.007.036-.007.035-.008.036-.008.036-.01a2.715 2.715 0 0 0 .142-.039l.036-.011a2.275 2.275 0 0 0 .107-.037l.036-.014.035-.014.036-.014a2.26 2.26 0 0 0 .642-.415 1.74 1.74 0 0 0 .356-.492 1.594 1.594 0 0 0 .143-.488 1.81 1.81 0 0 0 0-.472 1.59 1.59 0 0 0-.178-.538 1.552 1.552 0 0 0-.321-.406 1.844 1.844 0 0 0-.321-.24 2.088 2.088 0 0 0-.286-.147 2.724 2.724 0 0 0-.035-.015l-.036-.014a2.684 2.684 0 0 0-.035-.014c-.012-.005-.024-.01-.036-.013a3.142 3.142 0 0 0-.143-.048l-.035-.01-.036-.01a2.727 2.727 0 0 0-.214-.05l-.036-.008-.035-.006a2.702 2.702 0 0 0-.036-.006l-.036-.006a2.779 2.779 0 0 0-.035-.005l-.036-.005-.036-.004-.035-.004-.036-.004-.036-.004-.035-.003-.033-.002v-.043l.033-.005.035-.006.036-.006.036-.007.035-.008.036-.008.036-.008.035-.009a2.495 2.495 0 0 0 .464-.173 2.12 2.12 0 0 0 .285-.177 1.67 1.67 0 0 0 .535-.69 1.582 1.582 0 0 0 .116-.61 1.837 1.837 0 0 0-.045-.398 1.547 1.547 0 0 0-.214-.494 1.472 1.472 0 0 0-.25-.287 1.725 1.725 0 0 0-.391-.268 2.222 2.222 0 0 0-.393-.159l-.035-.01a2.61 2.61 0 0 0-.072-.02l-.035-.009a2.604 2.604 0 0 0-.072-.017l-.035-.007-.036-.008-.036-.006-.035-.007-.036-.006-.035-.005-.036-.005-.036-.005-.035-.004-.036-.004-.036-.004-.035-.003-.036-.003-.036-.002-.035-.002-.015-.001-.021-.001-.036-.002-.035-.002-.036-.002-.036-.002-.035-.002h-.036l-.036-.002h-.035l-.036-.001H29.44V7.72a3.76 3.76 0 0 1 .434-1.75 3.587 3.587 0 0 1 .214-.354l.035-.051.036-.05.036-.047.035-.047.036-.045a3.347 3.347 0 0 1 .071-.086l.036-.04.035-.04a3.976 3.976 0 0 1 .107-.113l.036-.036.036-.035.035-.033.036-.033.036-.032a3.962 3.962 0 0 1 .142-.12l.036-.029.036-.027a3.857 3.857 0 0 1 .071-.053l.036-.026a3.32 3.32 0 0 1 .035-.025l.036-.024.036-.024.035-.023.036-.022.036-.022.035-.021.036-.022.036-.02.035-.02.036-.019.035-.019.036-.018.036-.018.035-.017.036-.017.036-.016.035-.016.036-.016.036-.015.035-.014.036-.014.036-.014c.012-.005.023-.01.035-.013l.036-.013.036-.013.035-.012.036-.011.036-.012.035-.01.036-.011.036-.01.035-.01.036-.009.036-.009.035-.008.036-.008.035-.008.036-.007.036-.007.035-.007.036-.006.036-.006.035-.006.036-.005.036-.005.035-.004.036-.004.036-.004.035-.003.036-.004.036-.002.035-.003.036-.002.036-.001.035-.002h.036L33.082 4h.035l.01-.001H38.536z"/>
        <path fill="#006CB9" d="M9 16.906V7.72a3.76 3.76 0 0 1 .432-1.747 3.774 3.774 0 0 1 .214-.355l.036-.051.035-.05a3.78 3.78 0 0 1 .036-.048l.035-.046.036-.045a3.568 3.568 0 0 1 .071-.086l.036-.04.035-.04.036-.039a3.559 3.559 0 0 1 .071-.074l.036-.036.035-.035.036-.033.035-.033.036-.032.036-.031.035-.03a3.433 3.433 0 0 1 .178-.142l.036-.026a3.377 3.377 0 0 1 .142-.099l.036-.023.035-.022.036-.022.035-.021.036-.022.036-.02.035-.02.036-.019.035-.019.036-.018.036-.018.035-.017.036-.017.035-.017.036-.015.036-.016.035-.015.036-.015.035-.014.036-.013.035-.014.036-.013.036-.012.035-.012.036-.012.035-.011.036-.01.036-.012.035-.01.036-.01c.012-.002.023-.006.035-.009l.036-.008.036-.01.035-.007.036-.008.035-.007.036-.007.036-.007.035-.006.036-.006.035-.006.036-.005.036-.005.035-.005.036-.004.035-.004.036-.003.035-.003.036-.003.036-.002.035-.003.036-.001.035-.002h.036L12.636 4h.035L12.707 4H18.11v18.598a3.783 3.783 0 0 1-.279 1.421 3.737 3.737 0 0 1-.64 1.036l-.036.04-.036.039-.035.038a3.777 3.777 0 0 1-.143.141l-.035.034-.036.032-.036.032-.035.03-.036.03-.035.029-.036.029-.036.027c-.011.01-.023.018-.035.027-.012.01-.024.018-.036.026l-.035.026-.036.025-.036.025-.035.024-.036.023-.035.023-.036.022-.035.021-.036.021-.036.02a3.21 3.21 0 0 1-.07.04l-.036.02-.036.018-.036.018-.035.017-.036.017-.035.017-.036.016-.036.015-.035.016-.036.014-.035.015-.036.013-.036.014-.035.013-.036.012-.035.013-.036.011-.035.012-.036.01-.036.011-.035.01-.036.01-.035.01-.036.009-.036.009-.035.008-.036.008-.035.007-.036.007-.036.007-.035.007-.036.005c-.012.002-.023.005-.035.006l-.036.006-.036.005-.035.004-.036.004-.035.005-.036.003-.035.003-.036.003-.036.003-.035.002-.036.002-.035.001-.036.001-.036.001h-.035l-.033.001H9v-7.839l.076.02.036.009.036.009.035.008.036.009.035.008.036.008.036.008.035.008.036.008.035.008.036.008.036.007.035.008.036.007.035.007.036.007.036.008.035.007.036.006.035.007.036.007.035.007.036.006.036.007.035.006.036.006.035.007.036.006.036.006.035.006.036.005.035.006.036.006.036.006.035.005.036.006.035.005.036.005.036.006.035.005.036.005.035.005.036.005.035.005.036.005.036.004.035.005.036.004.035.005.036.004.036.005.035.004.036.004.035.004.036.004.036.004.035.004.036.004.035.003.036.004.036.004.035.003.036.003.035.004.036.003.035.003.036.003.036.003.035.003.036.003.035.003.036.002.036.003.035.003.036.002.035.002.036.003.036.002.035.002.036.002.035.002.036.002.036.002.035.002.036.001.035.002.036.001.036.002.035.001.036.001.035.001.036.001.035.002h.036l.036.001.035.001h.036l.035.001h.036l.036.001H12.707l.035.001h.214l.036-.002H13.063l.035-.001.036-.001.035-.002h.036l.036-.002h.035l.036-.002.035-.002.036-.002.036-.001.035-.002.036-.002.035-.002.036-.002.036-.003.035-.002.036-.003.035-.003.036-.002.036-.004.035-.003.036-.003.035-.003.036-.004.035-.003.036-.004.036-.004.035-.004.036-.004.035-.005.036-.004.036-.005.035-.005.036-.005.035-.005.036-.006.036-.005.035-.006.036-.006.035-.006.036-.006.036-.006.035-.007.036-.007.035-.007.036-.007.036-.008.035-.007.036-.008.035-.008.036-.008.035-.009.036-.009.036-.009.035-.01.036-.009.035-.01.036-.01.036-.01.035-.01.036-.011.035-.011.036-.012.036-.012.035-.012.036-.012.035-.013.036-.013.036-.013.035-.014.036-.014.035-.015.036-.015.035-.015.036-.016.036-.016.035-.017.036-.017.035-.017.036-.019.036-.018.035-.02a3.362 3.362 0 0 0 .107-.06l.036-.022.035-.023.036-.022.035-.024.036-.024.036-.026.035-.026.036-.027a2.637 2.637 0 0 0 .106-.086l.036-.031.036-.033.035-.033a2.343 2.343 0 0 0 .071-.071l.036-.038.036-.04a2.313 2.313 0 0 0 .391-.617 2.51 2.51 0 0 0 .178-.595 3.767 3.767 0 0 0 .053-.627v-4.316H14.202l-.027 4.316a2.286 2.286 0 0 1-.045.442 1.932 1.932 0 0 1-.142.422 1.652 1.652 0 0 1-.391.515 1.591 1.591 0 0 1-.356.238 2.08 2.08 0 0 1-.32.126 1.899 1.899 0 0 1-.036.01l-.036.01a2.149 2.149 0 0 1-.213.045l-.036.005a2.631 2.631 0 0 1-.071.01l-.036.004-.035.003-.036.003a2.706 2.706 0 0 1-.071.005l-.036.002h-.035l-.036.001H12.066l-.035-.002h-.036l-.036-.002-.035-.002-.036-.002-.035-.002-.036-.002-.036-.003-.035-.002-.036-.003-.035-.004-.036-.003-.036-.004-.035-.004-.036-.004-.035-.004-.036-.005-.036-.004-.035-.005-.036-.006-.035-.005-.036-.006-.035-.005-.036-.006-.036-.007-.035-.006-.036-.007-.035-.007-.036-.007-.036-.007-.035-.007-.036-.008-.035-.008-.036-.008-.036-.008-.035-.009-.036-.008-.035-.01-.036-.008-.036-.01-.035-.01-.036-.009-.035-.01-.036-.01-.035-.01-.036-.01-.036-.01-.035-.012-.036-.01-.035-.012-.036-.011-.036-.012-.035-.011-.036-.012-.035-.012-.036-.013-.036-.012-.035-.013-.036-.013-.035-.012-.036-.014-.036-.013-.035-.014-.036-.013-.035-.014-.036-.014-.035-.014-.036-.015-.036-.014-.035-.015-.036-.015-.035-.015-.036-.015-.036-.015-.035-.016-.036-.016-.035-.015-.036-.016-.036-.017-.035-.016-.036-.016-.035-.017-.036-.017-.036-.017A13.842 13.842 0 0 1 9 16.906z"/>
        <path fill="#E10238" d="M19.296 12.526a3.355 3.355 0 0 0-.076.064V7.72a3.761 3.761 0 0 1 .432-1.747 3.774 3.774 0 0 1 .214-.354l.035-.052.036-.05.036-.047.035-.047.036-.044a3.612 3.612 0 0 1 .07-.086l.036-.041.036-.04a3.642 3.642 0 0 1 .107-.113l.035-.035.036-.035.036-.034.035-.033.036-.032.035-.031.036-.03a4.3 4.3 0 0 1 .25-.193 4.236 4.236 0 0 1 .07-.05l.036-.023.035-.024.036-.022.036-.022.035-.021.036-.021.035-.02.036-.02.036-.02.035-.019.036-.018.035-.018.036-.017.036-.017.035-.016.036-.016.035-.016.036-.015.036-.014.035-.015.036-.013.035-.014.036-.012.036-.013.035-.012.036-.012.035-.011.036-.01.036-.011.035-.01.036-.01.035-.01.036-.008.035-.009.036-.008.036-.008.035-.007.036-.007.035-.007.036-.006.036-.006.035-.006.036-.005.035-.005.036-.005.036-.004.035-.004.036-.003.035-.003.036-.003.036-.002.035-.003.036-.001.035-.002h.036L22.856 4h.035L22.907 4H28.33v18.598a3.779 3.779 0 0 1-.279 1.421 3.742 3.742 0 0 1-.32.611l-.036.054a3.893 3.893 0 0 1-.178.242l-.035.045-.036.042a3.622 3.622 0 0 1-.035.041l-.036.04-.036.04-.035.038-.036.036a3.692 3.692 0 0 1-.071.071l-.036.034-.035.034-.036.032-.035.031-.036.03-.036.03-.035.03c-.012.01-.024.02-.036.028l-.035.028-.036.027-.036.026-.035.026-.036.025-.035.025-.036.024-.036.023-.035.022-.036.023-.035.021-.036.021a3.81 3.81 0 0 1-.036.02l-.035.02-.036.02-.035.02-.036.018-.035.017-.036.018-.036.017-.035.017-.036.016-.035.015-.036.016-.036.014-.035.015-.036.013-.035.014-.036.013-.036.012-.035.013-.036.011-.035.012-.036.01-.036.011-.035.01-.036.01-.035.01-.036.009-.036.008-.035.009-.036.008-.035.007-.036.007-.035.007-.036.007-.036.005c-.012.002-.023.005-.035.006l-.036.006-.035.005-.036.004-.036.004-.035.005-.036.003-.035.003-.036.003-.036.003-.035.002-.036.002-.035.001-.036.001-.036.001h-.035l-.033.001H19.22V17.73a3.432 3.432 0 0 0 .147.12l.036.027.036.027a3.652 3.652 0 0 0 .07.05l.036.025.036.024.036.024.035.022.036.023.035.021.036.022.036.02.035.02.036.02.035.02.036.02.036.018.035.018.036.018.035.017.036.017.035.017.036.016.036.016.035.016.036.015.035.015.036.015.036.014.035.014.036.014.035.013.036.013c.012.005.024.01.036.013l.035.013.036.012.035.012.036.012.036.012.035.011.036.011.035.011.036.01.035.011.036.01.036.01.035.01.036.01.035.01.036.008.036.01.035.008.036.009.035.008.036.008.036.008.035.008.036.008.035.007.036.007.036.008.035.007.036.006.035.007.036.006.036.007.035.006.036.006.035.006.036.005.036.006.035.005.036.006.035.005.036.005.035.004.036.005.036.005.035.004.036.005.035.004.036.004.036.004.035.003.036.004.035.004.036.003.036.003.035.004.036.003.035.003.036.002.036.003.035.003.036.002.035.003.036.002.036.002.035.002.036.002.035.002.036.002.036.002.035.001.036.001.035.002.036.001.035.001.036.001.036.001.035.001.036.001h.035l.036.001.036.001H23.532l.035.001h.25l.035-.001h.036l.035-.001h.036l.036-.001.035-.001.036-.001.035-.001.036-.001.036-.001.035-.001.036-.002h.035l.036-.002.035-.002.036-.001.017-.001.019-.001.035-.002.036-.002.035-.002.036-.002.036-.002.035-.002.036-.003.035-.002.036-.003.036-.003.035-.003.036-.003.035-.003.036-.003.036-.004.035-.003.036-.004.035-.003.036-.004.036-.004.035-.004.036-.004.035-.004.036-.004.036-.005.035-.004.036-.005.035-.004.036-.005.035-.005.036-.004.036-.005.035-.005.036-.005.035-.006.036-.005.036-.005.035-.006.036-.005.035-.006.036-.005.036-.006.035-.006.036-.005.035-.006.036-.006.036-.006.035-.007.036-.006.035-.006.036-.006.036-.007.035-.006.036-.007.035-.007.036-.006.035-.007.036-.007.036-.007.035-.007.036-.007.035-.007.036-.007.036-.007.035-.008.036-.007.035-.008.036-.007.036-.008.035-.008.036-.007.035-.008.036-.008.036-.008.035-.008.036-.008.035-.009.036-.008.036-.009.035-.008.036-.01v-1.573l-.036.018-.035.018-.036.017-.036.018-.035.017-.036.017-.035.017-.036.017-.036.016-.035.016-.036.017-.035.016-.036.015-.036.016-.035.015-.036.016-.035.015-.036.015-.036.014-.035.015-.036.014-.035.014-.036.014-.036.014-.035.013-.036.013-.035.013-.036.013-.035.013-.036.012-.036.013-.035.012-.036.012-.035.011-.036.012-.036.01-.035.012-.036.01-.035.011-.036.01-.036.011-.035.01-.036.01-.035.01-.036.009-.036.01-.035.008-.036.009-.035.008-.036.009-.036.008-.035.008-.036.008-.035.007-.036.008-.035.007-.036.007-.036.007-.035.006-.036.007-.035.006-.036.006-.036.006-.035.005-.036.006-.035.005-.036.005-.036.005-.035.004-.036.005-.035.004-.036.004-.036.004-.035.004-.036.003-.035.004-.036.003-.036.003-.021.001-.014.001-.036.003-.035.002-.036.002-.036.002-.035.002h-.036l-.035.002h-.036l-.035.001h-.178l-.036-.002-.036-.001-.035-.002-.036-.002-.035-.002-.036-.002-.036-.003-.035-.003-.036-.004-.035-.003-.036-.004-.036-.005-.035-.005-.036-.005-.035-.005-.036-.006-.036-.006-.035-.007-.036-.006-.035-.008-.036-.007-.036-.009-.035-.008-.036-.009-.035-.01-.036-.01-.035-.01a3.11 3.11 0 0 1-.107-.033l-.036-.013-.035-.012-.036-.014-.036-.014-.035-.014-.036-.015-.035-.016-.036-.016a3.027 3.027 0 0 1-.107-.053l-.035-.02-.036-.02-.036-.02a2.635 2.635 0 0 1-.07-.044l-.036-.023-.036-.025a2.198 2.198 0 0 1-.036-.025l-.035-.026-.036-.028a2.383 2.383 0 0 1-.035-.029l-.036-.03a2.124 2.124 0 0 1-.356-.392 2.133 2.133 0 0 1-.249-.464 2.458 2.458 0 0 1-.107-.338 2.84 2.84 0 0 1-.071-.433 3.513 3.513 0 0 1 .036-.907 2.848 2.848 0 0 1 .106-.41 2.477 2.477 0 0 1 .178-.393 2.161 2.161 0 0 1 .427-.53l.036-.031.036-.03a2.384 2.384 0 0 1 .07-.056l.036-.027.036-.025.036-.025.035-.023a2.181 2.181 0 0 1 .071-.044l.036-.02.036-.02.035-.02a2.676 2.676 0 0 1 .071-.036l.036-.017.036-.016.035-.016.036-.015.035-.014.036-.014c.012-.005.024-.01.036-.013.011-.005.023-.01.035-.013l.036-.013a3.124 3.124 0 0 1 .107-.033l.035-.01.036-.01.035-.01.036-.009.035-.008.036-.009.036-.007.035-.008.036-.006.035-.007.036-.006.036-.006.035-.005.036-.005.035-.005.036-.004.036-.005.035-.003.036-.004.035-.003.036-.003.036-.002.035-.002.036-.002.035-.002.036-.001.036-.001h.035l.036-.001H24.208l.036.001.035.001.036.001.035.002.036.002.036.002.035.002.036.003h.014l.021.002.036.003.036.003.035.004.036.003.035.004.036.003.036.004.035.005.036.004.035.005.036.004.036.005.035.006.036.005.035.005.036.006.036.006.035.006.036.007.035.006.036.007.036.007.035.007.036.007.035.008.036.007.035.008.036.008.036.009.035.008.036.01.035.008.036.01.036.009.035.01.036.009.035.01.036.01.036.01.035.011.036.01.035.012.036.011.036.012.035.011.036.012.035.012.036.012.036.013.035.013.036.013.035.013.036.013.035.014.036.013.036.014.035.014.036.015.035.014.036.015.036.015.035.015.036.015.035.016.036.016.036.016.035.016.036.016.035.017.036.016.036.017.035.017.036.017.035.018.036.017.036.018.035.018.036.018v-1.575l-.036-.009-.035-.008-.036-.009-.036-.008-.035-.009-.036-.008-.035-.008-.036-.008-.036-.008-.035-.008-.036-.007-.035-.008-.036-.008-.036-.007-.035-.008-.036-.007-.035-.008-.036-.007-.036-.007-.035-.007-.036-.007-.035-.007-.036-.007-.036-.007-.035-.007-.036-.006-.035-.007-.036-.007-.035-.006-.036-.006-.036-.007-.035-.006-.036-.006-.035-.006-.036-.006-.036-.006-.035-.006-.036-.006-.035-.006-.036-.006-.036-.005-.035-.006-.036-.005-.035-.006-.036-.005-.036-.005-.035-.005-.036-.005-.035-.005-.036-.005-.036-.005-.035-.005-.036-.004-.035-.005-.036-.005-.035-.004-.036-.004-.036-.004-.035-.005-.036-.004-.035-.004-.036-.003-.036-.004-.035-.004-.036-.003-.035-.004-.036-.003-.036-.003-.035-.003-.036-.003-.035-.003-.036-.003-.036-.003-.035-.003-.036-.002-.035-.002-.036-.003-.036-.002-.035-.002-.036-.001-.035-.002-.019-.001h-.017l-.036-.002-.035-.002-.036-.001-.035-.002h-.036l-.035-.002-.036-.001-.036-.001-.035-.001-.036-.001h-.035l-.036-.001-.036-.001h-.035l-.036-.001H23.781l-.036-.001H23.461l-.036.001-.036.001h-.035l-.036.002h-.035l-.036.001-.036.002h-.035l-.036.002-.035.001-.036.002-.035.001-.036.002-.036.002-.035.002-.036.002-.035.002-.036.002-.036.002-.035.003-.036.002-.035.003-.036.003-.036.002-.035.003-.036.003-.035.004-.036.003-.036.003-.035.004-.036.004-.035.003-.036.004-.036.004-.035.004-.036.005-.035.004-.036.005-.036.004-.035.005-.036.005-.035.005-.036.006-.035.005-.036.006-.036.005-.035.006-.036.006-.035.006-.036.007-.036.006-.035.007-.036.007-.035.007-.036.007-.036.007-.035.007-.036.008-.035.008-.036.008-.036.008-.035.008-.036.009-.035.009-.036.009-.036.009-.035.01-.036.009-.035.01-.036.01-.036.01-.035.01-.036.01-.035.012-.036.01-.035.012-.036.012-.036.012-.035.012-.036.012-.035.013-.036.013-.036.013-.035.014-.036.013-.035.014-.036.015-.036.014-.035.015-.036.016-.035.015-.036.016-.036.017-.035.016-.036.017-.035.018-.036.017-.035.019-.036.018-.036.02-.035.019-.036.02a3.721 3.721 0 0 0-.035.02l-.036.02-.036.022a3.446 3.446 0 0 0-.035.022l-.036.022a4.094 4.094 0 0 0-.035.023l-.036.023-.036.024-.035.025a4.196 4.196 0 0 0-.071.05l-.036.027a3.755 3.755 0 0 0-.107.084z"/>
    </g>
</svg>
