<?xml version="1.0" encoding="UTF-8"?>
<svg width="48px" height="32px" viewBox="0 0 48 32" version="1.1" xmlns="http://www.w3.org/2000/svg" xmlns:xlink="http://www.w3.org/1999/xlink">
    <!-- Generator: Sketch 52.3 (67297) - http://www.bohemiancoding.com/sketch -->
    <title>payment-method/jcb</title>
    <desc>Created with Sketch.</desc>
    <defs>
        <linearGradient x1="-57.5270968%" y1="50.1241953%" x2="232.39121%" y2="50.1241953%" id="linearGradient-1">
            <stop stop-color="#007940" offset="0%"></stop>
            <stop stop-color="#00873F" offset="22.85%"></stop>
            <stop stop-color="#40A737" offset="74.33%"></stop>
            <stop stop-color="#5CB531" offset="100%"></stop>
        </linearGradient>
        <linearGradient x1="0.182516704%" y1="49.95997%" x2="100.273441%" y2="49.95997%" id="linearGradient-2">
            <stop stop-color="#007940" offset="0%"></stop>
            <stop stop-color="#00873F" offset="22.85%"></stop>
            <stop stop-color="#40A737" offset="74.33%"></stop>
            <stop stop-color="#5CB531" offset="100%"></stop>
        </linearGradient>
        <linearGradient x1="-62.8015845%" y1="49.8578253%" x2="253.671294%" y2="49.8578253%" id="linearGradient-3">
            <stop stop-color="#007940" offset="0%"></stop>
            <stop stop-color="#00873F" offset="22.85%"></stop>
            <stop stop-color="#40A737" offset="74.33%"></stop>
            <stop stop-color="#5CB531" offset="100%"></stop>
        </linearGradient>
        <linearGradient x1="0.175556793%" y1="50.0058048%" x2="101.808162%" y2="50.0058048%" id="linearGradient-4">
            <stop stop-color="#1F286F" offset="0%"></stop>
            <stop stop-color="#004E94" offset="47.51%"></stop>
            <stop stop-color="#0066B1" offset="82.61%"></stop>
            <stop stop-color="#006FBC" offset="100%"></stop>
        </linearGradient>
        <linearGradient x1="-0.575855512%" y1="49.9142191%" x2="98.13299%" y2="49.9142191%" id="linearGradient-5">
            <stop stop-color="#6C2C2F" offset="0%"></stop>
            <stop stop-color="#882730" offset="17.35%"></stop>
            <stop stop-color="#BE1833" offset="57.31%"></stop>
            <stop stop-color="#DC0436" offset="85.85%"></stop>
            <stop stop-color="#E60039" offset="100%"></stop>
        </linearGradient>
    </defs>
    <g id="Symbols" stroke="none" stroke-width="1" fill="none" fill-rule="evenodd">
        <g id="payment-method/jcb">
            <g id="Group-3">
                <path d="M3,0.5 C1.61928813,0.5 0.5,1.61928813 0.5,3 L0.5,29 C0.5,30.3807119 1.61928813,31.5 3,31.5 L45,31.5 C46.3807119,31.5 47.5,30.3807119 47.5,29 L47.5,3 C47.5,1.61928813 46.3807119,0.5 45,0.5 L3,0.5 Z" id="Rectangle-7" stroke="#E5E5E5" fill="#FFFFFF"></path>
                <g id="Group" transform="translate(10.500000, 5.000000)">
                    <path d="M28.4444446,17.4908993 C28.4444446,19.9250204 26.4623744,21.9070906 24.0282532,21.9070906 L-3.81762888e-09,21.9070906 L-3.81762888e-09,4.41619131 C-3.81762888e-09,1.98207013 1.9820701,4.10440073e-08 4.41619127,4.10440073e-08 L28.4444446,4.10440073e-08 L28.4444446,17.4908993 Z" id="Path" fill="#FFFFFF"></path>
                    <path d="M20.6204837,13.0051617 L22.4460744,13.0051617 C22.4982342,13.0051617 22.6199403,12.9877752 22.6721001,12.9877752 C23.0198317,12.9182289 23.3154034,12.6052704 23.3154034,12.1706059 C23.3154034,11.753328 23.0198317,11.4403696 22.6721001,11.3534367 C22.6199403,11.3360501 22.5156209,11.3360501 22.4460744,11.3360501 L20.6204837,11.3360501 L20.6204837,13.0051617 Z" id="Path" fill="url(#linearGradient-1)"></path>
                    <path d="M22.2374356,1.47785932 C20.4987777,1.47785932 19.073078,2.88617229 19.073078,4.64221684 L19.073078,7.92828044 L23.541429,7.92828044 C23.6457486,7.92828044 23.7674547,7.92828044 23.8543876,7.945667 C24.8628091,7.99782678 25.610432,8.51942417 25.610432,9.42352628 C25.610432,10.1363761 25.1062212,10.7449064 24.1673459,10.8666124 L24.1673459,10.9013856 C25.1931541,10.9709319 25.9755502,11.544689 25.9755502,12.4314046 C25.9755502,13.3876664 25.1062212,14.0135834 23.958707,14.0135834 L19.0556914,14.0135834 L19.0556914,20.4466179 L23.6979082,20.4466179 C25.4365663,20.4466179 26.8622658,19.0383049 26.8622658,17.2822604 L26.8622658,1.47785932 L22.2374356,1.47785932 Z" id="Path" fill="url(#linearGradient-2)"></path>
                    <path d="M23.089378,9.63216528 C23.089378,9.21488733 22.7938061,8.93670206 22.4460744,8.88454233 C22.4113014,8.88454233 22.3243684,8.86715572 22.2722088,8.86715572 L20.6204837,8.86715572 L20.6204837,10.3971748 L22.2722088,10.3971748 C22.3243684,10.3971748 22.428688,10.3971748 22.4460744,10.3797882 C22.7938061,10.3276284 23.089378,10.0494432 23.089378,9.63216528 Z" id="Path" fill="url(#linearGradient-3)"></path>
                    <path d="M4.74653629,1.47785932 C3.0078783,1.47785932 1.58217876,2.88617229 1.58217876,4.64221684 L1.58217876,12.4487911 C2.46889432,12.8834557 3.39038306,13.1616409 4.31187179,13.1616409 C5.40722631,13.1616409 5.99837006,12.5009509 5.99837006,11.5968488 L5.99837006,7.91089383 L8.7106765,7.91089383 L8.7106765,11.5794621 C8.7106765,13.0051617 7.82396089,14.1700626 4.8160826,14.1700626 C2.99049172,14.1700626 1.56479218,13.7701712 1.56479218,13.7701712 L1.56479218,20.4292313 L6.207009,20.4292313 C7.94566694,20.4292313 9.3713665,19.0209183 9.3713665,17.2648738 L9.3713665,1.47785932 L4.74653629,1.47785932 Z" id="Path" fill="url(#linearGradient-4)"></path>
                    <path d="M13.491986,1.47785932 C11.7533279,1.47785932 10.3276284,2.88617229 10.3276284,4.64221686 L10.3276284,8.78022283 C11.127411,8.10214622 12.5183374,7.66748172 14.7612062,7.77180122 C15.9608802,7.82396094 17.2474871,8.15430594 17.2474871,8.15430594 L17.2474871,9.49307261 C16.6041838,9.16272761 15.8391742,8.86715572 14.8481391,8.79760944 C13.1442543,8.67590339 12.1184461,9.51045922 12.1184461,10.9709319 C12.1184461,12.4487911 13.1442543,13.283347 14.8481391,13.1442543 C15.8391742,13.074708 16.6041838,12.7617496 17.2474871,12.4487911 L17.2474871,13.7875578 C17.2474871,13.7875578 15.9782669,14.1179029 14.7612062,14.1700626 C12.5183374,14.274382 11.127411,13.8397176 10.3276284,13.1616409 L10.3276284,20.4640044 L14.9698452,20.4640044 C16.7085032,20.4640044 18.1342027,19.0556914 18.1342027,17.2996469 L18.1342027,1.47785932 L13.491986,1.47785932 Z" id="Path" fill="url(#linearGradient-5)"></path>
                </g>
            </g>
        </g>
    </g>
</svg>