<?xml version="1.0" encoding="UTF-8"?>
<svg width="48px" height="32px" viewBox="0 0 48 32" version="1.1" xmlns="http://www.w3.org/2000/svg" xmlns:xlink="http://www.w3.org/1999/xlink">
    <!-- Generator: Sketch 52.4 (67378) - http://www.bohemiancoding.com/sketch -->
    <title>payment-method/maestro</title>
    <desc>Created with Sketch.</desc>
    <g id="Symbols" stroke="none" stroke-width="1" fill="none" fill-rule="evenodd">
        <g id="payment-method/maestro">
            <g id="Group-3">
                <path d="M3,0.5 C1.61928813,0.5 0.5,1.61928813 0.5,3 L0.5,29 C0.5,30.3807119 1.61928813,31.5 3,31.5 L45,31.5 C46.3807119,31.5 47.5,30.3807119 47.5,29 L47.5,3 C47.5,1.61928813 46.3807119,0.5 45,0.5 L3,0.5 Z" id="Rectangle-7" stroke="#E5E5E5" fill="#FFFFFF"></path>
                <g id="_Group_" transform="translate(10.000000, 7.000000)">
                    <rect id="Rectangle" fill="#7673C0" x="10.2044444" y="1.93068493" width="7.53846154" height="13.9586301"></rect>
                    <path d="M10.6830769,8.91123288 C10.6802584,6.1869433 11.8937404,3.61270954 13.9736752,1.93068493 C10.4413173,-0.929576273 5.36870978,-0.512954494 2.32074479,2.88775968 C-0.727220195,6.28847385 -0.727220195,11.5315261 2.32074479,14.9322403 C5.36870978,18.3329545 10.4413173,18.7495763 13.9736752,15.8893151 C11.8944021,14.2078244 10.6809942,11.6346572 10.6830769,8.91123288 Z" id="_Path_" fill="#EB001B"></path>
                    <path d="M27.999671,14.2142857 L27.999671,13.7142857 L27.8968665,13.7142857 L27.7779423,14.0574107 L27.659676,13.7142857 L27.5565425,13.7142857 L27.5565425,14.2142857 L27.6295748,14.2142857 L27.6295748,13.837619 L27.7407682,14.162619 L27.8164323,14.162619 L27.9276256,13.8367857 L27.9276256,14.2142857 L28,14.2142857 L27.999671,14.2142857 Z M27.3474792,14.2142857 L27.3474792,13.7999107 L27.479069,13.7999107 L27.479069,13.7155357 L27.1428571,13.7155357 L27.1428571,13.7999107 L27.2744469,13.7999107 L27.2744469,14.2142857 L27.3468213,14.2142857 L27.3474792,14.2142857 Z" id="Shape" fill="#00A1DF" fill-rule="nonzero"></path>
                    <path d="M27.911453,8.91123288 C27.9106563,12.3089592 26.0275225,15.4081272 23.0614561,16.8931168 C20.0953897,18.3781064 16.5668293,17.9883551 13.9736752,15.8893151 C16.0520411,14.2063969 17.2655403,11.6335717 17.2655403,8.91 C17.2655403,6.18642826 16.0520411,3.61360311 13.9736752,1.93068493 C16.5668078,-0.169864477 20.0963634,-0.560499639 23.0633261,0.9246837 C26.0302888,2.40986704 27.9137693,5.51012539 27.9138462,8.90876712 L27.911453,8.91123288 Z" id="Path" fill="#00A1DF"></path>
                </g>
            </g>
        </g>
    </g>
</svg>