<svg xmlns="http://www.w3.org/2000/svg" width="48" height="32" viewBox="0 0 50 34">
    <g fill="none" fill-rule="evenodd" transform="translate(1 1)">
        <rect width="49" height="33" x="-.5" y="-.5" fill="#FFF" stroke="#E5E5E5" rx="4"/>
        <g fill-rule="nonzero">
            <path fill="#000" d="M18.026 28.205v-1.551a.918.918 0 0 0-.97-.98.956.956 0 0 0-.868.44.907.907 0 0 0-.817-.44.817.817 0 0 0-.724.367v-.305h-.537v2.469h.543v-1.368a.576.576 0 0 1 .604-.656c.357 0 .538.232.538.651v1.373h.543v-1.368a.582.582 0 0 1 .605-.656c.367 0 .543.232.543.651v1.373h.54zm3.024-1.233v-1.233h-.542v.3a.936.936 0 0 0-.776-.362 1.293 1.293 0 0 0 0 2.585.936.936 0 0 0 .776-.362v.3h.537l.005-1.228zm-1.998 0a.747.747 0 1 1 .75.79.74.74 0 0 1-.755-.79h.005zm13.486-1.293c.177 0 .353.033.517.099a1.251 1.251 0 0 1 .7.685 1.37 1.37 0 0 1 0 1.034c-.064.154-.159.294-.278.41a1.293 1.293 0 0 1-.422.275c-.34.132-.719.132-1.06 0a1.261 1.261 0 0 1-.695-.685 1.373 1.373 0 0 1 0-1.034 1.261 1.261 0 0 1 .696-.685c.17-.071.353-.107.537-.106l.005.007zm0 .517a.801.801 0 0 0-.307.057.726.726 0 0 0-.409.422.897.897 0 0 0 0 .64.724.724 0 0 0 .408.421.84.84 0 0 0 .872-.162.75.75 0 0 0 .163-.258.897.897 0 0 0 0-.641.75.75 0 0 0-.163-.259.74.74 0 0 0-.259-.163.801.801 0 0 0-.31-.072l.005.015zm-8.566.776c0-.776-.481-1.293-1.171-1.293a1.293 1.293 0 0 0 .036 2.585 1.5 1.5 0 0 0 1.01-.346l-.258-.398a1.176 1.176 0 0 1-.719.258.685.685 0 0 1-.739-.605h1.833c.008-.064.008-.129.008-.201zm-1.838-.217a.636.636 0 0 1 .648-.597.613.613 0 0 1 .626.6l-1.274-.003zm4.1-.388a1.59 1.59 0 0 0-.776-.212c-.295 0-.47.109-.47.29 0 .18.186.211.418.242l.259.037c.537.077.863.305.863.739s-.413.807-1.124.807a1.781 1.781 0 0 1-1.068-.321l.259-.419c.237.176.526.267.822.259.367 0 .563-.109.563-.3 0-.14-.14-.217-.434-.259l-.259-.036c-.553-.077-.853-.326-.853-.729 0-.491.404-.79 1.034-.79.353-.013.702.077 1.006.258l-.24.434zm2.585-.14h-.877v1.114c0 .259.088.414.357.414a.993.993 0 0 0 .476-.14l.155.46a1.262 1.262 0 0 1-.672.192c-.636 0-.859-.341-.859-.915v-1.125h-.501v-.49h.501v-.75h.543v.75h.877v.49zm1.858-.553c.13 0 .26.023.383.067l-.166.517a.874.874 0 0 0-.336-.062c-.351 0-.517.228-.517.636v1.383h-.537v-2.468h.532v.3a.729.729 0 0 1 .651-.363l-.01-.01zm3.717 2.172a.259.259 0 0 1 .179.07.24.24 0 0 1-.08.398.243.243 0 0 1-.099.02c-.1 0-.19-.059-.232-.15a.243.243 0 0 1 .054-.269.259.259 0 0 1 .165-.07h.013zm0 .436a.184.184 0 0 0 .135-.056.191.191 0 0 0-.135-.326.194.194 0 0 0-.137.057.191.191 0 0 0 0 .258.191.191 0 0 0 .137.057v.01zm.016-.307a.103.103 0 0 1 .067.02.065.065 0 0 1 .023.055.062.062 0 0 1-.018.046.09.09 0 0 1-.054.024l.075.085h-.06l-.07-.085h-.023v.085h-.049v-.238l.109.008zm-.057.044v.062h.057c.01.003.02.003.031 0a.026.026 0 0 0 0-.023.026.026 0 0 0 0-.024.054.054 0 0 0-.031 0l-.057-.015z"/>
            <path fill="#7673C0" d="M19.9 6.902h8.144v14.634H19.9z"/>
            <path fill="#EB001B" d="M20.417 14.22a9.29 9.29 0 0 1 3.555-7.318 9.306 9.306 0 1 0 0 14.634 9.29 9.29 0 0 1-3.555-7.316z"/>
            <path fill="#00A1DF" d="M39.027 14.22a9.306 9.306 0 0 1-15.055 7.316 9.306 9.306 0 0 0 0-14.634 9.306 9.306 0 0 1 15.057 7.315l-.002.003z"/>
        </g>
    </g>
</svg>
