<svg xmlns="http://www.w3.org/2000/svg" xmlns:xlink="http://www.w3.org/1999/xlink" width="48" height="32" viewBox="0 0 50 34">
    <defs>
        <path id="a" d="M1.011.36h28.017v3.567H1.01z"/>
        <path id="c" d="M.534 23.238H30.4V.007H.534z"/>
    </defs>
    <g fill="none" fill-rule="evenodd">
        <rect width="48" height="32" x="-.5" y="-.5" fill="#FFF" stroke="#E5E5E5" rx="4" transform="translate(1 1)"/>
        <g transform="translate(10 6)">
            <g transform="translate(1.069 19.31)">
                <mask id="b" fill="#fff">
                    <use xlink:href="#a"/>
                </mask>
                <path fill="#231F20" d="M5.918 2.57c0-.43.282-.784.743-.784.441 0 .738.339.738.784 0 .446-.297.785-.738.785-.461 0-.743-.354-.743-.785zm1.984 0V1.345h-.534v.297c-.169-.22-.425-.359-.774-.359-.687 0-1.225.54-1.225 1.287 0 .749.538 1.287 1.225 1.287.349 0 .605-.139.774-.359v.297h.534V2.57zm18.005 0c0-.43.281-.784.743-.784.44 0 .739.339.739.784 0 .446-.298.785-.739.785-.462 0-.743-.354-.743-.785zm2.888 1c.028 0 .05.006.066.02.016.013.023.03.023.053 0 .019-.006.034-.018.045a.098.098 0 0 1-.053.023l.074.085h-.058l-.069-.084h-.022v.084h-.048V3.57h.105zm-.015.304a.186.186 0 0 0 .173-.116.186.186 0 0 0 0-.148.182.182 0 0 0-.173-.115.177.177 0 0 0-.075.015.182.182 0 0 0-.061.04.182.182 0 0 0-.04.06.169.169 0 0 0-.015.074c0 .027.005.051.015.074a.182.182 0 0 0 .1.102c.024.01.049.014.076.014zm0-.434a.25.25 0 0 1 .229.15c.012.029.019.061.019.094a.247.247 0 0 1-.248.244.256.256 0 0 1-.178-.072.244.244 0 0 1 0-.344.25.25 0 0 1 .178-.072zm-.889-.87V.36h-.533v1.282c-.17-.22-.426-.359-.774-.359-.687 0-1.225.54-1.225 1.287 0 .749.538 1.287 1.225 1.287.348 0 .604-.139.774-.359v.297h.533V2.57zm-13.376-.81c.344 0 .564.216.62.595h-1.27c.055-.353.27-.595.65-.595zm.01-.477c-.717 0-1.22.524-1.22 1.287 0 .78.523 1.287 1.256 1.287.37 0 .708-.092 1.005-.343l-.262-.395a1.16 1.16 0 0 1-.712.256c-.344 0-.656-.159-.733-.6h1.82c.005-.066.01-.133.01-.205-.005-.763-.477-1.287-1.164-1.287zm6.434 1.287c0-.43.282-.784.744-.784.442 0 .738.339.738.784 0 .446-.296.785-.738.785-.462 0-.744-.354-.744-.785zm1.985 0V1.345h-.533v.297c-.17-.22-.426-.359-.775-.359-.687 0-1.225.54-1.225 1.287 0 .749.538 1.287 1.225 1.287.35 0 .605-.139.775-.359v.297h.533V2.57zm-4.994 0c0 .744.518 1.287 1.307 1.287.37 0 .616-.082.882-.291l-.256-.431c-.2.143-.41.22-.64.22-.426-.005-.74-.313-.74-.785 0-.471.314-.779.74-.784.23 0 .44.077.64.221l.256-.43c-.266-.211-.513-.294-.882-.294-.789 0-1.307.544-1.307 1.287zm6.87-1.287a.722.722 0 0 0-.645.36v-.298h-.53v2.45h.534V2.422c0-.405.174-.63.524-.63a.87.87 0 0 1 .332.061l.165-.502a1.143 1.143 0 0 0-.38-.068zm-14.283.257c-.257-.17-.61-.257-1-.257-.62 0-1.02.297-1.02.785 0 .4.298.647.846.723l.251.036c.292.04.431.117.431.256 0 .19-.196.298-.56.298-.368 0-.635-.118-.815-.257l-.25.416c.292.215.66.317 1.06.317.708 0 1.119-.333 1.119-.8 0-.43-.323-.656-.857-.733l-.25-.036c-.232-.03-.417-.077-.417-.24 0-.18.175-.288.468-.288.312 0 .614.119.763.21l.23-.43zm6.874-.257a.725.725 0 0 0-.645.36v-.298h-.529v2.45h.534V2.422c0-.405.174-.63.523-.63.108 0 .22.015.333.061l.164-.502a1.143 1.143 0 0 0-.38-.068zm-4.546.062h-.872V.601h-.538v.744h-.498v.488h.498V2.95c0 .568.22.907.85.907.232 0 .498-.071.667-.19l-.154-.455a.982.982 0 0 1-.472.138c-.266 0-.353-.164-.353-.41V1.832h.872v-.488zm-7.968 2.45V2.257c0-.578-.369-.968-.963-.974-.314-.005-.636.093-.862.436-.169-.271-.435-.436-.81-.436-.261 0-.518.077-.717.365v-.303H1.01v2.45h.539V2.437c0-.426.235-.651.6-.651.353 0 .533.23.533.646v1.363h.538V2.437c0-.426.246-.651.6-.651.364 0 .538.23.538.646v1.363h.538z" mask="url(#b)"/>
            </g>
            <mask id="d" fill="#fff">
                <use xlink:href="#c"/>
            </mask>
            <path fill="#FF5F00" d="M11.428 16.493h8.076V1.98h-8.076z" mask="url(#d)"/>
            <path fill="#EB001B" d="M11.942 9.236a9.214 9.214 0 0 1 3.525-7.256A9.192 9.192 0 0 0 9.763.006C4.666.006.535 4.14.535 9.236s4.131 9.23 9.228 9.23a9.192 9.192 0 0 0 5.704-1.974 9.214 9.214 0 0 1-3.525-7.256" mask="url(#d)"/>
            <path fill="#F79E1B" d="M30.4 9.236c0 5.097-4.132 9.23-9.23 9.23a9.187 9.187 0 0 1-5.703-1.974 9.214 9.214 0 0 0 3.525-7.256 9.214 9.214 0 0 0-3.525-7.256A9.187 9.187 0 0 1 21.17.006c5.097 0 9.228 4.133 9.228 9.23M30.11 14.955v-.358h-.093l-.107.246-.108-.246h-.093v.358h.065v-.27l.102.232h.068l.1-.233v.27h.067zm-.591 0v-.297h.12v-.061h-.306v.06h.12v.298h.066z" mask="url(#d)"/>
        </g>
    </g>
</svg>
