<?xml version="1.0" encoding="UTF-8"?>
<svg width="48px" height="32px" viewBox="0 0 48 32" version="1.1" xmlns="http://www.w3.org/2000/svg" xmlns:xlink="http://www.w3.org/1999/xlink">
    <!-- Generator: sketchtool 49.3 (51167) - http://www.bohemiancoding.com/sketch -->
    <title>5308210A-2973-4598-9553-638302000CE5</title>
    <desc>Created with sketchtool.</desc>
    <defs>
        <rect id="path-1" x="0" y="0" width="48" height="32" rx="3"></rect>
    </defs>
    <g id="Ready" stroke="none" stroke-width="1" fill="none" fill-rule="evenodd">
        <g id="Billing---Wallet" transform="translate(-564.000000, -634.000000)">
            <g id="method/paypal" transform="translate(564.000000, 634.000000)">
                <g id="paypal">
                    <g id="Rectangle-7">
                        <use fill="#FFFFFF" fill-rule="evenodd" xlink:href="#path-1"></use>
                        <rect stroke="#E5E5E5" stroke-width="1" x="0.5" y="0.5" width="47" height="31" rx="3"></rect>
                    </g>
                    <g id="paypal-icon" transform="translate(16.000000, 7.000000)" fill-rule="nonzero">
                        <path d="M13.7762517,1.41759154 C12.8921933,0.425383666 11.2941122,0 9.24968756,0 L3.31620549,0 C2.89833372,1.52356161e-05 2.54249392,0.299195738 2.47700353,0.705578371 L0.00641122805,16.1345294 C-0.0426960765,16.4387765 0.196559279,16.7142857 0.509729377,16.7142857 L4.17285513,16.7142857 L5.09282402,10.9685138 L5.06427326,11.1484381 C5.12981311,10.7422964 5.48257359,10.4427348 5.90030291,10.4427348 L7.64101093,10.4427348 C11.0606304,10.4427348 13.7382475,9.07505979 14.5204114,5.11866058 C14.5436326,5.00164728 14.5637451,4.88775766 14.5811293,4.77649193 C14.4824071,4.72501358 14.4824071,4.72501358 14.5811293,4.77649193 C14.81404,3.3141692 14.5795431,2.31877517 13.7762517,1.41759154" id="Shape" fill="#27346A"></path>
                        <path d="M6.49446391,4.24982459 C6.5946079,4.2028695 6.70413936,4.17853632 6.8150566,4.17860267 L11.4667911,4.17860267 C12.0176294,4.17860267 12.5314151,4.21390125 13.0009156,4.28830942 C13.1322935,4.30893653 13.2629914,4.33356362 13.3928216,4.3621553 C13.5768362,4.40213952 13.7587263,4.45107607 13.9378228,4.508785 C14.1686394,4.58469257 14.3835945,4.67309522 14.5811654,4.77661691 C14.8140122,3.31369364 14.5795158,2.31883584 13.7762258,1.41762863 C12.8916616,0.425394796 11.2940911,0 9.24967031,0 L3.31569196,0 C2.89789999,0 2.54247544,0.299506925 2.47699916,0.705596832 L0.00641156215,16.1343893 C-0.042695649,16.4391442 0.196559252,16.7142857 0.509221185,16.7142857 L4.17284754,16.7142857 L6.08149384,4.79585932 C6.11959022,4.55805159 6.27399734,4.35389235 6.49446391,4.24982459 Z" id="Shape" fill="#27346A"></path>
                        <path d="M14.3762855,5.45656334 C13.6110729,9.08334378 10.991548,10.3377676 7.64597736,10.3377676 L5.94249787,10.3377676 C5.53382169,10.3377676 5.18864426,10.6124109 5.12514552,10.9847688 L4.0054448,17.5346815 C3.96360887,17.7787962 4.16819524,18 4.43584586,18 L7.45684669,18 C7.81435073,17.999912 8.11870538,17.7599419 8.17457491,17.4341031 L8.20399662,17.2920561 L8.77337489,13.9621997 L8.81005892,13.7781687 C8.86592477,13.4523513 9.17024454,13.2123879 9.52772507,13.2122718 L9.97985102,13.2122718 C12.9063176,13.2122718 15.1977966,12.1151879 15.8674198,8.9422705 C16.146926,7.61630766 16.0023003,6.50925756 15.2629092,5.73166483 C15.0386463,5.49614176 14.7601333,5.30162902 14.4356876,5.14285714 C14.4181215,5.245383 14.3990656,5.3492835 14.3762855,5.45656334 Z" id="Shape" fill="#2790C3"></path>
                        <path d="M13.8633156,4.1123467 C13.7437118,4.08000393 13.6229749,4.05136968 13.5013067,4.02649184 C13.373914,4.00055314 13.245746,3.97799501 13.11696,3.95884512 C12.6560178,3.88975789 12.1525156,3.85714457 11.6118044,3.85714457 L7.05035556,3.85714457 C6.94149516,3.85691591 6.83399626,3.87955234 6.73594667,3.92335077 C6.51946857,4.01904715 6.36790617,4.2074793 6.33088,4.42695577 L5.36133333,10.1197666 L5.33333333,10.2857143 C5.39711111,9.91112205 5.74306667,9.63483075 6.1528,9.63483075 L7.86042667,9.63483075 C11.21408,9.63483075 13.8399822,8.37339817 14.6070578,4.72433625 C14.6298933,4.61641266 14.6490578,4.51183108 14.6666667,4.40874763 C14.4724089,4.3137887 14.26216,4.23173681 14.0357333,4.16218861 C13.9785985,4.14464867 13.9211379,4.12803217 13.8633778,4.1123467" id="Shape" fill="#1F264F"></path>
                    </g>
                </g>
            </g>
        </g>
    </g>
</svg>