<svg xmlns="http://www.w3.org/2000/svg" width="48" height="32" viewBox="0 0 48 32">
    <g fill="none" fill-rule="evenodd">
        <rect width="48" height="32" fill="#FA82A0" rx="3"/>
        <g fill="#FFF" fill-rule="nonzero">
            <path d="M14.82 29c1.09 0 1.924-.755 1.924-1.867 0-1.03-.706-1.477-1.571-1.743-.554-.166-.898-.29-.898-.697 0-.34.24-.606.617-.606.32 0 .561.191.73.481l.905-.589c-.28-.647-.914-.979-1.603-.979-1.09 0-1.78.813-1.78 1.751 0 .747.433 1.328 1.507 1.651.586.175.954.29.954.772 0 .448-.312.73-.77.73-.488 0-.857-.323-1.081-.622l-.754.789c.4.564 1.058.929 1.82.929zm4.406 0c-1.154 0-2.092-.954-2.092-2.116 0-1.162.938-2.116 2.092-2.116 1.155 0 2.093.954 2.093 2.116 0 1.162-.938 2.116-2.093 2.116zm0-1.062c.561 0 1.002-.457 1.002-1.054 0-.598-.44-1.054-1.002-1.054-.56 0-1.002.456-1.002 1.054 0 .597.441 1.054 1.002 1.054zm4.792-3.793v-1.062h-.16c-1.331 0-1.98.913-1.98 1.992v3.817h1.09v-1.676c0-.556.416-.955 1.018-.971v-1.079c-.433 0-.778.133-1.019.398v-.431c0-.697.441-1.013 1.05-.988zM26.396 29c-1.154 0-2.092-.954-2.092-2.116 0-1.162.938-2.116 2.092-2.116 1.154 0 2.092.954 2.092 2.116 0 1.162-.938 2.116-2.092 2.116zm0-1.062c.561 0 1.002-.457 1.002-1.054 0-.598-.44-1.054-1.002-1.054-.561 0-1.002.456-1.002 1.054 0 .597.44 1.054 1.002 1.054zm3.741-2.606v-.456H29.08v4.016h1.09v-1.834c0-.664.377-1.037 1.034-1.037v-1.212c-.497-.016-.85.158-1.066.523zm2.78 1.51v-.979c.24.266.584.398 1.017.398v-1.078c-.593-.017-1.018-.424-1.018-.971v-.631h-1.09v3.32c0 1.078.65 1.991 1.98 1.991h.16V27.83c-.609.025-1.05-.29-1.05-.988zm2.353 2.117c.401 0 .73-.34.73-.756 0-.415-.329-.755-.73-.755-.4 0-.729.34-.729.755s.329.756.73.756zM22.776 15.22c.338.343.346.901.016 1.253l-.066.071a.851.851 0 0 1-1.22.016l-1.92-1.953c-.528-.545-.604-1.217-.268-1.572l.068-.072a.768.768 0 0 1 1.044-.07.34.34 0 0 0 .485-.059.36.36 0 0 0-.058-.497 1.447 1.447 0 0 0-1.97.134l-.066.073c-.623.657-.498 1.765.277 2.564l1.925 1.959c.62.613 1.601.598 2.2-.03l.068-.074a1.629 1.629 0 0 0-.03-2.247.34.34 0 0 0-.49.003.361.361 0 0 0 .005.502zm-1.15-10.59l.786 6.637a.347.347 0 0 0 .385.309c.19-.024.324-.2.301-.395l-.788-6.657-.008-.043c-.134-.552.2-1.17.645-1.268a.932.932 0 0 1 .723.14c.213.144.36.37.41.627l1.368 6.003c.043.19.23.31.415.265a.355.355 0 0 0 .258-.426L24.755 3.83a1.68 1.68 0 0 0-.704-1.07 1.608 1.608 0 0 0-1.248-.241c-.837.183-1.388 1.19-1.176 2.11z"/>
            <path d="M28.847 12.428l1.554-7.954c.18-.857-.315-1.716-1.139-1.967a1.71 1.71 0 0 0-2.086 1.247l-1.72 6.053a.356.356 0 0 0 .235.439.344.344 0 0 0 .428-.241l1.722-6.06c.146-.563.697-.895 1.238-.755.463.142.75.64.646 1.14l-1.555 7.96a.354.354 0 0 0 .27.416.346.346 0 0 0 .407-.278zm-3.912 7.664c-2.463 0-4.52-1.855-4.52-4.491a.35.35 0 0 0-.345-.355.35.35 0 0 0-.346.355c0 3.05 2.385 5.2 5.21 5.2a.35.35 0 0 0 .346-.354.35.35 0 0 0-.345-.355zm-1.219-6.2a.877.877 0 0 1-.34.488l-.073.05a.854.854 0 0 1-1.203-.237l-1.51-2.308c-.412-.642-.358-1.318.038-1.597l.074-.05c.51-.303.941-.074 1.386.59l1.263 1.931a.34.34 0 0 0 .479.097.36.36 0 0 0 .094-.492L22.66 10.43c-.624-.934-1.398-1.345-2.322-.794l-.096.065c-.742.523-.83 1.634-.226 2.576l1.513 2.313c.483.73 1.448.92 2.16.43l.076-.053c.303-.214.52-.527.618-.886a.356.356 0 0 0-.24-.436.344.344 0 0 0-.426.246z"/>
            <path d="M26.004 15.066c-.718.411-1.164 1.186-1.22 2.358a.351.351 0 0 0 .328.371c.191.01.353-.141.362-.337.05-1.061.452-1.634 1.102-1.885a2.29 2.29 0 0 1 1.146-.113c.445.085.58-.593.139-.695l-2.656-.609c-1.244-.35-1.431-.821-1.201-1.609.1-.343.303-.52.611-.59a1.657 1.657 0 0 1 .776.027l4.032.966a.3.3 0 0 1 .078.026.65.65 0 0 1 .204.155c.27.297.42.856.344 1.774-.263 3.22-1.725 5.218-5.19 5.187a.35.35 0 0 0-.348.351.35.35 0 0 0 .343.358c3.893.035 5.593-2.29 5.883-5.837.09-1.103-.11-1.86-.528-2.317-.23-.252-.472-.365-.658-.393l-3.987-.956a1.825 1.825 0 0 0-.18-.04 2.303 2.303 0 0 0-.919.008c-.54.123-.948.475-1.123 1.078-.332 1.137.022 2.03 1.696 2.5l.966.222z"/>
        </g>
    </g>
</svg>
