<svg xmlns="http://www.w3.org/2000/svg" width="48" height="32" viewBox="0 0 50 34">
    <g fill="none" fill-rule="evenodd" transform="translate(1 1)">
        <rect width="48" height="32" x="-.5" y="-.5" fill="#FFF" stroke="#E5E5E5" rx="4"/>
        <path fill="#01798A" d="M38.976 5.006l-8.024-.002h-.002l-.019.001c-1.102.034-2.475.932-2.725 2.038l-3.794 17.043c-.25 1.117.43 2.026 1.524 2.043h8.43c1.077-.055 2.124-.942 2.37-2.036l3.795-17.042c.254-1.129-.443-2.045-1.555-2.045"/>
        <path fill="#024381" d="M24.412 24.086l3.794-17.043c.25-1.106 1.623-2.004 2.725-2.038l-3.19-.002-5.748-.001c-1.105.023-2.496.927-2.746 2.041l-3.795 17.043c-.251 1.117.43 2.026 1.523 2.043h8.961c-1.094-.017-1.774-.926-1.524-2.043"/>
        <path fill="#DD0228" d="M15.452 24.086l3.795-17.043c.25-1.114 1.64-2.018 2.746-2.041L14.63 5c-1.112 0-2.537.914-2.79 2.043L8.043 24.086a2.165 2.165 0 0 0-.044.306v.316c.074.814.687 1.407 1.567 1.42h7.408c-1.093-.016-1.774-.925-1.523-2.042"/>
        <path fill="#FFF" d="M22.148 17.42h.14c.128 0 .214-.043.254-.13l.362-.55h.97l-.202.362h1.163l-.148.554h-1.383c-.16.244-.356.358-.592.345h-.72l.156-.58zm-.159.795h2.547l-.162.602H23.35l-.157.581h.997l-.162.602h-.997l-.232.86c-.057.143.019.207.225.193h.813l-.15.56h-1.56c-.296 0-.398-.172-.305-.517L22.118 20h-.637l.162-.602h.637l.156-.581h-.609l.162-.602zm4.066-1.479l-.04.353s.48-.366.917-.366h1.612l-.616 2.265c-.052.26-.27.388-.658.388h-1.828l-.428 1.591c-.025.086.01.13.102.13h.36l-.132.493h-.914c-.351 0-.497-.107-.44-.322l1.21-4.532h.855zm1.365.64h-1.439l-.172.612s.24-.175.64-.182c.4-.006.856 0 .856 0l.115-.43zm-.521 1.42c.106.014.166-.029.173-.13l.088-.322H25.72l-.121.451h1.301zm-.972.731h.83l-.015.365h.221c.112 0 .168-.036.168-.108l.065-.236h.69l-.092.344c-.078.287-.284.437-.62.452h-.443l-.002.623c-.008.1.08.151.264.151h.416l-.134.494h-.998c-.28.014-.417-.121-.414-.408l.064-1.677zM15.858 13.717c-.112.56-.374.991-.779 1.297-.401.3-.92.451-1.553.451-.597 0-1.035-.154-1.314-.462-.193-.22-.29-.498-.29-.835 0-.14.017-.29.05-.45l.675-3.307h1.02l-.666 3.269c-.02.09-.029.175-.028.25a.645.645 0 0 0 .123.412c.121.16.317.238.59.238.314 0 .573-.078.774-.235.2-.156.332-.377.39-.665l.67-3.27h1.014l-.676 3.307M20.144 12.416h.799l-.626 2.952h-.798l.625-2.952m.251-1.075h.806l-.15.717h-.806l.15-.717M21.65 15.143c-.209-.203-.314-.476-.315-.824a2.23 2.23 0 0 1 .043-.416c.094-.479.296-.86.607-1.14.31-.282.684-.424 1.123-.424.359 0 .644.102.852.306.209.205.313.482.313.833 0 .06-.004.13-.012.205-.01.076-.02.149-.033.22-.093.473-.294.849-.605 1.125a1.623 1.623 0 0 1-1.12.416c-.36 0-.644-.1-.853-.301m1.523-.584c.14-.155.242-.39.303-.703a1.762 1.762 0 0 0 .03-.29c0-.182-.046-.324-.137-.424-.092-.1-.221-.15-.389-.15a.694.694 0 0 0-.542.237c-.143.158-.244.397-.307.715a3.84 3.84 0 0 0-.023.146 1.075 1.075 0 0 0-.006.136c0 .18.046.32.138.419.09.099.22.148.39.148a.698.698 0 0 0 .543-.234"/>
        <path fill="#E02F41" d="M30.95 5.012l-3.209-.009 3.19.019c.006 0 .012-.01.019-.01"/>
        <path fill="#2E4F7D" d="M27.741 5.028L22.037 5c-.014 0-.029.009-.044.018l5.748.01"/>
        <path fill="#FFF" d="M29.458 17.445l.193-.688h.974l-.042.253s.498-.253.856-.253h1.205l-.191.688h-.19l-.909 3.247h.19l-.18.645h-.19l-.079.28h-.943l.078-.28h-1.86l.18-.645h.187l.91-3.247h-.189zm1.051 0l-.248.879s.425-.165.79-.212c.081-.307.187-.667.187-.667h-.729zm-.363 1.29l-.248.921s.47-.235.793-.255c.093-.355.186-.665.186-.665h-.73zm.183 1.957l.186-.668h-.727l-.187.668h.728zm2.356-3.978h.916l.039.343c-.006.088.045.13.154.13h.162l-.164.58h-.673c-.258.014-.39-.086-.402-.3l-.032-.753zm-.268 1.247h2.967l-.174.624h-.945l-.162.58h.944l-.176.623h-1.05l-.238.365h.514l.119.731c.014.073.078.108.186.108h.16l-.168.602h-.565c-.293.015-.445-.085-.457-.3l-.137-.668-.468.71c-.11.201-.28.295-.51.28h-.864l.168-.602h.27c.11 0 .203-.05.286-.15l.732-1.076h-.944l.175-.623h1.024l.163-.58h-1.025l.175-.624zM16.798 12.415h.72l-.082.427.104-.122c.234-.254.517-.38.852-.38.304 0 .522.09.66.27.135.18.172.428.108.748l-.397 2.01h-.741l.358-1.822c.037-.188.027-.329-.03-.42-.056-.09-.164-.134-.319-.134-.19 0-.35.06-.481.18a.897.897 0 0 0-.26.5l-.331 1.697h-.742l.581-2.954M25.063 12.415h.721l-.082.427.103-.122c.234-.254.518-.38.852-.38.304 0 .523.09.659.27.134.18.173.428.108.748l-.396 2.01h-.742l.359-1.822c.037-.188.027-.329-.03-.42-.058-.09-.164-.134-.318-.134-.19 0-.35.06-.483.18a.886.886 0 0 0-.259.5l-.332 1.697h-.741l.581-2.954M28.628 10.585h2.094c.403 0 .714.093.928.275.214.184.32.448.32.792v.01c0 .066-.004.14-.01.22-.01.079-.024.159-.041.242a1.875 1.875 0 0 1-.637 1.1 1.785 1.785 0 0 1-1.178.415H28.98l-.348 1.73h-.972l.967-4.784m.524 2.222h.931c.243 0 .435-.057.576-.17.14-.114.231-.29.283-.526.008-.044.013-.083.019-.12.003-.034.007-.069.007-.102 0-.17-.06-.292-.178-.369-.119-.078-.305-.115-.564-.115h-.79l-.284 1.402M36.322 15.94c-.307.663-.6 1.05-.772 1.23-.173.178-.514.592-1.335.56l.07-.506c.692-.216 1.066-1.19 1.279-1.622l-.254-3.178.535-.008h.448l.049 1.994.84-1.994h.852l-1.712 3.524M33.941 12.657l-.338.236c-.353-.281-.676-.455-1.299-.161-.848.399-1.557 3.461.779 2.453l.133.16.919.024.603-2.783-.797.07m-.522 1.522c-.148.442-.478.734-.736.651-.258-.081-.35-.508-.2-.95.147-.444.479-.735.735-.651.258.08.351.507.2.95"/>
    </g>
</svg>
