<?xml version="1.0" encoding="UTF-8"?>
<svg width="48px" height="32px" viewBox="0 0 48 32" version="1.1" xmlns="http://www.w3.org/2000/svg" xmlns:xlink="http://www.w3.org/1999/xlink">
    <!-- Generator: sketchtool 49.3 (51167) - http://www.bohemiancoding.com/sketch -->
    <title>29AF6B74-E649-4B94-A7D4-1F8F141D47BC</title>
    <desc>Created with sketchtool.</desc>
    <defs>
        <rect id="path-1" x="0" y="0" width="48" height="32" rx="3"></rect>
    </defs>
    <g id="Ready" stroke="none" stroke-width="1" fill="none" fill-rule="evenodd">
        <g id="Billing---Wallet" transform="translate(-688.000000, -634.000000)">
            <g id="method/visa" transform="translate(688.000000, 634.000000)">
                <g id="Rectangle-7">
                    <use fill="#FFFFFF" fill-rule="evenodd" xlink:href="#path-1"></use>
                    <rect stroke="#E5E5E5" stroke-width="1" x="0.5" y="0.5" width="47" height="31" rx="3"></rect>
                </g>
                <g id="visa" stroke-width="1" fill-rule="evenodd" transform="translate(6.000000, 10.000000)">
                    <g id="Group" fill="#2566AF" fill-rule="nonzero">
                        <path d="M15.5805,11.5713 L12.6606,11.5713 L14.4855,0.3561 L17.4057,0.3561 L15.5805,11.5713 Z M10.2042,0.3561 L7.4205,8.07 L7.0911,6.4089 L7.0914,6.4095 L6.1089,1.3659 C6.1089,1.3659 5.9901,0.3561 4.7238,0.3561 L0.1218,0.3561 L0.0678,0.546 C0.0678,0.546 1.4751,0.8388 3.1221,1.8279 L5.6589,11.5716 L8.7012,11.5716 L13.3467,0.3561 L10.2042,0.3561 Z M33.1707,11.5713 L35.8518,11.5713 L33.5142,0.3558 L31.167,0.3558 C30.0831,0.3558 29.8191,1.1916 29.8191,1.1916 L25.4643,11.5713 L28.5081,11.5713 L29.1168,9.9054 L32.8287,9.9054 L33.1707,11.5713 Z M29.9577,7.6041 L31.4919,3.4071 L32.355,7.6041 L29.9577,7.6041 Z M25.6926,3.0531 L26.1093,0.6447 C26.1093,0.6447 24.8235,0.1557 23.4831,0.1557 C22.0341,0.1557 18.5931,0.789 18.5931,3.8685 C18.5931,6.7659 22.6317,6.8019 22.6317,8.3238 C22.6317,9.8457 19.0092,9.573 17.8137,8.6133 L17.3796,11.1315 C17.3796,11.1315 18.6834,11.7648 20.6754,11.7648 C22.668,11.7648 25.674,10.7331 25.674,7.9251 C25.674,5.0091 21.5991,4.7376 21.5991,3.4698 C21.5994,2.2017 24.4431,2.3646 25.6926,3.0531 Z" id="Shape"></path>
                    </g>
                    <path d="M7.0914,6.4092 L6.1089,1.3656 C6.1089,1.3656 5.9901,0.3558 4.7238,0.3558 L0.1218,0.3558 L0.0678,0.5457 C0.0678,0.5457 2.2797,1.0041 4.4013,2.7216 C6.4299,4.3632 7.0914,6.4092 7.0914,6.4092 Z" id="Shape" fill="#E6A540" fill-rule="nonzero"></path>
                </g>
            </g>
        </g>
    </g>
</svg>