<svg xmlns="http://www.w3.org/2000/svg" width="48" height="32" viewBox="0 0 50 34">
    <g fill="none" fill-rule="evenodd" transform="translate(1 1)">
        <rect width="48" height="32" fill="#FFF" rx="4"/>
        <g fill-rule="nonzero">
            <path fill="#004E8C" d="M3 9.257h42.626V3H3v6.257"/>
            <path fill="#FFA336" d="M3 28.981h42.626v-6.257H3v6.257"/>
            <g fill="#004E8C">
                <path d="M17.928 11.064h2.187l-5.934 9.709h-2.58l-.233-7.682c-.01-.349-.02-.71-.15-.988a1.266 1.266 0 0 0-.608-.61 2.112 2.112 0 0 0-.948-.209v-.22h4.257l.208 6.609 3.801-6.61M20.537 20.773l3.047-9.71h-2.711l-3.047 9.71h2.711M22.112 19.95c.412.421.942.714 1.667.858.724.145 1.642.14 2.513-.01.87-.149 1.694-.444 2.276-.891.582-.447.922-1.046 1.087-1.694.166-.648.157-1.346-.192-1.891-.35-.545-1.039-.936-1.613-1.305-.574-.369-1.032-.716-1.222-1.106-.19-.39-.113-.824.11-1.102.223-.278.591-.4 1.044-.429.452-.028.99.037 1.435.163.445.125.8.311 1.102.562l.904-1.454c-.42-.302-.896-.517-1.57-.675-.673-.159-1.543-.26-2.3-.204-.755.057-1.398.271-1.967.651-.57.38-1.065.925-1.344 1.512-.278.588-.34 1.217-.169 1.762.17.544.573 1.004.988 1.333.415.329.843.528 1.219.756.376.228.7.485.874.793.174.309.198.668-.012.966-.21.298-.653.536-1.165.62-.511.084-1.09.016-1.628-.149a4.433 4.433 0 0 1-1.468-.77l-.57 1.704M32.26 18.525l-1.226 2.248h-2.187l5.817-9.71h2.463l.831 9.71h-2.565l-.18-2.248H32.26m2.573-4.714l-1.884 3.451h2.16l-.276-3.45"/>
            </g>
        </g>
        <rect width="49" height="33" x="-.5" y="-.5" stroke="#E5E5E5" rx="4"/>
    </g>
</svg>
